<?xml version="1.0" encoding="utf-8"?>
<!-- Generator: Adobe Illustrator 22.0.1, SVG Export Plug-In . SVG Version: 6.00 Build 0)  -->
<svg version="1.1" id="katman_1" xmlns="http://www.w3.org/2000/svg" xmlns:xlink="http://www.w3.org/1999/xlink" x="0px" y="0px"
	 viewBox="0 0 1705.4 589.6" style="enable-background:new 0 0 1705.4 589.6;" xml:space="preserve">
<style type="text/css">
	.st0{fill:#FFFFFF;}
	.st1{fill:#6D6E71;}
	.st2{fill:#F7941E;}
</style>
<style type="text/css">
  .navbar-dark.scrolled .face, 
  .navbar-dark.force-scrolled .face, 
  .navbar-dark.navbar-toggled-show .face, 
  .navbar-dark.scrolled .eye-inner,
  .navbar-dark.force-scrolled .eye-inner,
  .navbar-dark.navbar-toggled-show .eye-inner, 
  .face, 
  .eye-inner
  {fill:#6D6E71;}

  .navbar-dark.scrolled .eye-outer,
  .navbar-dark.force-scrolled .eye-outer, 
  .navbar-dark.navbar-toggled-show .eye-outer, 
  .eye-outer
  {fill:#FFFFFF;}

  .navbar-dark.scrolled .nose, 
  .navbar-dark.force-scrolled .nose, 
  .navbar-dark.navbar-toggled-show .nose, 
  .navbar-dark.scrolled .word, 
  .navbar-dark.force-scrolled .word, 
  .navbar-dark.navbar-toggled-show .word, 
  .navbar-dark.scrolled .hat,
  .navbar-dark.force-scrolled .hat, 
  .navbar-dark.navbar-toggled-show .hat, 
  .nose, 
  .word, 
  .hat
  {fill:#F7941E;}
  
  .navbar-dark.scrolled .word-2, 
  .navbar-dark.force-scrolled .word-2, 
  .navbar-dark.navbar-toggled-show .word-2
  {
	fill: #666
  }

  .navbar-dark .nose, 
  .navbar-dark .word, 
  .navbar-dark .word-2, 
  .navbar-dark .hat, 
  .navbar-dark .face, 
  .navbar-dark .eye-outer,
  .navbar-dark .eye-inner
  {fill:#fff;}

  .navbar-dark .eye-outer
  {fill:rgba(255,255,255,.15)}


  .navbar-dark .hat
  {fill: rgba(255,255,255,.5)}
</style>
<g>
	<g>
		<circle class="eye-outer" cx="378.7" cy="408" r="93.8"/>
		<circle class="eye-inner" cx="360" cy="389.5" r="39.1"/>
	</g>
	<g>
		<circle class="eye-outer" cx="159.9" cy="408" r="93.8"/>
		<circle class="eye-inner" cx="178.6" cy="389.5" r="39.1"/>
	</g>
	<polygon class="nose" points="240,520.7 270.4,560 300.8,520.7 270.4,483.1 	"/>
	<path class="hat" d="M271.1,178.2c-47.6,0-91.5,15.2-127.4,41v43.5c33.3-31.3,78.1-50.5,127.4-50.5c49.6,0,94.6,19.5,128,51.1
		v-43.6C363.1,193.6,318.9,178.2,271.1,178.2z"/>
	<path class="hat" d="M271.4,42.8l-241,118.1L74,179.8v21.1l-7.8,15v45.4h26.1v-46l-7.8-14.4v-16.5l48.4,21
		c0,0,37.3-44.5,138.3-44.5c102.3,0,138.3,44.5,138.3,44.5l96.2-44.5L271.4,42.8z"/>
	<path class="face" d="M466.9,330.8l43.4-43.4c0,0-18.7-3.8-56.3-3.8c-31.3,0-45.6,3.8-45.6,3.8c-36-33.6-84.3-54.3-137.4-54.3
		c-0.2,0-0.4,0-0.6,0s-0.4,0-0.6,0c-53.2,0-101.5,20.6-137.4,54.3c0,0-14.3-3.8-45.6-3.8c-37.6,0-56.3,3.8-56.3,3.8l43.4,43.4
		c-16.1,18.2-26.6,41.4-29,67c-0.3,3.6-0.5,7.2-0.5,10.8v0.1v0.1c0,7.8,0.8,15.5,2.3,22.9c0,0.2,0,0.3,0.1,0.5
		c0.1,0.6,0.3,1.1,0.4,1.6c0.7,3.2,1.5,6.3,2.4,9.4c0.3,0.9,0.6,1.8,0.9,2.6c0.9,2.7,1.8,5.3,2.9,7.9c0.5,1.1,1,2.2,1.5,3.3
		c1,2.3,2.1,4.5,3.2,6.7c0.7,1.2,1.4,2.4,2.1,3.6c1.1,2,2.3,4,3.6,5.9c0.8,1.2,1.7,2.4,2.6,3.6c1.3,1.8,2.6,3.6,4,5.3
		c0.9,1.1,1.9,2.2,2.8,3.3c0.8,0.9,1.7,1.7,2.5,2.6c0.7,0.7,1.3,1.5,2,2.2c0.6,0.6,1.2,1.1,1.8,1.7c1.6,1.6,3.2,3.1,4.8,4.5
		c1.3,1.2,2.7,2.3,4.1,3.4c1.7,1.4,3.4,2.7,5.2,4c1.5,1.1,3,2,4.5,3c1.8,1.2,3.7,2.4,5.6,3.5c1.6,0.9,3.2,1.8,4.9,2.6
		c1.9,1,3.8,2,5.8,2.9c1.7,0.8,3.6,1.5,5.3,2.2c2,0.8,3.9,1.6,5.9,2.2s4,1.1,6,1.7c1.9,0.5,3.9,1.1,5.8,1.5c2.3,0.5,4.7,0.8,7,1.2
		c1.7,0.3,3.5,0.6,5.2,0.8c3.8,0.4,7.7,0.6,11.6,0.6c0.4,0,0.7,0.1,1,0.1s0.5,0,0.8,0c3.4,0,6.7-0.2,10-0.5c0.3,0,0.6-0.1,0.9-0.1
		c1.9-0.2,3.7-0.5,5.5-0.8c1.5-0.2,3.1-0.4,4.6-0.7c1-0.2,2.1-0.4,3.1-0.6c1.6-0.4,3.2-0.8,4.8-1.2c1.7-0.4,3.5-0.8,5.2-1.3
		c0.3-0.1,0.6-0.2,0.9-0.3s0.6-0.2,1-0.4c1.5-0.5,3-1.1,4.6-1.7c1.1-0.4,2.2-0.8,3.3-1.2s2.1-0.9,3.1-1.4c0.2-0.1,0.3-0.1,0.4-0.2
		c1.4-0.6,2.8-1.3,4.1-2c0.6-0.3,1.3-0.6,1.9-0.9c1-0.5,2-1,3-1.6c0.6-0.4,1.2-0.8,1.9-1.1c1.2-0.7,2.4-1.4,3.6-2.2
		c1-0.6,2-1.1,2.9-1.8c0.6-0.4,1.2-0.9,1.9-1.4s1.3-1,1.9-1.4c1-0.7,2-1.5,3-2.2c0.4-0.3,0.9-0.6,1.3-1c1-0.8,2-1.7,3-2.6
		c0.8-0.7,1.5-1.4,2.3-2.1s1.6-1.4,2.4-2.2c1-0.9,1.9-1.8,2.9-2.8c1.2-1.3,2.4-2.6,3.5-3.9c0.4-0.5,0.9-0.9,1.4-1.4
		c0.3-0.4,0.7-0.8,1-1.2l0.1-0.1l0.1-0.1c0.5-0.6,1.1-1.2,1.6-1.9c1.4-1.7,2.7-3.5,4-5.3c0.9-1.2,1.7-2.4,2.6-3.6
		c1.3-1.9,2.4-3.9,3.6-5.9c0.7-1.2,1.4-2.4,2.1-3.6c1.2-2.2,2.2-4.5,3.2-6.7c0.3-0.6,0.6-1.3,0.9-1.9c0.3,0.6,0.6,1.3,0.9,1.9
		c1,2.3,2.1,4.5,3.2,6.7c0.7,1.2,1.4,2.4,2.1,3.6c1.1,2,2.3,4,3.6,5.9c0.8,1.2,1.7,2.4,2.6,3.6c1.3,1.8,2.6,3.6,4,5.3
		c0.5,0.6,1.1,1.3,1.6,1.9l0.1,0.1l0.1,0.1c0.3,0.4,0.7,0.8,1,1.2c0.4,0.5,0.9,0.9,1.4,1.4c1.2,1.3,2.3,2.6,3.5,3.9
		c0.9,1,1.9,1.9,2.9,2.8c0.8,0.7,1.6,1.4,2.4,2.2c0.8,0.7,1.5,1.4,2.3,2.1c1,0.9,2,1.7,3,2.6c0.4,0.3,0.9,0.6,1.3,1
		c1,0.8,2,1.5,3,2.2c0.6,0.5,1.3,1,1.9,1.4s1.2,0.9,1.9,1.4c0.9,0.6,2,1.2,2.9,1.8c1.2,0.7,2.4,1.5,3.6,2.2c0.6,0.4,1.2,0.8,1.9,1.1
		c1,0.5,2,1.1,3,1.6c0.6,0.3,1.3,0.6,1.9,0.9c1.4,0.7,2.7,1.4,4.1,2c0.2,0.1,0.3,0.1,0.4,0.2c1,0.5,2.1,0.9,3.1,1.4
		c1.1,0.4,2.2,0.8,3.3,1.2c1.5,0.6,3,1.2,4.6,1.7c0.3,0.1,0.6,0.2,1,0.4c0.3,0.1,0.6,0.2,0.9,0.3c1.7,0.5,3.5,0.9,5.2,1.3
		c1.6,0.4,3.2,0.9,4.8,1.2c1,0.2,2,0.4,3.1,0.6c1.5,0.3,3.1,0.5,4.6,0.7c1.8,0.3,3.6,0.6,5.5,0.8c0.3,0,0.6,0.1,0.9,0.1
		c3.3,0.3,6.6,0.5,10,0.5c0.3,0,0.5,0,0.8,0c0.4,0,0.7-0.1,1-0.1c3.9,0,7.8-0.2,11.6-0.6c1.8-0.2,3.5-0.6,5.2-0.8
		c2.4-0.4,4.7-0.7,7-1.2c2-0.4,3.9-1,5.8-1.5c2-0.5,4-1,6-1.7s4-1.5,5.9-2.2c1.8-0.7,3.6-1.4,5.3-2.2c2-0.9,3.9-1.9,5.8-2.9
		c1.6-0.8,3.3-1.7,4.9-2.6c1.9-1.1,3.7-2.3,5.6-3.5c1.5-1,3-2,4.5-3c1.8-1.3,3.5-2.6,5.2-4c1.4-1.1,2.7-2.2,4.1-3.4
		c1.7-1.5,3.3-3,4.8-4.5c0.6-0.6,1.2-1.1,1.8-1.7c0.7-0.7,1.3-1.5,2-2.2c0.8-0.9,1.7-1.7,2.5-2.6c0.9-1.1,1.9-2.2,2.8-3.3
		c1.4-1.7,2.7-3.5,4-5.3c0.9-1.2,1.7-2.4,2.6-3.6c1.3-1.9,2.4-3.9,3.6-5.9c0.7-1.2,1.4-2.4,2.1-3.6c1.2-2.2,2.2-4.5,3.2-6.7
		c0.5-1.1,1-2.2,1.5-3.3c1.1-2.6,2-5.2,2.9-7.9c0.3-0.9,0.6-1.7,0.9-2.6c0.9-3.1,1.7-6.2,2.4-9.4c0.1-0.5,0.3-1.1,0.4-1.6
		c1.5-7.5,2.4-15.3,2.4-23.3v-0.1v-0.1c-0.4-3.7-0.6-7.3-0.9-10.9C493.5,372.2,483,349,466.9,330.8z M159.9,501.8
		c-51.8,0-93.8-42-93.8-93.8s42-93.8,93.8-93.8s93.8,42,93.8,93.8S211.7,501.8,159.9,501.8z M378.7,501.8c-51.8,0-93.8-42-93.8-93.8
		s42-93.8,93.8-93.8s93.8,42,93.8,93.8S430.5,501.8,378.7,501.8z"/>
</g>
<g class="st3" style="transform:translate(0, 50px);">
	<path class="word-2" d="M1406.6,141.8V46.3h38.3c9.7,0,17.2,2.2,22.7,6.5s8.2,10.5,8.2,18.4c0,5.5-1.5,10.2-4.5,14s-7.1,6.5-12.4,8.1
		v-1.1c6,1.2,10.7,3.8,14.1,7.9c3.4,4.1,5.1,9.3,5.1,15.6c0,8.4-2.8,14.8-8.3,19.3s-13.4,6.7-23.5,6.7h-39.7V141.8z M1417.5,88.7
		h25.7c7.2,0,12.7-1.4,16.3-4.3s5.4-7.1,5.4-12.6s-1.8-9.5-5.4-12.3c-3.6-2.7-9-4.1-16.4-4.1h-25.6V88.7z M1417.5,132.7h27.9
		c7.5,0,13-1.4,16.6-4.2c3.5-2.8,5.3-7.1,5.3-13c0-5.8-1.8-10.2-5.4-13.1c-3.6-3-9.1-4.4-16.5-4.4h-27.9V132.7z"/>
	<path class="word-2" d="M1551.8,133.7c-2.9,2.8-6.7,5-11.3,6.6s-9.3,2.4-14.1,2.4c-7,0-13-1.4-18-4.2c-5.1-2.8-8.9-6.8-11.7-12
		c-2.7-5.2-4.1-11.5-4.1-18.7c0-7,1.3-13.1,4-18.4c2.7-5.3,6.4-9.4,11.2-12.3c4.8-2.9,10.3-4.4,16.6-4.4c6,0,11.1,1.3,15.4,4
		c4.3,2.6,7.6,6.4,9.9,11.3s3.4,10.8,3.4,17.7v2h-51v-7.1h44.8l-3.5,5c0.2-7.9-1.4-13.9-4.6-18.1c-3.3-4.2-8-6.3-14.3-6.3
		c-6.5,0-11.6,2.3-15.4,6.9c-3.7,4.6-5.6,11-5.6,19.1c0,8.8,1.9,15.4,5.8,19.8c3.9,4.5,9.6,6.7,17.1,6.7c3.9,0,7.7-0.6,11.3-1.9
		s7.1-3.3,10.4-6L1551.8,133.7z"/>
	<path class="word-2" d="M1559.6,82.9v-8.6h43.3v8.6H1559.6z M1602.6,132.1v9.3c-1.5,0.4-3,0.8-4.5,1s-3.1,0.3-4.9,0.3
		c-6.3,0-11.2-1.8-15-5.4c-3.7-3.6-5.6-8.9-5.6-16.1V57l10.9-3.9v66.6c0,3.6,0.5,6.3,1.5,8.3s2.4,3.3,4.2,4.1c1.8,0.8,3.8,1.1,6,1.1
		c1.3,0,2.5-0.1,3.6-0.3C1600.1,132.9,1601.3,132.6,1602.6,132.1z"/>
	<path class="word-2" d="M1641.9,142.7c-6,0-11.2-1.4-15.8-4.2c-4.5-2.8-8-6.8-10.5-12.1c-2.5-5.2-3.7-11.4-3.7-18.4
		c0-7.1,1.3-13.2,3.8-18.5s6-9.4,10.5-12.3s9.7-4.4,15.6-4.4c6.2,0,11.4,1.5,15.7,4.6c4.3,3,7.2,7.4,8.7,13l-1.6,1.1v-17h10.7v67.4
		h-10.7v-17.4l1.6,0.8c-1.5,5.6-4.4,10-8.7,13C1653.3,141.2,1648.1,142.7,1641.9,142.7z M1644.1,133.7c6.6,0,11.7-2.3,15.3-6.8
		s5.4-10.9,5.4-19.2c0-8.3-1.8-14.7-5.4-19.2s-8.7-6.7-15.2-6.7c-6.6,0-11.8,2.3-15.5,6.9c-3.7,4.6-5.6,11-5.6,19.2s1.9,14.6,5.6,19
		C1632.3,131.5,1637.4,133.7,1644.1,133.7z"/>
</g>
<g>
	<path class="word" d="M714.3,413.4c-20.3,0-37.9-4.3-52.7-12.9s-26.3-20.9-34.3-36.9s-12-34.9-12-56.8c0-22.1,4-41,12-57
		c8-15.9,19.4-28.2,34.3-36.8c14.8-8.6,32.4-12.9,52.7-12.9c20.5,0,38.2,4.3,53,12.9c14.8,8.6,26.3,20.8,34.3,36.8
		c8,15.9,12,34.8,12,56.7c0,22.1-4.1,41.1-12.2,57.1c-8.1,16-19.5,28.3-34.3,36.9C752.4,409.1,734.8,413.4,714.3,413.4z
		 M714.3,383.5c19.1,0,34.2-6.6,45.1-19.8c10.9-13.2,16.4-32.3,16.4-57.3s-5.5-44-16.4-57s-26-19.5-45.1-19.5
		c-18.9,0-33.9,6.5-44.8,19.5c-10.9,13-16.4,32-16.4,57s5.5,44.1,16.4,57.3C680.4,376.9,695.4,383.5,714.3,383.5z"/>
	<path class="word" d="M868.7,411l-58-147.9h37.8l41.6,114.5h-7.3l41.9-114.5h26.7L993,377.6h-6.7l41.6-114.5h35.4l-58,147.9h-31.9
		l-45.1-119.2H945L900.8,411H868.7z"/>
	<path class="word" d="M1064,411V195.5h36.6v215.6H1064V411z"/>
	<path class="word" d="M1245.3,394.6c-7,5.9-15.7,10.4-25.9,13.6s-20.6,4.8-31.2,4.8c-16,0-29.8-3-41.4-9.1
		c-11.6-6-20.6-14.8-26.8-26.4c-6.3-11.5-9.4-25.2-9.4-41c0-15.2,3-28.7,9.1-40.3c6-11.6,14.4-20.7,25.2-27.2
		c10.7-6.5,23.1-9.8,37.2-9.8c13.7,0,25.4,3,35.1,8.9c9.8,6,17.3,14.5,22.7,25.6c5.4,11.1,8.1,24.3,8.1,39.5v5.6h-105.1l0.3-19.6
		h83.2l-10,10c0.2-14.3-2.6-25.1-8.3-32.5c-5.8-7.4-14.1-11.1-25-11.1c-11.7,0-20.8,4.2-27.2,12.4c-6.4,8.3-9.7,20.2-9.7,35.6
		c0,17.6,3.6,30.5,10.8,38.8c7.2,8.3,18.2,12.4,32.8,12.4c8,0,15.9-1.3,23.6-4c7.7-2.6,14.9-6.5,21.5-11.6L1245.3,394.6z"/>
	<path class="word" d="M1324.7,476.4c-22.8,0-42.9-4.7-60-14.1l5.9-27.8c9,4.7,17.8,8.2,26.5,10.4c8.7,2.2,17.7,3.4,27.1,3.4
		c13.1,0,22.9-3.2,29.6-9.7c6.6-6.4,10-16.2,10-29.3v-36.6h3.5c-2.3,6.3-6,12-11,17.1c-5,5.2-11,9.3-18,12.3s-14.7,4.5-23.1,4.5
		c-12.9,0-24.3-3-34.3-9.1c-10-6-17.7-14.6-23.3-25.6c-5.6-11-8.3-24-8.3-38.8s2.8-27.8,8.3-38.8c5.6-11,13.3-19.6,23.3-25.8
		c10-6.2,21.4-9.2,34.3-9.2c12.7,0,23.7,3.1,33.1,9.4s15.7,14.6,19,25.2l-3.5,0.6v-31.3h36.3v143.2c0,23-6.3,40.5-19,52.3
		C1368.2,470.4,1349.5,476.4,1324.7,476.4z M1325,378.2c12.1,0,21.6-4,28.4-12s10.3-19,10.3-33.1s-3.4-25.1-10.3-33.1
		c-6.8-8-16.3-12-28.4-12c-12.3,0-22,4-29,12s-10.5,19-10.5,33.1s3.5,25.1,10.5,33.1S1312.7,378.2,1325,378.2z"/>
	<path class="word" d="M1544.3,394.6c-7,5.9-15.7,10.4-25.9,13.6s-20.6,4.8-31.2,4.8c-16,0-29.8-3-41.4-9.1
		c-11.6-6-20.6-14.8-26.8-26.4c-6.3-11.5-9.4-25.2-9.4-41c0-15.2,3-28.7,9.1-40.3c6-11.6,14.4-20.7,25.2-27.2
		c10.7-6.5,23.1-9.8,37.2-9.8c13.7,0,25.4,3,35.1,8.9c9.8,6,17.3,14.5,22.7,25.6c5.4,11.1,8.1,24.3,8.1,39.5v5.6h-105.1l0.3-19.6
		h83.2l-10,10c0.2-14.3-2.6-25.1-8.3-32.5c-5.8-7.4-14.1-11.1-25-11.1c-11.7,0-20.8,4.2-27.2,12.4c-6.4,8.3-9.7,20.2-9.7,35.6
		c0,17.6,3.6,30.5,10.8,38.8c7.2,8.3,18.2,12.4,32.8,12.4c8,0,15.9-1.3,23.6-4c7.7-2.6,14.9-6.5,21.5-11.6L1544.3,394.6z"/>
</g>
</svg>
