<?xml version="1.0" encoding="utf-8"?>
<!-- Generator: Adobe Illustrator 22.0.1, SVG Export Plug-In . SVG Version: 6.00 Build 0)  -->
<svg version="1.1" id="katman_1" xmlns="http://www.w3.org/2000/svg" xmlns:xlink="http://www.w3.org/1999/xlink" x="0px" y="0px"
   viewBox="0 0 1075.7 506.8" style="enable-background:new 0 0 1075.7 506.8;" xml:space="preserve">
<style type="text/css">
  .st0{fill:#FFFFFF;}
  .st1{fill:#6D6E71;}
  .st2{fill:#F7941E;}
  .st3{enable-background:new    ;}
  .st4{fill:#4F4F4F;}
</style>
<style type="text/css">
  .navbar-dark.scrolled .surat, 
  .navbar-dark.force-scrolled .surat, 
  .navbar-dark.navbar-toggled-show .surat, 
  .navbar-dark.scrolled .goz-ic,
  .navbar-dark.force-scrolled .goz-ic,
  .navbar-dark.navbar-toggled-show .goz-ic, 
  .surat, 
  .goz-ic
  {fill:#6D6E71;}

  .navbar-dark.scrolled .goz-dis,
  .navbar-dark.force-scrolled .goz-dis, 
  .navbar-dark.navbar-toggled-show .goz-dis, 
  .goz-dis
  {fill:#FFFFFF;}

  .navbar-dark.scrolled .burun, 
  .navbar-dark.force-scrolled .burun, 
  .navbar-dark.navbar-toggled-show .burun, 
  .navbar-dark.scrolled .yazi, 
  .navbar-dark.force-scrolled .yazi, 
  .navbar-dark.navbar-toggled-show .yazi, 
  .navbar-dark.scrolled .sapka,
  .navbar-dark.force-scrolled .sapka, 
  .navbar-dark.navbar-toggled-show .sapka, 
  .burun, 
  .yazi, 
  .sapka
  {fill:#F7941E;}


  .navbar-dark .burun, 
  .navbar-dark .yazi, 
  .navbar-dark .sapka, 
  .navbar-dark .surat, 
  .navbar-dark .goz-dis,
  .navbar-dark .goz-ic
  {fill:#fff;}

  .navbar-dark .goz-dis
  {fill:rgba(255,255,255,.15)}


  .navbar-dark .sapka
  {fill: rgba(255,255,255,.5)}
</style>
<g>
  <g>
    <circle class="goz-dis" cx="362.7" cy="360" r="93.8"/>
    <circle class="goz-ic" cx="344" cy="341.5" r="39.1"/>
  </g>
  <g>
    <circle class="goz-dis" cx="143.9" cy="360" r="93.8"/>
    <circle class="goz-ic" cx="162.6" cy="341.5" r="39.1"/>
  </g>
  <polygon class="burun" points="224,472.7 254.4,512 284.8,472.7 254.4,435.1  "/>
  <path class="sapka" d="M255.1,130.2c-47.6,0-91.5,15.2-127.4,41v43.5c33.3-31.3,78.1-50.5,127.4-50.5c49.6,0,94.6,19.5,128,51.1
    v-43.6C347.1,145.6,302.9,130.2,255.1,130.2z"/>
  <path class="sapka" d="M255.4-5.2l-241,118.1L58,131.8v21.1l-7.8,15v45.4h26.1v-46l-7.8-14.4v-16.5l48.4,21c0,0,37.3-44.5,138.3-44.5
    c102.3,0,138.3,44.5,138.3,44.5l96.2-44.5L255.4-5.2z"/>
  <path class="surat" d="M450.9,282.8l43.4-43.4c0,0-18.7-3.8-56.3-3.8c-31.3,0-45.6,3.8-45.6,3.8c-36-33.6-84.3-54.3-137.4-54.3
    c-0.2,0-0.4,0-0.6,0s-0.4,0-0.6,0c-53.2,0-101.5,20.6-137.4,54.3c0,0-14.3-3.8-45.6-3.8c-37.6,0-56.3,3.8-56.3,3.8l43.4,43.4
    c-16.1,18.2-26.6,41.4-29,67c-0.3,3.6-0.5,7.2-0.5,10.8v0.1v0.1c0,7.8,0.8,15.5,2.3,22.9c0,0.2,0,0.3,0.1,0.5
    c0.1,0.6,0.3,1.1,0.4,1.6c0.7,3.2,1.5,6.3,2.4,9.4c0.3,0.9,0.6,1.8,0.9,2.6c0.9,2.7,1.8,5.3,2.9,7.9c0.5,1.1,1,2.2,1.5,3.3
    c1,2.3,2.1,4.5,3.2,6.7c0.7,1.2,1.4,2.4,2.1,3.6c1.1,2,2.3,4,3.6,5.9c0.8,1.2,1.7,2.4,2.6,3.6c1.3,1.8,2.6,3.6,4,5.3
    c0.9,1.1,1.9,2.2,2.8,3.3c0.8,0.9,1.7,1.7,2.5,2.6c0.7,0.7,1.3,1.5,2,2.2c0.6,0.6,1.2,1.1,1.8,1.7c1.6,1.6,3.2,3.1,4.8,4.5
    c1.3,1.2,2.7,2.3,4.1,3.4c1.7,1.4,3.4,2.7,5.2,4c1.5,1.1,3,2,4.5,3c1.8,1.2,3.7,2.4,5.6,3.5c1.6,0.9,3.2,1.8,4.9,2.6
    c1.9,1,3.8,2,5.8,2.9c1.7,0.8,3.6,1.5,5.3,2.2c2,0.8,3.9,1.6,5.9,2.2s4,1.1,6,1.7c1.9,0.5,3.9,1.1,5.8,1.5c2.3,0.5,4.7,0.8,7,1.2
    c1.7,0.3,3.5,0.6,5.2,0.8c3.8,0.4,7.7,0.6,11.6,0.6c0.4,0,0.7,0.1,1,0.1s0.5,0,0.8,0c3.4,0,6.7-0.2,10-0.5c0.3,0,0.6-0.1,0.9-0.1
    c1.9-0.2,3.7-0.5,5.5-0.8c1.5-0.2,3.1-0.4,4.6-0.7c1-0.2,2.1-0.4,3.1-0.6c1.6-0.4,3.2-0.8,4.8-1.2c1.7-0.4,3.5-0.8,5.2-1.3
    c0.3-0.1,0.6-0.2,0.9-0.3s0.6-0.2,1-0.4c1.5-0.5,3-1.1,4.6-1.7c1.1-0.4,2.2-0.8,3.3-1.2c1.1-0.4,2.1-0.9,3.1-1.4
    c0.2-0.1,0.3-0.1,0.4-0.2c1.4-0.6,2.8-1.3,4.1-2c0.6-0.3,1.3-0.6,1.9-0.9c1-0.5,2-1,3-1.6c0.6-0.4,1.2-0.8,1.9-1.1
    c1.2-0.7,2.4-1.4,3.6-2.2c1-0.6,2-1.1,2.9-1.8c0.6-0.4,1.2-0.9,1.9-1.4s1.3-1,1.9-1.4c1-0.7,2-1.5,3-2.2c0.4-0.3,0.9-0.6,1.3-1
    c1-0.8,2-1.7,3-2.6c0.8-0.7,1.5-1.4,2.3-2.1s1.6-1.4,2.4-2.2c1-0.9,1.9-1.8,2.9-2.8c1.2-1.3,2.4-2.6,3.5-3.9
    c0.4-0.5,0.9-0.9,1.4-1.4c0.3-0.4,0.7-0.8,1-1.2l0.1-0.1l0.1-0.1c0.5-0.6,1.1-1.2,1.6-1.9c1.4-1.7,2.7-3.5,4-5.3
    c0.9-1.2,1.7-2.4,2.6-3.6c1.3-1.9,2.4-3.9,3.6-5.9c0.7-1.2,1.4-2.4,2.1-3.6c1.2-2.2,2.2-4.5,3.2-6.7c0.3-0.6,0.6-1.3,0.9-1.9
    c0.3,0.6,0.6,1.3,0.9,1.9c1,2.3,2.1,4.5,3.2,6.7c0.7,1.2,1.4,2.4,2.1,3.6c1.1,2,2.3,4,3.6,5.9c0.8,1.2,1.7,2.4,2.6,3.6
    c1.3,1.8,2.6,3.6,4,5.3c0.5,0.6,1.1,1.3,1.6,1.9l0.1,0.1l0.1,0.1c0.3,0.4,0.7,0.8,1,1.2c0.4,0.5,0.9,0.9,1.4,1.4
    c1.2,1.3,2.3,2.6,3.5,3.9c0.9,1,1.9,1.9,2.9,2.8c0.8,0.7,1.6,1.4,2.4,2.2c0.8,0.7,1.5,1.4,2.3,2.1c1,0.9,2,1.7,3,2.6
    c0.4,0.3,0.9,0.6,1.3,1c1,0.8,2,1.5,3,2.2c0.6,0.5,1.3,1,1.9,1.4s1.2,0.9,1.9,1.4c0.9,0.6,2,1.2,2.9,1.8c1.2,0.7,2.4,1.5,3.6,2.2
    c0.6,0.4,1.2,0.8,1.9,1.1c1,0.5,2,1.1,3,1.6c0.6,0.3,1.3,0.6,1.9,0.9c1.4,0.7,2.7,1.4,4.1,2c0.2,0.1,0.3,0.1,0.4,0.2
    c1,0.5,2.1,0.9,3.1,1.4c1.1,0.4,2.2,0.8,3.3,1.2c1.5,0.6,3,1.2,4.6,1.7c0.3,0.1,0.6,0.2,1,0.4c0.3,0.1,0.6,0.2,0.9,0.3
    c1.7,0.5,3.5,0.9,5.2,1.3c1.6,0.4,3.2,0.9,4.8,1.2c1,0.2,2,0.4,3.1,0.6c1.5,0.3,3.1,0.5,4.6,0.7c1.8,0.3,3.6,0.6,5.5,0.8
    c0.3,0,0.6,0.1,0.9,0.1c3.3,0.3,6.6,0.5,10,0.5c0.3,0,0.5,0,0.8,0c0.4,0,0.7-0.1,1-0.1c3.9,0,7.8-0.2,11.6-0.6
    c1.8-0.2,3.5-0.6,5.2-0.8c2.4-0.4,4.7-0.7,7-1.2c2-0.4,3.9-1,5.8-1.5c2-0.5,4-1,6-1.7s4-1.5,5.9-2.2c1.8-0.7,3.6-1.4,5.3-2.2
    c2-0.9,3.9-1.9,5.8-2.9c1.6-0.8,3.3-1.7,4.9-2.6c1.9-1.1,3.7-2.3,5.6-3.5c1.5-1,3-2,4.5-3c1.8-1.3,3.5-2.6,5.2-4
    c1.4-1.1,2.7-2.2,4.1-3.4c1.7-1.5,3.3-3,4.8-4.5c0.6-0.6,1.2-1.1,1.8-1.7c0.7-0.7,1.3-1.5,2-2.2c0.8-0.9,1.7-1.7,2.5-2.6
    c0.9-1.1,1.9-2.2,2.8-3.3c1.4-1.7,2.7-3.5,4-5.3c0.9-1.2,1.7-2.4,2.6-3.6c1.3-1.9,2.4-3.9,3.6-5.9c0.7-1.2,1.4-2.4,2.1-3.6
    c1.2-2.2,2.2-4.5,3.2-6.7c0.5-1.1,1-2.2,1.5-3.3c1.1-2.6,2-5.2,2.9-7.9c0.3-0.9,0.6-1.7,0.9-2.6c0.9-3.1,1.7-6.2,2.4-9.4
    c0.1-0.5,0.3-1.1,0.4-1.6c1.5-7.5,2.4-15.3,2.4-23.3v-0.1v-0.1c-0.4-3.7-0.6-7.3-0.9-10.9C477.5,324.2,467,301,450.9,282.8z
     M143.9,453.8c-51.8,0-93.8-42-93.8-93.8s42-93.8,93.8-93.8s93.8,42,93.8,93.8S195.7,453.8,143.9,453.8z M362.7,453.8
    c-51.8,0-93.8-42-93.8-93.8s42-93.8,93.8-93.8s93.8,42,93.8,93.8S414.5,453.8,362.7,453.8z"/>
</g>
<g class="st3">
  <path class="yazi" d="M506.1,446.4v-95.5h38.3c9.7,0,17.2,2.2,22.7,6.5c5.5,4.3,8.2,10.5,8.2,18.4c0,5.5-1.5,10.2-4.5,14
    c-3,3.8-7.1,6.5-12.4,8.1v-1.1c6,1.2,10.7,3.8,14.1,7.9c3.4,4.1,5.1,9.3,5.1,15.6c0,8.4-2.8,14.8-8.3,19.3
    c-5.5,4.5-13.4,6.7-23.5,6.7H506.1z M517,393.3h25.7c7.2,0,12.7-1.4,16.3-4.3c3.6-2.9,5.4-7.1,5.4-12.6c0-5.5-1.8-9.5-5.4-12.3
    c-3.6-2.7-9-4.1-16.4-4.1H517V393.3z M517,437.3h27.9c7.5,0,13-1.4,16.6-4.2c3.5-2.8,5.3-7.1,5.3-13c0-5.8-1.8-10.2-5.4-13.1
    c-3.6-3-9.1-4.4-16.5-4.4H517V437.3z"/>
  <path class="yazi" d="M651.3,438.3c-2.9,2.8-6.7,5-11.3,6.6c-4.6,1.6-9.3,2.4-14.1,2.4c-7,0-13-1.4-18-4.2c-5.1-2.8-8.9-6.8-11.7-12
    c-2.7-5.2-4.1-11.5-4.1-18.7c0-7,1.3-13.1,4-18.4c2.7-5.3,6.4-9.4,11.2-12.3c4.8-2.9,10.3-4.4,16.6-4.4c6,0,11.1,1.3,15.4,4
    c4.3,2.6,7.6,6.4,9.9,11.3c2.3,4.9,3.4,10.8,3.4,17.7v2h-51v-7.1h44.8l-3.5,5c0.2-7.9-1.4-13.9-4.6-18.1c-3.3-4.2-8-6.3-14.3-6.3
    c-6.5,0-11.6,2.3-15.4,6.9c-3.7,4.6-5.6,11-5.6,19.1c0,8.8,1.9,15.4,5.8,19.8c3.9,4.5,9.6,6.7,17.1,6.7c3.9,0,7.7-0.6,11.3-1.9
    c3.6-1.3,7.1-3.3,10.4-6L651.3,438.3z"/>
  <path class="yazi" d="M659.1,387.5v-8.6h43.3v8.6H659.1z M702.1,436.7v9.3c-1.5,0.4-3,0.8-4.5,1c-1.5,0.2-3.1,0.3-4.9,0.3
    c-6.3,0-11.2-1.8-15-5.4c-3.7-3.6-5.6-8.9-5.6-16.1v-64.2l10.9-3.9v66.6c0,3.6,0.5,6.3,1.5,8.3c1,2,2.4,3.3,4.2,4.1
    c1.8,0.8,3.8,1.1,6,1.1c1.3,0,2.5-0.1,3.6-0.3C699.6,437.5,700.8,437.2,702.1,436.7z"/>
  <path class="yazi" d="M741.4,447.3c-6,0-11.2-1.4-15.8-4.2c-4.5-2.8-8-6.8-10.5-12.1c-2.5-5.2-3.7-11.4-3.7-18.4
    c0-7.1,1.3-13.2,3.8-18.5c2.5-5.3,6-9.4,10.5-12.3c4.5-2.9,9.7-4.4,15.6-4.4c6.2,0,11.4,1.5,15.7,4.6c4.3,3,7.2,7.4,8.7,13
    l-1.6,1.1v-17h10.7v67.4h-10.7v-17.4l1.6,0.8c-1.5,5.6-4.4,10-8.7,13C752.8,445.8,747.6,447.3,741.4,447.3z M743.6,438.3
    c6.6,0,11.7-2.3,15.3-6.8c3.6-4.5,5.4-10.9,5.4-19.2c0-8.3-1.8-14.7-5.4-19.2c-3.6-4.5-8.7-6.7-15.2-6.7c-6.6,0-11.8,2.3-15.5,6.9
    c-3.7,4.6-5.6,11-5.6,19.2c0,8.2,1.9,14.6,5.6,19C731.8,436.1,736.9,438.3,743.6,438.3z"/>
  <path class="yazi" d="M850.8,446.4l-28.7-67.3h11.4l24.4,59.4h-3.2l24.7-59.4h10.9l-29.1,67.3H850.8z"/>
  <path class="yazi" d="M908.9,446.4v-9.3h53.2v9.3H908.9z M929.9,441.4v-84.1l6.3,3.2l-25.9,16.5v-10.6l24.4-15.6h6.3v90.5H929.9z"/>
  <path class="yazi" d="M980.7,432.6h13.8v13.8h-13.8V432.6z"/>
  <path class="yazi" d="M1043.4,447.4c-10.9,0-19.2-4.1-24.9-12.4c-5.7-8.3-8.5-20.4-8.5-36.4c0-16,2.8-28.1,8.4-36.4
    c5.6-8.3,13.9-12.4,24.9-12.4s19.3,4.1,24.9,12.4c5.6,8.3,8.4,20.4,8.4,36.3c0,16-2.8,28.2-8.5,36.5
    C1062.6,443.3,1054.3,447.4,1043.4,447.4z M1043.4,438.2c7.6,0,13.2-3.2,16.8-9.7s5.4-16.4,5.4-30c0-13.6-1.8-23.5-5.4-29.8
    s-9.2-9.5-16.8-9.5c-7.6,0-13.2,3.2-16.8,9.5c-3.6,6.3-5.4,16.3-5.4,29.8c0,13.6,1.8,23.6,5.4,30S1035.8,438.2,1043.4,438.2z"/>
</g>
</svg>
