<?xml version="1.0" encoding="utf-8"?>
<!-- Generator: Adobe Illustrator 22.0.1, SVG Export Plug-In . SVG Version: 6.00 Build 0)  -->
<svg version="1.1" id="katman_1" xmlns="http://www.w3.org/2000/svg" xmlns:xlink="http://www.w3.org/1999/xlink" x="0px" y="0px"
   viewBox="0 0 700 680" style="enable-background:new 0 0 700 680;" xml:space="preserve">
<style type="text/css">
  .st0{fill:#6D6E71;}
  .st1{fill:#FFFFFF;}
  .st2{fill:#F7941E;}
</style>
<g>
  <path class="st0" d="M698.9,436.4L698.9,436.4c-2.4-25.6-12.9-48.8-29-67l43.4-43.4c0,0-18.7-3.8-56.3-3.8
    c-31.3,0-45.6,3.8-45.6,3.8c-36-33.6-84.3-54.3-137.4-54.3c-0.2,0-0.4,0-0.6,0c-0.2,0-0.4,0-0.6,0c-53.2,0-101.5,20.6-137.4,54.3
    c0,0-14.3-3.8-45.6-3.8c-37.6,0-56.3,3.8-56.3,3.8l43.4,43.4c-16.1,18.2-26.6,41.4-29,67h0c-0.3,3.6-0.5,7.2-0.5,10.8
    c0,0,0,0.1,0,0.1c0,0,0,0,0,0c0,0,0,0,0,0c0,0,0,0.1,0,0.1c0,7.8,0.8,15.5,2.3,22.9c0,0.2,0,0.3,0.1,0.5c0.1,0.6,0.3,1.1,0.4,1.6
    c0.7,3.2,1.5,6.3,2.4,9.4c0.3,0.9,0.6,1.8,0.9,2.6c0.9,2.7,1.8,5.3,2.9,7.9c0.5,1.1,1,2.2,1.5,3.3c1,2.3,2.1,4.5,3.2,6.7
    c0.7,1.2,1.4,2.4,2.1,3.6c1.1,2,2.3,4,3.6,5.9c0.8,1.2,1.7,2.4,2.6,3.6c1.3,1.8,2.6,3.6,4,5.3c0.9,1.1,1.9,2.2,2.8,3.3
    c0.8,0.9,1.7,1.7,2.5,2.6c0.7,0.7,1.3,1.5,2,2.2c0.6,0.6,1.2,1.1,1.8,1.7c1.6,1.6,3.2,3.1,4.8,4.5c1.3,1.2,2.7,2.3,4.1,3.4
    c1.7,1.4,3.4,2.7,5.2,4c1.5,1.1,3,2,4.5,3c1.8,1.2,3.7,2.4,5.6,3.5c1.6,0.9,3.2,1.8,4.9,2.6c1.9,1,3.8,2,5.8,2.9
    c1.7,0.8,3.6,1.5,5.3,2.2c2,0.8,3.9,1.6,5.9,2.2c2,0.6,4,1.1,6,1.7c1.9,0.5,3.9,1.1,5.8,1.5c2.3,0.5,4.7,0.8,7,1.2
    c1.7,0.3,3.5,0.6,5.2,0.8c3.8,0.4,7.7,0.6,11.6,0.6c0.4,0,0.7,0.1,1,0.1c0,0,0,0,0,0c0,0,0,0,0,0c0.3,0,0.5,0,0.8,0
    c3.4,0,6.7-0.2,10-0.5c0.3,0,0.6-0.1,0.9-0.1c1.9-0.2,3.7-0.5,5.5-0.8c1.5-0.2,3.1-0.4,4.6-0.7c1-0.2,2.1-0.4,3.1-0.6c0,0,0,0,0,0
    c1.6-0.4,3.2-0.8,4.8-1.2c1.7-0.4,3.5-0.8,5.2-1.3c0.3-0.1,0.6-0.2,0.9-0.3c0.3-0.1,0.6-0.2,1-0.4c1.5-0.5,3-1.1,4.6-1.7
    c1.1-0.4,2.2-0.8,3.3-1.2c1.1-0.4,2.1-0.9,3.1-1.4c0.2-0.1,0.3-0.1,0.4-0.2c1.4-0.6,2.8-1.3,4.1-2c0.6-0.3,1.3-0.6,1.9-0.9
    c1-0.5,2-1,3-1.6c0.6-0.4,1.2-0.8,1.9-1.1c1.2-0.7,2.4-1.4,3.6-2.2c1-0.6,2-1.1,2.9-1.8c0.6-0.4,1.2-0.9,1.9-1.4
    c0.7-0.5,1.3-1,1.9-1.4c1-0.7,2-1.5,3-2.2c0.4-0.3,0.9-0.6,1.3-1c1-0.8,2-1.7,3-2.6c0.8-0.7,1.5-1.4,2.3-2.1
    c0.8-0.7,1.6-1.4,2.4-2.2c0,0,0,0,0,0c1-0.9,1.9-1.8,2.9-2.8c1.2-1.3,2.4-2.6,3.5-3.9c0.4-0.5,0.9-0.9,1.4-1.4
    c0.3-0.4,0.7-0.8,1-1.2c0,0,0.1-0.1,0.1-0.1c0,0,0.1-0.1,0.1-0.1c0.5-0.6,1.1-1.2,1.6-1.9c1.4-1.7,2.7-3.5,4-5.3
    c0.9-1.2,1.7-2.4,2.6-3.6c1.3-1.9,2.4-3.9,3.6-5.9c0.7-1.2,1.4-2.4,2.1-3.6c1.2-2.2,2.2-4.5,3.2-6.7c0.3-0.6,0.6-1.3,0.9-1.9
    c0.3,0.6,0.6,1.3,0.9,1.9c1,2.3,2.1,4.5,3.2,6.7c0.7,1.2,1.4,2.4,2.1,3.6c1.1,2,2.3,4,3.6,5.9c0.8,1.2,1.7,2.4,2.6,3.6
    c1.3,1.8,2.6,3.6,4,5.3c0.5,0.6,1.1,1.3,1.6,1.9c0,0,0.1,0.1,0.1,0.1c0,0,0.1,0.1,0.1,0.1c0.3,0.4,0.7,0.8,1,1.2
    c0.4,0.5,0.9,0.9,1.4,1.4c1.2,1.3,2.3,2.6,3.5,3.9c0.9,1,1.9,1.9,2.9,2.8c0,0,0,0,0,0c0.8,0.7,1.6,1.4,2.4,2.2
    c0.8,0.7,1.5,1.4,2.3,2.1c1,0.9,2,1.7,3,2.6c0.4,0.3,0.9,0.6,1.3,1c1,0.8,2,1.5,3,2.2c0.6,0.5,1.3,1,1.9,1.4
    c0.6,0.4,1.2,0.9,1.9,1.4c0.9,0.6,2,1.2,2.9,1.8c1.2,0.7,2.4,1.5,3.6,2.2c0.6,0.4,1.2,0.8,1.9,1.1c1,0.5,2,1.1,3,1.6
    c0.6,0.3,1.3,0.6,1.9,0.9c1.4,0.7,2.7,1.4,4.1,2c0.2,0.1,0.3,0.1,0.4,0.2c1,0.5,2.1,0.9,3.1,1.4c1.1,0.4,2.2,0.8,3.3,1.2
    c1.5,0.6,3,1.2,4.6,1.7c0.3,0.1,0.6,0.2,1,0.4c0.3,0.1,0.6,0.2,0.9,0.3c1.7,0.5,3.5,0.9,5.2,1.3c1.6,0.4,3.2,0.9,4.8,1.2
    c0,0,0,0,0,0c1,0.2,2,0.4,3.1,0.6c1.5,0.3,3.1,0.5,4.6,0.7c1.8,0.3,3.6,0.6,5.5,0.8c0.3,0,0.6,0.1,0.9,0.1c3.3,0.3,6.6,0.5,10,0.5
    c0.3,0,0.5,0,0.8,0c0,0,0,0,0,0c0,0,0,0,0,0c0.4,0,0.7-0.1,1-0.1c3.9,0,7.8-0.2,11.6-0.6c1.8-0.2,3.5-0.6,5.2-0.8
    c2.4-0.4,4.7-0.7,7-1.2c2-0.4,3.9-1,5.8-1.5c2-0.5,4-1,6-1.7c2-0.7,4-1.5,5.9-2.2c1.8-0.7,3.6-1.4,5.3-2.2c2-0.9,3.9-1.9,5.8-2.9
    c1.6-0.8,3.3-1.7,4.9-2.6c1.9-1.1,3.7-2.3,5.6-3.5c1.5-1,3-2,4.5-3c1.8-1.3,3.5-2.6,5.2-4c1.4-1.1,2.7-2.2,4.1-3.4
    c1.7-1.5,3.3-3,4.8-4.5c0.6-0.6,1.2-1.1,1.8-1.7c0.7-0.7,1.3-1.5,2-2.2c0.8-0.9,1.7-1.7,2.5-2.6c0.9-1.1,1.9-2.2,2.8-3.3
    c1.4-1.7,2.7-3.5,4-5.3c0.9-1.2,1.7-2.4,2.6-3.6c1.3-1.9,2.4-3.9,3.6-5.9c0.7-1.2,1.4-2.4,2.1-3.6c1.2-2.2,2.2-4.5,3.2-6.7
    c0.5-1.1,1-2.2,1.5-3.3c1.1-2.6,2-5.2,2.9-7.9c0.3-0.9,0.6-1.7,0.9-2.6c0.9-3.1,1.7-6.2,2.4-9.4c0.1-0.5,0.3-1.1,0.4-1.6
    c1.5-7.5,2.4-15.3,2.4-23.3c0,0,0-0.1,0-0.1c0,0,0-0.1,0-0.1C699.4,443.6,699.2,440,698.9,436.4z"/>
  <g>
    <circle class="st1" cx="581.7" cy="446.6" r="93.8"/>
    <circle class="st0" cx="563" cy="428.1" r="39.1"/>
  </g>
  <g>
    <circle class="st1" cx="362.9" cy="446.6" r="93.8"/>
    <circle class="st0" cx="381.6" cy="428.1" r="39.1"/>
  </g>
  <polygon class="st2" points="443,559.3 473.4,598.6 503.8,559.3 473.4,521.7  "/>
  <path class="st2" d="M474.1,216.8c-47.6,0-91.5,15.2-127.4,41v43.5c33.3-31.3,78.1-50.5,127.4-50.5c49.6,0,94.6,19.5,128,51.1
    v-43.6C566.1,232.2,521.9,216.8,474.1,216.8z"/>
  <path class="st2" d="M474.4,81.4l-241,118.1l43.6,18.9v21.1l-7.8,15v45.4h26.1v-46l-7.8-14.4V223l48.4,21c0,0,37.3-44.5,138.3-44.5
    c102.3,0,138.3,44.5,138.3,44.5l96.2-44.5L474.4,81.4z"/>
</g>
</svg>
