<?xml version="1.0" encoding="utf-8"?>
<!-- Generator: Adobe Illustrator 22.0.1, SVG Export Plug-In . SVG Version: 6.00 Build 0)  -->
<svg version="1.1" id="katman_1" xmlns="http://www.w3.org/2000/svg" xmlns:xlink="http://www.w3.org/1999/xlink" x="0px" y="0px"
	 viewBox="0 0 2000 680" style="enable-background:new 0 0 2000 680;" xml:space="preserve">
<style type="text/css">
	.st0{fill:#6D6E71;}
	.st1{fill:#FFFFFF;}
	.st2{fill:#F7941E;}
</style>
<g>
	<path class="st0" d="M698.9,436.4L698.9,436.4c-2.4-25.6-12.9-48.8-29-67l43.4-43.4c0,0-18.7-3.8-56.3-3.8
		c-31.3,0-45.6,3.8-45.6,3.8c-36-33.6-84.3-54.3-137.4-54.3c-0.2,0-0.4,0-0.6,0c-0.2,0-0.4,0-0.6,0c-53.2,0-101.5,20.6-137.4,54.3
		c0,0-14.3-3.8-45.6-3.8c-37.6,0-56.3,3.8-56.3,3.8l43.4,43.4c-16.1,18.2-26.6,41.4-29,67h0c-0.3,3.6-0.5,7.2-0.5,10.8
		c0,0,0,0.1,0,0.1c0,0,0,0,0,0c0,0,0,0,0,0c0,0,0,0.1,0,0.1c0,7.8,0.8,15.5,2.3,22.9c0,0.2,0,0.3,0.1,0.5c0.1,0.6,0.3,1.1,0.4,1.6
		c0.7,3.2,1.5,6.3,2.4,9.4c0.3,0.9,0.6,1.8,0.9,2.6c0.9,2.7,1.8,5.3,2.9,7.9c0.5,1.1,1,2.2,1.5,3.3c1,2.3,2.1,4.5,3.2,6.7
		c0.7,1.2,1.4,2.4,2.1,3.6c1.1,2,2.3,4,3.6,5.9c0.8,1.2,1.7,2.4,2.6,3.6c1.3,1.8,2.6,3.6,4,5.3c0.9,1.1,1.9,2.2,2.8,3.3
		c0.8,0.9,1.7,1.7,2.5,2.6c0.7,0.7,1.3,1.5,2,2.2c0.6,0.6,1.2,1.1,1.8,1.7c1.6,1.6,3.2,3.1,4.8,4.5c1.3,1.2,2.7,2.3,4.1,3.4
		c1.7,1.4,3.4,2.7,5.2,4c1.5,1.1,3,2,4.5,3c1.8,1.2,3.7,2.4,5.6,3.5c1.6,0.9,3.2,1.8,4.9,2.6c1.9,1,3.8,2,5.8,2.9
		c1.7,0.8,3.6,1.5,5.3,2.2c2,0.8,3.9,1.6,5.9,2.2c2,0.6,4,1.1,6,1.7c1.9,0.5,3.9,1.1,5.8,1.5c2.3,0.5,4.7,0.8,7,1.2
		c1.7,0.3,3.5,0.6,5.2,0.8c3.8,0.4,7.7,0.6,11.6,0.6c0.4,0,0.7,0.1,1,0.1c0,0,0,0,0,0c0,0,0,0,0,0c0.3,0,0.5,0,0.8,0
		c3.4,0,6.7-0.2,10-0.5c0.3,0,0.6-0.1,0.9-0.1c1.9-0.2,3.7-0.5,5.5-0.8c1.5-0.2,3.1-0.4,4.6-0.7c1-0.2,2.1-0.4,3.1-0.6c0,0,0,0,0,0
		c1.6-0.4,3.2-0.8,4.8-1.2c1.7-0.4,3.5-0.8,5.2-1.3c0.3-0.1,0.6-0.2,0.9-0.3c0.3-0.1,0.6-0.2,1-0.4c1.5-0.5,3-1.1,4.6-1.7
		c1.1-0.4,2.2-0.8,3.3-1.2c1.1-0.4,2.1-0.9,3.1-1.4c0.2-0.1,0.3-0.1,0.4-0.2c1.4-0.6,2.8-1.3,4.1-2c0.6-0.3,1.3-0.6,1.9-0.9
		c1-0.5,2-1,3-1.6c0.6-0.4,1.2-0.8,1.9-1.1c1.2-0.7,2.4-1.4,3.6-2.2c1-0.6,2-1.1,2.9-1.8c0.6-0.4,1.2-0.9,1.9-1.4
		c0.7-0.5,1.3-1,1.9-1.4c1-0.7,2-1.5,3-2.2c0.4-0.3,0.9-0.6,1.3-1c1-0.8,2-1.7,3-2.6c0.8-0.7,1.5-1.4,2.3-2.1
		c0.8-0.7,1.6-1.4,2.4-2.2c0,0,0,0,0,0c1-0.9,1.9-1.8,2.9-2.8c1.2-1.3,2.4-2.6,3.5-3.9c0.4-0.5,0.9-0.9,1.4-1.4
		c0.3-0.4,0.7-0.8,1-1.2c0,0,0.1-0.1,0.1-0.1c0,0,0.1-0.1,0.1-0.1c0.5-0.6,1.1-1.2,1.6-1.9c1.4-1.7,2.7-3.5,4-5.3
		c0.9-1.2,1.7-2.4,2.6-3.6c1.3-1.9,2.4-3.9,3.6-5.9c0.7-1.2,1.4-2.4,2.1-3.6c1.2-2.2,2.2-4.5,3.2-6.7c0.3-0.6,0.6-1.3,0.9-1.9
		c0.3,0.6,0.6,1.3,0.9,1.9c1,2.3,2.1,4.5,3.2,6.7c0.7,1.2,1.4,2.4,2.1,3.6c1.1,2,2.3,4,3.6,5.9c0.8,1.2,1.7,2.4,2.6,3.6
		c1.3,1.8,2.6,3.6,4,5.3c0.5,0.6,1.1,1.3,1.6,1.9c0,0,0.1,0.1,0.1,0.1c0,0,0.1,0.1,0.1,0.1c0.3,0.4,0.7,0.8,1,1.2
		c0.4,0.5,0.9,0.9,1.4,1.4c1.2,1.3,2.3,2.6,3.5,3.9c0.9,1,1.9,1.9,2.9,2.8c0,0,0,0,0,0c0.8,0.7,1.6,1.4,2.4,2.2
		c0.8,0.7,1.5,1.4,2.3,2.1c1,0.9,2,1.7,3,2.6c0.4,0.3,0.9,0.6,1.3,1c1,0.8,2,1.5,3,2.2c0.6,0.5,1.3,1,1.9,1.4
		c0.6,0.4,1.2,0.9,1.9,1.4c0.9,0.6,2,1.2,2.9,1.8c1.2,0.7,2.4,1.5,3.6,2.2c0.6,0.4,1.2,0.8,1.9,1.1c1,0.5,2,1.1,3,1.6
		c0.6,0.3,1.3,0.6,1.9,0.9c1.4,0.7,2.7,1.4,4.1,2c0.2,0.1,0.3,0.1,0.4,0.2c1,0.5,2.1,0.9,3.1,1.4c1.1,0.4,2.2,0.8,3.3,1.2
		c1.5,0.6,3,1.2,4.6,1.7c0.3,0.1,0.6,0.2,1,0.4c0.3,0.1,0.6,0.2,0.9,0.3c1.7,0.5,3.5,0.9,5.2,1.3c1.6,0.4,3.2,0.9,4.8,1.2
		c0,0,0,0,0,0c1,0.2,2,0.4,3.1,0.6c1.5,0.3,3.1,0.5,4.6,0.7c1.8,0.3,3.6,0.6,5.5,0.8c0.3,0,0.6,0.1,0.9,0.1c3.3,0.3,6.6,0.5,10,0.5
		c0.3,0,0.5,0,0.8,0c0,0,0,0,0,0c0,0,0,0,0,0c0.4,0,0.7-0.1,1-0.1c3.9,0,7.8-0.2,11.6-0.6c1.8-0.2,3.5-0.6,5.2-0.8
		c2.4-0.4,4.7-0.7,7-1.2c2-0.4,3.9-1,5.8-1.5c2-0.5,4-1,6-1.7c2-0.7,4-1.5,5.9-2.2c1.8-0.7,3.6-1.4,5.3-2.2c2-0.9,3.9-1.9,5.8-2.9
		c1.6-0.8,3.3-1.7,4.9-2.6c1.9-1.1,3.7-2.3,5.6-3.5c1.5-1,3-2,4.5-3c1.8-1.3,3.5-2.6,5.2-4c1.4-1.1,2.7-2.2,4.1-3.4
		c1.7-1.5,3.3-3,4.8-4.5c0.6-0.6,1.2-1.1,1.8-1.7c0.7-0.7,1.3-1.5,2-2.2c0.8-0.9,1.7-1.7,2.5-2.6c0.9-1.1,1.9-2.2,2.8-3.3
		c1.4-1.7,2.7-3.5,4-5.3c0.9-1.2,1.7-2.4,2.6-3.6c1.3-1.9,2.4-3.9,3.6-5.9c0.7-1.2,1.4-2.4,2.1-3.6c1.2-2.2,2.2-4.5,3.2-6.7
		c0.5-1.1,1-2.2,1.5-3.3c1.1-2.6,2-5.2,2.9-7.9c0.3-0.9,0.6-1.7,0.9-2.6c0.9-3.1,1.7-6.2,2.4-9.4c0.1-0.5,0.3-1.1,0.4-1.6
		c1.5-7.5,2.4-15.3,2.4-23.3c0,0,0-0.1,0-0.1c0,0,0-0.1,0-0.1C699.4,443.6,699.2,440,698.9,436.4z"/>
	<g>
		<circle class="st1" cx="581.7" cy="446.6" r="93.8"/>
		<circle class="st0" cx="563" cy="428.1" r="39.1"/>
	</g>
	<g>
		<circle class="st1" cx="362.9" cy="446.6" r="93.8"/>
		<circle class="st0" cx="381.6" cy="428.1" r="39.1"/>
	</g>
	<polygon class="st2" points="443,559.3 473.4,598.6 503.8,559.3 473.4,521.7 	"/>
	<path class="st2" d="M474.1,216.8c-47.6,0-91.5,15.2-127.4,41v43.5c33.3-31.3,78.1-50.5,127.4-50.5c49.6,0,94.6,19.5,128,51.1
		v-43.6C566.1,232.2,521.9,216.8,474.1,216.8z"/>
	<path class="st2" d="M474.4,81.4l-241,118.1l43.6,18.9v21.1l-7.8,15v45.4h26.1v-46l-7.8-14.4V223l48.4,21c0,0,37.3-44.5,138.3-44.5
		c102.3,0,138.3,44.5,138.3,44.5l96.2-44.5L474.4,81.4z"/>
</g>
<g>
	<path class="st2" d="M934,460.9c-20.3,0-37.9-4.3-52.7-12.9c-14.8-8.6-26.3-20.9-34.3-36.9c-8-16-12-34.9-12-56.8
		c0-22.1,4-41,12-57c8-15.9,19.4-28.2,34.3-36.8c14.8-8.6,32.4-12.9,52.7-12.9c20.5,0,38.2,4.3,53,12.9
		c14.8,8.6,26.3,20.8,34.3,36.8c8,15.9,12,34.8,12,56.7c0,22.1-4.1,41.1-12.2,57.1c-8.1,16-19.5,28.3-34.3,36.9
		C972.1,456.6,954.5,460.9,934,460.9z M934,431c19.1,0,34.2-6.6,45.1-19.8c10.9-13.2,16.4-32.3,16.4-57.3c0-25-5.5-44-16.4-57
		c-10.9-13-26-19.5-45.1-19.5c-18.9,0-33.9,6.5-44.8,19.5c-10.9,13-16.4,32-16.4,57c0,25,5.5,44.1,16.4,57.3
		C900.1,424.4,915.1,431,934,431z"/>
	<path class="st2" d="M1088.4,458.5l-58-147.9h37.8l41.6,114.5h-7.3l41.9-114.5h26.7l41.6,114.5h-6.7l41.6-114.5h35.4l-58,147.9
		h-31.9l-45.1-119.2h16.7l-44.2,119.2H1088.4z"/>
	<path class="st2" d="M1283.7,458.5V243h36.6v215.6H1283.7z"/>
	<path class="st2" d="M1465,442.1c-7,5.9-15.7,10.4-25.9,13.6s-20.6,4.8-31.2,4.8c-16,0-29.8-3-41.4-9.1
		c-11.6-6-20.6-14.8-26.8-26.4c-6.3-11.5-9.4-25.2-9.4-41c0-15.2,3-28.7,9.1-40.3c6-11.6,14.4-20.7,25.2-27.2
		c10.7-6.5,23.1-9.8,37.2-9.8c13.7,0,25.4,3,35.1,8.9c9.8,6,17.3,14.5,22.7,25.6c5.4,11.1,8.1,24.3,8.1,39.5v5.6h-105.1l0.3-19.6
		h83.2l-10,10c0.2-14.3-2.6-25.1-8.3-32.5c-5.8-7.4-14.1-11.1-25-11.1c-11.7,0-20.8,4.2-27.2,12.4c-6.4,8.3-9.7,20.2-9.7,35.6
		c0,17.6,3.6,30.5,10.8,38.8c7.2,8.3,18.2,12.4,32.8,12.4c8,0,15.9-1.3,23.6-4c7.7-2.6,14.9-6.5,21.5-11.6L1465,442.1z"/>
	<path class="st2" d="M1544.4,523.9c-22.8,0-42.9-4.7-60-14.1l5.9-27.8c9,4.7,17.8,8.2,26.5,10.4c8.7,2.2,17.7,3.4,27.1,3.4
		c13.1,0,22.9-3.2,29.6-9.7c6.6-6.4,10-16.2,10-29.3v-36.6h3.5c-2.3,6.3-6,12-11,17.1c-5,5.2-11,9.3-18,12.3c-7,3-14.7,4.5-23.1,4.5
		c-12.9,0-24.3-3-34.3-9.1c-10-6-17.7-14.6-23.3-25.6c-5.6-11-8.3-24-8.3-38.8c0-14.8,2.8-27.8,8.3-38.8c5.6-11,13.3-19.6,23.3-25.8
		c10-6.2,21.4-9.2,34.3-9.2c12.7,0,23.7,3.1,33.1,9.4c9.4,6.3,15.7,14.6,19,25.2l-3.5,0.6v-31.3h36.3v143.2c0,23-6.3,40.5-19,52.3
		C1587.9,517.9,1569.2,523.9,1544.4,523.9z M1544.7,425.7c12.1,0,21.6-4,28.4-12c6.8-8,10.3-19,10.3-33.1s-3.4-25.1-10.3-33.1
		c-6.8-8-16.3-12-28.4-12c-12.3,0-22,4-29,12c-7,8-10.5,19-10.5,33.1s3.5,25.1,10.5,33.1C1522.7,421.7,1532.4,425.7,1544.7,425.7z"
		/>
	<path class="st2" d="M1764,442.1c-7,5.9-15.7,10.4-25.9,13.6s-20.6,4.8-31.2,4.8c-16,0-29.8-3-41.4-9.1
		c-11.6-6-20.6-14.8-26.8-26.4c-6.3-11.5-9.4-25.2-9.4-41c0-15.2,3-28.7,9.1-40.3c6-11.6,14.4-20.7,25.2-27.2
		c10.7-6.5,23.1-9.8,37.2-9.8c13.7,0,25.4,3,35.1,8.9c9.8,6,17.3,14.5,22.7,25.6c5.4,11.1,8.1,24.3,8.1,39.5v5.6h-105.1l0.3-19.6
		h83.2l-10,10c0.2-14.3-2.6-25.1-8.3-32.5c-5.8-7.4-14.1-11.1-25-11.1c-11.7,0-20.8,4.2-27.2,12.4c-6.4,8.3-9.7,20.2-9.7,35.6
		c0,17.6,3.6,30.5,10.8,38.8c7.2,8.3,18.2,12.4,32.8,12.4c8,0,15.9-1.3,23.6-4c7.7-2.6,14.9-6.5,21.5-11.6L1764,442.1z"/>
</g>
</svg>
