<?xml version="1.0" encoding="utf-8"?>
<!-- Generator: Adobe Illustrator 22.0.1, SVG Export Plug-In . SVG Version: 6.00 Build 0)  -->
<svg version="1.1" id="katman_1" xmlns="http://www.w3.org/2000/svg" xmlns:xlink="http://www.w3.org/1999/xlink" x="0px" y="0px"
	 viewBox="0 0 1562 506.8" style="enable-background:new 0 0 1562 506.8;" xml:space="preserve">
<style type="text/css">
	.st0{fill:#FFFFFF;}
	.st1{fill:#6D6E71;}
	.st2{fill:#F7941E;}
</style>
<style type="text/css">
	.navbar-dark.scrolled .surat, 
	.navbar-dark.force-scrolled .surat, 
	.navbar-dark.navbar-toggled-show .surat, 
	.navbar-dark.scrolled .goz-ic,
	.navbar-dark.force-scrolled .goz-ic,
	.navbar-dark.navbar-toggled-show .goz-ic, 
	.surat, 
	.goz-ic
	{fill:#6D6E71;}

	.navbar-dark.scrolled .goz-dis,
	.navbar-dark.force-scrolled .goz-dis, 
	.navbar-dark.navbar-toggled-show .goz-dis, 
	.goz-dis
	{fill:#FFFFFF;}

	.navbar-dark.scrolled .burun, 
	.navbar-dark.force-scrolled .burun, 
	.navbar-dark.navbar-toggled-show .burun, 
	.navbar-dark.scrolled .yazi, 
	.navbar-dark.force-scrolled .yazi, 
	.navbar-dark.navbar-toggled-show .yazi, 
	.navbar-dark.scrolled .sapka,
	.navbar-dark.force-scrolled .sapka, 
	.navbar-dark.navbar-toggled-show .sapka, 
	.burun, 
	.yazi, 
	.sapka
	{fill:#F7941E;}


	.navbar-dark .burun, 
	.navbar-dark .yazi, 
	.navbar-dark .sapka, 
	.navbar-dark .surat, 
	.navbar-dark .goz-dis,
	.navbar-dark .goz-ic
	{fill:#fff;}

	.navbar-dark .goz-dis
	{fill:rgba(255,255,255,.15)}


	.navbar-dark .sapka
	{fill: rgba(255,255,255,.5)}


</style>
<g>
	<g>
		<circle class="goz-dis" cx="362.7" cy="360" r="93.8"/>
		<circle class="goz-ic" cx="344" cy="341.5" r="39.1"/>
	</g>
	<g>
		<circle class="goz-dis" cx="143.9" cy="360" r="93.8"/>
		<circle class="goz-ic" cx="162.6" cy="341.5" r="39.1"/>
	</g>
	<polygon class="burun" points="224,472.7 254.4,512 284.8,472.7 254.4,435.1 	"/>
	<path class="sapka" d="M255.1,130.2c-47.6,0-91.5,15.2-127.4,41v43.5c33.3-31.3,78.1-50.5,127.4-50.5c49.6,0,94.6,19.5,128,51.1
		v-43.6C347.1,145.6,302.9,130.2,255.1,130.2z"/>
	<path class="sapka" d="M255.4-5.2l-241,118.1L58,131.8v21.1l-7.8,15v45.4h26.1v-46l-7.8-14.4v-16.5l48.4,21c0,0,37.3-44.5,138.3-44.5
		c102.3,0,138.3,44.5,138.3,44.5l96.2-44.5L255.4-5.2z"/>
	<path class="surat" d="M450.9,282.8l43.4-43.4c0,0-18.7-3.8-56.3-3.8c-31.3,0-45.6,3.8-45.6,3.8c-36-33.6-84.3-54.3-137.4-54.3
		c-0.2,0-0.4,0-0.6,0s-0.4,0-0.6,0c-53.2,0-101.5,20.6-137.4,54.3c0,0-14.3-3.8-45.6-3.8c-37.6,0-56.3,3.8-56.3,3.8l43.4,43.4
		c-16.1,18.2-26.6,41.4-29,67c-0.3,3.6-0.5,7.2-0.5,10.8v0.1v0.1c0,7.8,0.8,15.5,2.3,22.9c0,0.2,0,0.3,0.1,0.5
		c0.1,0.6,0.3,1.1,0.4,1.6c0.7,3.2,1.5,6.3,2.4,9.4c0.3,0.9,0.6,1.8,0.9,2.6c0.9,2.7,1.8,5.3,2.9,7.9c0.5,1.1,1,2.2,1.5,3.3
		c1,2.3,2.1,4.5,3.2,6.7c0.7,1.2,1.4,2.4,2.1,3.6c1.1,2,2.3,4,3.6,5.9c0.8,1.2,1.7,2.4,2.6,3.6c1.3,1.8,2.6,3.6,4,5.3
		c0.9,1.1,1.9,2.2,2.8,3.3c0.8,0.9,1.7,1.7,2.5,2.6c0.7,0.7,1.3,1.5,2,2.2c0.6,0.6,1.2,1.1,1.8,1.7c1.6,1.6,3.2,3.1,4.8,4.5
		c1.3,1.2,2.7,2.3,4.1,3.4c1.7,1.4,3.4,2.7,5.2,4c1.5,1.1,3,2,4.5,3c1.8,1.2,3.7,2.4,5.6,3.5c1.6,0.9,3.2,1.8,4.9,2.6
		c1.9,1,3.8,2,5.8,2.9c1.7,0.8,3.6,1.5,5.3,2.2c2,0.8,3.9,1.6,5.9,2.2c2,0.6,4,1.1,6,1.7c1.9,0.5,3.9,1.1,5.8,1.5
		c2.3,0.5,4.7,0.8,7,1.2c1.7,0.3,3.5,0.6,5.2,0.8c3.8,0.4,7.7,0.6,11.6,0.6c0.4,0,0.7,0.1,1,0.1s0.5,0,0.8,0c3.4,0,6.7-0.2,10-0.5
		c0.3,0,0.6-0.1,0.9-0.1c1.9-0.2,3.7-0.5,5.5-0.8c1.5-0.2,3.1-0.4,4.6-0.7c1-0.2,2.1-0.4,3.1-0.6c1.6-0.4,3.2-0.8,4.8-1.2
		c1.7-0.4,3.5-0.8,5.2-1.3c0.3-0.1,0.6-0.2,0.9-0.3s0.6-0.2,1-0.4c1.5-0.5,3-1.1,4.6-1.7c1.1-0.4,2.2-0.8,3.3-1.2
		c1.1-0.4,2.1-0.9,3.1-1.4c0.2-0.1,0.3-0.1,0.4-0.2c1.4-0.6,2.8-1.3,4.1-2c0.6-0.3,1.3-0.6,1.9-0.9c1-0.5,2-1,3-1.6
		c0.6-0.4,1.2-0.8,1.9-1.1c1.2-0.7,2.4-1.4,3.6-2.2c1-0.6,2-1.1,2.9-1.8c0.6-0.4,1.2-0.9,1.9-1.4s1.3-1,1.9-1.4c1-0.7,2-1.5,3-2.2
		c0.4-0.3,0.9-0.6,1.3-1c1-0.8,2-1.7,3-2.6c0.8-0.7,1.5-1.4,2.3-2.1s1.6-1.4,2.4-2.2c1-0.9,1.9-1.8,2.9-2.8c1.2-1.3,2.4-2.6,3.5-3.9
		c0.4-0.5,0.9-0.9,1.4-1.4c0.3-0.4,0.7-0.8,1-1.2l0.1-0.1l0.1-0.1c0.5-0.6,1.1-1.2,1.6-1.9c1.4-1.7,2.7-3.5,4-5.3
		c0.9-1.2,1.7-2.4,2.6-3.6c1.3-1.9,2.4-3.9,3.6-5.9c0.7-1.2,1.4-2.4,2.1-3.6c1.2-2.2,2.2-4.5,3.2-6.7c0.3-0.6,0.6-1.3,0.9-1.9
		c0.3,0.6,0.6,1.3,0.9,1.9c1,2.3,2.1,4.5,3.2,6.7c0.7,1.2,1.4,2.4,2.1,3.6c1.1,2,2.3,4,3.6,5.9c0.8,1.2,1.7,2.4,2.6,3.6
		c1.3,1.8,2.6,3.6,4,5.3c0.5,0.6,1.1,1.3,1.6,1.9l0.1,0.1l0.1,0.1c0.3,0.4,0.7,0.8,1,1.2c0.4,0.5,0.9,0.9,1.4,1.4
		c1.2,1.3,2.3,2.6,3.5,3.9c0.9,1,1.9,1.9,2.9,2.8c0.8,0.7,1.6,1.4,2.4,2.2c0.8,0.7,1.5,1.4,2.3,2.1c1,0.9,2,1.7,3,2.6
		c0.4,0.3,0.9,0.6,1.3,1c1,0.8,2,1.5,3,2.2c0.6,0.5,1.3,1,1.9,1.4c0.6,0.4,1.2,0.9,1.9,1.4c0.9,0.6,2,1.2,2.9,1.8
		c1.2,0.7,2.4,1.5,3.6,2.2c0.6,0.4,1.2,0.8,1.9,1.1c1,0.5,2,1.1,3,1.6c0.6,0.3,1.3,0.6,1.9,0.9c1.4,0.7,2.7,1.4,4.1,2
		c0.2,0.1,0.3,0.1,0.4,0.2c1,0.5,2.1,0.9,3.1,1.4c1.1,0.4,2.2,0.8,3.3,1.2c1.5,0.6,3,1.2,4.6,1.7c0.3,0.1,0.6,0.2,1,0.4
		c0.3,0.1,0.6,0.2,0.9,0.3c1.7,0.5,3.5,0.9,5.2,1.3c1.6,0.4,3.2,0.9,4.8,1.2c1,0.2,2,0.4,3.1,0.6c1.5,0.3,3.1,0.5,4.6,0.7
		c1.8,0.3,3.6,0.6,5.5,0.8c0.3,0,0.6,0.1,0.9,0.1c3.3,0.3,6.6,0.5,10,0.5c0.3,0,0.5,0,0.8,0c0.4,0,0.7-0.1,1-0.1
		c3.9,0,7.8-0.2,11.6-0.6c1.8-0.2,3.5-0.6,5.2-0.8c2.4-0.4,4.7-0.7,7-1.2c2-0.4,3.9-1,5.8-1.5c2-0.5,4-1,6-1.7s4-1.5,5.9-2.2
		c1.8-0.7,3.6-1.4,5.3-2.2c2-0.9,3.9-1.9,5.8-2.9c1.6-0.8,3.3-1.7,4.9-2.6c1.9-1.1,3.7-2.3,5.6-3.5c1.5-1,3-2,4.5-3
		c1.8-1.3,3.5-2.6,5.2-4c1.4-1.1,2.7-2.2,4.1-3.4c1.7-1.5,3.3-3,4.8-4.5c0.6-0.6,1.2-1.1,1.8-1.7c0.7-0.7,1.3-1.5,2-2.2
		c0.8-0.9,1.7-1.7,2.5-2.6c0.9-1.1,1.9-2.2,2.8-3.3c1.4-1.7,2.7-3.5,4-5.3c0.9-1.2,1.7-2.4,2.6-3.6c1.3-1.9,2.4-3.9,3.6-5.9
		c0.7-1.2,1.4-2.4,2.1-3.6c1.2-2.2,2.2-4.5,3.2-6.7c0.5-1.1,1-2.2,1.5-3.3c1.1-2.6,2-5.2,2.9-7.9c0.3-0.9,0.6-1.7,0.9-2.6
		c0.9-3.1,1.7-6.2,2.4-9.4c0.1-0.5,0.3-1.1,0.4-1.6c1.5-7.5,2.4-15.3,2.4-23.3v-0.1v-0.1c-0.4-3.7-0.6-7.3-0.9-10.9
		C477.5,324.2,467,301,450.9,282.8z M143.9,453.8c-51.8,0-93.8-42-93.8-93.8s42-93.8,93.8-93.8c51.8,0,93.8,42,93.8,93.8
		S195.7,453.8,143.9,453.8z M362.7,453.8c-51.8,0-93.8-42-93.8-93.8s42-93.8,93.8-93.8s93.8,42,93.8,93.8S414.5,453.8,362.7,453.8z"
		/>
</g>
<g>
	<path class="yazi" d="M715,374.3c-20.3,0-37.9-4.3-52.7-12.9S636,340.5,628,324.5s-12-34.9-12-56.8c0-22.1,4-41,12-57
		c8-15.9,19.4-28.2,34.3-36.8c14.8-8.6,32.4-12.9,52.7-12.9c20.5,0,38.2,4.3,53,12.9c14.8,8.6,26.3,20.8,34.3,36.8
		c8,15.9,12,34.8,12,56.7c0,22.1-4.1,41.1-12.2,57.1c-8.1,16-19.5,28.3-34.3,36.9C753.1,370,735.5,374.3,715,374.3z M715,344.4
		c19.1,0,34.2-6.6,45.1-19.8c10.9-13.2,16.4-32.3,16.4-57.3s-5.5-44-16.4-57s-26-19.5-45.1-19.5c-18.9,0-33.9,6.5-44.8,19.5
		c-10.9,13-16.4,32-16.4,57s5.5,44.1,16.4,57.3C681.1,337.8,696.1,344.4,715,344.4z"/>
	<path class="yazi" d="M869.4,371.9l-58-147.9h37.8l41.6,114.5h-7.3L925.4,224h26.7l41.6,114.5H987l41.6-114.5h35.4l-58,147.9h-31.9
		L929,252.7h16.7l-44.2,119.2H869.4z"/>
	<path class="yazi" d="M1064.7,371.9V156.4h36.6V372h-36.6V371.9z"/>
	<path class="yazi" d="M1246,355.5c-7,5.9-15.7,10.4-25.9,13.6s-20.6,4.8-31.2,4.8c-16,0-29.8-3-41.4-9.1
		c-11.6-6-20.6-14.8-26.8-26.4c-6.3-11.5-9.4-25.2-9.4-41c0-15.2,3-28.7,9.1-40.3c6-11.6,14.4-20.7,25.2-27.2
		c10.7-6.5,23.1-9.8,37.2-9.8c13.7,0,25.4,3,35.1,8.9c9.8,6,17.3,14.5,22.7,25.6c5.4,11.1,8.1,24.3,8.1,39.5v5.6h-105.1l0.3-19.6
		h83.2l-10,10c0.2-14.3-2.6-25.1-8.3-32.5c-5.8-7.4-14.1-11.1-25-11.1c-11.7,0-20.8,4.2-27.2,12.4c-6.4,8.3-9.7,20.2-9.7,35.6
		c0,17.6,3.6,30.5,10.8,38.8c7.2,8.3,18.2,12.4,32.8,12.4c8,0,15.9-1.3,23.6-4c7.7-2.6,14.9-6.5,21.5-11.6L1246,355.5z"/>
	<path class="yazi" d="M1325.4,437.3c-22.8,0-42.9-4.7-60-14.1l5.9-27.8c9,4.7,17.8,8.2,26.5,10.4c8.7,2.2,17.7,3.4,27.1,3.4
		c13.1,0,22.9-3.2,29.6-9.7c6.6-6.4,10-16.2,10-29.3v-36.6h3.5c-2.3,6.3-6,12-11,17.1c-5,5.2-11,9.3-18,12.3s-14.7,4.5-23.1,4.5
		c-12.9,0-24.3-3-34.3-9.1c-10-6-17.7-14.6-23.3-25.6c-5.6-11-8.3-24-8.3-38.8s2.8-27.8,8.3-38.8c5.6-11,13.3-19.6,23.3-25.8
		s21.4-9.2,34.3-9.2c12.7,0,23.7,3.1,33.1,9.4s15.7,14.6,19,25.2l-3.5,0.6v-31.3h36.3v143.2c0,23-6.3,40.5-19,52.3
		C1368.9,431.3,1350.2,437.3,1325.4,437.3z M1325.7,339.1c12.1,0,21.6-4,28.4-12s10.3-19,10.3-33.1s-3.4-25.1-10.3-33.1
		c-6.8-8-16.3-12-28.4-12c-12.3,0-22,4-29,12s-10.5,19-10.5,33.1s3.5,25.1,10.5,33.1S1313.4,339.1,1325.7,339.1z"/>
	<path class="yazi" d="M1545,355.5c-7,5.9-15.7,10.4-25.9,13.6s-20.6,4.8-31.2,4.8c-16,0-29.8-3-41.4-9.1
		c-11.6-6-20.6-14.8-26.8-26.4c-6.3-11.5-9.4-25.2-9.4-41c0-15.2,3-28.7,9.1-40.3c6-11.6,14.4-20.7,25.2-27.2
		c10.7-6.5,23.1-9.8,37.2-9.8c13.7,0,25.4,3,35.1,8.9c9.8,6,17.3,14.5,22.7,25.6c5.4,11.1,8.1,24.3,8.1,39.5v5.6h-105.1l0.3-19.6
		h83.2l-10,10c0.2-14.3-2.6-25.1-8.3-32.5c-5.8-7.4-14.1-11.1-25-11.1c-11.7,0-20.8,4.2-27.2,12.4c-6.4,8.3-9.7,20.2-9.7,35.6
		c0,17.6,3.6,30.5,10.8,38.8c7.2,8.3,18.2,12.4,32.8,12.4c8,0,15.9-1.3,23.6-4c7.7-2.6,14.9-6.5,21.5-11.6L1545,355.5z"/>
</g>
</svg>
