<?xml version="1.0" encoding="utf-8"?>
<!-- Generator: Adobe Illustrator 22.0.1, SVG Export Plug-In . SVG Version: 6.00 Build 0)  -->
<svg version="1.1" id="katman_1" xmlns="http://www.w3.org/2000/svg" xmlns:xlink="http://www.w3.org/1999/xlink" x="0px" y="0px"
	 viewBox="0 0 2000 2000" style="enable-background:new 0 0 2000 2000;" xml:space="preserve">
<style type="text/css">
	.st0{fill:#6D6E71;}
	.st1{fill:#FFFFFF;}
	.st2{fill:#F7941E;}
</style>
<g>
	<path class="st0" d="M1760.7,1325.2L1760.7,1325.2c-8-86.2-43.6-164.4-97.8-225.8l146.4-146.4c0,0-63-12.8-189.9-12.8
		c-105.7,0-153.8,12.8-153.8,12.8c-121.4-113.4-284.3-183-463.5-183c-0.7,0-1.4,0-2.2,0c-0.7,0-1.4,0-2.2,0
		c-179.2,0-342.2,69.6-463.5,183c0,0-48.1-12.8-153.8-12.8c-127,0-189.9,12.8-189.9,12.8l146.4,146.4
		c-54.2,61.4-89.7,139.6-97.7,225.8h0c-1.1,12-1.7,24.1-1.7,36.4c0,0.1,0,0.2,0,0.3c0,0,0,0,0,0c0,0,0,0,0,0c0,0.1,0,0.2,0,0.4
		c0,26.4,2.8,52.2,7.7,77.1c0.1,0.5,0.1,1.1,0.2,1.6c0.4,1.9,0.9,3.6,1.3,5.5c2.3,10.8,5,21.4,8.2,31.8c0.9,3,2.1,5.9,3.1,8.9
		c3,9,6.1,18,9.8,26.7c1.6,3.8,3.4,7.4,5.1,11.2c3.5,7.7,7,15.3,10.9,22.7c2.2,4.2,4.7,8.2,7.1,12.3c3.9,6.7,7.8,13.3,12,19.8
		c2.8,4.2,5.7,8.2,8.6,12.3c4.4,6.1,8.8,12.2,13.5,18c3,3.8,6.2,7.4,9.4,11.1c2.7,3.1,5.8,5.9,8.5,8.9c2.3,2.4,4.3,5.1,6.6,7.5
		c1.9,2,4.1,3.7,6,5.6c5.3,5.3,10.7,10.4,16.3,15.3c4.5,4,9,7.8,13.7,11.6c5.8,4.7,11.6,9.2,17.6,13.6c4.9,3.5,10,6.9,15,10.2
		c6.2,4,12.3,8,18.7,11.7c5.4,3.1,10.9,5.9,16.5,8.8c6.5,3.3,12.9,6.7,19.6,9.7c5.9,2.7,12,4.9,18,7.3c6.6,2.6,13.2,5.3,20,7.5
		c6.6,2.2,13.4,3.9,20.1,5.7c6.5,1.8,13,3.7,19.7,5.2c7.8,1.7,15.8,2.8,23.8,4c5.9,0.9,11.7,2.1,17.6,2.8c12.8,1.4,25.9,2,39.1,2.2
		c1.2,0,2.3,0.2,3.5,0.2c0,0,0.1,0,0.1,0c0,0,0.1,0,0.1,0c0.9,0,1.7-0.1,2.6-0.1c11.4-0.1,22.6-0.7,33.8-1.7c1-0.1,1.9-0.2,2.9-0.3
		c6.3-0.6,12.4-1.6,18.6-2.5c5.2-0.8,10.4-1.4,15.5-2.4c3.5-0.6,6.9-1.2,10.4-2c0,0,0,0,0.1,0c5.5-1.2,10.8-2.8,16.2-4.2
		c5.9-1.5,11.9-2.7,17.6-4.5c1-0.3,2-0.7,3-1c1.1-0.4,2.1-0.8,3.2-1.2c5.2-1.7,10.3-3.7,15.4-5.6c3.7-1.4,7.5-2.6,11.1-4.1
		c3.5-1.5,7-3,10.5-4.6c0.5-0.2,1-0.5,1.5-0.7c4.7-2.1,9.3-4.4,13.9-6.7c2.1-1.1,4.3-2,6.4-3.1c3.4-1.8,6.8-3.5,10.1-5.3
		c2.2-1.2,4.2-2.6,6.3-3.9c4.1-2.4,8.1-4.8,12-7.3c3.3-2,6.7-3.9,9.9-6c2.2-1.5,4.2-3.1,6.3-4.6c2.2-1.6,4.3-3.3,6.5-4.8
		c3.4-2.5,6.7-4.9,10-7.5c1.4-1.1,3-2.1,4.4-3.3c3.5-2.8,6.9-5.7,10.3-8.6c2.6-2.3,5.1-4.7,7.7-7c2.7-2.4,5.4-4.8,8-7.3c0,0,0,0,0,0
		c3.2-3.1,6.5-6.2,9.7-9.4c4.1-4.2,8-8.8,12-13.2c1.5-1.7,3.2-3.2,4.7-4.9c1.2-1.3,2.3-2.7,3.4-4c0.1-0.1,0.2-0.2,0.3-0.3
		c0.1-0.1,0.2-0.2,0.3-0.3c1.8-2.1,3.7-4.2,5.4-6.4c4.7-5.8,9.1-11.9,13.5-18c2.9-4.1,5.9-8.1,8.6-12.3c4.2-6.4,8.1-13.1,12-19.8
		c2.4-4.1,4.8-8.1,7.1-12.3c3.9-7.4,7.5-15,10.9-22.7c1-2.1,1.9-4.3,2.9-6.4c1,2.1,2,4.3,2.9,6.4c3.5,7.7,7,15.3,10.9,22.7
		c2.2,4.2,4.7,8.2,7.1,12.3c3.9,6.7,7.8,13.3,12,19.8c2.8,4.2,5.7,8.2,8.6,12.3c4.4,6.1,8.8,12.2,13.5,18c1.7,2.2,3.6,4.3,5.4,6.4
		c0.1,0.1,0.2,0.2,0.3,0.3c0.1,0.1,0.2,0.2,0.3,0.3c1.2,1.3,2.3,2.7,3.4,4c1.5,1.7,3.2,3.2,4.7,4.9c4,4.4,7.8,8.9,12,13.2
		c3.1,3.2,6.4,6.3,9.7,9.4c0,0,0,0,0,0c2.6,2.5,5.3,4.9,8,7.3c2.6,2.3,5.1,4.7,7.7,7c3.4,2.9,6.8,5.8,10.3,8.6
		c1.4,1.1,3,2.2,4.4,3.3c3.3,2.6,6.6,5,10,7.5c2.2,1.6,4.3,3.3,6.5,4.8c2.1,1.5,4.2,3.1,6.3,4.6c3.2,2.1,6.6,4,9.9,6
		c4,2.5,8,4.9,12,7.3c2.1,1.2,4.2,2.6,6.3,3.9c3.3,1.9,6.8,3.6,10.1,5.3c2.1,1.1,4.3,2,6.4,3.1c4.6,2.3,9.2,4.6,13.9,6.7
		c0.5,0.2,1,0.5,1.5,0.7c3.5,1.6,7,3.1,10.5,4.6c3.6,1.5,7.4,2.7,11.1,4.1c5.1,1.9,10.2,3.9,15.4,5.6c1.1,0.4,2.1,0.8,3.2,1.2
		c1,0.3,2,0.7,3,1c5.8,1.8,11.7,3,17.6,4.5c5.4,1.4,10.7,3,16.2,4.2c0,0,0,0,0.1,0c3.4,0.7,6.9,1.3,10.4,2c5.1,1,10.3,1.6,15.5,2.4
		c6.2,0.9,12.3,1.9,18.6,2.5c1,0.1,1.9,0.2,2.9,0.3c11.1,1,22.4,1.6,33.8,1.7c0.9,0,1.7,0.1,2.6,0.1c0,0,0.1,0,0.1,0
		c0,0,0.1,0,0.1,0c1.2,0,2.3-0.2,3.5-0.2c13.2-0.1,26.2-0.8,39.1-2.2c6-0.6,11.8-1.9,17.6-2.8c8-1.2,16-2.3,23.8-4
		c6.7-1.4,13.1-3.4,19.7-5.2c6.7-1.8,13.5-3.5,20.1-5.7c6.8-2.2,13.4-4.9,20-7.5c6-2.4,12.1-4.6,18-7.3c6.7-3,13.1-6.3,19.6-9.7
		c5.5-2.9,11.1-5.7,16.5-8.8c6.4-3.7,12.6-7.7,18.7-11.7c5.1-3.3,10.1-6.7,15-10.2c6-4.4,11.9-8.9,17.6-13.6
		c4.6-3.8,9.2-7.6,13.7-11.6c5.6-5,11-10.1,16.3-15.3c1.9-1.9,4.1-3.7,6-5.6c2.3-2.4,4.3-5,6.6-7.5c2.8-3,5.8-5.8,8.5-8.9
		c3.2-3.7,6.4-7.3,9.4-11.1c4.7-5.8,9.1-11.9,13.5-18c2.9-4.1,5.9-8.1,8.6-12.3c4.2-6.4,8.1-13.1,12-19.8c2.4-4.1,4.8-8.1,7.1-12.3
		c3.9-7.4,7.5-15,10.9-22.7c1.7-3.7,3.5-7.4,5.1-11.2c3.6-8.7,6.8-17.7,9.8-26.7c1-3,2.2-5.9,3.1-8.9c3.2-10.4,5.8-21.1,8.2-31.8
		c0.4-1.8,1-3.6,1.3-5.5c5.2-25.5,8-51.8,8-78.7c0-0.1,0-0.3,0-0.4c0-0.1,0-0.2,0-0.4C1762.4,1349.3,1761.8,1337.2,1760.7,1325.2z"
		/>
	<g>
		<circle class="st1" cx="1365.3" cy="1359.6" r="316.3"/>
		<circle class="st0" cx="1302.2" cy="1297" r="132"/>
	</g>
	<g>
		<circle class="st1" cx="627.4" cy="1359.6" r="316.3"/>
		<circle class="st0" cx="690.5" cy="1297" r="132"/>
	</g>
	<polygon class="st2" points="897.5,1739.7 1000,1872 1102.8,1739.7 1000.2,1612.8 	"/>
	<path class="st2" d="M1002.5,584.7c-160.4,0-308.6,51.4-429.8,138.1v146.6c112.4-105.5,263.4-170.4,429.8-170.4
		c167.4,0,319.2,65.7,431.8,172.4V724.2C1312.7,636.6,1163.8,584.7,1002.5,584.7z"/>
	<path class="st2" d="M1003.5,128L190.6,526.4l146.9,63.8v71.1l-26.4,50.7v153.1h88.2V709.8l-26.4-48.7v-55.7l163.2,70.9
		c0,0,125.7-150,466.3-150c345.2,0,466.3,150,466.3,150l324.4-150L1003.5,128z"/>
</g>
</svg>
