<?xml version="1.0" encoding="utf-8"?>
<!-- Generator: Adobe Illustrator 22.0.1, SVG Export Plug-In . SVG Version: 6.00 Build 0)  -->
<svg version="1.1" id="ee1442bd-1906-4669-896c-455205bcea2c"
	 xmlns="http://www.w3.org/2000/svg" xmlns:xlink="http://www.w3.org/1999/xlink" x="0px" y="0px" viewBox="0 0 1013.9 191.6"
	 style="enable-background:new 0 0 1013.9 191.6;" xml:space="preserve">
<style type="text/css">
	.st0{fill:#F7941E;}
</style>
<g>
	<g>
		<g>
			<rect x="250.4" y="15" class="st0" width="2.8" height="110.9"/>
			<path class="st0" d="M251.3,181.8c0,0-27.3-31.6-27.1-70.3c0.2-38.8,27.7-70.1,27.7-70.1S279.2,73,279,111.7
				C278.9,150.5,251.3,181.8,251.3,181.8z"/>
		</g>
		<g>
			<rect x="810.9" y="15" class="st0" width="2" height="78.4"/>
			<path class="st0" d="M811.6,156.6c0,0-19.3-22.3-19.2-49.7S812,57.4,812,57.4s19.3,22.3,19.2,49.7S811.6,156.6,811.6,156.6z"/>
			<rect x="785.8" y="15" class="st0" width="2.6" height="101.6"/>
			<path class="st0" d="M786.7,191.6c0,0-25-28.9-24.8-64.4S787.3,63,787.3,63s25,28.9,24.8,64.4C812,162.9,786.7,191.6,786.7,191.6
				z"/>
			<rect x="763.5" y="15" class="st0" width="2" height="78.4"/>
			<path class="st0" d="M764.2,156.6c0,0-19.3-22.3-19.2-49.7s19.6-49.5,19.6-49.5s19.3,22.3,19.2,49.7S764.2,156.6,764.2,156.6z"/>
		</g>
		<g>
			<path class="st0" d="M189.4,42.7c0,0,6.9-4.6,8.9-12.1s-1.6-14.9-1.6-14.9s-6.9,4.6-8.9,12.1C185.8,35.2,189.4,42.7,189.4,42.7z"
				/>
			<path class="st0" d="M177,35.2c0,0,0.7-8.3,6.2-13.7s13.8-5.8,13.8-5.8s-0.7,8.3-6.2,13.7S177,35.2,177,35.2z"/>
		</g>
		<g>
			<path class="st0" d="M920.8,35.4c0,0,1.3-6.7-1.8-12.1c-3.1-5.5-9.6-7.7-9.6-7.7s-1.3,6.7,1.8,12.1
				C914.4,33.2,920.8,35.4,920.8,35.4z"/>
			<path class="st0" d="M909.3,38.3c0,0-4.4-5.2-4.3-11.5c0.1-6.3,4.6-11.4,4.6-11.4s4.4,5.2,4.3,11.5
				C913.8,33.2,909.3,38.3,909.3,38.3z"/>
		</g>
		<g>
			<path class="st0" d="M642.9,35c0,0,1.3-6.7-1.8-12.1c-3.1-5.5-9.6-7.7-9.6-7.7s-1.3,6.7,1.8,12.1C636.5,32.8,642.9,35,642.9,35z"
				/>
			<path class="st0" d="M631.3,37.9c0,0-4.4-5.2-4.3-11.5c0.1-6.3,4.6-11.4,4.6-11.4s4.4,5.2,4.3,11.5
				C635.9,32.8,631.3,37.9,631.3,37.9z"/>
		</g>
		<g>
			<path class="st0" d="M541.1,22.9c-1.3-4.9-5.9-7.9-5.9-7.9s-2.4,4.9-1.1,9.8c1.3,4.9,5.9,7.9,5.9,7.9S542.4,27.8,541.1,22.9z"/>
			<path class="st0" d="M545.7,24c-3.6-3.5-4.1-9-4.1-9s5.4,0.3,9.1,3.8c3.6,3.5,4.1,9,4.1,9S549.3,27.5,545.7,24z"/>
		</g>
		<g>
			<path class="st0" d="M410.8,32.7c0,0,4.6-3,5.9-8c1.3-4.9-1.1-9.9-1.1-9.9s-4.6,3-5.9,8S410.8,32.7,410.8,32.7z"/>
			<path class="st0" d="M389.1,34.3c0,0,0.7-8.3,6.2-13.7s13.8-5.8,13.8-5.8s-0.7,8.3-6.2,13.7S389.1,34.3,389.1,34.3z"/>
		</g>
		<g>
			<g>
				<rect x="504.3" y="15" class="st0" width="1.7" height="68.8"/>
				<path class="st0" d="M504.9,118.5c0,0-16.9-19.6-16.8-43.6s17.2-43.5,17.2-43.5S522.2,51,522.1,75
					C522,99.1,504.9,118.5,504.9,118.5z"/>
			</g>
			<g>
				<rect x="478.6" y="15" class="st0" width="2.3" height="92.1"/>
				<path class="st0" d="M479.4,153.6c0,0-22.7-26.2-22.5-58.4S480,37,480,37s22.7,26.2,22.5,58.4S479.4,153.6,479.4,153.6z"/>
			</g>
		</g>
	</g>
	<rect class="st0" width="1013.9" height="15"/>
</g>
</svg>
