<?xml version="1.0" encoding="utf-8"?>
<!-- Generator: Adobe Illustrator 22.0.1, SVG Export Plug-In . SVG Version: 6.00 Build 0)  -->
<svg version="1.1" id="ee1442bd-1906-4669-896c-455205bcea2c"
	 xmlns="http://www.w3.org/2000/svg" xmlns:xlink="http://www.w3.org/1999/xlink" x="0px" y="0px" viewBox="0 0 1013.9 503"
	 style="enable-background:new 0 0 1013.9 503;" xml:space="preserve">
<style type="text/css">
	.st0{fill:#2F2E41;}
	.st1{fill:#F7941E;}
	.st2{fill:#F2F2F2;}
	.st3{fill:#3F3D56;}
	.st4{opacity:0.1;fill:#F2F2F2;enable-background:new    ;}
	.st5{fill:#6D6E71;}
	.st6{fill:#FFFFFF;}
	.st7{display:none;}
	.st8{display:inline;}
	.st9{display:inline;fill:#F7941E;}
</style>
<rect y="0" class="st0" width="503" height="503"/>
<path class="st1" d="M446.2,259.5c-12.7-41.1-38.1-70-38.1-70S388,212.7,375,247.1L455.1,425c7.3-9.4,32.1-44.2,32-85.7
	c-0.2-48.6-34.8-87.9-34.8-87.9S449.8,254.4,446.2,259.5z"/>
<title>moonlight</title>
<path class="st0" d="M507,0C228.3,0,2.2,224.8,0,503h1013.9C1011.8,224.8,785.6,0,507,0z"/>
<circle class="st2" cx="480.8" cy="52.5" r="5"/>
<circle class="st2" cx="323.8" cy="217.5" r="2"/>
<circle class="st2" cx="618.8" cy="311.5" r="2"/>
<circle class="st2" cx="97.8" cy="286.5" r="2"/>
<circle class="st2" cx="877.8" cy="215.5" r="2"/>
<circle class="st2" cx="235.8" cy="236.5" r="2"/>
<circle class="st2" cx="563.8" cy="196.5" r="2"/>
<circle class="st2" cx="629.8" cy="52.5" r="2"/>
<rect x="211.8" y="288.5" class="st2" width="2" height="1"/>
<rect x="270.8" y="135.5" class="st2" width="2" height="1"/>
<rect x="414.8" y="249.5" class="st2" width="2" height="1"/>
<rect x="796.8" y="293.5" class="st2" width="2" height="1"/>
<rect x="677.8" y="140.5" class="st2" width="2" height="1"/>
<rect x="179.8" y="322.5" class="st3" width="8.1" height="180.2"/>
<rect x="405.7" y="322.5" class="st3" width="6.4" height="180.2"/>
<path class="st3" d="M227.3,303.4c0.3,63-44,114.3-44,114.3s-44.8-50.9-45.1-113.9s44-114.3,44-114.3S227,240.4,227.3,303.4z"/>
<rect x="138.4" y="363.7" class="st3" width="7.8" height="139"/>
<path class="st3" d="M453.3,303.4c0.3,63-44,114.3-44,114.3s-44.8-50.9-45.1-113.9s44-114.3,44-114.3S453,240.4,453.3,303.4z"/>
<path class="st3" d="M177.1,339.4c0.2,48.6-34,88.2-34,88.2s-34.6-39.2-34.8-87.9s34-88.2,34-88.2S176.9,290.8,177.1,339.4z"/>
<g>
	<path class="st2" d="M176.7,459.2c-3.8,0-7.2-0.7-10.3-2.1c-3.1-1.4-5.7-3.4-7.9-6c-2.2-2.6-3.9-5.7-5-9.2
		c-1.2-3.5-1.8-7.4-1.8-11.6v-0.9c0-4.2,0.6-8.1,1.8-11.6c1.2-3.5,2.9-6.6,5-9.2s4.8-4.6,7.9-6.1c3.1-1.4,6.5-2.1,10.3-2.1
		c3.9,0,7.4,0.7,10.5,2.1c3.1,1.4,5.7,3.4,7.9,6.1c2.2,2.6,3.8,5.7,5,9.2c1.2,3.5,1.7,7.4,1.7,11.6v0.9c0,4.2-0.6,8.1-1.7,11.6
		c-1.2,3.5-2.8,6.6-5,9.2c-2.2,2.6-4.8,4.6-7.9,6C184.1,458.5,180.6,459.2,176.7,459.2z M176.7,451.4c3.5,0,6.3-0.9,8.5-2.7
		c2.2-1.8,3.9-4.2,5-7.4c1.1-3.2,1.6-6.9,1.6-11.1v-0.9c0-4.2-0.5-7.8-1.6-11c-1.1-3.1-2.8-5.6-5-7.4c-2.2-1.8-5.1-2.7-8.5-2.7
		c-3.3,0-6.1,0.9-8.3,2.7c-2.2,1.8-3.9,4.2-5,7.4c-1.1,3.1-1.7,6.8-1.7,11v0.9c0,4.2,0.6,7.9,1.7,11.1c1.1,3.2,2.8,5.7,5,7.4
		C170.7,450.5,173.4,451.4,176.7,451.4z"/>
	<path class="st2" d="M221.4,458.4L211,422.8l-5-0.8v-6.1h19.3v6.1l-4.8,0.9l4.8,18.5l1,4h0.2l1.4-4l8.9-25.4h7.2l8.6,25.6l1.5,4.5
		h0.2l1.4-4.5l5.1-18.6l-5.1-0.9v-6.1h18.9v6.1l-4.9,0.8l-10.9,35.6h-8.7l-8.1-22.9l-1.6-5.6h-0.2l-1.7,5.6l-8.3,22.9H221.4z"/>
	<path class="st2" d="M277.7,458.4v-6.1l5.9-1.2v-46.8l-6.3-1.2v-6.1h16.2v54.1l5.9,1.2v6.1H277.7z"/>
	<path class="st2" d="M323.1,459.2c-4,0-7.5-0.9-10.5-2.7c-3-1.8-5.3-4.3-6.9-7.4c-1.6-3.2-2.5-6.8-2.5-10.9v-1.7
		c0-4.1,0.8-7.8,2.4-11.1c1.6-3.2,3.8-5.8,6.7-7.6c2.8-1.8,6.1-2.8,9.7-2.8c3.9,0,7.1,0.8,9.7,2.3c2.6,1.5,4.6,3.7,5.9,6.6
		c1.3,2.8,2,6.3,2,10.2v5.7h-26.1l-0.1,0.2c0.1,2.2,0.6,4.2,1.4,5.9s2,3.1,3.5,4.1c1.5,1,3.4,1.5,5.6,1.5c2.3,0,4.4-0.3,6.3-0.9
		c1.9-0.6,3.6-1.5,5.2-2.7l3.1,6.2c-1.7,1.4-3.8,2.6-6.4,3.6C329.6,458.8,326.5,459.2,323.1,459.2z M313.6,433h16.5v-1
		c0-1.9-0.3-3.5-0.8-4.9c-0.6-1.4-1.4-2.5-2.6-3.3c-1.2-0.8-2.7-1.2-4.5-1.2c-1.6,0-3,0.4-4.2,1.3c-1.2,0.9-2.2,2.1-2.9,3.6
		s-1.2,3.3-1.5,5.2L313.6,433z"/>
	<path class="st2" d="M388.6,415.9h-5.1H378h-3l-0.7,5.3c-1.3-2-3-3.5-4.9-4.5c-1.9-1.1-4.2-1.6-6.8-1.6c-3.4,0-6.4,0.9-8.9,2.8
		c-2.5,1.9-4.4,4.5-5.7,7.9c-1.3,3.4-2,7.3-2,11.9v0.8c0,4.1,0.7,7.7,2,10.8c1.3,3.1,3.2,5.5,5.7,7.3c2.5,1.7,5.5,2.6,8.9,2.6
		c2.3,0,4.4-0.4,6.2-1.3c1.8-0.9,3.4-2.2,4.7-3.8v3.3c0,3.3-0.8,5.8-2.3,7.6c-1.5,1.8-3.9,2.7-7.1,2.7c-1.8,0-3.7-0.2-5.7-0.7
		c-2-0.5-3.9-1.1-5.5-1.8l-2,7.2c1.9,1,4.2,1.8,6.7,2.3c2.6,0.6,4.9,0.8,7,0.8c4,0,7.3-0.7,10.2-2.2c2.8-1.5,5-3.6,6.5-6.3
		c1.5-2.7,2.2-5.9,2.2-9.6v-34.4l5.1-1.1V415.9z M373.6,446.7c-0.9,1.5-2,2.7-3.3,3.5c-1.3,0.8-3,1.2-4.9,1.2
		c-3.3,0-5.7-1.2-7.2-3.5c-1.5-2.3-2.3-5.5-2.3-9.4v-0.8c0-2.9,0.3-5.5,1-7.7c0.7-2.2,1.7-3.9,3.1-5.2c1.4-1.2,3.2-1.9,5.4-1.9
		c1.9,0,3.5,0.4,4.8,1.3c1.4,0.9,2.5,2,3.3,3.5V446.7z"/>
	<path class="st2" d="M411.8,459.2c-4,0-7.5-0.9-10.5-2.7c-3-1.8-5.3-4.3-6.9-7.4c-1.6-3.2-2.5-6.8-2.5-10.9v-1.7
		c0-4.1,0.8-7.8,2.4-11.1c1.6-3.2,3.8-5.8,6.7-7.6c2.8-1.8,6.1-2.8,9.7-2.8c3.9,0,7.1,0.8,9.7,2.3c2.6,1.5,4.6,3.7,5.9,6.6
		c1.3,2.8,2,6.3,2,10.2v5.7h-26.1l-0.1,0.2c0.1,2.2,0.6,4.2,1.4,5.9s2,3.1,3.5,4.1c1.5,1,3.4,1.5,5.6,1.5c2.3,0,4.4-0.3,6.3-0.9
		c1.9-0.6,3.6-1.5,5.2-2.7l3.1,6.2c-1.7,1.4-3.8,2.6-6.4,3.6C418.3,458.8,415.3,459.2,411.8,459.2z M402.4,433h16.5v-1
		c0-1.9-0.3-3.5-0.8-4.9c-0.6-1.4-1.4-2.5-2.6-3.3c-1.2-0.8-2.7-1.2-4.5-1.2c-1.6,0-3,0.4-4.2,1.3c-1.2,0.9-2.2,2.1-2.9,3.6
		s-1.2,3.3-1.5,5.2L402.4,433z"/>
</g>
<rect x="223.6" y="363.7" class="st3" width="7.9" height="139"/>
<path class="st3" d="M261.1,339.4c0.2,48.6-34,88.2-34,88.2s-34.6-39.2-34.8-87.9s34-88.2,34-88.2S260.9,290.8,261.1,339.4z"/>
<rect x="712.1" y="363.7" class="st1" width="3.5" height="139"/>
<path class="st3" d="M748.1,381.4c0.2,48.6-34,88.2-34,88.2s-34.6-39.2-34.8-87.9c-0.2-48.6,34-88.2,34-88.2
	S747.9,332.8,748.1,381.4z"/>
<rect x="449.9" y="363.7" class="st3" width="5.9" height="139"/>
<path class="st3" d="M487.1,339.4c0.2,48.6-34,88.2-34,88.2s-34.6-39.2-34.8-87.9s34-88.2,34-88.2S486.9,290.8,487.1,339.4z"/>
<rect x="365.8" y="363.7" class="st3" width="6.1" height="139"/>
<path class="st3" d="M403.1,339.4c0.2,48.6-34,88.2-34,88.2s-34.6-39.2-34.8-87.9s34-88.2,34-88.2S402.9,290.8,403.1,339.4z"/>
<path class="st1" d="M738.4,428.4l-58.8-54.1c-0.2,2.4-0.2,4.9-0.2,7.4c0.2,48.6,34.8,87.9,34.8,87.9
	C724.2,457.1,732.3,443.2,738.4,428.4z"/>
<path class="st3" d="M300.6,490.3c2,7.4,8.9,12.1,8.9,12.1s3.6-7.5,1.6-14.9s-8.9-12.1-8.9-12.1S298.6,482.8,300.6,490.3z"/>
<path class="st3" d="M303.6,488.7c5.5,5.4,6.2,13.7,6.2,13.7s-8.3-0.5-13.8-5.8s-6.2-13.7-6.2-13.7S298.1,483.3,303.6,488.7z"/>
<g>
	<path class="st1" d="M682.5,490.3c2,7.4,8.9,12.1,8.9,12.1s3.6-7.5,1.6-14.9s-8.9-12.1-8.9-12.1S680.5,482.8,682.5,490.3z"/>
	<path class="st1" d="M685.5,488.7c5.5,5.4,6.2,13.7,6.2,13.7s-8.3-0.5-13.8-5.8s-6.2-13.7-6.2-13.7S680,483.3,685.5,488.7z"/>
</g>
<path class="st3" d="M76.6,490.3c2,7.4,8.9,12.1,8.9,12.1s3.6-7.5,1.6-14.9s-8.9-12.1-8.9-12.1S74.6,482.8,76.6,490.3z"/>
<path class="st3" d="M79.6,488.7c5.5,5.4,6.2,13.7,6.2,13.7s-8.3-0.5-13.8-5.8s-6.2-13.7-6.2-13.7S74.1,483.3,79.6,488.7z"/>
<polygon class="st4" points="574.7,278 574.7,278 574.7,278 552.9,257.9 552.7,257.9 544,250 543.6,249.9 544,249.7 451.1,164.3 
	451.1,164.3 361.4,81.8 315.6,106 311.9,106.8 311.9,106.8 490,502.5 819,502.5 "/>
<circle class="st2" cx="334.8" cy="92.5" r="27"/>
<g>
	<path class="st5" d="M622.5,445.7L622.5,445.7c-0.4-4.5-2.3-8.5-5.1-11.7l7.6-7.6c0,0-3.3-0.7-9.8-0.7c-5.5,0-7.9,0.7-7.9,0.7
		c-6.3-5.9-14.7-9.5-23.9-9.5h-0.1h-0.1c-9.3,0-17.7,3.6-23.9,9.5c0,0-2.5-0.7-7.9-0.7c-6.6,0-9.8,0.7-9.8,0.7l7.6,7.6
		c-2.8,3.2-4.6,7.2-5,11.7l0,0c-0.1,0.6-0.1,1.2-0.1,1.9l0,0l0,0l0,0l0,0c0,1.4,0.1,2.7,0.4,4v0.1c0,0.1,0,0.2,0.1,0.3
		c0.1,0.6,0.3,1.1,0.4,1.6c0,0.2,0.1,0.3,0.2,0.5c0.2,0.5,0.3,0.9,0.5,1.4c0.1,0.2,0.2,0.4,0.3,0.6c0.2,0.4,0.4,0.8,0.6,1.2
		c0.1,0.2,0.2,0.4,0.4,0.6c0.2,0.3,0.4,0.7,0.6,1c0.1,0.2,0.3,0.4,0.4,0.6c0.2,0.3,0.5,0.6,0.7,0.9c0.2,0.2,0.3,0.4,0.5,0.6
		c0.1,0.2,0.3,0.3,0.4,0.5c0.1,0.1,0.2,0.3,0.3,0.4s0.2,0.2,0.3,0.3c0.3,0.3,0.6,0.5,0.8,0.8c0.2,0.2,0.5,0.4,0.7,0.6
		c0.3,0.2,0.6,0.5,0.9,0.7c0.3,0.2,0.5,0.4,0.8,0.5c0.3,0.2,0.6,0.4,1,0.6c0.3,0.2,0.6,0.3,0.9,0.5c0.3,0.2,0.7,0.3,1,0.5
		c0.3,0.1,0.6,0.3,0.9,0.4c0.3,0.1,0.7,0.3,1,0.4s0.7,0.2,1,0.3c0.3,0.1,0.7,0.2,1,0.3c0.4,0.1,0.8,0.1,1.2,0.2
		c0.3,0,0.6,0.1,0.9,0.1c0.7,0.1,1.3,0.1,2,0.1c0.1,0,0.1,0,0.2,0l0,0l0,0h0.1c0.6,0,1.2,0,1.7-0.1c0.1,0,0.1,0,0.1,0
		c0.3,0,0.6-0.1,1-0.1c0.3,0,0.5-0.1,0.8-0.1c0.2,0,0.4-0.1,0.5-0.1l0,0c0.3-0.1,0.6-0.1,0.8-0.2c0.3-0.1,0.6-0.1,0.9-0.2
		c0.1,0,0.1,0,0.2-0.1c0.1,0,0.1,0,0.2-0.1c0.3-0.1,0.5-0.2,0.8-0.3c0.2-0.1,0.4-0.1,0.6-0.2c0.2-0.1,0.4-0.2,0.5-0.2h0.1
		c0.2-0.1,0.5-0.2,0.7-0.3c0.1-0.1,0.2-0.1,0.3-0.2c0.2-0.1,0.4-0.2,0.5-0.3c0.1-0.1,0.2-0.1,0.3-0.2c0.2-0.1,0.4-0.2,0.6-0.4
		c0.2-0.1,0.3-0.2,0.5-0.3c0.1-0.1,0.2-0.2,0.3-0.2c0.1-0.1,0.2-0.2,0.3-0.2c0.2-0.1,0.3-0.3,0.5-0.4c0.1-0.1,0.2-0.1,0.2-0.2
		c0.2-0.1,0.4-0.3,0.5-0.4s0.3-0.2,0.4-0.4c0.1-0.1,0.3-0.2,0.4-0.4l0,0c0.2-0.2,0.3-0.3,0.5-0.5s0.4-0.5,0.6-0.7
		c0.1-0.1,0.2-0.2,0.2-0.3c0.1-0.1,0.1-0.1,0.2-0.2l0,0l0,0c0.1-0.1,0.2-0.2,0.3-0.3c0.2-0.3,0.5-0.6,0.7-0.9
		c0.1-0.2,0.3-0.4,0.4-0.6c0.2-0.3,0.4-0.7,0.6-1c0.1-0.2,0.2-0.4,0.4-0.6c0.2-0.4,0.4-0.8,0.6-1.2c0.1-0.1,0.1-0.2,0.1-0.3
		c0.1,0.1,0.1,0.2,0.1,0.3c0.2,0.4,0.4,0.8,0.6,1.2c0.1,0.2,0.2,0.4,0.4,0.6c0.2,0.3,0.4,0.7,0.6,1c0.1,0.2,0.3,0.4,0.4,0.6
		c0.2,0.3,0.5,0.6,0.7,0.9c0.1,0.1,0.2,0.2,0.3,0.3l0,0l0,0c0.1,0.1,0.1,0.1,0.2,0.2c0.1,0.1,0.2,0.2,0.2,0.3
		c0.2,0.2,0.4,0.5,0.6,0.7c0.2,0.2,0.3,0.3,0.5,0.5l0,0c0.1,0.1,0.3,0.3,0.4,0.4c0.1,0.1,0.3,0.2,0.4,0.4c0.2,0.1,0.4,0.3,0.5,0.4
		s0.2,0.1,0.2,0.2c0.2,0.1,0.3,0.3,0.5,0.4c0.1,0.1,0.2,0.2,0.3,0.2c0.1,0.1,0.2,0.2,0.3,0.2c0.2,0.1,0.3,0.2,0.5,0.3
		c0.2,0.1,0.4,0.3,0.6,0.4c0.1,0.1,0.2,0.1,0.3,0.2c0.2,0.1,0.4,0.2,0.5,0.3c0.1,0.1,0.2,0.1,0.3,0.2c0.2,0.1,0.5,0.2,0.7,0.3h0.1
		c0.2,0.1,0.4,0.2,0.5,0.2c0.2,0.1,0.4,0.1,0.6,0.2c0.3,0.1,0.5,0.2,0.8,0.3c0.1,0,0.1,0,0.2,0.1c0.1,0,0.1,0,0.2,0.1
		c0.3,0.1,0.6,0.2,0.9,0.2c0.3,0.1,0.6,0.2,0.8,0.2l0,0c0.2,0,0.4,0.1,0.5,0.1c0.3,0.1,0.5,0.1,0.8,0.1s0.6,0.1,1,0.1
		c0.1,0,0.1,0,0.1,0c0.6,0.1,1.2,0.1,1.7,0.1h0.1l0,0l0,0c0.1,0,0.1,0,0.2,0c0.7,0,1.4,0,2-0.1c0.3,0,0.6-0.1,0.9-0.1
		c0.4-0.1,0.8-0.1,1.2-0.2c0.3-0.1,0.7-0.2,1-0.3c0.3-0.1,0.7-0.2,1-0.3c0.4-0.1,0.7-0.3,1-0.4s0.6-0.2,0.9-0.4
		c0.3-0.2,0.7-0.3,1-0.5c0.3-0.1,0.6-0.3,0.9-0.5c0.3-0.2,0.7-0.4,1-0.6s0.5-0.3,0.8-0.5s0.6-0.5,0.9-0.7c0.2-0.2,0.5-0.4,0.7-0.6
		c0.3-0.3,0.6-0.5,0.8-0.8c0.1-0.1,0.2-0.2,0.3-0.3c0.1-0.1,0.2-0.3,0.3-0.4c0.1-0.2,0.3-0.3,0.4-0.5c0.2-0.2,0.3-0.4,0.5-0.6
		c0.2-0.3,0.5-0.6,0.7-0.9c0.1-0.2,0.3-0.4,0.4-0.6c0.2-0.3,0.4-0.7,0.6-1c0.1-0.2,0.2-0.4,0.4-0.6c0.2-0.4,0.4-0.8,0.6-1.2
		c0.1-0.2,0.2-0.4,0.3-0.6c0.2-0.4,0.4-0.9,0.5-1.4c0.1-0.2,0.1-0.3,0.2-0.5c0.2-0.5,0.3-1.1,0.4-1.6c0-0.1,0.1-0.2,0.1-0.3
		c0.3-1.3,0.4-2.7,0.4-4.1l0,0l0,0C622.6,447,622.5,446.4,622.5,445.7z"/>
	<g>
		<circle class="st6" cx="602.1" cy="447.5" r="16.3"/>
		<circle class="st5" cx="598.8" cy="444.3" r="6.8"/>
	</g>
	<g>
		<circle class="st6" cx="564" cy="447.5" r="16.3"/>
		<circle class="st5" cx="567.2" cy="444.3" r="6.8"/>
	</g>
	<polygon class="st1" points="577.9,467.2 583.2,474 588.5,467.2 583.2,460.6 	"/>
	<path class="st1" d="M583.3,407.5c-8.3,0-15.9,2.7-22.2,7.1v7.6c5.8-5.4,13.6-8.8,22.2-8.8c8.6,0,16.5,3.4,22.3,8.9v-7.6
		C599.3,410.2,591.7,407.5,583.3,407.5z"/>
	<path class="st1" d="M583.4,383.9l-42,20.6l7.6,3.3v3.7l-1.4,2.6v7.9h4.6v-8l-1.4-2.5v-2.9l8.4,3.7c0,0,6.5-7.7,24.1-7.7
		c17.8,0,24.1,7.7,24.1,7.7l16.8-7.7L583.4,383.9z"/>
</g>
<path class="st1" d="M446.2,259.5c-12.7-41.1-38.1-70-38.1-70S388,212.7,375,247.1L455.1,425c7.3-9.4,32.1-44.2,32-85.7
	c-0.2-48.6-34.8-87.9-34.8-87.9S449.8,254.4,446.2,259.5z"/>
<g>
	<path class="st3" d="M946.6,475.4c0,0-6.9,4.6-8.9,12.1s1.6,14.9,1.6,14.9s6.9-4.6,8.9-12.1C950.2,482.8,946.6,475.4,946.6,475.4z"
		/>
	<path class="st3" d="M959,482.8c0,0-0.7,8.3-6.2,13.7s-13.8,5.8-13.8,5.8s0.7-8.3,6.2-13.7S959,482.8,959,482.8z"/>
</g>
<path class="st3" d="M886.3,490.3c2,7.4,8.9,12.1,8.9,12.1s3.6-7.5,1.6-14.9s-8.9-12.1-8.9-12.1S884.3,482.8,886.3,490.3z"/>
<path class="st3" d="M883.6,488.7c5.5,5.4,6.2,13.7,6.2,13.7s-8.3-0.5-13.8-5.8s-6.2-13.7-6.2-13.7S878.1,483.3,883.6,488.7z"/>
<g>
	<rect x="933.8" y="420.1" class="st3" width="2.1" height="82.9"/>
	<path class="st3" d="M955.3,430.7c0.1,29-20.3,52.6-20.3,52.6s-20.6-23.4-20.7-52.4c-0.1-29,20.3-52.6,20.3-52.6
		S955.2,401.7,955.3,430.7z"/>
</g>
<g>
	<rect x="902.8" y="391.5" class="st3" width="2.8" height="111"/>
	<path class="st3" d="M931.5,405.7c0.2,38.8-27.1,70.4-27.1,70.4s-27.6-31.3-27.8-70.2s27.1-70.4,27.1-70.4S931.3,366.8,931.5,405.7
		z"/>
</g>
<g class="st7">
	<g class="st8">
		<g>
			<rect x="250.4" y="518" class="st1" width="2.8" height="110.9"/>
			<path class="st1" d="M251.3,684.8c0,0-27.3-31.6-27.1-70.3c0.2-38.8,27.7-70.1,27.7-70.1s27.3,31.6,27.1,70.3
				C278.9,653.5,251.3,684.8,251.3,684.8z"/>
		</g>
		<g>
			<rect x="810.9" y="518" class="st1" width="2" height="78.4"/>
			<path class="st1" d="M811.6,659.6c0,0-19.3-22.3-19.2-49.7s19.6-49.5,19.6-49.5s19.3,22.3,19.2,49.7S811.6,659.6,811.6,659.6z"/>
			<rect x="785.8" y="518" class="st1" width="2.6" height="101.6"/>
			<path class="st1" d="M786.7,694.6c0,0-25-28.9-24.8-64.4s25.4-64.2,25.4-64.2s25,28.9,24.8,64.4
				C812,665.9,786.7,694.6,786.7,694.6z"/>
			<rect x="763.5" y="518" class="st1" width="2" height="78.4"/>
			<path class="st1" d="M764.2,659.6c0,0-19.3-22.3-19.2-49.7s19.6-49.5,19.6-49.5s19.3,22.3,19.2,49.7S764.2,659.6,764.2,659.6z"/>
		</g>
		<g>
			<path class="st1" d="M189.4,545.7c0,0,6.9-4.6,8.9-12.1s-1.6-14.9-1.6-14.9s-6.9,4.6-8.9,12.1
				C185.8,538.2,189.4,545.7,189.4,545.7z"/>
			<path class="st1" d="M177,538.2c0,0,0.7-8.3,6.2-13.7s13.8-5.8,13.8-5.8s-0.7,8.3-6.2,13.7S177,538.2,177,538.2z"/>
		</g>
		<g>
			<path class="st1" d="M920.8,538.4c0,0,1.3-6.7-1.8-12.1c-3.1-5.5-9.6-7.7-9.6-7.7s-1.3,6.7,1.8,12.1
				C914.4,536.2,920.8,538.4,920.8,538.4z"/>
			<path class="st1" d="M909.3,541.3c0,0-4.4-5.2-4.3-11.5c0.1-6.3,4.6-11.4,4.6-11.4s4.4,5.2,4.3,11.5
				C913.8,536.2,909.3,541.3,909.3,541.3z"/>
		</g>
		<g>
			<path class="st1" d="M642.9,538c0,0,1.3-6.7-1.8-12.1c-3.1-5.5-9.6-7.7-9.6-7.7s-1.3,6.7,1.8,12.1
				C636.5,535.8,642.9,538,642.9,538z"/>
			<path class="st1" d="M631.3,540.9c0,0-4.4-5.2-4.3-11.5c0.1-6.3,4.6-11.4,4.6-11.4s4.4,5.2,4.3,11.5
				C635.9,535.8,631.3,540.9,631.3,540.9z"/>
		</g>
		<g>
			<path class="st1" d="M541.1,525.9c-1.3-4.9-5.9-7.9-5.9-7.9s-2.4,4.9-1.1,9.8c1.3,4.9,5.9,7.9,5.9,7.9S542.4,530.8,541.1,525.9z"
				/>
			<path class="st1" d="M545.7,527c-3.6-3.5-4.1-9-4.1-9s5.4,0.3,9.1,3.8c3.6,3.5,4.1,9,4.1,9S549.3,530.5,545.7,527z"/>
		</g>
		<g>
			<path class="st1" d="M410.8,535.7c0,0,4.6-3,5.9-8c1.3-4.9-1.1-9.9-1.1-9.9s-4.6,3-5.9,8S410.8,535.7,410.8,535.7z"/>
			<path class="st1" d="M389.1,537.3c0,0,0.7-8.3,6.2-13.7s13.8-5.8,13.8-5.8s-0.7,8.3-6.2,13.7S389.1,537.3,389.1,537.3z"/>
		</g>
		<g>
			<g>
				<rect x="504.3" y="518" class="st1" width="1.7" height="68.8"/>
				<path class="st1" d="M504.9,621.5c0,0-16.9-19.6-16.8-43.6s17.2-43.5,17.2-43.5s16.9,19.6,16.8,43.6
					C522,602.1,504.9,621.5,504.9,621.5z"/>
			</g>
			<g>
				<rect x="478.6" y="518" class="st1" width="2.3" height="92.1"/>
				<path class="st1" d="M479.4,656.6c0,0-22.7-26.2-22.5-58.4S480,540,480,540s22.7,26.2,22.5,58.4S479.4,656.6,479.4,656.6z"/>
			</g>
		</g>
	</g>
	<rect y="503" class="st9" width="1013.9" height="15"/>
</g>
</svg>
