<?xml version="1.0" encoding="utf-8"?>
<!-- Generator: Adobe Illustrator 22.0.1, SVG Export Plug-In . SVG Version: 6.00 Build 0)  -->
<svg version="1.1" id="Layer_1" xmlns="http://www.w3.org/2000/svg" xmlns:xlink="http://www.w3.org/1999/xlink" x="0px" y="0px"
	 viewBox="0 0 512 512" style="enable-background:new 0 0 512 512;" xml:space="preserve">
<style type="text/css">
	.st0{fill:#FF6D8B;}
	.st1{opacity:0.2;fill:#FF6D8B;}
</style>
<g>
	<g>
		<path class="st0" d="M451,340.7V223.4c0-14.1-11.5-25.6-25.6-25.6H264.7v-3c0-4-1.4-7.6-3.7-10.4c1.7-2.1,2.9-4.6,3.4-7.4
			c6.5-3.9,10.7-10.9,10.7-18.7c0-3.7-0.9-7.2-2.7-10.4c1.8-3.2,2.7-6.8,2.7-10.4c0-7.7-4.1-14.7-10.5-18.6c0.1-0.8,0.1-1.5,0.1-2.3
			c0-11-8.2-20.1-18.8-21.5c-3.9-6.5-10.9-10.6-18.6-10.6c-1,0-2,0.1-3,0.2c-4.3-3.5-9.7-5.4-15.2-5.4c-0.7,0-1.5,0-2.2,0.1
			c-4.6-3.5-10.2-5.3-16-5.3s-11.4,1.9-16,5.3c-0.8-0.1-1.5-0.1-2.2-0.1c-5.6,0-10.9,1.9-15.2,5.3c-6.9,0.7-13,4.6-16.5,10.5
			c-10.6,1.5-18.8,10.6-18.8,21.5c0,0.8,0,1.5,0.1,2.3c-6.4,3.9-10.5,10.9-10.5,18.6c0,3.7,0.9,7.2,2.7,10.4
			c-1.8,3.2-2.7,6.8-2.7,10.4c0,7.7,4.2,14.8,10.7,18.7c0.3,1.5,0.8,3,1.5,4.4c-4.2,3-7,7.9-7,13.5v10.4c0,9.1,7.4,16.5,16.5,16.5
			h2.7l0.4,2.8c1,6.4,4.4,12.3,9.4,16.4l2.2,1.9V260c0,1.9-1.2,3.6-3,4.1l-45.7,14.1c-11.4,3.5-19,13.9-19,25.8v75.8
			c0,7.5,2.6,14.5,7,19.9H73.6c-7,0-12.6,5.7-12.6,12.6v13c0,7,5.7,12.6,12.6,12.6h364.8c7,0,12.6-5.7,12.6-12.6v-13
			c0-7-5.7-12.6-12.6-12.6h-66.3l-4.5-33.4h57.7C439.5,366.3,451,354.8,451,340.7z M133.5,209.5c-2.4,0-4.3-1.9-4.3-4.3v-10.4
			c0-1.6,0.9-2.9,2.1-3.7l3,18.4H133.5z M134.4,174.1c0-0.2,0-0.4,0.1-0.6c0.3-2.8-1.4-5.4-4.1-6.3c-3.8-1.3-6.4-4.9-6.4-8.9
			c0-3,1.4-5.1,2.5-6.3c2.1-2.3,2.1-5.9,0-8.2c-1.1-1.3-2.5-3.4-2.5-6.3c0-4.3,2.9-8,7.1-9.1c1.7-0.5,3.1-1.6,3.9-3.2
			c0.8-1.6,0.9-3.4,0.2-5c-0.5-1.2-0.7-2.4-0.7-3.5c0-5.2,4.2-9.4,9.3-9.5c0.3,0,0.5,0.1,0.8,0.1c2.7,0.2,5.2-1.5,6.1-4.1
			c1.3-3.8,4.8-6.3,8.7-6.4c0.1,0,0.2,0,0.4,0c1.7,0,3.2-0.6,4.4-1.7c2.3-2.2,5.3-3.5,8.5-3.5c0.8,0,1.7,0.1,2.7,0.3
			c2,0.4,4-0.1,5.5-1.5c2.8-2.6,6.3-4,10.1-4c3.7,0,7.3,1.4,10,4c1.5,1.4,3.5,2,5.5,1.5c1-0.2,1.8-0.3,2.7-0.3c3.4,0,6.6,1.4,8.9,4
			c1.6,1.8,4.2,2.5,6.5,1.7c1-0.3,1.9-0.5,2.8-0.5c4,0,7.6,2.6,8.9,6.4c0.9,2.6,3.4,4.2,6.1,4.1c0.2,0,0.5,0,0.8-0.1
			c5.2,0.1,9.3,4.3,9.3,9.5c0,1.2-0.2,2.4-0.7,3.5c-0.7,1.6-0.6,3.4,0.2,5s2.2,2.7,3.9,3.2c4.2,1.1,7.1,4.9,7.1,9.1
			c0,3-1.4,5.1-2.5,6.3c-2.1,2.3-2.1,5.9,0,8.2c1.1,1.3,2.5,3.4,2.5,6.3c0,4-2.6,7.6-6.4,8.9c-2.6,0.9-4.3,3.5-4.1,6.3
			c0,0.2,0,0.4,0.1,0.6c-0.1,1.9-1.4,3.5-3.2,3.9c-0.2,0.1-6,0.2-6,0.2l-3.5-21.1c-0.5-3.1-3.3-5.3-6.5-5.1c-0.3,0-0.6,0.1-0.8,0.1
			l0,0c-3.1-0.1-6-1.6-7.8-4.3c-1.1-1.7-3-2.7-5.1-2.7c-2,0-4,1-5.1,2.7c-1.8,2.7-4.7,4.3-7.9,4.3c-3.2,0-6.2-1.6-7.9-4.3
			c-1.1-1.7-3-2.7-5.1-2.7c-2,0-4,1-5.1,2.7c-1.8,2.7-4.7,4.3-7.9,4.3c-3.2,0-6.2-1.6-7.9-4.3c-1.1-1.7-3-2.7-5.1-2.7
			c-2,0-4,1-5.1,2.7c-1.7,2.6-4.6,4.2-7.8,4.3l0,0c-0.3,0-0.6-0.1-0.8-0.1c-3.1-0.2-6,2-6.5,5.1l-3.5,21.1c0,0-5.8-0.1-6-0.2
			C135.8,177.6,134.5,176,134.4,174.1z M252.5,194.8v3h-3.2l1.1-6.7C251.6,191.8,252.5,193.2,252.5,194.8z M143.6,190.5h0.8
			c5.6,0,10.2-4,11.2-9.5l2.8-17c3.3-0.6,6.3-2,9-4c3.7,2.8,8.3,4.3,13,4.3c4.8,0,9.3-1.6,13-4.3c3.7,2.8,8.3,4.3,13,4.3
			c4.8,0,9.3-1.6,13-4.3c2.6,2,5.7,3.3,9,4l2.8,17c0.7,4,3.4,7.2,6.9,8.6l-1.3,8.2h-7c-14.1,0-25.6,11.5-25.6,25.6v27.1
			c-1.1,0.4-2.3,0.7-3.5,0.7h-19.9c-2.2,0-4.4-0.8-6.1-2.2l-20.9-17.4c-2.7-2.3-4.6-5.5-5.1-9L143.6,190.5z M148.8,275.8
			c7-2.1,11.7-8.5,11.7-15.8V253l6.5,5.4c3.9,3.2,8.8,5,13.9,5h19.9c1.2,0,2.3-0.1,3.5-0.3v39.3c-3.6,0.6-7.2,0.9-10.9,0.9
			c-20.4,0-39.6-9.3-52.2-25.1L148.8,275.8z M92.8,304c0-6.5,4.2-12.2,10.4-14.1l25.6-7.9c14.8,21,38.9,33.5,64.6,33.5
			c3.6,0,7.3-0.3,10.9-0.8v25.9c0,14.1,11.5,25.6,25.6,25.6h26.5v33c0,0.1,0,0.3,0,0.4H223v-6.9c0-14.1-11.5-25.6-25.6-25.6h-65.1
			c-0.2,0-0.4-0.2-0.4-0.4v-39.1c0-3.4-2.7-6.1-6.1-6.1c-3.4,0-6.1,2.7-6.1,6.1v39.1c0,7,5.7,12.6,12.6,12.6h39.5v20.4h-59
			c-11,0-19.9-8.9-19.9-19.9V304z M210.8,392.8v6.9h-26.9v-20.4h13.4C204.8,379.4,210.8,385.4,210.8,392.8z M438.4,411.9
			c0.2,0,0.4,0.2,0.4,0.4v13c0,0.2-0.2,0.4-0.4,0.4H73.6c-0.2,0-0.4-0.2-0.4-0.4v-13c0-0.2,0.2-0.4,0.4-0.4H438.4z M268.6,399.7
			c0-0.1,0-0.3,0-0.4v-33h19.1l-4.5,33.4L268.6,399.7L268.6,399.7z M295.5,399.7l10.6-79.5c0.5-3.4,3.4-6,6.9-6h29.3
			c3.5,0,6.4,2.6,6.9,6l10.6,79.5H295.5z M366.7,354.1c-0.2,0-0.5,0-0.7,0l-4.7-35.6c-1.3-9.5-9.4-16.6-19-16.6H313
			c-9.5,0-17.7,7.1-19,16.6l-4.7,35.6c-0.2,0-0.5,0-0.7,0h-58.6c-7.4,0-13.4-6-13.4-13.4V223.4c0-7.4,6-13.4,13.4-13.4h195.4
			c7.4,0,13.4,6,13.4,13.4v117.2c0,7.4-6,13.4-13.4,13.4H366.7z"/>
	</g>
</g>
<g>
	<g>
		<path class="st0" d="M350.1,248c-13.9,0-25.1,11.3-25.1,25.1c0,13.9,11.3,25.1,25.1,25.1c13.9,0,25.1-11.3,25.1-25.1
			C375.2,259.3,363.9,248,350.1,248z M350.1,282.2c-5,0-9.1-4.1-9.1-9.1s4.1-9.1,9.1-9.1s9.1,4.1,9.1,9.1
			C359.1,278.1,355.1,282.2,350.1,282.2z"/>
	</g>
</g>
<path class="st1" d="M335.2,510.6L89.8,487.7c-24.6,0-47.1-6.4-64.3-16.9c-30.5-18.6-31.8-51.2-3.9-71.6l0,0
	C75.5,360,280.7,282,334,250.3c25.1-14.9,47.8-31.5,82.3-31.5h2c1.1,0,2.2,0,3.3,0c61.8,1.5,104.2,43.8,86.2,84.7l-47.3,107.7
	c-6.8,15.4-11.9,31.1-16.6,46.9c-2.4,8-6.8,15.5-13,22.2C410.7,502.6,372.9,514.1,335.2,510.6z"/>
</svg>
