<?xml version="1.0" encoding="utf-8"?>
<!-- Generator: Adobe Illustrator 22.0.1, SVG Export Plug-In . SVG Version: 6.00 Build 0)  -->
<svg version="1.1" xmlns="http://www.w3.org/2000/svg" xmlns:xlink="http://www.w3.org/1999/xlink" x="0px" y="0px"
	 viewBox="0 0 512 512" style="enable-background:new 0 0 512 512;" xml:space="preserve">
<style type="text/css">
	.st0{display:none;}
	.st1{display:inline;}
	.st2{fill:#FF6D8B;}
	.st3{display:inline;opacity:0.2;fill:#FF6D8B;}
	.st4{fill:#75ABF3;}
	.st5{display:inline;opacity:0.2;fill:#75ABF3;}
	.st6{display:inline;opacity:0.2;fill:#3FEAB1;}
	.st7{fill:#3FEAB1;}
	.st8{opacity:0.2;fill:#F7941E;}
	.st9{fill:#F7941E;}
</style>
<g id="Layer_1" class="st0">
	<g class="st1">
		<g>
			<path class="st2" d="M451,340.7V223.4c0-14.1-11.5-25.6-25.6-25.6H264.7v-3c0-4-1.4-7.6-3.7-10.4c1.7-2.1,2.9-4.6,3.4-7.4
				c6.5-3.9,10.7-10.9,10.7-18.7c0-3.7-0.9-7.2-2.7-10.4c1.8-3.2,2.7-6.8,2.7-10.4c0-7.7-4.1-14.7-10.5-18.6
				c0.1-0.8,0.1-1.5,0.1-2.3c0-11-8.2-20.1-18.8-21.5c-3.9-6.5-10.9-10.6-18.6-10.6c-1,0-2,0.1-3,0.2c-4.3-3.5-9.7-5.4-15.2-5.4
				c-0.7,0-1.5,0-2.2,0.1c-4.6-3.5-10.2-5.3-16-5.3s-11.4,1.9-16,5.3c-0.8-0.1-1.5-0.1-2.2-0.1c-5.6,0-10.9,1.9-15.2,5.3
				c-6.9,0.7-13,4.6-16.5,10.5c-10.6,1.5-18.8,10.6-18.8,21.5c0,0.8,0,1.5,0.1,2.3c-6.4,3.9-10.5,10.9-10.5,18.6
				c0,3.7,0.9,7.2,2.7,10.4c-1.8,3.2-2.7,6.8-2.7,10.4c0,7.7,4.2,14.8,10.7,18.7c0.3,1.5,0.8,3,1.5,4.4c-4.2,3-7,7.9-7,13.5v10.4
				c0,9.1,7.4,16.5,16.5,16.5h2.7l0.4,2.8c1,6.4,4.4,12.3,9.4,16.4l2.2,1.9V260c0,1.9-1.2,3.6-3,4.1l-45.7,14.1
				c-11.4,3.5-19,13.9-19,25.8v75.8c0,7.5,2.6,14.5,7,19.9H73.6c-7,0-12.6,5.7-12.6,12.6v13c0,7,5.7,12.6,12.6,12.6h364.8
				c7,0,12.6-5.7,12.6-12.6v-13c0-7-5.7-12.6-12.6-12.6h-66.3l-4.5-33.4h57.7C439.5,366.3,451,354.8,451,340.7z M133.5,209.5
				c-2.4,0-4.3-1.9-4.3-4.3v-10.4c0-1.6,0.9-2.9,2.1-3.7l3,18.4H133.5z M134.4,174.1c0-0.2,0-0.4,0.1-0.6c0.3-2.8-1.4-5.4-4.1-6.3
				c-3.8-1.3-6.4-4.9-6.4-8.9c0-3,1.4-5.1,2.5-6.3c2.1-2.3,2.1-5.9,0-8.2c-1.1-1.3-2.5-3.4-2.5-6.3c0-4.3,2.9-8,7.1-9.1
				c1.7-0.5,3.1-1.6,3.9-3.2c0.8-1.6,0.9-3.4,0.2-5c-0.5-1.2-0.7-2.4-0.7-3.5c0-5.2,4.2-9.4,9.3-9.5c0.3,0,0.5,0.1,0.8,0.1
				c2.7,0.2,5.2-1.5,6.1-4.1c1.3-3.8,4.8-6.3,8.7-6.4c0.1,0,0.2,0,0.4,0c1.7,0,3.2-0.6,4.4-1.7c2.3-2.2,5.3-3.5,8.5-3.5
				c0.8,0,1.7,0.1,2.7,0.3c2,0.4,4-0.1,5.5-1.5c2.8-2.6,6.3-4,10.1-4c3.7,0,7.3,1.4,10,4c1.5,1.4,3.5,2,5.5,1.5
				c1-0.2,1.8-0.3,2.7-0.3c3.4,0,6.6,1.4,8.9,4c1.6,1.8,4.2,2.5,6.5,1.7c1-0.3,1.9-0.5,2.8-0.5c4,0,7.6,2.6,8.9,6.4
				c0.9,2.6,3.4,4.2,6.1,4.1c0.2,0,0.5,0,0.8-0.1c5.2,0.1,9.3,4.3,9.3,9.5c0,1.2-0.2,2.4-0.7,3.5c-0.7,1.6-0.6,3.4,0.2,5
				s2.2,2.7,3.9,3.2c4.2,1.1,7.1,4.9,7.1,9.1c0,3-1.4,5.1-2.5,6.3c-2.1,2.3-2.1,5.9,0,8.2c1.1,1.3,2.5,3.4,2.5,6.3
				c0,4-2.6,7.6-6.4,8.9c-2.6,0.9-4.3,3.5-4.1,6.3c0,0.2,0,0.4,0.1,0.6c-0.1,1.9-1.4,3.5-3.2,3.9c-0.2,0.1-6,0.2-6,0.2l-3.5-21.1
				c-0.5-3.1-3.3-5.3-6.5-5.1c-0.3,0-0.6,0.1-0.8,0.1l0,0c-3.1-0.1-6-1.6-7.8-4.3c-1.1-1.7-3-2.7-5.1-2.7c-2,0-4,1-5.1,2.7
				c-1.8,2.7-4.7,4.3-7.9,4.3c-3.2,0-6.2-1.6-7.9-4.3c-1.1-1.7-3-2.7-5.1-2.7c-2,0-4,1-5.1,2.7c-1.8,2.7-4.7,4.3-7.9,4.3
				c-3.2,0-6.2-1.6-7.9-4.3c-1.1-1.7-3-2.7-5.1-2.7c-2,0-4,1-5.1,2.7c-1.7,2.6-4.6,4.2-7.8,4.3l0,0c-0.3,0-0.6-0.1-0.8-0.1
				c-3.1-0.2-6,2-6.5,5.1l-3.5,21.1c0,0-5.8-0.1-6-0.2C135.8,177.6,134.5,176,134.4,174.1z M252.5,194.8v3h-3.2l1.1-6.7
				C251.6,191.8,252.5,193.2,252.5,194.8z M143.6,190.5h0.8c5.6,0,10.2-4,11.2-9.5l2.8-17c3.3-0.6,6.3-2,9-4c3.7,2.8,8.3,4.3,13,4.3
				c4.8,0,9.3-1.6,13-4.3c3.7,2.8,8.3,4.3,13,4.3c4.8,0,9.3-1.6,13-4.3c2.6,2,5.7,3.3,9,4l2.8,17c0.7,4,3.4,7.2,6.9,8.6l-1.3,8.2h-7
				c-14.1,0-25.6,11.5-25.6,25.6v27.1c-1.1,0.4-2.3,0.7-3.5,0.7h-19.9c-2.2,0-4.4-0.8-6.1-2.2l-20.9-17.4c-2.7-2.3-4.6-5.5-5.1-9
				L143.6,190.5z M148.8,275.8c7-2.1,11.7-8.5,11.7-15.8V253l6.5,5.4c3.9,3.2,8.8,5,13.9,5h19.9c1.2,0,2.3-0.1,3.5-0.3v39.3
				c-3.6,0.6-7.2,0.9-10.9,0.9c-20.4,0-39.6-9.3-52.2-25.1L148.8,275.8z M92.8,304c0-6.5,4.2-12.2,10.4-14.1l25.6-7.9
				c14.8,21,38.9,33.5,64.6,33.5c3.6,0,7.3-0.3,10.9-0.8v25.9c0,14.1,11.5,25.6,25.6,25.6h26.5v33c0,0.1,0,0.3,0,0.4H223v-6.9
				c0-14.1-11.5-25.6-25.6-25.6h-65.1c-0.2,0-0.4-0.2-0.4-0.4v-39.1c0-3.4-2.7-6.1-6.1-6.1c-3.4,0-6.1,2.7-6.1,6.1v39.1
				c0,7,5.7,12.6,12.6,12.6h39.5v20.4h-59c-11,0-19.9-8.9-19.9-19.9V304z M210.8,392.8v6.9h-26.9v-20.4h13.4
				C204.8,379.4,210.8,385.4,210.8,392.8z M438.4,411.9c0.2,0,0.4,0.2,0.4,0.4v13c0,0.2-0.2,0.4-0.4,0.4H73.6
				c-0.2,0-0.4-0.2-0.4-0.4v-13c0-0.2,0.2-0.4,0.4-0.4H438.4z M268.6,399.7c0-0.1,0-0.3,0-0.4v-33h19.1l-4.5,33.4L268.6,399.7
				L268.6,399.7z M295.5,399.7l10.6-79.5c0.5-3.4,3.4-6,6.9-6h29.3c3.5,0,6.4,2.6,6.9,6l10.6,79.5H295.5z M366.7,354.1
				c-0.2,0-0.5,0-0.7,0l-4.7-35.6c-1.3-9.5-9.4-16.6-19-16.6H313c-9.5,0-17.7,7.1-19,16.6l-4.7,35.6c-0.2,0-0.5,0-0.7,0h-58.6
				c-7.4,0-13.4-6-13.4-13.4V223.4c0-7.4,6-13.4,13.4-13.4h195.4c7.4,0,13.4,6,13.4,13.4v117.2c0,7.4-6,13.4-13.4,13.4H366.7z"/>
		</g>
	</g>
	<g class="st1">
		<g>
			<path class="st2" d="M350.1,248c-13.9,0-25.1,11.3-25.1,25.1c0,13.9,11.3,25.1,25.1,25.1c13.9,0,25.1-11.3,25.1-25.1
				C375.2,259.3,363.9,248,350.1,248z M350.1,282.2c-5,0-9.1-4.1-9.1-9.1s4.1-9.1,9.1-9.1s9.1,4.1,9.1,9.1
				C359.1,278.1,355.1,282.2,350.1,282.2z"/>
		</g>
	</g>
	<path class="st3" d="M335.2,510.6L89.8,487.7c-24.6,0-47.1-6.4-64.3-16.9c-30.5-18.6-31.8-51.2-3.9-71.6l0,0
		C75.5,360,280.7,282,334,250.3c25.1-14.9,47.8-31.5,82.3-31.5h2c1.1,0,2.2,0,3.3,0c61.8,1.5,104.2,43.8,86.2,84.7l-47.3,107.7
		c-6.8,15.4-11.9,31.1-16.6,46.9c-2.4,8-6.8,15.5-13,22.2C410.7,502.6,372.9,514.1,335.2,510.6z"/>
</g>
<g id="katman_2" class="st0">
	<g class="st1">
		<g>
			<g>
				<path class="st4" d="M431.9,139.4H80.1c-10.6,0-19.1,8.6-19.1,19.1V406c0,10.6,8.6,19.1,19.1,19.1h351.7
					c10.6,0,19.1-8.6,19.1-19.1V158.5C451,147.9,442.4,139.4,431.9,139.4z M315,412.9h-46.4v-23.6c0-3,1.9-5.6,4.7-6.6l21.3-7.1
					c0,0,0.1,0,0.1,0c5.6,5.3,12.7,8.7,20.3,9.9V412.9z M304.6,368c2-3,3.1-6.7,3.1-10.5V354c4.2,1.9,8.8,2.9,13.4,2.9
					s9.2-1,13.4-2.9v3.6c0,3.8,1.1,7.4,3.1,10.5c-4.7,3.7-10.5,5.8-16.6,5.8C315.1,373.8,309.2,371.8,304.6,368z M361.2,264.1
					c3.9,6.3,5.9,13.3,5.9,20.6c0,1.2-0.1,2.4-0.2,3.6l-19.1-20.4L361.2,264.1z M327.2,261.1v-12.6c0.2-0.1,0.5-0.1,0.7-0.2
					l27.2-7.7l3.7,11c0,0,0,0.1,0,0.2c-0.1,0.1-0.2,0.2-0.3,0.4L327.2,261.1z M324.6,236.6c-2.3,0.6-4.7,0.6-7,0l-45.7-13l45.7-13
					c2.3-0.6,4.7-0.6,7,0l45.7,13L324.6,236.6z M315,248.5v12.6l-31.2-8.9c-0.1-0.1-0.2-0.3-0.4-0.4c0-0.1,0-0.1,0-0.2l3.7-11
					l27.2,7.7C314.6,248.4,314.8,248.4,315,248.5z M319.5,275.1C319.5,275.1,319.5,275.1,319.5,275.1c-19.1,7.4-42.8,7.6-43.1,7.6
					c-0.4,0-0.8,0-1.2,0.1c0.3-6.6,2.3-13,5.9-18.7L319.5,275.1z M340.2,277.7l18.5,19.7l-3.7,29.3c-0.3,2.3-1.7,4.3-3.8,5.3
					l-21.2,10.6c-5.6,2.8-12.3,2.8-17.8,0L291,332c-2.1-1-3.5-3-3.8-5.3l-4-32.1C295.9,293.8,323.1,290.6,340.2,277.7z M373.7,412.9
					h-46.4v-27.4c7.6-1.2,14.6-4.7,20.3-9.9c0,0,0.1,0,0.1,0l21.3,7.1c2.8,0.9,4.7,3.6,4.7,6.6L373.7,412.9L373.7,412.9z M438.8,406
					c0,3.8-3.1,6.9-6.9,6.9h-46v-23.6c0-8.2-5.3-15.5-13.1-18.2l-21.3-7.1c-2.8-0.9-4.7-3.6-4.7-6.6v-9.6l9.9-5
					c5.7-2.9,9.6-8.4,10.4-14.7l1.5-12.2c7-9.2,10.7-20,10.7-31.2c0-10.4-3.1-20.3-9-29c0.9-2.6,0.9-5.4,0-8l-3.5-10.5l13.3-3.8
					v29.2c0,3.4,2.7,6.1,6.1,6.1c3.4,0,6.1-2.7,6.1-6.1v-39.1c0-0.2,0-0.5,0-0.7c-0.3-3.6-2.7-6.5-6.1-7.5l-58.3-16.5
					c-4.5-1.3-9.2-1.3-13.6,0l-58.3,16.5c-3.7,1-6.2,4.3-6.2,8.2c0,3.9,2.5,7.2,6.2,8.2l19.3,5.5l-3.5,10.5c-0.9,2.6-0.8,5.4,0,8
					c-5.9,8.7-9,18.6-9,29c0,11.3,3.7,22,10.7,31.2l1.5,12.3c0.8,6.4,4.7,11.9,10.4,14.7l9.9,5v9.6c0,3-1.9,5.6-4.7,6.6l-21.3,7.1
					c-7.8,2.6-13.1,9.9-13.1,18.2v23.6H80.1c-3.8,0-6.9-3.1-6.9-6.9V158.5c0-3.8,3.1-6.9,6.9-6.9h351.7c3.8,0,6.9,3.1,6.9,6.9V406
					L438.8,406z"/>
			</g>
		</g>
		<g>
			<g>
				<path class="st4" d="M112.7,386.9H99.3V177.6h13.4c3.4,0,6.1-2.7,6.1-6.1s-2.7-6.1-6.1-6.1H93.2c-3.4,0-6.1,2.7-6.1,6.1V393
					c0,3.4,2.7,6.1,6.1,6.1h19.5c3.4,0,6.1-2.7,6.1-6.1C118.8,389.6,116.1,386.9,112.7,386.9z"/>
			</g>
		</g>
		<g>
			<g>
				<path class="st4" d="M418.8,165.4h-19.5c-3.4,0-6.1,2.7-6.1,6.1s2.7,6.1,6.1,6.1h13.4v209.2h-13.4c-3.4,0-6.1,2.7-6.1,6.1
					c0,3.4,2.7,6.1,6.1,6.1h19.5c3.4,0,6.1-2.7,6.1-6.1V171.5C424.9,168.1,422.2,165.4,418.8,165.4z"/>
			</g>
		</g>
		<g>
			<g>
				<path class="st4" d="M143.4,226.1c4.8-3.5,8-9.1,8-15.5c0-10.6-8.6-19.1-19.1-19.1h-13c-3.4,0-6.1,2.7-6.1,6.1v39.1
					c0,3.4,2.7,6.1,6.1,6.1c3.4,0,6.1-2.7,6.1-6.1v-6.9h4.4L141,241c2.4,2.4,6.3,2.4,8.6,0c2.4-2.4,2.4-6.3,0-8.6L143.4,226.1z
					 M132.2,217.5h-6.9v-13.8h6.9c3.8,0,6.9,3.1,6.9,6.9S136.1,217.5,132.2,217.5z"/>
			</g>
		</g>
		<g>
			<g>
				<path class="st4" d="M190.9,230.5h-19.9v-7.3h6.9c3.4,0,6.1-2.7,6.1-6.1c0-3.4-2.7-6.1-6.1-6.1h-6.9v-7.3h19.9
					c3.4,0,6.1-2.7,6.1-6.1c0-3.4-2.7-6.1-6.1-6.1h-26.1c-3.4,0-6.1,2.7-6.1,6.1v39.1c0,3.4,2.7,6.1,6.1,6.1h26.1
					c3.4,0,6.1-2.7,6.1-6.1C197,233.3,194.2,230.5,190.9,230.5z"/>
			</g>
		</g>
		<g>
			<g>
				<path class="st4" d="M237.8,229.7c-2-2.7-5.9-3.2-8.5-1.2c-1.8,1.3-3.9,2-6.1,2c-5.6,0-10.2-4.6-10.2-10.2v-6.5
					c0-5.6,4.6-10.2,10.2-10.2c2.2,0,4.3,0.7,6.1,2c2.7,2,6.5,1.5,8.5-1.2c2-2.7,1.5-6.5-1.2-8.5c-3.9-2.9-8.5-4.5-13.4-4.5
					c-12.3,0-22.4,10-22.4,22.4v6.5c0,12.3,10,22.4,22.4,22.4c4.9,0,9.5-1.6,13.4-4.5C239.3,236.2,239.8,232.4,237.8,229.7z"/>
			</g>
		</g>
		<g>
			<g>
				<path class="st4" d="M197.4,295.7h-52.1c-3.4,0-6.1,2.7-6.1,6.1s2.7,6.1,6.1,6.1h52.1c3.4,0,6.1-2.7,6.1-6.1
					S200.8,295.7,197.4,295.7z"/>
			</g>
		</g>
		<g>
			<g>
				<path class="st4" d="M197.4,321.7h-52.1c-3.4,0-6.1,2.7-6.1,6.1s2.7,6.1,6.1,6.1h52.1c3.4,0,6.1-2.7,6.1-6.1
					S200.8,321.7,197.4,321.7z"/>
			</g>
		</g>
		<g>
			<g>
				<path class="st4" d="M253.8,330l-24.3-24.3v-17c0-10.6-8.6-19.1-19.1-19.1h-78.2c-10.6,0-19.1,8.6-19.1,19.1v52.1
					c0,10.6,8.6,19.1,19.1,19.1h78.2c10.6,0,19.1-8.6,19.1-19.1v-0.4h19.9c2.5,0,4.7-1.5,5.6-3.8C256.1,334.4,255.6,331.8,253.8,330
					z M223.4,328.2c-3.4,0-6.1,2.7-6.1,6.1v6.5c0,3.8-3.1,6.9-6.9,6.9h-78.2c-3.8,0-6.9-3.1-6.9-6.9v-52.1c0-3.8,3.1-6.9,6.9-6.9
					h78.2c3.8,0,6.9,3.1,6.9,6.9v19.5c0,1.6,0.6,3.2,1.8,4.3l15.6,15.6H223.4z"/>
			</g>
		</g>
	</g>
	<path class="st5" d="M335.2,510.6L89.8,487.7c-24.6,0-47.1-6.4-64.3-16.9c-30.5-18.6-31.8-51.2-3.9-71.6l0,0
		C75.5,360,280.7,282,334,250.3c25.1-14.9,47.8-31.5,82.3-31.5h2c1.1,0,2.2,0,3.3,0c61.8,1.5,104.2,43.8,86.2,84.7l-47.3,107.7
		c-6.8,15.4-11.9,31.1-16.6,46.9c-2.4,8-6.8,15.5-13,22.2C410.7,502.6,372.9,514.1,335.2,510.6z"/>
</g>
<g id="katman_3" class="st0">
	<path class="st6" d="M335.2,510.6L89.8,487.7c-24.6,0-47.1-6.4-64.3-16.9c-30.5-18.6-31.8-51.2-3.9-71.6l0,0
		C75.5,360,280.7,282,334,250.3c25.1-14.9,47.8-31.5,82.3-31.5h2c1.1,0,2.2,0,3.3,0c61.8,1.5,104.2,43.8,86.2,84.7l-47.3,107.7
		c-6.8,15.4-11.9,31.1-16.6,46.9c-2.4,8-6.8,15.5-13,22.2C410.7,502.6,372.9,514.1,335.2,510.6z"/>
	<g class="st1">
		<g>
			<g>
				<path class="st7" d="M431.9,152.8H294.7c0-0.1,0-0.3,0-0.4c0-21.3-17.3-38.7-38.7-38.7c-21.3,0-38.7,17.3-38.7,38.7
					c0,0.1,0,0.3,0,0.4H80.1c-10.6,0-19.1,8.6-19.1,19.1v234.5c0,10.6,8.6,19.1,19.1,19.1h123.4l-5,39.9h-14.1
					c-3.4,0-6.1,2.7-6.1,6.1c0,3.4,2.7,6.1,6.1,6.1h143.3c3.4,0,6.1-2.7,6.1-6.1c0-3.4-2.7-6.1-6.1-6.1h-14.1l-5-39.9h123.4
					c10.6,0,19.1-8.6,19.1-19.1V171.9C451,161.4,442.4,152.8,431.9,152.8z M256,125.9c14.6,0,26.5,11.9,26.5,26.5
					c0,14.6-11.9,26.5-26.5,26.5s-26.5-11.9-26.5-26.5C229.5,137.8,241.4,125.9,256,125.9z M282.5,191.1v196.2h-26.9v-4
					c0-8.2-5.3-15.5-13.1-18.2l-21.3-7.1c-0.4-0.1-0.8-0.3-1.1-0.5c-0.1-0.1-0.1-0.1-0.2-0.2c-0.3-0.3-0.7-0.5-1-0.7
					c-1.5-1.3-2.4-3.1-2.4-5.2v-9.6l9.9-5c5.7-2.9,9.6-8.4,10.4-14.7l1.5-12.2c7-9.2,10.7-20,10.7-31.2c0-19.1-10.7-35.9-26.7-45.5
					c0.4-1.9,0.7-3.8,0.7-5.8c0-15.9-14.4-28.9-32.2-28.9s-32.2,13-32.2,28.9c0,2,0.2,3.9,0.7,5.8c-16.1,9.7-26.7,26.5-26.7,45.5
					c0,11.3,3.7,22,10.7,31.2l1.5,12.3c0.8,6.4,4.7,11.9,10.4,14.7l9.9,5v9.6c0,3-1.9,5.6-4.7,6.6l-21.3,7.1
					c-7.8,2.6-13.1,9.9-13.1,18.2v4H99.3V191.1H282.5z M190.9,236.7c25.4,0,46,18.8,46,42c0,1.2-0.1,2.4-0.2,3.6l-21.8-23.3
					c-1.1-1.2-2.7-1.9-4.4-1.9c-1.7,0-3.2,0.6-4.4,1.8c-17.5,17.5-59.6,17.8-60,17.8c-0.4,0-0.8,0-1.2,0.1
					C146,254.4,166.2,236.7,190.9,236.7z M170.9,227.3c0-9.2,8.9-16.7,19.9-16.7c11,0,19.9,7.5,19.9,16.7c0,0.1,0,0.3,0,0.4
					c-6.2-2.1-12.9-3.3-19.9-3.3c-7,0-13.7,1.2-19.9,3.3C170.9,227.6,170.9,227.4,170.9,227.3z M210,271.6l18.5,19.7l-3.7,29.3
					c-0.3,2.3-1.7,4.3-3.8,5.3l-21.2,10.6c-5.6,2.8-12.3,2.8-17.8,0l-21.2-10.6c-2.1-1-3.5-3-3.8-5.3l-4-32.1
					C165.6,287.7,192.8,284.5,210,271.6z M177.4,351.4v-3.6c4.2,1.9,8.8,2.9,13.4,2.9s9.2-1,13.4-2.9v3.6c0,3.8,1.1,7.4,3.1,10.5
					c-4.7,3.7-10.5,5.8-16.6,5.8c-6.1,0-11.9-2.1-16.6-5.8C176.3,358.9,177.4,355.2,177.4,351.4z M190.9,379.9
					c9.9,0,19.3-3.8,26.4-10.4c0,0,0.1,0,0.1,0l21.3,7.1c2.8,0.9,4.7,3.6,4.7,6.6v4h-105v-4c0-3,1.9-5.6,4.7-6.6l21.3-7.1
					c0,0,0.1,0,0.1,0C171.6,376.2,181,379.9,190.9,379.9z M210.8,465.4l5-39.9h80.4l5,39.9H210.8z M438.8,406.4
					c0,3.8-3.1,6.9-6.9,6.9H80.1c-3.8,0-6.9-3.1-6.9-6.9V171.9c0-3.8,3.1-6.9,6.9-6.9h139.3c1.8,5.2,4.7,9.9,8.4,13.8H93.2
					c-3.4,0-6.1,2.7-6.1,6.1v208.4c0,3.4,2.7,6.1,6.1,6.1h325.7c3.4,0,6.1-2.7,6.1-6.1V184.9c0-3.4-2.7-6.1-6.1-6.1H284.2
					c3.7-3.9,6.6-8.6,8.4-13.8h139.3c3.8,0,6.9,3.1,6.9,6.9L438.8,406.4L438.8,406.4z M384.4,262.7l-11.6-2.9v-1.9
					c4.1-3.6,6.5-8.8,6.5-14.3V211c0-3.4-2.7-6.1-6.1-6.1h-26.1c-10.6,0-19.1,8.6-19.1,19.1v19.5c0,5.5,2.4,10.7,6.5,14.3v1.9
					l-11.6,2.9c-8.5,2.1-14.5,9.8-14.5,18.6v1.8h-13.8v-92h118.1v92h-13.8v-1.8C398.9,272.4,392.9,264.8,384.4,262.7z M343.7,249.5
					c-2.2-1.3-3.5-3.5-3.5-5.9V224c0-3.8,3.1-6.9,6.9-6.9h19.9v26.5c0,2.5-1.3,4.7-3.5,5.9c-1.9,1.1-3,3.1-3,5.3v9.7
					c0,2.8,1.9,5.2,4.6,5.9l16.2,4c3.1,0.8,5.2,3.5,5.2,6.7v1.8h-65.9v-1.8c0-3.2,2.2-5.9,5.2-6.7l16.2-4c2.7-0.7,4.6-3.1,4.6-5.9
					v-9.7C346.8,252.6,345.6,250.6,343.7,249.5z M412.7,295.3v92h-13.8v-1.8c0-8.8-6-16.4-14.5-18.6l-11.6-2.9v-1.9
					c4.1-3.6,6.5-8.8,6.5-14.3v-32.6c0-3.4-2.7-6.1-6.1-6.1h-26.1c-10.6,0-19.1,8.6-19.1,19.1v19.5c0,5.5,2.4,10.7,6.5,14.3v1.9
					l-11.6,2.9c-8.5,2.1-14.5,9.8-14.5,18.6v1.8h-13.8v-92H412.7z M343.7,353.7c-2.2-1.3-3.5-3.5-3.5-5.9v-19.5
					c0-3.8,3.1-6.9,6.9-6.9h19.9v26.5c0,2.5-1.3,4.7-3.5,5.9c-1.9,1.1-3,3.1-3,5.3v9.7c0,2.8,1.9,5.2,4.6,5.9l16.2,4
					c3.1,0.8,5.2,3.5,5.2,6.7v1.8h-65.9v-1.8c0-3.2,2.2-5.9,5.2-6.7l16.2-4c2.7-0.7,4.6-3.1,4.6-5.9V359
					C346.8,356.8,345.6,354.8,343.7,353.7z"/>
			</g>
		</g>
		<g>
			<g>
				<path class="st7" d="M256,139.8c-7,0-12.6,5.7-12.6,12.6S249,165,256,165s12.6-5.7,12.6-12.6S263,139.8,256,139.8z"/>
			</g>
		</g>
	</g>
</g>
<g id="katman_4">
	<path class="st8" d="M335.2,510.6L89.8,487.7c-24.6,0-47.1-6.4-64.3-16.9c-30.5-18.6-31.8-51.2-3.9-71.6l0,0
		C75.5,360,280.7,282,334,250.3c25.1-14.9,47.8-31.5,82.3-31.5h2c1.1,0,2.2,0,3.3,0c61.8,1.5,104.2,43.8,86.2,84.7l-47.3,107.7
		c-6.8,15.4-11.9,31.1-16.6,46.9c-2.4,8-6.8,15.5-13,22.2C410.7,502.6,372.9,514.1,335.2,510.6z"/>
	<g>
		<g>
			<path class="st9" d="M224.6,344.8L224.6,344.8c-3.4,0-6.1,2.7-6.1,6.1c0,3.4,2.8,6.1,6.1,6.1c3.4,0,6.1-2.7,6.1-6.1
				C230.7,347.5,227.9,344.8,224.6,344.8z"/>
		</g>
	</g>
	<g>
		<g>
			<path class="st9" d="M295.8,344.8L295.8,344.8c-3.4,0-6.1,2.7-6.1,6.1c0,3.4,2.8,6.1,6.1,6.1c3.4,0,6.1-2.7,6.1-6.1
				C301.9,347.5,299.2,344.8,295.8,344.8z"/>
		</g>
	</g>
	<g>
		<g>
			<path class="st9" d="M257,357.8L257,357.8c-3.4,0-6.1,2.7-6.1,6.1c0,3.4,2.8,6.1,6.1,6.1c3.4,0,6.1-2.7,6.1-6.1
				C263.1,360.5,260.4,357.8,257,357.8z"/>
		</g>
	</g>
	<g>
		<g>
			<g>
				<path class="st9" d="M432,163.3H282.5v-13.8h0.4c3.4,0,6.1-2.7,6.1-6.1s-2.7-6.1-6.1-6.1H231c-3.4,0-6.1,2.7-6.1,6.1
					s2.7,6.1,6.1,6.1h0.4v13.8H81.9c-10.5,0-19,8.5-19,19v220.4c0,10.5,8.5,19,19,19H199V455h-26.3c-3.4,0-6.1,2.7-6.1,6.1
					c0,3.4,2.7,6.1,6.1,6.1h168.5c3.4,0,6.1-2.7,6.1-6.1c0-3.4-2.7-6.1-6.1-6.1h-26.3v-33.2H432c10.5,0,19-8.5,19-19V182.3
					C451,171.8,442.5,163.3,432,163.3z M282.5,201.4h130.5v153.4c-7.2-7.9-16.2-14.1-26.3-18.1c-0.3-0.1-0.4-0.3-0.4-0.4v-83.1h0.4
					c3.4,0,6.1-2.7,6.1-6.1c0-3.4-2.7-6.1-6.1-6.1h-51.9c-3.4,0-6.1,2.7-6.1,6.1c0,3.4,2.7,6.1,6.1,6.1h0.4v83.1
					c0,0.2-0.2,0.3-0.5,0.4c-0.2,0.1-0.5,0.2-0.7,0.3c-2.7-28.2-20.6-52.8-47.1-64c-2.7-1.1-4.4-3.6-4.4-6.4L282.5,201.4
					L282.5,201.4z M382.2,348.1c6,2.4,11.5,5.6,16.3,9.7h-65.3c0.4-2.5,0.7-4.9,0.9-7.4c1.6-0.8,3.3-1.6,5-2.3c5-2,8.2-6.6,8.2-11.8
					v-83.1H374v83.1C374,341.5,377.2,346.1,382.2,348.1z M409.4,369.9c1.3,1.9,2.5,3.9,3.5,6v7.8h-89.3c2.6-4.4,4.7-9,6.4-13.8
					H409.4z M192.1,215.1h-51.9c-3.4,0-6.1,2.7-6.1,6.1c0,3.4,2.7,6.1,6.1,6.1h0.4v112.3c0,1.6-0.6,3.2-1.7,4.5l-34,39.6h-4.1V201.4
					h130.5v65.3c0,2.8-1.7,5.3-4.4,6.4c-15,6.3-27,16.7-35.3,29.6v-75.4h0.4c3.4,0,6.1-2.7,6.1-6.1
					C198.2,217.9,195.5,215.1,192.1,215.1z M180.6,356.9c1.5,9.4,4.8,18.5,9.8,26.7H121l22.9-26.7H180.6z M152.1,344.8
					c0.5-1.7,0.7-3.4,0.7-5.2V227.3h26.7v117.5L152.1,344.8L152.1,344.8z M193.1,331h127.7c0.9,4.3,1.4,8.8,1.4,13.4
					c0,14.2-4.7,28-13.2,39.3H205c-7.2-9.4-11.6-20.5-12.9-32.1C191.3,344.6,191.7,337.6,193.1,331z M231.7,284.3
					c7.2-3,11.9-9.9,11.9-17.6V149.5h26.7v117.2c0,7.7,4.6,14.6,11.8,17.6c16,6.7,28.3,19.3,34.8,34.6H196.9
					C203.3,303.6,215.5,291.1,231.7,284.3z M302.7,455h-91.6v-33.2h91.6V455z M438.8,402.7c0,3.8-3.1,6.9-6.9,6.9H81.9
					c-3.8,0-6.9-3.1-6.9-6.9V182.3c0-3.8,3.1-6.9,6.9-6.9h149.5v13.8H94.9c-3.4,0-6.1,2.7-6.1,6.1v194.5c0,3.4,2.7,6.1,6.1,6.1H419
					c3.4,0,6.1-2.7,6.1-6.1V195.3c0-3.4-2.7-6.1-6.1-6.1H282.5v-13.8H432c3.8,0,6.9,3.1,6.9,6.9V402.7z"/>
			</g>
		</g>
		<g>
			<g>
				<path class="st9" d="M263.5,92L263.5,92c-3.4,0-6.1,2.7-6.1,6.1c0,3.4,2.8,6.1,6.1,6.1s6.1-2.7,6.1-6.1
					C269.6,94.7,266.8,92,263.5,92z"/>
			</g>
		</g>
		<g>
			<g>
				<path class="st9" d="M251.3,79.8L251.3,79.8c-3.4,0-6.1,2.7-6.1,6.1c0,3.4,2.8,6.1,6.1,6.1c3.4,0,6.1-2.7,6.1-6.1
					C257.4,82.5,254.6,79.8,251.3,79.8z"/>
			</g>
		</g>
		<g>
			<g>
				<path class="st9" d="M244,111.4L244,111.4c-3.4,0-6.1,2.7-6.1,6.1c0,3.4,2.8,6.1,6.1,6.1s6.1-2.7,6.1-6.1
					C250.1,114.1,247.4,111.4,244,111.4z"/>
			</g>
		</g>
	</g>
</g>
</svg>
