<?xml version="1.0" encoding="utf-8"?>
<!-- Generator: Adobe Illustrator 22.0.1, SVG Export Plug-In . SVG Version: 6.00 Build 0)  -->
<svg version="1.1" xmlns="http://www.w3.org/2000/svg" xmlns:xlink="http://www.w3.org/1999/xlink" x="0px" y="0px"
	 viewBox="0 0 512 512" style="enable-background:new 0 0 512 512;" xml:space="preserve">
<style type="text/css">
	.st0{display:none;}
	.st1{display:inline;opacity:0.2;fill:#2ECC71;}
	.st2{display:inline;}
	.st3{fill:#2ECC71;}
	.st4{display:inline;opacity:0.2;fill:#6C5CE7;}
	.st5{fill:#6C5CE7;}
	.st6{display:inline;opacity:0.2;fill:#FF6D8B;}
	.st7{fill:#FF6D8B;}
	.st8{display:inline;opacity:0.2;fill:#75ABF3;}
	.st9{fill:#75ABF3;}
	.st10{display:inline;opacity:0.2;fill:#3FEAB1;}
	.st11{fill:#3FEAB1;}
	.st12{opacity:0.2;fill:#F7941E;}
	.st13{fill:#F7941E;}
</style>
<g id="katman_6" class="st0">
	<path class="st1" d="M335.2,510.6L89.8,487.7c-24.6,0-47.1-6.4-64.3-16.9c-30.5-18.6-31.8-51.2-3.9-71.6l0,0
		C75.5,360,280.7,282,334,250.3c25.1-14.9,47.8-31.5,82.3-31.5h2c1.1,0,2.2,0,3.3,0c61.8,1.5,104.2,43.8,86.2,84.7l-47.3,107.7
		c-6.8,15.4-11.9,31.1-16.6,46.9c-2.4,8-6.8,15.5-13,22.2C410.7,502.6,372.9,514.1,335.2,510.6z"/>
	<g class="st2">
		<path class="st3" d="M259.8,192.1c0-59.6-48.5-108-108-108c-17.9,0-35.6,4.5-51.3,13c-3.7,2-5.1,6.7-3.1,10.5
			c2,3.7,6.7,5.1,10.5,3.1c13.5-7.3,28.7-11.1,44-11.1c51,0,92.6,41.5,92.6,92.6c0,51-41.5,92.6-92.6,92.6
			c-51,0-92.6-41.5-92.6-92.6c0-16.2,4.3-32.2,12.4-46.3c2.1-3.7,0.9-8.4-2.8-10.5c-3.7-2.1-8.4-0.9-10.5,2.8
			c-9.5,16.4-14.5,35.1-14.5,54c0,59.6,48.5,108,108,108S259.8,251.6,259.8,192.1z"/>
		<path class="st3" d="M78.5,131.4c2.1,0,4.1-0.8,5.6-2.5l0.2-0.2c2.9-3.1,2.7-8-0.4-10.9c-3.1-2.9-8-2.7-10.9,0.4l-0.2,0.2
			c-2.9,3.1-2.7,8,0.4,10.9C74.7,130.7,76.6,131.4,78.5,131.4z"/>
		<path class="st3" d="M151.8,275.4c45.9,0,83.3-37.4,83.3-83.3c0-45.9-37.4-83.3-83.3-83.3s-83.3,37.4-83.3,83.3
			C68.5,238,105.9,275.4,151.8,275.4z M151.8,124.2c37.4,0,67.9,30.5,67.9,67.9c0,37.4-30.5,67.9-67.9,67.9
			c-37.4,0-67.9-30.5-67.9-67.9C83.9,154.7,114.4,124.2,151.8,124.2z"/>
		<path class="st3" d="M206.1,405.1c0.1-0.1,0.2-0.3,0.3-0.4c0-0.1,0.1-0.1,0.1-0.2c0.1-0.2,0.2-0.3,0.3-0.5c0,0,0-0.1,0-0.1
			c0.1-0.2,0.2-0.4,0.3-0.6c0,0,0,0,0-0.1c0.1-0.2,0.2-0.4,0.2-0.6c0,0,0-0.1,0-0.1c0.1-0.2,0.1-0.4,0.2-0.7c0-0.1,0-0.1,0-0.2
			c0-0.2,0.1-0.4,0.1-0.6c0-0.3,0-0.5,0-0.8c0-0.3,0-0.5,0-0.8c0-0.2-0.1-0.4-0.1-0.6c0-0.1,0-0.1,0-0.2c0-0.2-0.1-0.4-0.2-0.7
			c0,0,0,0,0-0.1c-0.1-0.2-0.1-0.4-0.2-0.6c0,0,0,0,0-0.1c-0.1-0.2-0.2-0.4-0.3-0.6c0,0,0-0.1,0-0.1c-0.1-0.2-0.2-0.3-0.3-0.5
			c0-0.1-0.1-0.1-0.1-0.2c-0.1-0.1-0.2-0.3-0.3-0.4c0-0.1-0.1-0.1-0.1-0.2c-0.1-0.1-0.3-0.3-0.4-0.4c0,0-0.1-0.1-0.1-0.1l-17.2-17.2
			c-3-3-7.9-3-10.9,0c-3,3-3,7.9,0,10.9l4,4H121c-4.3,0-7.7-3.5-7.7-7.7v-66c0-4.3-3.5-7.7-7.7-7.7c-4.3,0-7.7,3.5-7.7,7.7v66
			c0,12.8,10.4,23.1,23.1,23.1h60.4l-4,4c-3,3-3,7.9,0,10.9c1.5,1.5,3.5,2.3,5.5,2.3c2,0,3.9-0.8,5.5-2.3l17.2-17.2
			c0,0,0.1-0.1,0.1-0.1c0.1-0.1,0.3-0.3,0.4-0.4C206,405.2,206,405.2,206.1,405.1z"/>
		<path class="st3" d="M294.3,151.4c1.5,1.5,3.5,2.3,5.5,2.3c2,0,3.9-0.8,5.5-2.3c3-3,3-7.9,0-10.9l-4.4-4.4h60.8
			c4.3,0,7.7,3.5,7.7,7.7v58c0,4.3,3.5,7.7,7.7,7.7c4.3,0,7.7-3.5,7.7-7.7v-58c0-12.8-10.4-23.1-23.1-23.1h-60l3.6-3.6
			c3-3,3-7.9,0-10.9c-3-3-7.9-3-10.9,0l-17.2,17.2c-3,3-3,7.9,0,10.9L294.3,151.4z"/>
		<path class="st3" d="M383.8,353.5c8-10.7,12.8-24,12.8-38.3v-28.1c0,0,0-0.1,0-0.1v0c0-35.3-28.7-64.1-64.1-64.1
			c-4.3,0-7.7,3.5-7.7,7.7c0,4.3,3.5,7.7,7.7,7.7c24.9,0,45.4,18.8,48.3,42.9c-9,1.3-20.7-2.2-28.5-11.4c-2.6-3.1-7.1-3.6-10.4-1.3
			c-14.2,10.1-40.2,21.4-57.8,13.9c0.7-7.5,3.2-14.8,7.2-21.2c2.3-3.6,1.2-8.4-2.4-10.6c-3.6-2.3-8.4-1.2-10.6,2.4
			c-6.4,10.2-9.8,21.9-9.8,34v28.2c0,14.4,4.8,27.6,12.8,38.3c-33.7,18.6-55,54.1-55,93.1c0,4.3,3.5,7.7,7.7,7.7h120.1
			c4.3,0,7.7-3.5,7.7-7.7c0-4.3-3.5-7.7-7.7-7.7h-13.8v-51.6l26.3,20.6c2.3,1.8,5.5,2.2,8.1,0.9c2.7-1.3,4.3-4,4.3-6.9v-33.4
			c25.1,14.9,41.6,41.1,44.1,70.4h-15.9c-4.3,0-7.7,3.5-7.7,7.7c0,4.3,3.5,7.7,7.7,7.7h23.9c4.3,0,7.7-3.5,7.7-7.7
			C438.8,407.6,417.5,372.1,383.8,353.5z M345.4,284.8c10,8.7,23.4,13.1,35.7,11.9v18.5c0,13.6-5.6,25.9-14.6,34.7c0,0-0.9,0.9-1,1
			c-8.7,8-20.3,12.9-33,12.9c-12.7,0-24.3-4.9-33-12.9c-0.1-0.1-1-0.9-1-0.9c-9-8.8-14.6-21.1-14.6-34.7v-16.5
			c4.3,1.2,8.8,1.7,13.3,1.7C314.8,300.4,333,292.5,345.4,284.8z M301.4,371.2c3.9,2.2,8,3.9,12.3,5.3l-12.3,9.7V371.2z M241.9,439
			c2.5-29.3,19-55.5,44.1-70.4V402c0,2.9,1.7,5.6,4.3,6.9c1.1,0.5,2.2,0.8,3.4,0.8c1.7,0,3.4-0.6,4.8-1.6l26.3-20.6V439H241.9z
			 M351.2,376.4c4.3-1.3,8.4-3.1,12.3-5.3v14.9L351.2,376.4z"/>
		<path class="st3" d="M385,439h-0.2c-4.3,0-7.7,3.5-7.7,7.7c0,4.3,3.5,7.7,7.7,7.7h0.2c4.3,0,7.7-3.5,7.7-7.7
			C392.7,442.4,389.2,439,385,439z"/>
		<path class="st3" d="M295.7,234.6l-0.3,0.2c-3.5,2.5-4.3,7.3-1.8,10.8c1.5,2.1,3.9,3.2,6.3,3.2c1.5,0,3.1-0.5,4.5-1.4l0.2-0.2
			c3.5-2.4,4.3-7.3,1.9-10.7C304,233,299.2,232.2,295.7,234.6z"/>
		<path class="st3" d="M312.9,326.8h0.2c4.3,0,7.7-3.5,7.7-7.7c0-4.3-3.5-7.7-7.7-7.7h-0.2c-4.3,0-7.7,3.5-7.7,7.7
			C305.2,323.3,308.6,326.8,312.9,326.8z"/>
		<path class="st3" d="M351.9,326.8h0.2c4.3,0,7.7-3.5,7.7-7.7c0-4.3-3.5-7.7-7.7-7.7h-0.2c-4.3,0-7.7,3.5-7.7,7.7
			C344.2,323.3,347.7,326.8,351.9,326.8z"/>
		<path class="st3" d="M142.1,196.4l13.5,5.6c3.5,1.5,5.2,5.5,3.7,9c-1.5,3.5-5.5,5.2-9,3.7l-6.7-2.8c-3.9-1.6-8.4,0.2-10.1,4.2
			c-1.6,3.9,0.2,8.4,4.2,10.1l6.4,2.7v9.5c0,4.3,3.5,7.7,7.7,7.7c4.3,0,7.7-3.5,7.7-7.7v-8.7c6.1-1.9,11.4-6.4,14-12.8
			c4.7-11.4-0.7-24.4-12.1-29.1l-13.5-5.6c-1.7-0.7-3-2-3.7-3.7c-0.7-1.7-0.7-3.6,0-5.3c0.7-1.7,2-3,3.7-3.7c1.7-0.7,3.6-0.7,5.3,0
			l6.7,2.8c3.9,1.6,8.4-0.2,10.1-4.2c1.6-3.9-0.2-8.4-4.2-10.1l-6.4-2.7v-9.5c0-4.3-3.5-7.7-7.7-7.7c-4.3,0-7.7,3.5-7.7,7.7v8.7
			c-0.7,0.2-1.3,0.4-2,0.7c-5.5,2.3-9.8,6.6-12.1,12.1c-2.3,5.5-2.3,11.5,0,17.1C132.4,189.9,136.6,194.2,142.1,196.4z"/>
	</g>
</g>
<g id="katman_5" class="st0">
	<path class="st4" d="M335.2,510.6L89.8,487.7c-24.6,0-47.1-6.4-64.3-16.9c-30.5-18.6-31.8-51.2-3.9-71.6l0,0
		C75.5,360,280.7,282,334,250.3c25.1-14.9,47.8-31.5,82.3-31.5h2c1.1,0,2.2,0,3.3,0c61.8,1.5,104.2,43.8,86.2,84.7l-47.3,107.7
		c-6.8,15.4-11.9,31.1-16.6,46.9c-2.4,8-6.8,15.5-13,22.2C410.7,502.6,372.9,514.1,335.2,510.6z"/>
	<g class="st2">
		<g>
			<g>
				<path class="st5" d="M300.7,176.6c-3.8,0-6.9,3.1-6.9,6.9v24.9c0,16.2-10.8,30.8-26.4,35.5c-2.9,0.9-4.9,3.5-4.9,6.6v0.6
					c0,3.2-2.6,5.7-5.7,5.7s-5.7-2.6-5.7-5.7v-0.6c0-3-2-5.7-4.9-6.6c-15.5-4.7-26.4-19.2-26.4-35.5v-24.9c0-3.8-3.1-6.9-6.9-6.9
					s-6.9,3.1-6.9,6.9v24.9c0,11.1,3.5,21.7,10.2,30.6c5.5,7.3,13.1,13.1,21.5,16.5c2,8.6,9.8,15.1,19,15.1c9.2,0,17-6.5,19-15.1
					c8.5-3.4,16-9.2,21.5-16.5c6.7-8.9,10.2-19.4,10.2-30.6v-24.9C307.6,179.7,304.5,176.6,300.7,176.6z"/>
			</g>
		</g>
		<g>
			<g>
				<path class="st5" d="M398.5,80H115.2c-3.8,0-6.9,3.1-6.9,6.9v338.3c0,3.8,3.1,6.9,6.9,6.9h283.3c3.8,0,6.9-3.1,6.9-6.9V86.9
					C405.4,83.1,402.3,80,398.5,80z M391.6,418.3H122.1V93.8h269.5V418.3z"/>
			</g>
		</g>
		<g>
			<g>
				<path class="st5" d="M150.5,386.2c-0.1-0.4-0.2-0.9-0.4-1.3s-0.4-0.8-0.6-1.2c-0.2-0.4-0.5-0.7-0.9-1s-0.7-0.6-1-0.9
					c-0.4-0.2-0.8-0.5-1.2-0.6c-0.4-0.2-0.8-0.3-1.3-0.4c-0.9-0.2-1.8-0.2-2.7,0c-0.4,0.1-0.9,0.2-1.3,0.4c-0.4,0.2-0.8,0.4-1.2,0.6
					c-0.4,0.2-0.7,0.5-1,0.9s-0.6,0.7-0.9,1c-0.3,0.4-0.5,0.8-0.6,1.2s-0.3,0.8-0.4,1.3c-0.1,0.4-0.1,0.9-0.1,1.3
					c0,0.5,0,0.9,0.1,1.3c0.1,0.4,0.2,0.9,0.4,1.3s0.4,0.8,0.6,1.2c0.2,0.4,0.5,0.7,0.9,1c0.3,0.3,0.7,0.6,1,0.9
					c0.4,0.2,0.8,0.5,1.2,0.6c0.4,0.2,0.9,0.3,1.3,0.4c0.4,0.1,0.9,0.1,1.3,0.1c1.8,0,3.6-0.7,4.9-2c1.3-1.3,2-3.1,2-4.9
					C150.6,387.1,150.6,386.7,150.5,386.2z"/>
			</g>
		</g>
		<g>
			<g>
				<path class="st5" d="M369.9,380.7H169c-3.8,0-6.9,3.1-6.9,6.9c0,3.8,3.1,6.9,6.9,6.9h200.9c3.8,0,6.9-3.1,6.9-6.9
					C376.8,383.8,373.7,380.7,369.9,380.7z"/>
			</g>
		</g>
		<g>
			<g>
				<path class="st5" d="M376.6,359.7c-0.1-0.4-0.2-0.9-0.4-1.3c-0.2-0.4-0.4-0.8-0.6-1.2c-0.2-0.4-0.5-0.7-0.9-1
					c-0.3-0.3-0.7-0.6-1-0.9c-0.4-0.2-0.8-0.5-1.2-0.6c-0.4-0.2-0.9-0.3-1.3-0.4c-2.2-0.4-4.6,0.3-6.2,1.9c-0.3,0.3-0.6,0.7-0.9,1
					c-0.2,0.4-0.5,0.8-0.6,1.2c-0.2,0.4-0.3,0.8-0.4,1.3c-0.1,0.4-0.1,0.9-0.1,1.3s0,0.9,0.1,1.3c0.1,0.4,0.2,0.9,0.4,1.3
					c0.2,0.4,0.4,0.8,0.6,1.2c0.2,0.4,0.5,0.7,0.9,1c1.3,1.3,3.1,2,4.9,2c0.4,0,0.9,0,1.3-0.1c0.4-0.1,0.9-0.2,1.3-0.4
					c0.4-0.2,0.8-0.4,1.2-0.6c0.4-0.2,0.7-0.5,1-0.9s0.6-0.7,0.9-1c0.3-0.4,0.5-0.8,0.6-1.2c0.2-0.4,0.3-0.8,0.4-1.3
					c0.1-0.4,0.1-0.9,0.1-1.3C376.8,360.6,376.7,360.2,376.6,359.7z"/>
			</g>
		</g>
		<g>
			<g>
				<path class="st5" d="M344.7,354.2H143.8c-3.8,0-6.9,3.1-6.9,6.9s3.1,6.9,6.9,6.9h200.9c3.8,0,6.9-3.1,6.9-6.9
					S348.5,354.2,344.7,354.2z"/>
			</g>
		</g>
		<g>
			<g>
				<path class="st5" d="M371.2,107.3H142.5c-3.8,0-6.9,3.1-6.9,6.9v213.6c0,3.8,3.1,6.9,6.9,6.9h228.7c3.8,0,6.9-3.1,6.9-6.9V114.2
					C378.1,110.4,375,107.3,371.2,107.3z M315.8,320.9h-17.5v-20.3c0-3.8-3.1-6.9-6.9-6.9c-3.8,0-6.9,3.1-6.9,6.9v20.3H229v-20.3
					c0-3.8-3.1-6.9-6.9-6.9s-6.9,3.1-6.9,6.9v20.3h-17.5v-47.7c0-7.8,6.3-14.1,14.1-14.1h27.2c3.1,6.7,9.9,11.4,17.7,11.4
					s14.7-4.7,17.7-11.4h27.2c7.8,0,14.1,6.3,14.1,14.1V320.9z M219.8,190.3h32.2c1.1,0,2.2-0.3,3.2-0.8l21.7-11.4l4.8,8.6
					c1.2,2.2,3.5,3.5,6,3.5h6.1v18c0,16.2-10.8,30.8-26.4,35.5c-2.9,0.9-4.9,3.5-4.9,6.6v0.6c0,3.2-2.6,5.7-5.7,5.7
					s-5.7-2.6-5.7-5.7v-0.6c0-3-2-5.7-4.9-6.6c-15.5-4.7-26.4-19.2-26.4-35.5L219.8,190.3L219.8,190.3z M219.8,176.6v-11.1
					c0-10,8.1-18.1,18.1-18.1h37.8c10,0,18.1,8.1,18.1,18.1v11.1h-2.1l-6.1-11c-1.8-3.3-5.9-4.5-9.2-2.8l-26.1,13.7H219.8z
					 M364.3,320.9h-34.7v-47.7c0-15.3-12.5-27.8-27.8-27.8h-10.2c2.1-2,4.1-4.1,5.8-6.4c6.7-8.9,10.2-19.4,10.2-30.6v-42.9
					c0-17.6-14.3-31.8-31.8-31.8h-37.8c-17.6,0-31.8,14.3-31.8,31.8v42.9c0,11.1,3.5,21.7,10.2,30.6c1.7,2.3,3.7,4.5,5.8,6.4h-10.2
					c-15.3,0-27.8,12.5-27.8,27.8v47.7h-34.7V121h215V320.9L364.3,320.9z"/>
			</g>
		</g>
		<g>
			<g>
				<path class="st5" d="M277.2,196.2h-2.4c-3.8,0-6.9,3.1-6.9,6.9s3.1,6.9,6.9,6.9h2.4c3.8,0,6.9-3.1,6.9-6.9
					S281,196.2,277.2,196.2z"/>
			</g>
		</g>
		<g>
			<g>
				<path class="st5" d="M238.9,196.2h-2.4c-3.8,0-6.9,3.1-6.9,6.9s3.1,6.9,6.9,6.9h2.4c3.8,0,6.9-3.1,6.9-6.9
					S242.7,196.2,238.9,196.2z"/>
			</g>
		</g>
	</g>
</g>
<g id="katman_4" class="st0">
	<path class="st6" d="M335.2,510.6L89.8,487.7c-24.6,0-47.1-6.4-64.3-16.9c-30.5-18.6-31.8-51.2-3.9-71.6l0,0
		C75.5,360,280.7,282,334,250.3c25.1-14.9,47.8-31.5,82.3-31.5h2c1.1,0,2.2,0,3.3,0c61.8,1.5,104.2,43.8,86.2,84.7l-47.3,107.7
		c-6.8,15.4-11.9,31.1-16.6,46.9c-2.4,8-6.8,15.5-13,22.2C410.7,502.6,372.9,514.1,335.2,510.6z"/>
	<g class="st2">
		<path class="st7" d="M295.7,314.6c0-21.5-17.5-38.9-38.9-38.9c-21.5,0-38.9,17.5-38.9,38.9s17.5,38.9,38.9,38.9
			S295.7,336.1,295.7,314.6z M256.8,340.5c-14.3,0-25.9-11.6-25.9-25.9s11.6-25.9,25.9-25.9c14.3,0,25.9,11.6,25.9,25.9
			S271.1,340.5,256.8,340.5z"/>
		<path class="st7" d="M189.4,314.6c0-21.5-17.5-38.9-38.9-38.9s-38.9,17.5-38.9,38.9s17.5,38.9,38.9,38.9S189.4,336.1,189.4,314.6z
			 M150.5,340.5c-14.3,0-25.9-11.6-25.9-25.9s11.6-25.9,25.9-25.9c14.3,0,25.9,11.6,25.9,25.9S164.8,340.5,150.5,340.5z"/>
		<path class="st7" d="M402.1,314.6c0-21.5-17.5-38.9-38.9-38.9c-21.5,0-38.9,17.5-38.9,38.9s17.5,38.9,38.9,38.9
			C384.6,353.5,402.1,336.1,402.1,314.6z M363.2,340.5c-14.3,0-25.9-11.6-25.9-25.9s11.6-25.9,25.9-25.9s25.9,11.6,25.9,25.9
			S377.5,340.5,363.2,340.5z"/>
		<path class="st7" d="M363.2,353.5c-23.3,0-43.4,13.5-53.2,32.1c-9.8-18.6-29.8-32.1-53.2-32.1c-23.3,0-43.4,13.5-53.2,32.1
			c-9.8-18.6-29.8-32.1-53.2-32.1c-32.3,0-59.7,26.2-59.7,58.4v29.8c0,3.6,2.9,6.5,6.5,6.5h319c3.6,0,6.5-2.9,6.5-6.5v-29.8
			C422.8,379.7,395.5,353.5,363.2,353.5z M256.8,366.5c25.3,0,46.7,20.8,46.7,45.4v23.3h-93.4v-23.3
			C210.1,387.3,231.5,366.5,256.8,366.5z M103.8,411.9c0-24.6,21.4-45.4,46.7-45.4s46.7,20.8,46.7,45.4v23.3h-93.4V411.9z
			 M409.9,435.2h-93.4v-23.3c0-24.6,21.4-45.4,46.7-45.4c25.3,0,46.7,20.8,46.7,45.4V435.2z"/>
		<path class="st7" d="M256.8,155.1c-10.7,0-19.5,8.7-19.5,19.5s8.7,19.5,19.5,19.5c10.7,0,19.5-8.7,19.5-19.5
			S267.6,155.1,256.8,155.1z M256.8,181c-3.6,0-6.5-2.9-6.5-6.5s2.9-6.5,6.5-6.5c3.6,0,6.5,2.9,6.5,6.5S260.4,181,256.8,181z"/>
		<path class="st7" d="M185.5,174.5c0,10.7,8.7,19.5,19.5,19.5c10.7,0,19.5-8.7,19.5-19.5s-8.7-19.5-19.5-19.5
			C194.2,155.1,185.5,163.8,185.5,174.5z M211.4,174.5c0,3.6-2.9,6.5-6.5,6.5c-3.6,0-6.5-2.9-6.5-6.5s2.9-6.5,6.5-6.5
			C208.5,168.1,211.4,171,211.4,174.5z"/>
		<path class="st7" d="M328.2,174.5c0-10.7-8.7-19.5-19.5-19.5c-10.7,0-19.5,8.7-19.5,19.5S298,194,308.7,194
			C319.4,194,328.2,185.3,328.2,174.5z M302.2,174.5c0-3.6,2.9-6.5,6.5-6.5c3.6,0,6.5,2.9,6.5,6.5s-2.9,6.5-6.5,6.5
			C305.1,181,302.2,178.1,302.2,174.5z"/>
		<circle class="st7" cx="256.8" cy="122.7" r="6.5"/>
		<path class="st7" d="M263.9,223.8l-7,16.2l-7-16.2c-1-2.4-3.4-3.9-5.9-3.9H179c-25,0-45.4-20.4-45.4-45.4s20.4-45.4,45.4-45.4
			h48.6c3.6,0,6.5-2.9,6.5-6.5s-2.9-6.5-6.5-6.5H179c-32.2,0-58.4,26.2-58.4,58.4s26.2,58.4,58.4,58.4h60.6l11.3,25.9
			c1,2.4,3.4,3.9,5.9,3.9c2.6,0,4.9-1.5,5.9-3.9l11.3-25.9h60.6c32.2,0,58.4-26.2,58.4-58.4s-26.2-58.4-58.4-58.4H286
			c-3.6,0-6.5,2.9-6.5,6.5s2.9,6.5,6.5,6.5h48.6c25,0,45.4,20.4,45.4,45.4s-20.4,45.4-45.4,45.4h-64.8
			C267.2,219.9,264.9,221.5,263.9,223.8L263.9,223.8z"/>
	</g>
</g>
<g id="katman_3" class="st0">
	<path class="st8" d="M335.2,510.6L89.8,487.7c-24.6,0-47.1-6.4-64.3-16.9c-30.5-18.6-31.8-51.2-3.9-71.6l0,0
		C75.5,360,280.7,282,334,250.3c25.1-14.9,47.8-31.5,82.3-31.5h2c1.1,0,2.2,0,3.3,0c61.8,1.5,104.2,43.8,86.2,84.7l-47.3,107.7
		c-6.8,15.4-11.9,31.1-16.6,46.9c-2.4,8-6.8,15.5-13,22.2C410.7,502.6,372.9,514.1,335.2,510.6z"/>
	<g class="st2">
		<path class="st9" d="M119.4,406.9c0,3.8,3,6.8,6.8,6.8h136.4l18.1,18.1v18.6c0,3.8,3,6.8,6.8,6.8h99.1c3.8,0,6.8-3,6.8-6.8v-15.8
			l11.1-21.3c4-7.6,6.1-16.2,6.1-24.9v-32.9c0-11.2-10.2-20.4-21.1-20.4c-4.2,0-8.1,1.1-11.4,3.1c-3.8-5.4-10.1-8.9-17.2-8.9
			c-2.6,0-5.2,0.5-7.5,1.4v-215c0-3.8-3-6.8-6.8-6.8H126.2c-3.8,0-6.8,3-6.8,6.8V232c0,3.8,3,6.8,6.8,6.8c3.8,0,6.8-3,6.8-6.8V122.6
			h206.8v203.5c-4.8-1.8-10.2-1.8-15,0v-36.1c0-11.5-9.6-21.1-21.1-21.1c-11.5,0-21.1,9.6-21.1,21.1v79.2l-9.6-9.6
			c-8.8-8.8-23.5-8.8-32.2,0c-8.8,8.8-8.7,23.5,0,32.2l8.3,8.3H133V291.8c0-3.8-3-6.8-6.8-6.8c-3.8,0-6.8,3-6.8,6.8V406.9z
			 M360.8,343c4.1,0,7.5,3.4,7.5,7.5v5.1c0,3.8,3,6.8,6.8,6.8s6.8-3,6.8-6.8c0-4.4,3.8-6.8,7.5-6.8c4.1,0,7.5,3.4,7.5,7.5v32.1
			c0,6.4-1.6,12.9-4.6,18.6l-11.9,22.8c-0.5,1-0.8,2.1-0.8,3.1v10.7h-85.5V429c0-1.8-0.7-3.5-2-4.8l-22.1-22.1c0,0,0,0,0,0
			l-19.9-19.9c-3.6-3.6-3.6-9.5,0-13c3.5-3.5,9.5-3.5,13,0l10.7,10.7c3.7,3.7,9.3,4.8,14.2,2.8c4.8-2,8-6.8,8-12v-80.7
			c0-4.1,3.4-7.5,7.5-7.5c4.1,0,7.5,3.5,7.5,7.5v55.9c0,0,0,0,0,0v9c0,3.8,3,6.8,6.8,6.8s6.8-3,6.8-6.8v-9c0-4.1,3.4-7.5,7.5-7.5
			c4,0,7.5,3.5,7.5,7.5l0,9c0,3.8,3,6.8,6.8,6.8c3.8,0,6.8-3,6.8-6.8v-4.3C353.3,346.4,356.7,343,360.8,343L360.8,343z"/>
		<path class="st9" d="M315.7,250.7c0-3.8-3-6.8-6.8-6.8h-58.4c-3.8,0-6.8,3-6.8,6.8s3,6.8,6.8,6.8h58.4
			C312.6,257.5,315.7,254.5,315.7,250.7z"/>
		<path class="st9" d="M263.3,279.5h-12.8c-3.8,0-6.8,3-6.8,6.8s3,6.8,6.8,6.8h12.8c3.8,0,6.8-3,6.8-6.8
			C270.1,282.5,267.1,279.5,263.3,279.5L263.3,279.5z"/>
		<path class="st9" d="M263.3,315.1h-12.8c-3.8,0-6.8,3-6.8,6.8c0,3.8,3,6.8,6.8,6.8h12.8c3.8,0,6.8-3,6.8-6.8
			C270.1,318.1,267.1,315.1,263.3,315.1z"/>
		<path class="st9" d="M166.7,159.9h142.2c3.8,0,6.8-3,6.8-6.8c0-3.8-3-6.8-6.8-6.8H166.7c-3.8,0-6.8,3-6.8,6.8
			C159.9,156.8,163,159.9,166.7,159.9z"/>
		<path class="st9" d="M159.9,357.9c0,3.8,3,6.8,6.8,6.8h51.3c3.8,0,6.8-3,6.8-6.8V250.7c0-3.8-3-6.8-6.8-6.8h-51.3
			c-3.8,0-6.8,3-6.8,6.8V357.9z M173.5,257.5h37.7v93.6h-37.7V257.5z"/>
		<path class="st9" d="M159.9,217.3c0,3.8,3,6.8,6.8,6.8h142.2c3.8,0,6.8-3,6.8-6.8v-32.6c0-3.8-3-6.8-6.8-6.8H166.7
			c-3.8,0-6.8,3-6.8,6.8V217.3z M173.5,191.4h128.6v19H173.5V191.4z"/>
		<path class="st9" d="M120.5,265.9c2,3.1,6.4,3.9,9.4,1.9c3.1-2.1,3.9-6.3,1.9-9.4c-2.1-3.1-6.3-3.9-9.4-1.9
			C119.3,258.5,118.5,262.8,120.5,265.9z"/>
	</g>
</g>
<g id="katman_2_1_" class="st0">
	<path class="st10" d="M335.2,510.6L89.8,487.7c-24.6,0-47.1-6.4-64.3-16.9c-30.5-18.6-31.8-51.2-3.9-71.6l0,0
		C75.5,360,280.7,282,334,250.3c25.1-14.9,47.8-31.5,82.3-31.5h2c1.1,0,2.2,0,3.3,0c61.8,1.5,104.2,43.8,86.2,84.7l-47.3,107.7
		c-6.8,15.4-11.9,31.1-16.6,46.9c-2.4,8-6.8,15.5-13,22.2C410.7,502.6,372.9,514.1,335.2,510.6z"/>
	<g id="XMLID_1124_" class="st2">
		<g id="XMLID_258_">
			<path id="XMLID_284_" class="st11" d="M265.8,231.2H159.4c-15.3,0-27.7,12.4-27.7,27.7v73.4c0,15.3,12.4,27.7,27.7,27.7h106.5
				c15.3,0,27.7-12.4,27.7-27.7v-73.4C293.5,243.6,281.1,231.2,265.8,231.2L265.8,231.2z M277,332.3c0,6.1-5,11.1-11.1,11.1H159.4
				c-6.1,0-11.1-5-11.1-11.1v-73.4c0-6.1,5-11.1,11.1-11.1h106.5c6.1,0,11.1,5,11.1,11.1V332.3z"/>
			<path id="XMLID_285_" class="st11" d="M227.7,288.4l-21.9-12.7c-2.6-1.5-5.7-1.5-8.3,0c-2.6,1.5-4.1,4.2-4.1,7.1v25.3
				c0,2.9,1.6,5.7,4.1,7.1c1.3,0.7,2.7,1.1,4.1,1.1s2.8-0.4,4.1-1.1l21.9-12.7c2.6-1.5,4.1-4.2,4.1-7.1S230.2,289.9,227.7,288.4z"/>
			<path id="XMLID_288_" class="st11" d="M483.6,130.6L380.5,76.9c-2.4-1.2-5.2-1.2-7.6,0l-103.1,53.6c-2.7,1.4-4.4,4.2-4.4,7.3
				c0,3.1,1.7,5.9,4.4,7.3l39.7,20.7v17.4H143.8c-30.5,0-55.3,24.8-55.3,55.3v152.7H73.7c-4.6,0-8.3,3.7-8.3,8.3
				c0,30,24.4,54.5,54.5,54.5H389c30,0,54.5-24.4,54.5-54.5c0-4.6-3.7-8.3-8.3-8.3h-14.9V238.6c0-1.2,0-2.3-0.1-3.5l18.6-7.9
				c3-1.3,5-4.3,5-7.6v-53.7l27.6-14.4V202c0,4.6,3.7,8.3,8.3,8.3c4.6,0,8.3-3.7,8.3-8.3v-64.1C488,134.8,486.3,132,483.6,130.6
				L483.6,130.6z M403.8,391.3H291.6c-4.6,0-8.3,3.7-8.3,8.3c0,4.6,3.7,8.3,8.3,8.3H426c-3.8,17-19,29.7-37.1,29.7H119.9
				c-18.1,0-33.3-12.7-37.1-29.7h134.5c4.6,0,8.3-3.7,8.3-8.3c0-4.6-3.7-8.3-8.3-8.3H105V238.6c0-21.4,17.4-38.8,38.8-38.8h165.7
				v19.8c0,3.3,2,6.3,5,7.6l58.9,25c1,0.4,2.1,0.7,3.2,0.7s2.2-0.2,3.2-0.7l23.9-10.2V391.3z M427.4,214.1l-50.7,21.5L326,214.1
				v-39.7l46.9,24.4c1.2,0.6,2.5,0.9,3.8,0.9s2.6-0.3,3.8-0.9l46.9-24.4L427.4,214.1z M376.7,182.2l-85.2-44.3l85.2-44.3l85.2,44.3
				L376.7,182.2z"/>
			<path id="XMLID_291_" class="st11" d="M370.8,132.1c-1.5,1.5-2.4,3.7-2.4,5.8c0,2.2,0.9,4.3,2.4,5.8c1.5,1.5,3.7,2.4,5.8,2.4
				c2.2,0,4.3-0.9,5.8-2.4c1.5-1.5,2.4-3.7,2.4-5.8c0-2.2-0.9-4.3-2.4-5.8c-1.5-1.5-3.7-2.4-5.8-2.4
				C374.5,129.6,372.4,130.5,370.8,132.1z"/>
			<path id="XMLID_297_" class="st11" d="M372.2,343.4h-45.1c-4.6,0-8.3,3.7-8.3,8.3c0,4.6,3.7,8.3,8.3,8.3h45.1
				c4.6,0,8.3-3.7,8.3-8.3C380.4,347.1,376.7,343.4,372.2,343.4z"/>
			<path id="XMLID_298_" class="st11" d="M372.2,303.8h-45.1c-4.6,0-8.3,3.7-8.3,8.3c0,4.6,3.7,8.3,8.3,8.3h45.1
				c4.6,0,8.3-3.7,8.3-8.3C380.4,307.5,376.7,303.8,372.2,303.8z"/>
			<path id="XMLID_299_" class="st11" d="M254.4,391.3c-2.2,0-4.3,0.9-5.8,2.4c-1.5,1.5-2.4,3.7-2.4,5.8c0,2.2,0.9,4.3,2.4,5.8
				c1.5,1.5,3.7,2.4,5.8,2.4s4.3-0.9,5.8-2.4c1.5-1.5,2.4-3.7,2.4-5.8c0-2.2-0.9-4.3-2.4-5.8C258.7,392.2,256.6,391.3,254.4,391.3z"
				/>
		</g>
	</g>
</g>
<g id="katman_1">
	<path class="st12" d="M335.2,510.6L89.8,487.7c-24.6,0-47.1-6.4-64.3-16.9c-30.5-18.6-31.8-51.2-3.9-71.6l0,0
		C75.5,360,280.7,282,334,250.3c25.1-14.9,47.8-31.5,82.3-31.5h2c1.1,0,2.2,0,3.3,0c61.8,1.5,104.2,43.8,86.2,84.7l-47.3,107.7
		c-6.8,15.4-11.9,31.1-16.6,46.9c-2.4,8-6.8,15.5-13,22.2C410.7,502.6,372.9,514.1,335.2,510.6z"/>
	<g>
		<g>
			<g>
				<path class="st13" d="M397.3,57.3H114.7c-12.8,0-23.3,10.4-23.3,23.3v350.9c0,12.8,10.4,23.3,23.3,23.3h282.6
					c12.8,0,23.3-10.4,23.3-23.3V80.6C420.6,67.7,410.1,57.3,397.3,57.3z M349.9,84.8l43.2,43.2h-35.5c-4.3,0-7.8-3.5-7.8-7.8V84.8z
					 M405,431.4c0,4.3-3.5,7.8-7.8,7.8H114.7c-4.3,0-7.8-3.5-7.8-7.8V80.6c0-4.3,3.5-7.8,7.8-7.8h219.7v47.5
					c0,12.8,10.4,23.3,23.3,23.3H405V431.4z M405,117.9l-45.1-45.1h37.4c4.3,0,7.8,3.5,7.8,7.8V117.9z"/>
			</g>
		</g>
		<g>
			<g>
				<path class="st13" d="M373.8,203.2h-86.5c-4.3,0-7.8,3.5-7.8,7.8s3.5,7.8,7.8,7.8h86.5c4.3,0,7.8-3.5,7.8-7.8
					S378.1,203.2,373.8,203.2z"/>
			</g>
		</g>
		<g>
			<g>
				<path class="st13" d="M292.8,168.2c-1.4-1.4-3.4-2.3-5.5-2.3s-4,0.8-5.5,2.3c-1.4,1.4-2.3,3.4-2.3,5.5c0,2,0.8,4,2.3,5.5
					c1.4,1.4,3.4,2.3,5.5,2.3s4-0.8,5.5-2.3c1.4-1.4,2.3-3.4,2.3-5.5C295,171.7,294.2,169.7,292.8,168.2z"/>
			</g>
		</g>
		<g>
			<g>
				<path class="st13" d="M373.8,165.9h-55.5c-4.3,0-7.8,3.5-7.8,7.8c0,4.3,3.5,7.8,7.8,7.8h55.5c4.3,0,7.8-3.5,7.8-7.8
					C381.5,169.4,378.1,165.9,373.8,165.9z"/>
			</g>
		</g>
		<g>
			<g>
				<path class="st13" d="M373.8,240.5h-84.1c-4.3,0-7.8,3.5-7.8,7.8c0,4.3,3.5,7.8,7.8,7.8h84.1c4.3,0,7.8-3.5,7.8-7.8
					C381.5,243.9,378.1,240.5,373.8,240.5z"/>
			</g>
		</g>
		<g>
			<g>
				<path class="st13" d="M375.8,277.7H138.2c-4.3,0-7.8,3.5-7.8,7.8s3.5,7.8,7.8,7.8h237.5c4.3,0,7.8-3.5,7.8-7.8
					S380,277.7,375.8,277.7z"/>
			</g>
		</g>
		<g>
			<g>
				<path class="st13" d="M373.8,315H138.2c-4.3,0-7.8,3.5-7.8,7.8s3.5,7.8,7.8,7.8h235.5c4.3,0,7.8-3.5,7.8-7.8S378,315,373.8,315z
					"/>
			</g>
		</g>
		<g>
			<g>
				<path class="st13" d="M375.8,352.3H138.2c-4.3,0-7.8,3.5-7.8,7.8s3.5,7.8,7.8,7.8h237.5c4.3,0,7.8-3.5,7.8-7.8
					S380,352.3,375.8,352.3z"/>
			</g>
		</g>
		<g>
			<g>
				<path class="st13" d="M381.2,391.8c-1.4-1.4-3.4-2.3-5.5-2.3s-4,0.8-5.5,2.3c-1.4,1.4-2.3,3.4-2.3,5.5s0.8,4,2.3,5.5
					c1.4,1.4,3.4,2.3,5.5,2.3s4-0.8,5.5-2.3c1.4-1.4,2.3-3.4,2.3-5.5S382.7,393.2,381.2,391.8z"/>
			</g>
		</g>
		<g>
			<g>
				<path class="st13" d="M344.5,389.5H138.2c-4.3,0-7.8,3.5-7.8,7.8s3.5,7.8,7.8,7.8h206.3c4.3,0,7.8-3.5,7.8-7.8
					S348.8,389.5,344.5,389.5z"/>
			</g>
		</g>
		<g>
			<g>
				<path class="st13" d="M249.9,107H136.2c-4.3,0-7.8,3.5-7.8,7.8l-0.1,133.5c0,4.3,3.5,7.8,7.8,7.8h113.8c4.3,0,7.8-3.5,7.8-7.8
					V114.7C257.7,110.4,254.2,107,249.9,107z M242.2,240.5h-98.3l0.1-9.9c1.3-17,15.5-30.5,32.8-30.5h32.4
					c18.2,0,32.9,14.8,32.9,32.9V240.5z M180.6,172.2v-5c0-6.8,5.6-12.4,12.4-12.4s12.4,5.6,12.4,12.4v5c0,6.8-5.6,12.4-12.4,12.4
					C186.2,184.6,180.6,179,180.6,172.2z M242.2,197.5c-6.7-6.2-15.1-10.5-24.5-12.2c2.1-3.9,3.3-8.4,3.3-13.2v-5
					c0-15.4-12.5-27.9-27.9-27.9s-27.9,12.5-27.9,27.9v5c0,4.8,1.2,9.2,3.3,13.2c-9.3,1.6-17.7,5.9-24.4,12.1v-75h98.2V197.5z"/>
			</g>
		</g>
	</g>
</g>
</svg>
