<?xml version="1.0" encoding="utf-8"?>
<!-- Generator: Adobe Illustrator 22.0.1, SVG Export Plug-In . SVG Version: 6.00 Build 0)  -->
<svg version="1.1" xmlns="http://www.w3.org/2000/svg" xmlns:xlink="http://www.w3.org/1999/xlink" x="0px" y="0px"
	 viewBox="0 0 310 220" style="enable-background:new 0 0 310 220;" xml:space="preserve">
<style type="text/css">
	.st0{opacity:0.1;fill:#F7941E;enable-background:new    ;}
	.st1{fill:#F7941E;}
	.st2{fill:#3F3D56;}
	.st3{opacity:0.1;enable-background:new    ;}
	.st4{fill:#444053;}
	.st5{fill:#FFFFFF;}
	.st6{fill:#E6E6E6;}
	.st7{fill:#2F2E41;}
	.st8{fill:#FFB9B9;}
	.st9{fill:#ED8B21;}
	.st10{fill:#EA881C;}
	.st11{fill:#A0616A;}
	.st12{opacity:0.2;enable-background:new    ;}
</style>
<g id="katman_1">
	<path class="st0" d="M180,37.5c-19.7-0.7-38.5-7.1-56.5-14S87.8,8.7,68.5,5C56.1,2.7,41.9,2.3,32,9c-9.6,6.4-12.7,17.4-14.4,27.7
		c-1.3,7.7-2,15.8,1.4,23c2.4,5,6.6,9.2,9.6,14c10.2,16.7,3,37.3-8.1,53.6c-5.2,7.6-11.2,14.9-15.2,23.1c-4,8.1-5.8,17.5-2.3,25.8
		c3.5,8.2,11.7,14.4,20.7,18.8c18.2,8.8,39.6,11.3,60.6,12.8c46.3,3.2,92.9,1.8,139.3,0.4c17.2-0.5,34.4-1,51.3-3.7
		c9.4-1.5,19.1-3.8,25.9-9.5c8.6-7.2,10.8-19.3,5-28.3c-9.7-15.1-36.6-18.8-43.4-35c-3.7-8.9,0.1-18.8,5.5-27.1
		c11.7-17.7,31.2-33.3,32.2-53.6c0.7-13.9-8.7-27.9-23.2-34.5c-15.2-6.9-36.3-6-47.6,5.4C217.7,33.5,197.4,38.1,180,37.5z"/>
	<g>
		<ellipse class="st1" cx="145.6" cy="192.1" rx="21" ry="4"/>
		<ellipse class="st2" cx="145.3" cy="190.3" rx="2.4" ry="3.2"/>
		<ellipse class="st2" cx="145.3" cy="186.4" rx="2.4" ry="3.2"/>
		<ellipse class="st2" cx="145.3" cy="182.5" rx="2.4" ry="3.2"/>
		<ellipse class="st2" cx="145.3" cy="178.6" rx="2.4" ry="3.2"/>
		<ellipse class="st2" cx="145.3" cy="174.7" rx="2.4" ry="3.2"/>
		<ellipse class="st2" cx="145.3" cy="170.7" rx="2.4" ry="3.2"/>
		<ellipse class="st2" cx="145.3" cy="166.8" rx="2.4" ry="3.2"/>
		<path class="st1" d="M154.5,140c0.3-0.4,0.6-0.9,0.9-1.3l-6.4-1.1l7,0.1c1.4-2.9,1.4-6.3,0.2-9.3l-9.3,4.8l8.6-6.3
			c-3.2-5.6-10.4-7.5-16-4.3c-5.6,3.2-7.5,10.4-4.3,16c0.3,0.5,0.6,1,1,1.4c-0.5,0.7-1,1.4-1.3,2.1l8.4,4.3l-8.9-3
			c-1.3,3.8-0.6,7.9,1.9,11c-4,5.1-3.1,12.5,2,16.5c5.1,4,12.5,3.1,16.5-2c3.4-4.3,3.4-10.3,0-14.5
			C157.8,150.3,157.8,144.3,154.5,140L154.5,140z"/>
		<path class="st3" d="M133.5,147.3c0,2.6,0.9,5.2,2.5,7.3c-4,5.1-3.1,12.5,2,16.5s12.5,3.1,16.5-2c3.4-4.3,3.4-10.3,0-14.5
			C156,152.5,133.5,145.9,133.5,147.3z"/>
	</g>
	<path class="st3" d="M109.2,52.6c-2.2,0-4,1.8-4,4c0,2.2,1.8,4,4,4c2.2,0,4-1.8,4-4c0,0,0,0,0,0C113.2,54.4,111.4,52.6,109.2,52.6
		C109.2,52.6,109.2,52.6,109.2,52.6z M109.2,60c-1.9,0-3.4-1.5-3.4-3.4c0-1.9,1.5-3.4,3.4-3.4c1.9,0,3.4,1.5,3.4,3.4l0,0
		C112.6,58.5,111.1,60,109.2,60z"/>
	<path class="st3" d="M200.9,52.6c-2.2,0-4,1.8-4,4c0,2.2,1.8,4,4,4c2.2,0,4-1.8,4-4c0,0,0,0,0,0C204.8,54.4,203,52.6,200.9,52.6z
		 M200.9,60c-1.9,0-3.4-1.5-3.4-3.4c0-1.9,1.5-3.4,3.4-3.4c1.9,0,3.4,1.5,3.4,3.4l0,0C204.2,58.5,202.7,60,200.9,60z"/>
	<circle class="st0" cx="283" cy="118.1" r="4.2"/>
	<circle class="st0" cx="297.9" cy="99.5" r="7"/>
	<circle class="st0" cx="288.7" cy="133.4" r="7"/>
	<circle class="st0" cx="10.9" cy="97.8" r="9.9"/>
	<g>
		<path class="st1" d="M37.9,166c1.1-0.4,2.3-0.5,3.4-0.4c1.4,0.2,1.2,2.3-0.2,2.2c-0.7-0.1-1.4-0.2-2.1-0.4L37.9,166z"/>
		<path class="st1" d="M37.5,166c-0.5,1-0.8,2.2-0.8,3.4c0,1.4,2.1,1.5,2.2,0.1c0-0.7,0-1.4-0.1-2.1L37.5,166z"/>
		<path class="st1" d="M34.3,161.4c0,0,0.7-2.2,4.9-1.3c1.9,0.4,1.9,3.1-0.1,3.4H39C36.3,163.9,35.3,162.8,34.3,161.4z"/>
		<path class="st1" d="M33.8,161.3c0,0-2.3,0.2-2.4,4.5c-0.1,1.9,2.6,2.5,3.3,0.7c0,0,0-0.1,0-0.1C35.8,163.8,34.9,162.6,33.8,161.3
			z"/>
		<path class="st1" d="M30.8,155.7c0.3-1.6,1.5-2.9,3-3.4c2.9-0.9,4.4,3.4,1.6,4.5c-1.2,0.4-2.4,0.6-3.6,0.5L30.8,155.7z"/>
		<path class="st1" d="M27.3,148.6c0,0,1.2-2.7,4.1-3.3c3.2-0.6,4.1,4.2,1,4.9c-1.4,0.3-2.9,0.3-4.3,0L27.3,148.6z"/>
		<path class="st1" d="M25.2,141.6c1-1.6,2.6-2.6,4.4-3c2.7-0.5,3.6,3.6,1,4.3c-1.7,0.4-3.4,0.4-5.1-0.1L25.2,141.6z"/>
		<path class="st1" d="M23.2,134.7c0.9-1.4,2.2-2.5,3.8-3c2.7-0.8,4.1,3.3,1.4,4.2c-1.6,0.5-3.3,0.5-5,0L23.2,134.7z"/>
		<path class="st1" d="M22.4,128.5c0,0,1.1-2.6,3.3-3.9c2.5-1.5,4.8,2.2,2.5,3.8c-1.5,1-3.3,1.7-5.5,1.3L22.4,128.5z"/>
		<path class="st1" d="M22,121.1c0,0,1.2-2.6,3.5-3.8c2.6-1.4,4.8,2.4,2.4,4c-1.6,1.1-3.6,1.7-5.7,0.9L22,121.1z"/>
		<path class="st1" d="M22.2,114.3c0.9-1.4,2-2.7,3.3-3.7c1.8-1.5,4.1,1.2,2.4,2.8c-1.6,1.4-3.5,2.7-5.6,2.6L22.2,114.3z"/>
		<path class="st1" d="M22.9,107.9c1-1.7,2.3-3.3,3.7-4.8c1.4-1.4,3.5,0.7,2.2,2.2c-1.5,1.6-3.6,3.3-6.1,4.1L22.9,107.9z"/>
		<path class="st1" d="M24.2,100.2c0.9-1.3,1.8-2.5,3-3.7c1.4-1.4,3.6,0.7,2.2,2.2c-1.5,1.5-3.3,3-5.5,3.5L24.2,100.2z"/>
		<path class="st1" d="M25.4,93.1c0.9-1.2,1.8-2.3,2.8-3.4c1.1-1.2,3,0.5,1.9,1.7c-1.3,1.5-2.9,2.7-4.7,3L25.4,93.1z"/>
		<path class="st1" d="M26.6,86.5c0.8-1.6,1.7-3.1,2.7-4.5c0.9-1.2,2.6,0.1,1.8,1.3c-1.1,1.6-2.5,3.1-4.4,3.9L26.6,86.5z"/>
		<path class="st1" d="M27.6,77.8c0,0,0.7-1.1,1.6-2.5c0.9-1.2,2.8,0,1.9,1.3c-0.9,1.4-2.1,2.6-3.4,2.9L27.6,77.8z"/>
		<path class="st1" d="M28.1,72l0.9-4.3c0.2-1.1,1.9-0.9,1.8,0.3c-0.3,2.3-1.1,4.6-2.8,6.1L28.1,72z"/>
		<path class="st1" d="M27.6,59.8L27.6,59.8c0.2-0.4,0.7-0.6,1.1-0.4c0.4,0.2,0.6,0.5,0.5,0.9c-0.2,1.2-0.5,2.4-0.9,3.5L27.6,59.8z"
			/>
		<path class="st1" d="M30.6,155.7c-1.6-0.5-3.3-0.1-4.5,1c-2.2,2,0.8,5.5,3.1,3.6c0.9-0.8,1.7-1.8,2.2-2.9L30.6,155.7z"/>
		<path class="st1" d="M27.1,148.4c0,0-2.9-0.7-5.1,1.4c-2.4,2.2,0.9,5.8,3.4,3.8c1.1-0.9,2-2.1,2.6-3.4L27.1,148.4z"/>
		<path class="st1" d="M25,142.1c-1.5-1.1-3.4-1.5-5.2-1.2c-2.7,0.5-2,4.7,0.7,4.3c1.7-0.2,3.3-0.9,4.7-2L25,142.1z"/>
		<path class="st1" d="M23.1,134.8c-1.3-1-3-1.5-4.7-1.4c-2.9,0.2-2.5,4.6,0.3,4.4c1.7-0.1,3.3-0.8,4.6-1.9L23.1,134.8z"/>
		<path class="st1" d="M22.4,128.7c0,0-1.5-2.3-3.9-3.3c-2.7-1.1-4.4,3-1.8,4.2c1.6,0.8,3.6,1.2,5.7,0.3L22.4,128.7z"/>
		<path class="st1" d="M22.3,121c0,0-1.5-2.4-4-3.3c-2.7-1-4.5,3-1.9,4.3c1.7,0.8,3.8,1.3,5.8,0.2L22.3,121z"/>
		<path class="st1" d="M22.8,114.3c-0.6-1.6-1.4-3-2.4-4.3c-1.4-1.8-4.3,0.3-2.9,2.2c1.2,1.8,2.9,3.4,4.9,3.7L22.8,114.3z"/>
		<path class="st1" d="M23.1,107.8c-0.5-2-1.2-3.9-2.2-5.6c-1-1.7-3.6-0.3-2.7,1.5c1,2,2.5,4.2,4.7,5.6L23.1,107.8z"/>
		<path class="st1" d="M24.6,99.9c-0.6-1.5-1.3-3-2.3-4.3c-1.1-1.6-3.6,0-2.6,1.7c1.1,1.8,2.7,3.7,4.8,4.6L24.6,99.9z"/>
		<path class="st1" d="M25.9,93.1c-0.3-1.4-0.7-2.9-1.2-4.2c-0.5-1.5-2.9-0.8-2.4,0.8c0.5,1.9,1.5,3.7,3.1,4.7L25.9,93.1z"/>
		<path class="st1" d="M26.8,86.4c-0.4-1.7-1-3.4-1.6-5c-0.6-1.3-2.6-0.5-2.1,0.8c0.7,1.8,1.7,3.6,3.4,4.8L26.8,86.4z"/>
		<path class="st1" d="M28.1,78.4c0,0-0.3-1.3-0.7-2.9c-0.4-1.5-2.6-0.9-2.3,0.6c0.4,1.6,1.1,3.2,2.3,3.9L28.1,78.4z"/>
		<path class="st1" d="M27.8,71.7l-1.5-4.1c-0.4-1.1-2-0.6-1.7,0.5c0.6,2.2,1.8,4.4,3.7,5.6L27.8,71.7z"/>
		<path class="st1" d="M25.9,60.2c0,0-0.2-0.2-0.6-0.5c-0.7-0.6-1.7,0.4-1,1.1c1.2,1.1,2.6,1.9,4,2.6L25.9,60.2z"/>
		<path class="st1" d="M26,57.9c-0.9-1.8-1.9-3.6-3-5.3c-0.1-0.3,0-0.6,0.2-0.7c0.2-0.1,0.5-0.1,0.7,0.1c0.9,1.2,1.7,2.9,2.4,5.5
			L26,57.9z"/>
		<path class="st4" d="M27.7,79.5l-0.3,0c1.4-12.7,0.8-20.6-1.6-22.1l0.2-0.3C28.5,58.8,29.1,66.5,27.7,79.5z"/>
		<path class="st4" d="M23,109.6l-0.5-0.1c0.2-1.2,0.4-2.4,0.6-3.5c2-10.3,3.5-19.9,4.3-27.1l0.3-0.3c-0.8,7.3-2.2,17.1-4.2,27.5
			C23.4,107.3,23.2,108.4,23,109.6z"/>
		<path class="st4" d="M45.1,173.9c-0.1-0.1-7.3-5.6-13.7-16.3c-3.7-6.2-6.5-13-8.1-20.1c-2-8.9-2.1-19.2-0.6-28.9l0.4,0.3
			c-3.3,21.7,3,38.6,8.8,48.3c6.3,10.6,13.5,16.1,13.6,16.1L45.1,173.9z"/>
	</g>
	<g>
		<path class="st2" d="M138,59.3h-1.1V29.9c0-9.4-7.6-17-17-17l0,0H57.8c-9.4,0-17,7.6-17,17c0,0,0,0,0,0v160.9c0,9.4,7.6,17,17,17
			H120c9.4,0,17-7.6,17-17V80.1h1.1L138,59.3z"/>
		<path class="st5" d="M120.6,17.4h-8.1c1.3,3.1-0.2,6.6-3.3,7.9c-0.7,0.3-1.5,0.4-2.3,0.4H71.4c-3.3,0-6-2.7-6-6
			c0-0.8,0.2-1.6,0.4-2.3h-7.6c-7,0-12.7,5.7-12.7,12.7v160.7c0,7,5.7,12.7,12.7,12.7l0,0h62.4c7,0,12.7-5.7,12.7-12.7l0,0l0,0V30
			C133.3,23,127.6,17.4,120.6,17.4C120.6,17.4,120.6,17.4,120.6,17.4z"/>
		<rect x="53.5" y="49" class="st6" width="71.9" height="122.8"/>
		<path class="st6" d="M243.1,155.7l0.5,19l5.8,22.2c0,0-1.3,3.8-0.4,4.7s5.1,2.5,5.1,2.5l-3.4-47.3L243.1,155.7z"/>
		<path class="st7" d="M255.6,201.5c0,0,2.1,4.5-0.8,4.9s-16.2,1.5-15.4-0.8c0.8-2.3,10.9-4.5,10.9-4.5L255.6,201.5z"/>
		<path class="st6" d="M263.3,138.9c0,0-2.2,11.7-3.6,13.7c-1.4,2,0.7,16.4,0.7,16.4s3.3,20.8,1.8,24c-1.4,3.3-1.1,2.2-0.9,4
			c0.2,1.8,0.5,3.3,0,4.9s-0.5,1.4-0.7,2.3c-0.2,0.9,0,5.8,0,5.8s-7.8,2.7-9-1.3c0,0,1.8-2.5,1.3-4.5c-0.6-2-0.9-4.1-0.9-6.1v-3.8
			l-8.3-31.1l-2-11.2c0,0,0.5-11.4,2.5-12.5C246.1,138.6,263.3,138.9,263.3,138.9z"/>
		<path class="st7" d="M260,209.2c0,0,2.7,6-1.1,6.5c-3.8,0.5-21.3,2-20.2-1.1s14.3-6,14.3-6L260,209.2z"/>
		<circle class="st8" cx="256.6" cy="79.7" r="7.2"/>
		<path class="st8" d="M261.7,82.9l-0.1,9.2l-8.9,0c0,0,2.2-7.2,1.2-8.7S261.7,82.9,261.7,82.9z"/>
		<path class="st1" d="M248.5,97.2c0,0,6.3-8.1,11.2-4.7c4.9,3.4,6.7,11.6,6.7,11.6l-1.1,22.8c0,0-2.5,11.6-2,12.1s-0.5,0.9-0.5,0.9
			l-19.2,0.5c0,0,0.5-0.7-1.1-2.9s0.4-5.1,0-6.1C242.2,130.2,248.5,97.2,248.5,97.2z"/>
		<path class="st8" d="M250.3,143.8c0,0-0.4,4.5-3.1,5.2c-1,0.3-1.8-0.2-2.3-1c-1.1-1.5-1.1-3.4-0.1-5l0.7-1.1L250.3,143.8z"/>
		<path class="st9" d="M267,88.1c0,0,0.2,3.6,0,4.2c-0.2,0.5-0.4,1.1,0,1.6c0.4,0.5,0.2,2.3-0.2,2.5c-0.4,0.2,0.7,1.8,0.4,2.9
			c-0.4,1.1-0.7,1.4-0.9,1.8s-0.5,1-0.5,1s-5.3-11.3-9.6-8.6c-4.3,2.7-7.8,3.6-7.8,3.6S250.7,84.4,267,88.1z"/>
		<path class="st10" d="M259.1,96.5c0,0,5.8,0.5,5.4,8.1c-0.4,7.6,0.5,19.5,0.5,19.5s-9.9,15.2-11.6,16.3c-1.6,1.1-1.8,0.9-1.6,1.8
			s0.4,1.6-0.4,2.3c-0.4,0.4-0.9,0.8-1.4,1.1c0,0-5.8-2-5.2-3.8c0.5-1.8,3.1-4.7,3.1-4.7s4.3-7,4.5-8.1s0.2-0.9,0.7-1.4
			c0.5-0.5,2-2.7,2-3.8v-3.4l-1.5-18.3c-0.1-1.5,0.4-3,1.4-4.1C255.9,96.9,257.2,96.2,259.1,96.5z"/>
		<path class="st7" d="M251.9,74.1c-1,0.3-2,0-2.7-0.6c-0.7-0.7-0.9-1.8-0.4-2.7c0.4-0.7,1.3-1.1,2.1-1.3c1.8-0.6,3.6-0.8,5.5-0.8
			c0.9,0,1.8,0.1,2.6,0.5c0.4,0.2,0.7,0.5,1.1,0.8c0.7,0.4,1.5,0.6,2.2,0.9c1.5,0.6,2.7,1.9,3.3,3.5c0.2,0.5,0.3,1.1,0.3,1.6
			c0.1,1.5-0.1,3-0.8,4.4c-1,2.2-2.9,4-3.2,6.4c-1-0.9-1.3-2.3-2.1-3.4c-0.6-0.8-1.4-1.4-2.4-1.6c-0.3,0-0.5-0.1-0.7-0.3
			c-0.1-0.2-0.2-0.4-0.2-0.7l-0.5-3.6c-0.1-0.7-0.2-1.5-0.8-2c-0.3-0.3-0.8-0.4-1.2-0.5c-1-0.3-2-0.4-3.1-0.5"/>
		<path class="st3" d="M264.2,126.7l-10.1,13.2C254.1,139.8,263.4,132,264.2,126.7z"/>
		<polygon class="st3" points="254.5,112.1 254.6,124.5 248.7,133.4 253.5,123.5 		"/>
		<path class="st1" d="M175.3,46.5c2.6,13.3,3.4,27,2.2,40.5c-0.3,3.5-0.7,7-1.3,10.5c-0.3,1.6-0.6,3.2-0.9,4.8
			c-0.2,0.9-0.5,2,0,2.9c1.1,1.7,4.9,1.2,6.6,1.3c3.5,0.1,7,0.1,10.5,0.2l10.5,0.2l5.1,0.1c1.7,0,3.6,0.3,5.3,0.1
			c2.2-0.3,1.7-2.6,1.7-4.4c-0.1-3.5-0.2-6.9-0.3-10.4c-0.5-13.7-1.3-27.4-2.6-41c-0.2-1.7-0.1-3.8-0.5-5.5c-0.2-0.7-0.4-0.9-1.1-1
			c-1.7-0.3-3.7,0-5.4,0l-5.7,0L176,44.9c-0.3,0-0.6,0.3-0.6,0.6c0,0.3,0.3,0.6,0.6,0.6l19.1-0.1l8.4-0.1l4.6,0
			c0.9,0,1.8-0.3,2.4,0.7c0.4,0.7,0.2,2.3,0.3,3.1c1.1,12.2,2,24.5,2.5,36.8c0.1,3.1,0.2,6.1,0.3,9.2c0,1.3,0.1,2.6,0.1,3.8
			c0,0.8,0,1.5,0.1,2.3c0,0.8,0.3,2.3,0.1,3.1c-0.6,1.6-3.3,0.9-4.7,0.9l-4.7-0.1l-9.3-0.2l-9.3-0.2c-1.5,0-3.1,0-4.6-0.1
			c-0.5,0-1,0-1.5-0.1c-1.5-0.1-3.2,0.3-3.3-1.9c-0.1-1.3,0.6-3.1,0.8-4.4c0.3-1.5,0.5-2.9,0.7-4.4c0.4-2.8,0.7-5.5,0.9-8.3
			c1.1-13.4,0.3-26.9-2.3-40.1C176.3,45.4,175.1,45.7,175.3,46.5L175.3,46.5z"/>
		<path class="st1" d="M180.6,49.5h7.7c0.3,0,0.6-0.3,0.6-0.6c0-0.3-0.3-0.6-0.6-0.6h-7.7c-0.3,0-0.6,0.3-0.6,0.6
			C180.1,49.2,180.3,49.5,180.6,49.5z"/>
		<path class="st1" d="M180.6,52.1l7.3-0.3c0.8,0,0.8-1.2,0-1.2l-7.3,0.3C179.9,51,179.9,52.2,180.6,52.1z"/>
		<path class="st1" d="M180.6,54.4h7.1c0.3,0,0.6-0.3,0.6-0.6c0-0.3-0.3-0.6-0.6-0.6h-7.1c-0.3,0-0.6,0.3-0.6,0.6
			C180.1,54.1,180.3,54.3,180.6,54.4z"/>
		<path class="st1" d="M204.1,48.9c-1.6-0.8-3,0.5-3.3,2.1c-0.1,0.8-0.1,1.8,0.4,2.4c0.5,0.7,1.4,0.9,2.2,1c1.5,0.1,3.1-0.7,3.5-2.3
			c0.4-1.4-0.4-2.9-1.8-3.4c-0.7-0.2-1,0.9-0.3,1.1c0.7,0.3,1.1,1,1,1.7c-0.1,0.8-0.7,1.5-1.6,1.6c-1,0.2-2.1,0-2.3-1.1
			c-0.1-0.8,0.3-2.8,1.5-2.2C204.2,50.3,204.8,49.3,204.1,48.9L204.1,48.9z"/>
		<path class="st1" d="M182.2,60.8c8.5,0.1,17-0.2,25.5-0.8l-0.6-0.7c-1.4,3.5-1.4,7.2-1.2,11c0,0.9,0.3,2.2,0.1,3.1
			c-0.2,1.2-1.3,0.9-2.3,0.9c-2.3,0.1-4.6,0.1-6.9,0.2c-2.2,0-4.3,0-6.5,0c-1,0-2,0-3.1,0c-1.2,0-2.6,0.3-2.9-1.1
			c-0.2-0.9,0-2.1,0-3l0-3.3l0-6.7c0-0.3-0.3-0.6-0.6-0.6c-0.3,0-0.6,0.3-0.6,0.6l0,8.2l0,3.7c0,0.7-0.2,1.6,0.1,2.3
			c0.6,1.6,3.4,1,4.7,1c2.7,0,5.3,0,8,0c2.7,0,5.3-0.1,8-0.2c1.1,0,2.7,0.2,3.1-1.2c0.2-1,0-2.3-0.1-3.3c-0.1-1.2-0.1-2.3-0.1-3.5
			c0-2.7,0.2-5.3,1.2-7.9c0.1-0.3-0.1-0.6-0.4-0.7c0,0-0.1,0-0.1,0c-8.5,0.6-17,0.9-25.5,0.8c-0.3,0-0.6,0.3-0.6,0.6
			C181.6,60.5,181.9,60.8,182.2,60.8L182.2,60.8z"/>
		<path class="st1" d="M184.6,61.4c3.6,1.3,7.2,2.8,10.6,4.6c3.1,1.6,7.1,3.3,9.2,6.2c0.4,0.6,1.5,0,1-0.6c-2.2-2.9-5.9-4.6-9-6.3
			c-3.7-2-7.6-3.6-11.5-5C184.2,60,183.9,61.2,184.6,61.4L184.6,61.4z"/>
		<path class="st1" d="M207.5,59.3c-3.9,1.7-7.1,4.8-10.6,7.2c-3.7,2.6-7.6,4.9-11.6,7.1c-0.7,0.4-0.1,1.4,0.6,1
			c4-2.2,7.8-4.6,11.6-7.1c3.5-2.4,6.7-5.5,10.6-7.2C208.8,60,208.2,59,207.5,59.3L207.5,59.3z"/>
		<path class="st1" d="M182.2,84.2c8.5,0.1,17-0.2,25.5-0.8l-0.6-0.7c-1.4,3.5-1.4,7.2-1.2,11c0,0.9,0.3,2.2,0.1,3.1
			c-0.2,1.2-1.3,0.9-2.3,0.9c-2.3,0.1-4.6,0.1-6.9,0.2c-2.2,0-4.3,0-6.5,0c-1,0-2,0-3.1,0c-1.2,0-2.6,0.3-2.9-1.1
			c-0.2-0.9,0-2.1,0-3l0-3.3l0-6.7c0-0.3-0.3-0.6-0.6-0.6c-0.3,0-0.6,0.3-0.6,0.6l0,8.2l0,3.7c0,0.7-0.2,1.6,0.1,2.3
			c0.6,1.6,3.4,1,4.7,1c2.7,0,5.3,0,8,0c2.7,0,5.3-0.1,8-0.2c1.1,0,2.7,0.2,3.1-1.2c0.2-1,0-2.3-0.1-3.3c-0.1-1.2-0.1-2.3-0.1-3.5
			c0-2.7,0.2-5.3,1.2-7.9c0.1-0.3-0.1-0.6-0.4-0.7c0,0-0.1,0-0.1,0c-8.5,0.6-17,0.9-25.5,0.8c-0.3,0-0.6,0.3-0.6,0.6
			C181.6,83.9,181.9,84.2,182.2,84.2L182.2,84.2z"/>
		<path class="st1" d="M184.6,84.8c3.6,1.3,7.2,2.8,10.6,4.6c3.1,1.6,7.1,3.3,9.2,6.2c0.4,0.6,1.5,0,1-0.6c-2.2-2.9-5.9-4.6-9-6.3
			c-3.7-2-7.6-3.6-11.5-5C184.2,83.4,183.9,84.6,184.6,84.8z"/>
		<path class="st1" d="M207.5,82.7c-3.9,1.7-7.1,4.8-10.6,7.2c-3.7,2.6-7.6,4.9-11.6,7.1c-0.7,0.4-0.1,1.4,0.6,1
			c4-2.2,7.8-4.6,11.6-7.1c3.5-2.4,6.7-5.5,10.6-7.2C208.8,83.4,208.2,82.4,207.5,82.7z"/>
		<path class="st1" d="M143.9,76.8h21.9c0.3,0,0.6-0.3,0.6-0.6c0-0.3-0.3-0.6-0.6-0.6h-21.9c-0.3,0-0.6,0.3-0.6,0.6
			C143.4,76.6,143.6,76.8,143.9,76.8z"/>
		<path class="st1" d="M164.1,71.1l3.4,3.1c0.4,0.4,1.5,1.1,1.7,1.6c0.5,1,0,0.7-0.9,1.1c-2.1,0.8-4.1,2.1-5.8,3.6
			c-0.6,0.5,0.3,1.3,0.8,0.8c1.5-1.4,3.3-2.5,5.2-3.3c0.7-0.3,2-0.4,2.3-1.3c0.4-1-0.9-1.7-1.5-2.3l-4.6-4.2
			C164.4,69.8,163.5,70.6,164.1,71.1L164.1,71.1z"/>
		<ellipse class="st7" cx="81.4" cy="114.4" rx="12.6" ry="3.2"/>
		<path class="st11" d="M78.9,72.1c0.8,2.3-1.5,5-1.5,5l3.2,3.9l5,0.9c0,0,3.3-2.3,2.1-3c-1.2-0.8-1.4-6.8-1.4-6.8L78.9,72.1z"/>
		
			<rect x="50.7" y="136.3" transform="matrix(0.1329 -0.9911 0.9911 0.1329 -73.5187 188.8374)" class="st7" width="41" height="0.3"/>
		
			<rect x="57" y="136.6" transform="matrix(8.646726e-02 -0.9963 0.9963 8.646726e-02 -65.7939 201.8003)" class="st7" width="40.2" height="0.3"/>
		
			<rect x="90.1" y="110.4" transform="matrix(0.9959 -9.079979e-02 9.079979e-02 0.9959 -11.7615 8.7446)" class="st7" width="0.3" height="46.4"/>
		
			<rect x="60.1" y="133.2" transform="matrix(3.592790e-02 -0.9994 0.9994 3.592790e-02 -52.5879 212.1454)" class="st7" width="47.2" height="0.3"/>
		<path class="st7" d="M91.9,102.1l-9.2,7.9l15.7,3.9c0,0-5.6,4.8-7.6,5.3s-6.2,3-6.2,3s7,4.7,7.4,4.5s3-0.8,3-0.8
			s13.9-9.7,16.8-15.4c2.9-5.7-14.5-7-14.5-7L91.9,102.1z"/>
		<path class="st7" d="M72.4,111.3c-0.6,2,3.9,4.1,3.9,4.1s4.2,5.6,5.4,6.2c1.2,0.6,1.7,4.2,1.7,4.2c-2.1,5.7,0,22.8,0,25.3
			c0,2.4,7.4,0,7.4,0s-1.4-18.5,0.6-24c2-5.6-8-19.7-8-19.7S73,109.3,72.4,111.3z"/>
		<path class="st11" d="M76.5,68.9c0-3.3,2.7-6.1,6.1-6.1c3.3,0,6.1,2.7,6.1,6.1c0,3.3-2.7,6.1-6.1,6.1C79.2,75,76.5,72.3,76.5,68.9
			L76.5,68.9z"/>
		<path class="st5" d="M99.8,103.7l-6.3-2.2c-0.2-2.2-0.6-4.9-0.9-7.4l1.9-10.1l0.2-4.7c-1.1-1.9-8.1-4.4-8.1-4.4s0.1,0.5,0.3,1.3
			c-0.1,0-0.1,0-0.2,0.1c0,0,0.8,4.9-3.6,3.7c-1.2-0.3-2.4-1-3.2-1.9c-0.8-1.4-1.3-2.7-1.1-3.6c0,0-8.5,6.6-9.1,8.1
			C69.1,84.1,71.3,97,71.3,97s-2.4,13.3,0.6,16.8c0,0-1.1-1.8,4.5-1.8c5.6,0,8.3-1.1,8.5-1.2c0.2-0.2,3,0,3,0s0.1-1.1,0.1-2.8
			c2.9-0.7,5.4-1.5,5.7-2c0.1-0.2,0.1-0.3,0.1-0.5L99.8,103.7z"/>
		<path class="st11" d="M90.9,105.7l0.6,4c0,0,4.7,7,7.1,5.4c2.4-1.5-3.6-7.1-3.6-7.1v-1.8L90.9,105.7z"/>
		<path class="st7" d="M85.8,122.2c0,0-5.3,3.6-5.4,4.5c-0.2,0.9,11,11.8,13.6,10.9c2.6-0.9-3.2-9.7-3.2-9.7l1.7-2.4L85.8,122.2z"/>
		<path class="st7" d="M84.2,149.9c0,0-2.3,4.2-1.1,6.1c1.2,1.8,2.1,4.1,2.9,5.7c0.8,1.7,6.2,2.4,8.6,1.8c2.4-0.6-2.9-7.6-2.9-7.6
			l-1.4-6.1H84.2z"/>
		<path class="st5" d="M95.8,82.7c-0.2-3.6-2.7-4.7-2.7-4.7l-1.7,18.6l0.2,0l-0.2,0.3l-1.1,10.4c1.2-1.5,5,0,5,0l0.5-10.4l0,0
			C95.8,96.9,96,86.3,95.8,82.7z"/>
		<path class="st11" d="M88.4,111.3l2,1.5c0,0,2.9,4.2,7.9,1.7s-6.2-6.2-6.2-6.2l-2.9-0.9L88.4,111.3z"/>
		<path class="st5" d="M68.7,83.7c-1.5,1.8,2,14.1,2.9,17.7c0.9,3.6,9.1,6.8,11,7c2,0.2,3.9,3.8,5.3,4.4c1.4,0.6,1.5-3.5,2.3-5.4
			c0.8-1.9-4.4-1.7-4.4-1.7l-7.6-5c0,0-0.8-7-1.4-12.3c-0.6-5.3-4.7-7.3-4.7-7.3C71,80.4,70.3,81.9,68.7,83.7z"/>
		<path class="st2" d="M86.8,65.6c0,0,3.3,2,4,1.9c0.7,0,0.9-0.7,0.4-1.6c-0.5-0.9-2.9-0.9-2.9-0.9L86.8,65.6z"/>
		<path class="st3" d="M86.8,65.6c0,0,3.3,2,4,1.9c0.7,0,0.9-0.7,0.4-1.6c-0.5-0.9-2.9-0.9-2.9-0.9L86.8,65.6z"/>
		<path class="st1" d="M79.6,65.4l3.7-1.6l3.3,0.1l3.4,1.4c-1.3-0.5-4.5,1.2-6.8,3.5c-2.3,2.2-3.8,0.8-3.8,0.8l-1.7-1.4L79.6,65.4z"
			/>
		<path class="st1" d="M75.9,67c-0.2-1.8,0.9-3.4,1.6-4.3c0.3-0.4,0.8-0.6,1.3-0.7l0,0c0,0,0,0,0.1-0.1c0.8-0.7,3.6-1.3,3.6-1.3
			c0.8-0.2,2.4,0.7,2.4,0.7l3,3.2c-1.5-0.7-3.7,0-3.7,0c-2.1,0.5-4.2,1.9-5.6,3.1c-0.7,0.6-1.4,1.3-2.1,2
			C76.5,69.8,76.3,69.6,75.9,67z"/>
		<path class="st3" d="M77.9,68.3c6.3-5.3,9.7-4.1,9.9-4.1l-0.1,0.3c0,0-3.5-1.1-9.6,4L77.9,68.3z"/>
		<ellipse transform="matrix(0.866 -0.5 0.5 0.866 -20.3648 47.7688)" class="st1" cx="79" cy="61.9" rx="0.9" ry="0.6"/>
		<ellipse transform="matrix(0.1445 -0.9895 0.9895 0.1445 -2.0234 135.6522)" class="st11" cx="77.4" cy="69" rx="0.8" ry="0.5"/>
		<polygon class="st12" points="78,92.2 78.5,100.8 85.8,105.3 79.4,100.5 		"/>
		<polygon class="st12" points="90.3,93.6 89.8,105.3 89.5,93.6 		"/>
	</g>
</g>
<g id="katman_2">
</g>
</svg>
