<?xml version="1.0" encoding="utf-8"?>
<!-- Generator: Adobe Illustrator 22.0.1, SVG Export Plug-In . SVG Version: 6.00 Build 0)  -->
<svg version="1.1" xmlns="http://www.w3.org/2000/svg" xmlns:xlink="http://www.w3.org/1999/xlink" x="0px" y="0px"
	 viewBox="0 0 310 220" style="enable-background:new 0 0 310 220;" xml:space="preserve">
<style type="text/css">
	.st0{display:none;}
	.st1{display:inline;opacity:0.1;fill:#F7941E;enable-background:new    ;}
	.st2{display:inline;}
	.st3{fill:#F7941E;}
	.st4{fill:#3F3D56;}
	.st5{opacity:0.1;enable-background:new    ;}
	.st6{display:inline;opacity:0.1;enable-background:new    ;}
	.st7{fill:#444053;}
	.st8{fill:#FFFFFF;}
	.st9{fill:#E6E6E6;}
	.st10{fill:#2F2E41;}
	.st11{fill:#FFB9B9;}
	.st12{fill:#ED8B21;}
	.st13{fill:#EA881C;}
	.st14{fill:#A0616A;}
	.st15{opacity:0.2;enable-background:new    ;}
	.st16{fill:#D0CDE1;}
	.st17{fill:#F2F2F2;}
	.st18{fill:#FF6584;}
	.st19{fill:#FFB8B8;}
	.st20{fill:#575A88;}
	.st21{opacity:0.7;fill:#F7941E;enable-background:new    ;}
	.st22{opacity:0.1;}
	.st23{opacity:0.8;fill:#FA5959;enable-background:new    ;}
	.st24{opacity:0.8;fill:#FED253;enable-background:new    ;}
	.st25{opacity:0.8;fill:#8CCF4D;enable-background:new    ;}
	.st26{opacity:0.2;fill:#F7941E;enable-background:new    ;}
	.st27{fill:none;stroke:#3F3D56;stroke-width:0.2774;stroke-miterlimit:10;}
	.st28{fill:#46455B;}
	.st29{opacity:0.1;fill:#F7941E;enable-background:new    ;}
	.st30{fill:#A8A8A8;}
	.st31{fill:url(#SVGID_1_);}
	.st32{fill:#65617D;}
	.st33{opacity:5.000000e-02;enable-background:new    ;}
	.st34{fill:#EE8E9E;}
	.st35{fill:#E3E8F4;}
	.st36{fill:#E6E8EC;}
	.st37{fill:#565387;}
</style>
<g id="katman_1" class="st0">
	<path class="st1" d="M180,37.5c-19.7-0.7-38.5-7.1-56.5-14S87.8,8.7,68.5,5C56.1,2.7,41.9,2.3,32,9c-9.6,6.4-12.7,17.4-14.4,27.7
		c-1.3,7.7-2,15.8,1.4,23c2.4,5,6.6,9.2,9.6,14c10.2,16.7,3,37.3-8.1,53.6c-5.2,7.6-11.2,14.9-15.2,23.1c-4,8.1-5.8,17.5-2.3,25.8
		c3.5,8.2,11.7,14.4,20.7,18.8c18.2,8.8,39.6,11.3,60.6,12.8c46.3,3.2,92.9,1.8,139.3,0.4c17.2-0.5,34.4-1,51.3-3.7
		c9.4-1.5,19.1-3.8,25.9-9.5c8.6-7.2,10.8-19.3,5-28.3c-9.7-15.1-36.6-18.8-43.4-35c-3.7-8.9,0.1-18.8,5.5-27.1
		c11.7-17.7,31.2-33.3,32.2-53.6c0.7-13.9-8.7-27.9-23.2-34.5c-15.2-6.9-36.3-6-47.6,5.4C217.7,33.5,197.4,38.1,180,37.5z"/>
	<g class="st2">
		<ellipse class="st3" cx="145.6" cy="192.1" rx="21" ry="4"/>
		<ellipse class="st4" cx="145.3" cy="190.3" rx="2.4" ry="3.2"/>
		<ellipse class="st4" cx="145.3" cy="186.4" rx="2.4" ry="3.2"/>
		<ellipse class="st4" cx="145.3" cy="182.5" rx="2.4" ry="3.2"/>
		<ellipse class="st4" cx="145.3" cy="178.6" rx="2.4" ry="3.2"/>
		<ellipse class="st4" cx="145.3" cy="174.7" rx="2.4" ry="3.2"/>
		<ellipse class="st4" cx="145.3" cy="170.7" rx="2.4" ry="3.2"/>
		<ellipse class="st4" cx="145.3" cy="166.8" rx="2.4" ry="3.2"/>
		<path class="st3" d="M154.5,140c0.3-0.4,0.6-0.9,0.9-1.3l-6.4-1.1l7,0.1c1.4-2.9,1.4-6.3,0.2-9.3l-9.3,4.8l8.6-6.3
			c-3.2-5.6-10.4-7.5-16-4.3c-5.6,3.2-7.5,10.4-4.3,16c0.3,0.5,0.6,1,1,1.4c-0.5,0.7-1,1.4-1.3,2.1l8.4,4.3l-8.9-3
			c-1.3,3.8-0.6,7.9,1.9,11c-4,5.1-3.1,12.5,2,16.5c5.1,4,12.5,3.1,16.5-2c3.4-4.3,3.4-10.3,0-14.5
			C157.8,150.3,157.8,144.3,154.5,140L154.5,140z"/>
		<path class="st5" d="M133.5,147.3c0,2.6,0.9,5.2,2.5,7.3c-4,5.1-3.1,12.5,2,16.5s12.5,3.1,16.5-2c3.4-4.3,3.4-10.3,0-14.5
			C156,152.5,133.5,145.9,133.5,147.3z"/>
	</g>
	<path class="st6" d="M109.2,52.6c-2.2,0-4,1.8-4,4c0,2.2,1.8,4,4,4c2.2,0,4-1.8,4-4c0,0,0,0,0,0C113.2,54.4,111.4,52.6,109.2,52.6
		C109.2,52.6,109.2,52.6,109.2,52.6z M109.2,60c-1.9,0-3.4-1.5-3.4-3.4c0-1.9,1.5-3.4,3.4-3.4c1.9,0,3.4,1.5,3.4,3.4l0,0
		C112.6,58.5,111.1,60,109.2,60z"/>
	<path class="st6" d="M200.9,52.6c-2.2,0-4,1.8-4,4c0,2.2,1.8,4,4,4c2.2,0,4-1.8,4-4c0,0,0,0,0,0C204.8,54.4,203,52.6,200.9,52.6z
		 M200.9,60c-1.9,0-3.4-1.5-3.4-3.4c0-1.9,1.5-3.4,3.4-3.4c1.9,0,3.4,1.5,3.4,3.4l0,0C204.2,58.5,202.7,60,200.9,60z"/>
	<circle class="st1" cx="283" cy="118.1" r="4.2"/>
	<circle class="st1" cx="297.9" cy="99.5" r="7"/>
	<circle class="st1" cx="288.7" cy="133.4" r="7"/>
	<circle class="st1" cx="10.9" cy="97.8" r="9.9"/>
	<g class="st2">
		<path class="st3" d="M37.9,166c1.1-0.4,2.3-0.5,3.4-0.4c1.4,0.2,1.2,2.3-0.2,2.2c-0.7-0.1-1.4-0.2-2.1-0.4L37.9,166z"/>
		<path class="st3" d="M37.5,166c-0.5,1-0.8,2.2-0.8,3.4c0,1.4,2.1,1.5,2.2,0.1c0-0.7,0-1.4-0.1-2.1L37.5,166z"/>
		<path class="st3" d="M34.3,161.4c0,0,0.7-2.2,4.9-1.3c1.9,0.4,1.9,3.1-0.1,3.4H39C36.3,163.9,35.3,162.8,34.3,161.4z"/>
		<path class="st3" d="M33.8,161.3c0,0-2.3,0.2-2.4,4.5c-0.1,1.9,2.6,2.5,3.3,0.7c0,0,0-0.1,0-0.1C35.8,163.8,34.9,162.6,33.8,161.3
			z"/>
		<path class="st3" d="M30.8,155.7c0.3-1.6,1.5-2.9,3-3.4c2.9-0.9,4.4,3.4,1.6,4.5c-1.2,0.4-2.4,0.6-3.6,0.5L30.8,155.7z"/>
		<path class="st3" d="M27.3,148.6c0,0,1.2-2.7,4.1-3.3c3.2-0.6,4.1,4.2,1,4.9c-1.4,0.3-2.9,0.3-4.3,0L27.3,148.6z"/>
		<path class="st3" d="M25.2,141.6c1-1.6,2.6-2.6,4.4-3c2.7-0.5,3.6,3.6,1,4.3c-1.7,0.4-3.4,0.4-5.1-0.1L25.2,141.6z"/>
		<path class="st3" d="M23.2,134.7c0.9-1.4,2.2-2.5,3.8-3c2.7-0.8,4.1,3.3,1.4,4.2c-1.6,0.5-3.3,0.5-5,0L23.2,134.7z"/>
		<path class="st3" d="M22.4,128.5c0,0,1.1-2.6,3.3-3.9c2.5-1.5,4.8,2.2,2.5,3.8c-1.5,1-3.3,1.7-5.5,1.3L22.4,128.5z"/>
		<path class="st3" d="M22,121.1c0,0,1.2-2.6,3.5-3.8c2.6-1.4,4.8,2.4,2.4,4c-1.6,1.1-3.6,1.7-5.7,0.9L22,121.1z"/>
		<path class="st3" d="M22.2,114.3c0.9-1.4,2-2.7,3.3-3.7c1.8-1.5,4.1,1.2,2.4,2.8c-1.6,1.4-3.5,2.7-5.6,2.6L22.2,114.3z"/>
		<path class="st3" d="M22.9,107.9c1-1.7,2.3-3.3,3.7-4.8c1.4-1.4,3.5,0.7,2.2,2.2c-1.5,1.6-3.6,3.3-6.1,4.1L22.9,107.9z"/>
		<path class="st3" d="M24.2,100.2c0.9-1.3,1.8-2.5,3-3.7c1.4-1.4,3.6,0.7,2.2,2.2c-1.5,1.5-3.3,3-5.5,3.5L24.2,100.2z"/>
		<path class="st3" d="M25.4,93.1c0.9-1.2,1.8-2.3,2.8-3.4c1.1-1.2,3,0.5,1.9,1.7c-1.3,1.5-2.9,2.7-4.7,3L25.4,93.1z"/>
		<path class="st3" d="M26.6,86.5c0.8-1.6,1.7-3.1,2.7-4.5c0.9-1.2,2.6,0.1,1.8,1.3c-1.1,1.6-2.5,3.1-4.4,3.9L26.6,86.5z"/>
		<path class="st3" d="M27.6,77.8c0,0,0.7-1.1,1.6-2.5c0.9-1.2,2.8,0,1.9,1.3c-0.9,1.4-2.1,2.6-3.4,2.9L27.6,77.8z"/>
		<path class="st3" d="M28.1,72l0.9-4.3c0.2-1.1,1.9-0.9,1.8,0.3c-0.3,2.3-1.1,4.6-2.8,6.1L28.1,72z"/>
		<path class="st3" d="M27.6,59.8L27.6,59.8c0.2-0.4,0.7-0.6,1.1-0.4c0.4,0.2,0.6,0.5,0.5,0.9c-0.2,1.2-0.5,2.4-0.9,3.5L27.6,59.8z"
			/>
		<path class="st3" d="M30.6,155.7c-1.6-0.5-3.3-0.1-4.5,1c-2.2,2,0.8,5.5,3.1,3.6c0.9-0.8,1.7-1.8,2.2-2.9L30.6,155.7z"/>
		<path class="st3" d="M27.1,148.4c0,0-2.9-0.7-5.1,1.4c-2.4,2.2,0.9,5.8,3.4,3.8c1.1-0.9,2-2.1,2.6-3.4L27.1,148.4z"/>
		<path class="st3" d="M25,142.1c-1.5-1.1-3.4-1.5-5.2-1.2c-2.7,0.5-2,4.7,0.7,4.3c1.7-0.2,3.3-0.9,4.7-2L25,142.1z"/>
		<path class="st3" d="M23.1,134.8c-1.3-1-3-1.5-4.7-1.4c-2.9,0.2-2.5,4.6,0.3,4.4c1.7-0.1,3.3-0.8,4.6-1.9L23.1,134.8z"/>
		<path class="st3" d="M22.4,128.7c0,0-1.5-2.3-3.9-3.3c-2.7-1.1-4.4,3-1.8,4.2c1.6,0.8,3.6,1.2,5.7,0.3L22.4,128.7z"/>
		<path class="st3" d="M22.3,121c0,0-1.5-2.4-4-3.3c-2.7-1-4.5,3-1.9,4.3c1.7,0.8,3.8,1.3,5.8,0.2L22.3,121z"/>
		<path class="st3" d="M22.8,114.3c-0.6-1.6-1.4-3-2.4-4.3c-1.4-1.8-4.3,0.3-2.9,2.2c1.2,1.8,2.9,3.4,4.9,3.7L22.8,114.3z"/>
		<path class="st3" d="M23.1,107.8c-0.5-2-1.2-3.9-2.2-5.6c-1-1.7-3.6-0.3-2.7,1.5c1,2,2.5,4.2,4.7,5.6L23.1,107.8z"/>
		<path class="st3" d="M24.6,99.9c-0.6-1.5-1.3-3-2.3-4.3c-1.1-1.6-3.6,0-2.6,1.7c1.1,1.8,2.7,3.7,4.8,4.6L24.6,99.9z"/>
		<path class="st3" d="M25.9,93.1c-0.3-1.4-0.7-2.9-1.2-4.2c-0.5-1.5-2.9-0.8-2.4,0.8c0.5,1.9,1.5,3.7,3.1,4.7L25.9,93.1z"/>
		<path class="st3" d="M26.8,86.4c-0.4-1.7-1-3.4-1.6-5c-0.6-1.3-2.6-0.5-2.1,0.8c0.7,1.8,1.7,3.6,3.4,4.8L26.8,86.4z"/>
		<path class="st3" d="M28.1,78.4c0,0-0.3-1.3-0.7-2.9c-0.4-1.5-2.6-0.9-2.3,0.6c0.4,1.6,1.1,3.2,2.3,3.9L28.1,78.4z"/>
		<path class="st3" d="M27.8,71.7l-1.5-4.1c-0.4-1.1-2-0.6-1.7,0.5c0.6,2.2,1.8,4.4,3.7,5.6L27.8,71.7z"/>
		<path class="st3" d="M25.9,60.2c0,0-0.2-0.2-0.6-0.5c-0.7-0.6-1.7,0.4-1,1.1c1.2,1.1,2.6,1.9,4,2.6L25.9,60.2z"/>
		<path class="st3" d="M26,57.9c-0.9-1.8-1.9-3.6-3-5.3c-0.1-0.3,0-0.6,0.2-0.7c0.2-0.1,0.5-0.1,0.7,0.1c0.9,1.2,1.7,2.9,2.4,5.5
			L26,57.9z"/>
		<path class="st7" d="M27.7,79.5l-0.3,0c1.4-12.7,0.8-20.6-1.6-22.1l0.2-0.3C28.5,58.8,29.1,66.5,27.7,79.5z"/>
		<path class="st7" d="M23,109.6l-0.5-0.1c0.2-1.2,0.4-2.4,0.6-3.5c2-10.3,3.5-19.9,4.3-27.1l0.3-0.3c-0.8,7.3-2.2,17.1-4.2,27.5
			C23.4,107.3,23.2,108.4,23,109.6z"/>
		<path class="st7" d="M45.1,173.9c-0.1-0.1-7.3-5.6-13.7-16.3c-3.7-6.2-6.5-13-8.1-20.1c-2-8.9-2.1-19.2-0.6-28.9l0.4,0.3
			c-3.3,21.7,3,38.6,8.8,48.3c6.3,10.6,13.5,16.1,13.6,16.1L45.1,173.9z"/>
	</g>
	<g class="st2">
		<path class="st4" d="M138,59.3h-1.1V29.9c0-9.4-7.6-17-17-17l0,0H57.8c-9.4,0-17,7.6-17,17c0,0,0,0,0,0v160.9c0,9.4,7.6,17,17,17
			H120c9.4,0,17-7.6,17-17V80.1h1.1L138,59.3z"/>
		<path class="st8" d="M120.6,17.4h-8.1c1.3,3.1-0.2,6.6-3.3,7.9c-0.7,0.3-1.5,0.4-2.3,0.4H71.4c-3.3,0-6-2.7-6-6
			c0-0.8,0.2-1.6,0.4-2.3h-7.6c-7,0-12.7,5.7-12.7,12.7v160.7c0,7,5.7,12.7,12.7,12.7l0,0h62.4c7,0,12.7-5.7,12.7-12.7l0,0l0,0V30
			C133.3,23,127.6,17.4,120.6,17.4C120.6,17.4,120.6,17.4,120.6,17.4z"/>
		<rect x="53.5" y="49" class="st9" width="71.9" height="122.8"/>
		<path class="st9" d="M243.1,155.7l0.5,19l5.8,22.2c0,0-1.3,3.8-0.4,4.7s5.1,2.5,5.1,2.5l-3.4-47.3L243.1,155.7z"/>
		<path class="st10" d="M255.6,201.5c0,0,2.1,4.5-0.8,4.9s-16.2,1.5-15.4-0.8c0.8-2.3,10.9-4.5,10.9-4.5L255.6,201.5z"/>
		<path class="st9" d="M263.3,138.9c0,0-2.2,11.7-3.6,13.7c-1.4,2,0.7,16.4,0.7,16.4s3.3,20.8,1.8,24c-1.4,3.3-1.1,2.2-0.9,4
			c0.2,1.8,0.5,3.3,0,4.9s-0.5,1.4-0.7,2.3c-0.2,0.9,0,5.8,0,5.8s-7.8,2.7-9-1.3c0,0,1.8-2.5,1.3-4.5c-0.6-2-0.9-4.1-0.9-6.1v-3.8
			l-8.3-31.1l-2-11.2c0,0,0.5-11.4,2.5-12.5C246.1,138.6,263.3,138.9,263.3,138.9z"/>
		<path class="st10" d="M260,209.2c0,0,2.7,6-1.1,6.5c-3.8,0.5-21.3,2-20.2-1.1s14.3-6,14.3-6L260,209.2z"/>
		<circle class="st11" cx="256.6" cy="79.7" r="7.2"/>
		<path class="st11" d="M261.7,82.9l-0.1,9.2l-8.9,0c0,0,2.2-7.2,1.2-8.7S261.7,82.9,261.7,82.9z"/>
		<path class="st3" d="M248.5,97.2c0,0,6.3-8.1,11.2-4.7c4.9,3.4,6.7,11.6,6.7,11.6l-1.1,22.8c0,0-2.5,11.6-2,12.1s-0.5,0.9-0.5,0.9
			l-19.2,0.5c0,0,0.5-0.7-1.1-2.9s0.4-5.1,0-6.1C242.2,130.2,248.5,97.2,248.5,97.2z"/>
		<path class="st11" d="M250.3,143.8c0,0-0.4,4.5-3.1,5.2c-1,0.3-1.8-0.2-2.3-1c-1.1-1.5-1.1-3.4-0.1-5l0.7-1.1L250.3,143.8z"/>
		<path class="st12" d="M267,88.1c0,0,0.2,3.6,0,4.2c-0.2,0.5-0.4,1.1,0,1.6c0.4,0.5,0.2,2.3-0.2,2.5c-0.4,0.2,0.7,1.8,0.4,2.9
			c-0.4,1.1-0.7,1.4-0.9,1.8s-0.5,1-0.5,1s-5.3-11.3-9.6-8.6c-4.3,2.7-7.8,3.6-7.8,3.6S250.7,84.4,267,88.1z"/>
		<path class="st13" d="M259.1,96.5c0,0,5.8,0.5,5.4,8.1c-0.4,7.6,0.5,19.5,0.5,19.5s-9.9,15.2-11.6,16.3c-1.6,1.1-1.8,0.9-1.6,1.8
			s0.4,1.6-0.4,2.3c-0.4,0.4-0.9,0.8-1.4,1.1c0,0-5.8-2-5.2-3.8c0.5-1.8,3.1-4.7,3.1-4.7s4.3-7,4.5-8.1s0.2-0.9,0.7-1.4
			c0.5-0.5,2-2.7,2-3.8v-3.4l-1.5-18.3c-0.1-1.5,0.4-3,1.4-4.1C255.9,96.9,257.2,96.2,259.1,96.5z"/>
		<path class="st10" d="M251.9,74.1c-1,0.3-2,0-2.7-0.6c-0.7-0.7-0.9-1.8-0.4-2.7c0.4-0.7,1.3-1.1,2.1-1.3c1.8-0.6,3.6-0.8,5.5-0.8
			c0.9,0,1.8,0.1,2.6,0.5c0.4,0.2,0.7,0.5,1.1,0.8c0.7,0.4,1.5,0.6,2.2,0.9c1.5,0.6,2.7,1.9,3.3,3.5c0.2,0.5,0.3,1.1,0.3,1.6
			c0.1,1.5-0.1,3-0.8,4.4c-1,2.2-2.9,4-3.2,6.4c-1-0.9-1.3-2.3-2.1-3.4c-0.6-0.8-1.4-1.4-2.4-1.6c-0.3,0-0.5-0.1-0.7-0.3
			c-0.1-0.2-0.2-0.4-0.2-0.7l-0.5-3.6c-0.1-0.7-0.2-1.5-0.8-2c-0.3-0.3-0.8-0.4-1.2-0.5c-1-0.3-2-0.4-3.1-0.5"/>
		<path class="st5" d="M264.2,126.7l-10.1,13.2C254.1,139.8,263.4,132,264.2,126.7z"/>
		<polygon class="st5" points="254.5,112.1 254.6,124.5 248.7,133.4 253.5,123.5 		"/>
		<path class="st3" d="M175.3,46.5c2.6,13.3,3.4,27,2.2,40.5c-0.3,3.5-0.7,7-1.3,10.5c-0.3,1.6-0.6,3.2-0.9,4.8
			c-0.2,0.9-0.5,2,0,2.9c1.1,1.7,4.9,1.2,6.6,1.3c3.5,0.1,7,0.1,10.5,0.2l10.5,0.2l5.1,0.1c1.7,0,3.6,0.3,5.3,0.1
			c2.2-0.3,1.7-2.6,1.7-4.4c-0.1-3.5-0.2-6.9-0.3-10.4c-0.5-13.7-1.3-27.4-2.6-41c-0.2-1.7-0.1-3.8-0.5-5.5c-0.2-0.7-0.4-0.9-1.1-1
			c-1.7-0.3-3.7,0-5.4,0l-5.7,0L176,44.9c-0.3,0-0.6,0.3-0.6,0.6c0,0.3,0.3,0.6,0.6,0.6l19.1-0.1l8.4-0.1l4.6,0
			c0.9,0,1.8-0.3,2.4,0.7c0.4,0.7,0.2,2.3,0.3,3.1c1.1,12.2,2,24.5,2.5,36.8c0.1,3.1,0.2,6.1,0.3,9.2c0,1.3,0.1,2.6,0.1,3.8
			c0,0.8,0,1.5,0.1,2.3c0,0.8,0.3,2.3,0.1,3.1c-0.6,1.6-3.3,0.9-4.7,0.9l-4.7-0.1l-9.3-0.2l-9.3-0.2c-1.5,0-3.1,0-4.6-0.1
			c-0.5,0-1,0-1.5-0.1c-1.5-0.1-3.2,0.3-3.3-1.9c-0.1-1.3,0.6-3.1,0.8-4.4c0.3-1.5,0.5-2.9,0.7-4.4c0.4-2.8,0.7-5.5,0.9-8.3
			c1.1-13.4,0.3-26.9-2.3-40.1C176.3,45.4,175.1,45.7,175.3,46.5L175.3,46.5z"/>
		<path class="st3" d="M180.6,49.5h7.7c0.3,0,0.6-0.3,0.6-0.6c0-0.3-0.3-0.6-0.6-0.6h-7.7c-0.3,0-0.6,0.3-0.6,0.6
			C180.1,49.2,180.3,49.5,180.6,49.5z"/>
		<path class="st3" d="M180.6,52.1l7.3-0.3c0.8,0,0.8-1.2,0-1.2l-7.3,0.3C179.9,51,179.9,52.2,180.6,52.1z"/>
		<path class="st3" d="M180.6,54.4h7.1c0.3,0,0.6-0.3,0.6-0.6c0-0.3-0.3-0.6-0.6-0.6h-7.1c-0.3,0-0.6,0.3-0.6,0.6
			C180.1,54.1,180.3,54.3,180.6,54.4z"/>
		<path class="st3" d="M204.1,48.9c-1.6-0.8-3,0.5-3.3,2.1c-0.1,0.8-0.1,1.8,0.4,2.4c0.5,0.7,1.4,0.9,2.2,1c1.5,0.1,3.1-0.7,3.5-2.3
			c0.4-1.4-0.4-2.9-1.8-3.4c-0.7-0.2-1,0.9-0.3,1.1c0.7,0.3,1.1,1,1,1.7c-0.1,0.8-0.7,1.5-1.6,1.6c-1,0.2-2.1,0-2.3-1.1
			c-0.1-0.8,0.3-2.8,1.5-2.2C204.2,50.3,204.8,49.3,204.1,48.9L204.1,48.9z"/>
		<path class="st3" d="M182.2,60.8c8.5,0.1,17-0.2,25.5-0.8l-0.6-0.7c-1.4,3.5-1.4,7.2-1.2,11c0,0.9,0.3,2.2,0.1,3.1
			c-0.2,1.2-1.3,0.9-2.3,0.9c-2.3,0.1-4.6,0.1-6.9,0.2c-2.2,0-4.3,0-6.5,0c-1,0-2,0-3.1,0c-1.2,0-2.6,0.3-2.9-1.1
			c-0.2-0.9,0-2.1,0-3l0-3.3l0-6.7c0-0.3-0.3-0.6-0.6-0.6c-0.3,0-0.6,0.3-0.6,0.6l0,8.2l0,3.7c0,0.7-0.2,1.6,0.1,2.3
			c0.6,1.6,3.4,1,4.7,1c2.7,0,5.3,0,8,0c2.7,0,5.3-0.1,8-0.2c1.1,0,2.7,0.2,3.1-1.2c0.2-1,0-2.3-0.1-3.3c-0.1-1.2-0.1-2.3-0.1-3.5
			c0-2.7,0.2-5.3,1.2-7.9c0.1-0.3-0.1-0.6-0.4-0.7c0,0-0.1,0-0.1,0c-8.5,0.6-17,0.9-25.5,0.8c-0.3,0-0.6,0.3-0.6,0.6
			C181.6,60.5,181.9,60.8,182.2,60.8L182.2,60.8z"/>
		<path class="st3" d="M184.6,61.4c3.6,1.3,7.2,2.8,10.6,4.6c3.1,1.6,7.1,3.3,9.2,6.2c0.4,0.6,1.5,0,1-0.6c-2.2-2.9-5.9-4.6-9-6.3
			c-3.7-2-7.6-3.6-11.5-5C184.2,60,183.9,61.2,184.6,61.4L184.6,61.4z"/>
		<path class="st3" d="M207.5,59.3c-3.9,1.7-7.1,4.8-10.6,7.2c-3.7,2.6-7.6,4.9-11.6,7.1c-0.7,0.4-0.1,1.4,0.6,1
			c4-2.2,7.8-4.6,11.6-7.1c3.5-2.4,6.7-5.5,10.6-7.2C208.8,60,208.2,59,207.5,59.3L207.5,59.3z"/>
		<path class="st3" d="M182.2,84.2c8.5,0.1,17-0.2,25.5-0.8l-0.6-0.7c-1.4,3.5-1.4,7.2-1.2,11c0,0.9,0.3,2.2,0.1,3.1
			c-0.2,1.2-1.3,0.9-2.3,0.9c-2.3,0.1-4.6,0.1-6.9,0.2c-2.2,0-4.3,0-6.5,0c-1,0-2,0-3.1,0c-1.2,0-2.6,0.3-2.9-1.1
			c-0.2-0.9,0-2.1,0-3l0-3.3l0-6.7c0-0.3-0.3-0.6-0.6-0.6c-0.3,0-0.6,0.3-0.6,0.6l0,8.2l0,3.7c0,0.7-0.2,1.6,0.1,2.3
			c0.6,1.6,3.4,1,4.7,1c2.7,0,5.3,0,8,0c2.7,0,5.3-0.1,8-0.2c1.1,0,2.7,0.2,3.1-1.2c0.2-1,0-2.3-0.1-3.3c-0.1-1.2-0.1-2.3-0.1-3.5
			c0-2.7,0.2-5.3,1.2-7.9c0.1-0.3-0.1-0.6-0.4-0.7c0,0-0.1,0-0.1,0c-8.5,0.6-17,0.9-25.5,0.8c-0.3,0-0.6,0.3-0.6,0.6
			C181.6,83.9,181.9,84.2,182.2,84.2L182.2,84.2z"/>
		<path class="st3" d="M184.6,84.8c3.6,1.3,7.2,2.8,10.6,4.6c3.1,1.6,7.1,3.3,9.2,6.2c0.4,0.6,1.5,0,1-0.6c-2.2-2.9-5.9-4.6-9-6.3
			c-3.7-2-7.6-3.6-11.5-5C184.2,83.4,183.9,84.6,184.6,84.8z"/>
		<path class="st3" d="M207.5,82.7c-3.9,1.7-7.1,4.8-10.6,7.2c-3.7,2.6-7.6,4.9-11.6,7.1c-0.7,0.4-0.1,1.4,0.6,1
			c4-2.2,7.8-4.6,11.6-7.1c3.5-2.4,6.7-5.5,10.6-7.2C208.8,83.4,208.2,82.4,207.5,82.7z"/>
		<path class="st3" d="M143.9,76.8h21.9c0.3,0,0.6-0.3,0.6-0.6c0-0.3-0.3-0.6-0.6-0.6h-21.9c-0.3,0-0.6,0.3-0.6,0.6
			C143.4,76.6,143.6,76.8,143.9,76.8z"/>
		<path class="st3" d="M164.1,71.1l3.4,3.1c0.4,0.4,1.5,1.1,1.7,1.6c0.5,1,0,0.7-0.9,1.1c-2.1,0.8-4.1,2.1-5.8,3.6
			c-0.6,0.5,0.3,1.3,0.8,0.8c1.5-1.4,3.3-2.5,5.2-3.3c0.7-0.3,2-0.4,2.3-1.3c0.4-1-0.9-1.7-1.5-2.3l-4.6-4.2
			C164.4,69.8,163.5,70.6,164.1,71.1L164.1,71.1z"/>
		<ellipse class="st10" cx="81.4" cy="114.4" rx="12.6" ry="3.2"/>
		<path class="st14" d="M78.9,72.1c0.8,2.3-1.5,5-1.5,5l3.2,3.9l5,0.9c0,0,3.3-2.3,2.1-3c-1.2-0.8-1.4-6.8-1.4-6.8L78.9,72.1z"/>
		
			<rect x="50.7" y="136.3" transform="matrix(0.1329 -0.9911 0.9911 0.1329 -73.5187 188.8374)" class="st10" width="41" height="0.3"/>
		
			<rect x="57" y="136.6" transform="matrix(8.646726e-02 -0.9963 0.9963 8.646726e-02 -65.7939 201.8003)" class="st10" width="40.2" height="0.3"/>
		
			<rect x="90.1" y="110.4" transform="matrix(0.9959 -9.079979e-02 9.079979e-02 0.9959 -11.7615 8.7446)" class="st10" width="0.3" height="46.4"/>
		
			<rect x="60.1" y="133.2" transform="matrix(3.592790e-02 -0.9994 0.9994 3.592790e-02 -52.5879 212.1454)" class="st10" width="47.2" height="0.3"/>
		<path class="st10" d="M91.9,102.1l-9.2,7.9l15.7,3.9c0,0-5.6,4.8-7.6,5.3s-6.2,3-6.2,3s7,4.7,7.4,4.5s3-0.8,3-0.8
			s13.9-9.7,16.8-15.4c2.9-5.7-14.5-7-14.5-7L91.9,102.1z"/>
		<path class="st10" d="M72.4,111.3c-0.6,2,3.9,4.1,3.9,4.1s4.2,5.6,5.4,6.2c1.2,0.6,1.7,4.2,1.7,4.2c-2.1,5.7,0,22.8,0,25.3
			c0,2.4,7.4,0,7.4,0s-1.4-18.5,0.6-24c2-5.6-8-19.7-8-19.7S73,109.3,72.4,111.3z"/>
		<path class="st14" d="M76.5,68.9c0-3.3,2.7-6.1,6.1-6.1c3.3,0,6.1,2.7,6.1,6.1c0,3.3-2.7,6.1-6.1,6.1C79.2,75,76.5,72.3,76.5,68.9
			L76.5,68.9z"/>
		<path class="st8" d="M99.8,103.7l-6.3-2.2c-0.2-2.2-0.6-4.9-0.9-7.4l1.9-10.1l0.2-4.7c-1.1-1.9-8.1-4.4-8.1-4.4s0.1,0.5,0.3,1.3
			c-0.1,0-0.1,0-0.2,0.1c0,0,0.8,4.9-3.6,3.7c-1.2-0.3-2.4-1-3.2-1.9c-0.8-1.4-1.3-2.7-1.1-3.6c0,0-8.5,6.6-9.1,8.1
			C69.1,84.1,71.3,97,71.3,97s-2.4,13.3,0.6,16.8c0,0-1.1-1.8,4.5-1.8c5.6,0,8.3-1.1,8.5-1.2c0.2-0.2,3,0,3,0s0.1-1.1,0.1-2.8
			c2.9-0.7,5.4-1.5,5.7-2c0.1-0.2,0.1-0.3,0.1-0.5L99.8,103.7z"/>
		<path class="st14" d="M90.9,105.7l0.6,4c0,0,4.7,7,7.1,5.4c2.4-1.5-3.6-7.1-3.6-7.1v-1.8L90.9,105.7z"/>
		<path class="st10" d="M85.8,122.2c0,0-5.3,3.6-5.4,4.5c-0.2,0.9,11,11.8,13.6,10.9c2.6-0.9-3.2-9.7-3.2-9.7l1.7-2.4L85.8,122.2z"
			/>
		<path class="st10" d="M84.2,149.9c0,0-2.3,4.2-1.1,6.1c1.2,1.8,2.1,4.1,2.9,5.7c0.8,1.7,6.2,2.4,8.6,1.8c2.4-0.6-2.9-7.6-2.9-7.6
			l-1.4-6.1H84.2z"/>
		<path class="st8" d="M95.8,82.7c-0.2-3.6-2.7-4.7-2.7-4.7l-1.7,18.6l0.2,0l-0.2,0.3l-1.1,10.4c1.2-1.5,5,0,5,0l0.5-10.4l0,0
			C95.8,96.9,96,86.3,95.8,82.7z"/>
		<path class="st14" d="M88.4,111.3l2,1.5c0,0,2.9,4.2,7.9,1.7s-6.2-6.2-6.2-6.2l-2.9-0.9L88.4,111.3z"/>
		<path class="st8" d="M68.7,83.7c-1.5,1.8,2,14.1,2.9,17.7c0.9,3.6,9.1,6.8,11,7c2,0.2,3.9,3.8,5.3,4.4c1.4,0.6,1.5-3.5,2.3-5.4
			c0.8-1.9-4.4-1.7-4.4-1.7l-7.6-5c0,0-0.8-7-1.4-12.3c-0.6-5.3-4.7-7.3-4.7-7.3C71,80.4,70.3,81.9,68.7,83.7z"/>
		<path class="st4" d="M86.8,65.6c0,0,3.3,2,4,1.9c0.7,0,0.9-0.7,0.4-1.6c-0.5-0.9-2.9-0.9-2.9-0.9L86.8,65.6z"/>
		<path class="st5" d="M86.8,65.6c0,0,3.3,2,4,1.9c0.7,0,0.9-0.7,0.4-1.6c-0.5-0.9-2.9-0.9-2.9-0.9L86.8,65.6z"/>
		<path class="st3" d="M79.6,65.4l3.7-1.6l3.3,0.1l3.4,1.4c-1.3-0.5-4.5,1.2-6.8,3.5c-2.3,2.2-3.8,0.8-3.8,0.8l-1.7-1.4L79.6,65.4z"
			/>
		<path class="st3" d="M75.9,67c-0.2-1.8,0.9-3.4,1.6-4.3c0.3-0.4,0.8-0.6,1.3-0.7l0,0c0,0,0,0,0.1-0.1c0.8-0.7,3.6-1.3,3.6-1.3
			c0.8-0.2,2.4,0.7,2.4,0.7l3,3.2c-1.5-0.7-3.7,0-3.7,0c-2.1,0.5-4.2,1.9-5.6,3.1c-0.7,0.6-1.4,1.3-2.1,2
			C76.5,69.8,76.3,69.6,75.9,67z"/>
		<path class="st5" d="M77.9,68.3c6.3-5.3,9.7-4.1,9.9-4.1l-0.1,0.3c0,0-3.5-1.1-9.6,4L77.9,68.3z"/>
		<ellipse transform="matrix(0.866 -0.5 0.5 0.866 -20.3648 47.7688)" class="st3" cx="79" cy="61.9" rx="0.9" ry="0.6"/>
		<ellipse transform="matrix(0.1445 -0.9895 0.9895 0.1445 -2.0234 135.6522)" class="st14" cx="77.4" cy="69" rx="0.8" ry="0.5"/>
		<polygon class="st15" points="78,92.2 78.5,100.8 85.8,105.3 79.4,100.5 		"/>
		<polygon class="st15" points="90.3,93.6 89.8,105.3 89.5,93.6 		"/>
	</g>
</g>
<g id="katman_2" class="st0">
	<path class="st1" d="M130.1,183.6c19.7,0.7,38.5,7.1,56.5,14c18,7,35.7,14.7,55,18.4c12.4,2.4,26.6,2.7,36.5-3.9
		c9.6-6.4,12.7-17.4,14.4-27.7c1.3-7.7,2-15.8-1.4-23c-2.4-5-6.6-9.2-9.6-14c-10.2-16.7-3-37.3,8.1-53.6
		c5.2-7.6,11.2-14.9,15.2-23.1c4-8.1,5.8-17.5,2.3-25.8c-3.5-8.2-11.7-14.4-20.7-18.8c-18.2-8.8-39.6-11.3-60.6-12.8
		C179.6,10.3,133,11.6,86.6,13c-17.2,0.5-34.4,1-51.3,3.7c-9.4,1.5-19.1,3.8-25.9,9.5c-8.6,7.2-10.8,19.3-5,28.3
		c9.7,15.1,36.6,18.8,43.4,35c3.7,8.9-0.1,18.8-5.5,27.1C30.5,134.4,11,149.9,10,170.2c-0.7,13.9,8.7,27.9,23.2,34.5
		c15.2,6.9,36.3,6,47.6-5.4C92.3,187.5,112.7,183,130.1,183.6z"/>
	<g class="st2">
		<rect x="52.5" y="157.5" class="st4" width="170.1" height="0.6"/>
		<rect x="42.8" y="50.5" class="st4" width="194.8" height="94.8"/>
		<path class="st5" d="M237.6,57.8v-2.6h-6v-4.7H229v4.7H51.4v-4.7h-2.6v4.7h-6v2.6h6V138h-6v2.6h6v4.7h2.6v-4.7H229v4.7h2.6v-4.7h6
			V138h-6V57.8H237.6z M229,138H51.4V57.8H229L229,138z"/>
		<rect x="128.9" y="63" class="st16" width="30.7" height="29.2"/>
		<rect x="132.4" y="66.5" class="st3" width="23.7" height="18.2"/>
		<rect x="137.6" y="69.4" class="st17" width="8.3" height="8.3"/>
		<path class="st4" d="M140.8,71.5v10.1h10.1V71.5H140.8z M150.5,81.2h-9.2V72h9.2V81.2z"/>
		<rect x="132.4" y="86.4" class="st17" width="12.9" height="0.7"/>
		<circle class="st4" cx="144.3" cy="64.7" r="1.4"/>
		<rect x="140.5" y="105.1" class="st16" width="30.7" height="29.2"/>
		<rect x="144" y="108.6" class="st3" width="23.7" height="18.2"/>
		<rect x="144" y="128.9" class="st17" width="12.9" height="0.7"/>
		<rect x="144" y="130.9" class="st17" width="12.9" height="0.7"/>
		<circle class="st4" cx="148.2" cy="117.7" r="2.7"/>
		<circle class="st17" cx="155.9" cy="117.7" r="2.7"/>
		<circle class="st18" cx="163.5" cy="117.7" r="2.7"/>
		<circle class="st4" cx="155.9" cy="106.8" r="1.4"/>
		<rect x="93.5" y="96" class="st16" width="30.7" height="29.2"/>
		<rect x="97" y="99.5" class="st3" width="23.7" height="18.2"/>
		<circle class="st17" cx="107.3" cy="110.7" r="5.8"/>
		<path class="st4" d="M109,115.1c-4,0-7.2-3.2-7.2-7.2s3.2-7.2,7.2-7.2c4,0,7.2,3.2,7.2,7.2C116.2,111.9,112.9,115.1,109,115.1z
			 M109,100.9c-3.8,0-7,3.1-7,7c0,3.8,3.1,7,7,7c3.8,0,7-3.1,7-7v0C115.9,104,112.8,100.9,109,100.9z"/>
		<rect x="96.9" y="121.5" class="st17" width="12.9" height="0.7"/>
		<rect x="96.9" y="119.4" class="st17" width="18" height="0.7"/>
		<circle class="st4" cx="108.8" cy="97.7" r="1.4"/>
		<rect x="59.7" y="62.4" class="st16" width="30.7" height="29.2"/>
		<rect x="63.2" y="65.9" class="st3" width="23.7" height="18.2"/>
		<rect x="72.5" y="80.1" class="st4" width="5.1" height="1.5"/>
		<rect x="66.3" y="68.4" class="st4" width="17.5" height="0.6"/>
		<rect x="66.3" y="70.4" class="st4" width="17.5" height="0.6"/>
		<rect x="66.3" y="72.5" class="st4" width="17.5" height="0.6"/>
		<rect x="66.3" y="74.5" class="st4" width="17.5" height="0.6"/>
		<rect x="66.3" y="76.6" class="st4" width="17.5" height="0.6"/>
		<rect x="63.2" y="85.9" class="st17" width="12.9" height="0.7"/>
		<rect x="63.2" y="87.6" class="st17" width="18" height="0.7"/>
		<circle class="st4" cx="75.1" cy="64.1" r="1.4"/>
		<path class="st16" d="M184.6,81.5l22.2,1.6l6.3,0.5l-0.4-0.4l1.2,17.1l0.6,8.5c0,0.3,0,0.7,0.1,1c0,0.3,0.1,0.6-0.2,0.6
			c-0.7,0.1-1.4,0.2-2.1,0.3c-1.4,0.2-2.8,0.3-4.2,0.4c-5.6,0.5-11.2,0.5-16.8,0.1c-1.4-0.1-2.8-0.2-4.2-0.4
			c-0.5-0.1-1.2-0.1-1.4-0.7c-0.2-0.6-0.2-1.3-0.3-1.9c-0.4-2.8-0.7-5.6-0.8-8.4c-0.3-5.6-0.1-11.2,0.6-16.7c0.1-0.7,0.2-1.4,0.3-2
			c0.1-0.5-0.7-0.7-0.8-0.2c-0.8,5.7-1.2,11.5-1,17.3c0.1,2.9,0.3,5.8,0.7,8.7c0.1,0.7,0.2,1.5,0.3,2.2c0.1,0.6,0.1,1.3,0.5,1.8
			c0.3,0.5,0.9,0.6,1.4,0.7c0.7,0.1,1.4,0.2,2.1,0.2c5.8,0.6,11.6,0.7,17.5,0.3c1.5-0.1,2.9-0.2,4.4-0.4c0.7-0.1,1.4-0.2,2.2-0.3
			c0.4,0,0.7-0.1,1.1-0.1c0.3,0,0.7-0.1,1-0.2c0.7-0.2,0.7-0.9,0.6-1.5l-0.2-2.2l-0.3-4.4l-1.2-17.7l-0.2-2.2c0-0.2-0.2-0.4-0.4-0.4
			l-22.2-1.6l-6.3-0.5C184.1,80.7,184.1,81.5,184.6,81.5L184.6,81.5z"/>
		<path class="st16" d="M194.1,90.8C194.2,90.5,193.9,91.1,194.1,90.8c0,0,0-0.1,0.1-0.2c0.1-0.1,0.2-0.3,0.3-0.4
			c0.1-0.1,0.2-0.2,0,0c0.1-0.1,0.1-0.1,0.2-0.2c0.1-0.1,0.3-0.3,0.4-0.4c0.1-0.1,0.3-0.2-0.1,0c0.1,0,0.1-0.1,0.2-0.1
			c0.1-0.1,0.3-0.2,0.4-0.3c0.1,0,0.2-0.1,0.2-0.1c0.1-0.1,0.3-0.1-0.1,0c0.2,0,0.3-0.1,0.5-0.2c0.1,0,0.3-0.1,0.5-0.1
			c0.1,0,0.4,0-0.1,0c0.1,0,0.2,0,0.3,0c0.2,0,0.3,0,0.5,0c0.1,0,0.2,0,0.3,0c0.3,0-0.4-0.1,0,0c0.2,0,0.3,0.1,0.5,0.1
			c0.1,0,0.2,0.1,0.2,0.1l-0.2-0.1c0.1,0,0.1,0,0.2,0.1c0.2,0.1,0.3,0.2,0.5,0.3c0.1,0,0.1,0.1,0.2,0.1c0.2,0.2-0.3-0.3,0,0
			c0.1,0.1,0.2,0.2,0.3,0.3c0.1,0.1,0.1,0.1,0.2,0.2c0.1,0.1,0.2,0.3,0,0c0.2,0.3,0.4,0.6,0.6,1c0.1,0.3-0.1-0.4,0-0.1
			c0,0.1,0.1,0.2,0.1,0.2c0.1,0.2,0.1,0.3,0.1,0.5c0,0.2,0.1,0.3,0.1,0.5c-0.1-0.5,0-0.2,0-0.1c0,0.1,0,0.2,0,0.3c0,0.1,0,0.3,0,0.4
			c0,0.1,0,0.2,0,0.3c0-0.4,0-0.2,0-0.1c0,0.2-0.1,0.3-0.1,0.5c0,0.1-0.1,0.2-0.1,0.2c0,0.1-0.1,0.1-0.1,0.2c0.1-0.2,0.1-0.2,0-0.1
			c-0.4,0.9-1,1.7-1.4,2.5c-1.1,2.2-1.4,4.6-1,7c0.1,0.4,0.4,0.7,0.7,0.9c0.4,0.2,0.8,0.3,1.2,0.2c0.9-0.3,1.2-1.1,1.1-1.9
			c0-0.3,0,0.3,0,0c0-0.1,0-0.3,0-0.4c0-0.3,0-0.5,0-0.8c0-0.2,0-0.5,0-0.7c0-0.1,0-0.3,0-0.4c0,0-0.1,0.3,0,0.1c0-0.1,0-0.1,0-0.2
			c0.1-0.5,0.2-1,0.4-1.5c0-0.1,0.1-0.2,0.1-0.3c0.1-0.3-0.1,0.2,0,0c0.1-0.2,0.2-0.5,0.4-0.7c0.5-1,1.1-1.9,1.5-3
			c0.3-0.8,0.4-1.7,0.3-2.6c-0.1-1.8-0.9-3.7-2.4-4.9c-1.5-1.3-3.5-1.7-5.4-1.2c-2.1,0.5-3.8,2-4.6,4c-0.3,0.8,0.3,1.7,1.1,1.9
			C193.1,92.1,193.8,91.6,194.1,90.8L194.1,90.8z"/>
		<path class="st16" d="M199.6,109.4c0.7,0,1.3-0.6,1.3-1.3c0-0.7-0.6-1.3-1.3-1.3c-0.7,0-1.3,0.6-1.3,1.3
			C198.3,108.8,198.8,109.4,199.6,109.4z"/>
		<rect x="51.4" y="154.8" class="st3" width="7.3" height="7.3"/>
		<path class="st4" d="M63.1,157.9h-8.9v-8.9h8.9V157.9z M54.7,157.6h8.1v-8.1h-8.1L54.7,157.6z"/>
		<path class="st19" d="M221.1,115.5l-1,3.1c0,0-6.5,7.6-1.8,8.6c4.7,1,5.2-8.1,5.2-8.1l1.3-2.6L221.1,115.5z"/>
		<path class="st3" d="M228.4,77.7c0,0-1.6-0.3-2.1,6c-0.5,6.3-0.8,17.2-0.8,17.2l-6,15.4l7.6,2.3l3.6-17.5L228.4,77.7z"/>
		<polygon class="st19" points="225,170.7 224.2,175.6 231.2,175.6 231,170.7 		"/>
		<polygon class="st19" points="247.7,176.1 247.1,182.9 251.8,183.4 251.8,175.6 		"/>
		<path class="st10" d="M227.9,106.1l-6,34.4l1.6,31.3h8.1v-28.4l7.8-14.6l6.3,18.2l1.6,30.5l8.9-1.6l-2.1-29.7
			c0,0-1.6-39.6-3.1-40.1S227.9,106.1,227.9,106.1z"/>
		<path class="st10" d="M225.8,174.1c0,0,0-2.6-2.1-1c-2.1,1.6-4.7,4.4-4.7,4.4s-9.9,5.5-2.9,6.3c7,0.8,11.5-3.6,11.5-3.6l0.8,0.8
			c0,0,4.2-0.8,4.2-1.8c0-0.9-0.1-1.7-0.3-2.6c0,0-0.5-4.4-1.2-3.5C230.5,173.8,226.8,175.6,225.8,174.1z"/>
		<path class="st10" d="M252.1,181.4c0,0-4.7-2.3-5.7-0.3c-1,2.1-1.8,6.3-1.8,6.3s-3.4,6.5,2.6,6c6-0.5,5.7-3.9,5.7-4.7
			s-0.3-2.6,0-3.4C253.1,184.5,252.1,181.4,252.1,181.4z"/>
		<circle class="st19" cx="241.8" cy="60.1" r="7.3"/>
		<polygon class="st19" points="237,63.6 236.7,73 246.1,72.2 246.1,63.6 		"/>
		<path class="st16" d="M246.6,67.5c0,0-4.4,2.9-5.7,3.4s-4.2-2.1-4.2-2.1s-0.8,0.5-0.8,1c0,0.5-0.5,2.6-0.5,2.6L229.2,93l0.5,14.6
			c0,0,19,1.8,21.1-0.5c2.1-2.3-1-35.9-1-35.9L246.6,67.5z"/>
		<path class="st5" d="M245.3,73c0,0-7,2.6-9.4,0.3C235.9,73.3,239.3,74,245.3,73z"/>
		<path class="st3" d="M263.8,129.5c-2.9,1.8-12.2,4.2-12.2,4.2s-1-22-4.7-25.5c-3.6-3.5-9.6-28.4-4.2-32.8c0,0,0,0,0.1-0.1l3.4-7.8
			c0,0,0.5-0.8,1.6,0.3c0.8,0.9,1.6,1.9,2.3,2.9l0.1,0.1l7.1,2.8l-2.9,12.8C254.4,86.3,266.7,127.7,263.8,129.5z"/>
		<path class="st5" d="M250.1,70.7l-2,7.2l-5.5-2.5c0,0,0,0,0.1-0.1l3.4-7.8c0,0,0.5-0.8,1.6,0.3c0.8,0.9,1.6,1.9,2.3,2.9
			L250.1,70.7z"/>
		<path class="st3" d="M236.6,68.7l-0.8,8.9l0,0.4l-5.9,56.6c0,0-5.2-1.8-7-3.9s4.2-25.3,4.2-25.3l0.5-29.2c0,0,4.6-3.3,6.5-5
			c0.4-0.4,0.7-0.8,0.8-1C235,69.2,236.6,68.7,236.6,68.7z"/>
		<path class="st5" d="M236.6,68.7l-0.8,8.9l0,0.4l-3.7-0.5l2-6.2c0.4-0.4,0.7-0.8,0.8-1C235,69.2,236.6,68.7,236.6,68.7z"/>
		<path class="st19" d="M250.5,112.6l-2.9,2.6c0,0,1.3,5.5,2.9,5.7c0,0,1-1.6,1.3-2.9c0.3-1.3,2.6-2.6,2.6-2.6L250.5,112.6z"/>
		<path class="st3" d="M253.9,73l3.4,0.5c0,0,11.2,19,9.9,25.8c-1.3,6.8-11.7,18.5-11.7,18.5l-6.5-5.2l9.6-13l-4.9-15.6L253.9,73z"
			/>
		<path class="st10" d="M234.5,60.9c0,0,0-6.4,1.6-7.9h1.9c0,0,2.2-3.2,5-2c2.8,1.2,7.5,3.2,7.2,6.4c-0.3,3.2-1.3,5.3-1.3,5.3
			s-0.5,0-1.7-1.7c-1.6-2.3,2-1.6-2.7-2.5c-4.7-0.9-7.5-2-8.1-0.9C235.7,58.8,234.5,60.9,234.5,60.9z"/>
		<path class="st10" d="M237.9,53.5c0,0,0.2-1.9,1.3-2.3L237.9,53.5z"/>
		<path class="st10" d="M237.9,53.8c0,0-0.5-1.8,0.3-2.6L237.9,53.8z"/>
	</g>
</g>
<g id="katman_3" class="st0">
	<path class="st1" d="M185.4,38.3c-11.2,9.5-25.8,8.9-38.6,4s-24.5-13.8-37-20.1c-10.4-5.3-21.4-8.7-32.5-10.3
		c-15.9-2.2-33.6,0.5-44.6,15.9c-12.3,17.2-11.4,48.2,1.9,63.9c6.8,8,15.6,12,23.4,18.2s14.9,16.7,14.2,28.8
		c-0.6,11.2-7.7,19.8-15,25.2c-5.7,4.2-12.7,8.7-13.3,17.3c-0.7,8.3,5.2,14.9,10.8,18.6c18.3,12.1,40.8,12,59.1-0.3
		c6.5-4.4,12.5-10.2,19.3-13.7c17.9-9,37.6,0.1,56.6,3.4c16,2.8,32.5,1.4,48.1-4.2c9.4-3.4,18.8-8.5,25.4-18.1
		c4.8-6.9,7.7-15.6,10.5-24.3c3-9.2,5.8-18.5,8.6-27.8c1.6-5.6,3.3-11.3,3.7-17.3c0.8-10.9-2.5-21.6-6.9-30.8
		c-10.5-21.8-28.1-37.1-47.2-40.9s-39.3,3.7-54.1,20.3"/>
	<g class="st2">
		<path class="st9" d="M283,161.9c1.7,1.6-70.2,1.6-68.5,0C212.8,160.4,284.7,160.4,283,161.9z"/>
		<path class="st9" d="M259.1,116.2c3.8,5.4,4.8,36,5,45.8c0,0.2,0,0.4,0,0.6h9.6c0.1-0.2,0.2-0.4,0.3-0.6
			c5.7-11.3,2.5-24.8,2.4-25.5c0.4,2.1-1.5,8.4-3.7,14.4C271.4,132.4,259.8,117.2,259.1,116.2z"/>
		<path class="st9" d="M78.1,56.3c-7.5,10.7-9.5,71.4-10,90.8c0,0.4,0,0.9,0,1.2H49c-0.2-0.4-0.4-0.8-0.7-1.2
			c-11.3-22.3-5-49.1-4.7-50.5c-0.9,4.3,3,16.6,7.4,28.6C53.7,88.5,76.6,58.2,78.1,56.3z"/>
		<path class="st9" d="M166.8,147.8c3.3,3.9-135.9,3.9-132.6,0C30.9,143.9,170.1,143.9,166.8,147.8z"/>
		<path id="e84b1720-bcff-4cbb-a054-3015ec64150f" class="st4" d="M238.7,145.6c-0.5,0-0.5,1.7,0,1.7h20c0.2,0,0.4-0.4,0.4-0.8
			c0-0.5-0.2-0.9-0.4-0.8H238.7z"/>
		<path id="e860648b-2b37-4627-9c5b-8f6e964a3c31" class="st3" d="M245,139.4c-0.7,0-0.7,1.7,0,1.7h7.4c0.3,0,0.5-0.4,0.6-0.8
			c0-0.5-0.2-0.9-0.6-0.8H245z"/>
		<path id="a755faaa-e7b4-4234-ae1c-f54238f9c9ba" class="st4" d="M238.7,152.1c-0.5,0-0.5,1.7,0,1.7h20c0.2,0,0.4-0.4,0.4-0.8
			c0-0.5-0.2-0.9-0.4-0.8H238.7z"/>
		<path class="st4" d="M263,131.2h-28.5c-0.6,0-1.1,0.5-1.2,1.2v28.5c0,0.6,0.5,1.1,1.2,1.2H263c0.6,0,1.1-0.5,1.1-1.2v-28.5
			C264.1,131.7,263.6,131.2,263,131.2z M263.7,160.8c0,0.4-0.3,0.7-0.7,0.7h-28.5c-0.4,0-0.7-0.3-0.7-0.7v-28.5
			c0-0.4,0.3-0.7,0.7-0.7H263c0.4,0,0.7,0.3,0.7,0.7V160.8z"/>
		<path class="st14" d="M223.6,108.5l2.3-1.2l-1.9-5.2l-0.5-2.6c-0.2-1.1-1.2-1.8-2.3-1.6c-0.3,0.1-0.7,0.2-0.9,0.4l0,0
			c-0.8,0.7-0.9,1.9-0.3,2.7l1.9,2.4L223.6,108.5z"/>
		<path class="st13" d="M222.8,108l0.4,1.3l1.9,6c0.5,1.7,2.3,2.6,4,2.1c0.7-0.2,1.4-0.7,1.8-1.4l6.2-10.6c0.1-0.2,0.2-0.3,0.3-0.5
			c0.6-1.7-0.2-3.6-1.9-4.2c-1.6-0.6-3.4,0.1-4.1,1.6l-3.8,8.1l-1.7-3.9L222.8,108z"/>
		<path class="st10" d="M223.7,146.7l4.2,0.4l2.3-16.8c7.6,1.3,14.8,1.7,21,0.1c2.1-0.5,3.4-2.6,2.9-4.8c0-0.1-0.1-0.2-0.1-0.3
			c-0.7-2.2-2.1-4.6-3.6-7.1l-10.2,3.7l-0.4,1.5l-10.9-1.4c-2.2-0.3-4.2,1.3-4.5,3.5c0,0.1,0,0.2,0,0.3L223.7,146.7z"/>
		<path class="st10" d="M219.1,150L219.1,150c-0.1-0.6,0.2-1.2,0.7-1.5l4.4-2.1l3.3,0.4l0.8,2.8c0.1,0.8-0.4,1.6-1.2,1.7
			c0,0-0.1,0-0.1,0l-6.1,0C220,151.3,219.2,150.8,219.1,150z"/>
		<path class="st10" d="M222.7,144.6l4.2,0.4l2.3-16.8c7.6,1.3,14.8,1.7,21,0.1c2.1-0.5,3.4-2.6,2.9-4.8c0-0.1-0.1-0.2-0.1-0.3
			c-0.7-2.2-2.1-4.6-3.6-7.1l-10.2,3.7l-0.4,1.5L228,120c-2.2-0.3-4.2,1.3-4.5,3.5c0,0.1,0,0.2,0,0.3L222.7,144.6z"/>
		<path class="st10" d="M218,147.8L218,147.8c-0.1-0.6,0.2-1.2,0.7-1.5l4.4-2.1l3.3,0.4l0.8,2.8c0.1,0.8-0.4,1.6-1.2,1.7
			c0,0-0.1,0-0.1,0l-6.1,0C218.9,149.2,218.2,148.6,218,147.8z"/>
		<circle class="st14" cx="230.4" cy="93.5" r="5.2"/>
		<polygon class="st14" points="230.6,104.1 236.5,103.3 234.2,96.2 228.4,96.2 		"/>
		<path class="st3" d="M228.9,111.3c0.3,0.8,0.7,1.6,1.3,2.3c0.8,1,1.8,1.8,2.8,2.5c0.2,0.1,0.4,0.2,0.6,0.4l1.1,1l4.1,3.5l11.2-4.2
			c-2.5-5.5-5.5-9.8-9.1-13.3c-1.5-2.2-4.2-3.2-6.8-2.6l-4.2,1C228.5,105.3,227.9,108.5,228.9,111.3z"/>
		<path class="st4" d="M219.8,96.3c-0.1-0.1-0.3-0.2-0.5,0c-0.1,0.1-3.5,2.1-3.2,2.3c0,0.1,0,0.2,0.1,0.3l7.8,7.7
			c0.1,0.1,0.2,0.1,0.3,0.1c0.2,0.2,2.7-2.7,2.8-2.8c0.2-0.2,0.1-0.4,0-0.6L219.8,96.3z"/>
		<path class="st8" d="M216.9,98.4l0.3-0.2c-0.1,0.1,0,0.3,0.1,0.4c0.1,0.1,0.2,0,0.3,0l2-1.4c0.1-0.1,0.2-0.3,0.1-0.4
			c0-0.1-0.1-0.1-0.2-0.1c0.1,0,0.2-0.2,0.3-0.1l6.9,6.8c0.2,0.1-2.5,2.5-2.5,2.6c-0.2,0.2-7.3-7.4-7.4-7.4
			C216.8,98.6,216.8,98.5,216.9,98.4C216.9,98.4,216.9,98.4,216.9,98.4z"/>
		<polygon class="st3" points="224.8,101.9 222.7,103.9 217.7,98.9 220.2,97.2 		"/>
		<path class="st9" d="M217.9,100.1c0.1-0.1-0.4-0.5-0.4-0.5c0,0-0.1,0-0.1,0c-0.1,0.1,0.4,0.5,0.4,0.5
			C217.8,100.1,217.8,100.1,217.9,100.1z"/>
		<path class="st9" d="M218.6,100.8c-0.1,0-0.5-0.6-0.5-0.4c-0.1,0.1,0.4,0.5,0.4,0.5C218.6,100.9,218.7,100.8,218.6,100.8z"/>
		<path class="st3" d="M224.3,103.6c0,0.6,1,0.6,1,0C225.3,102.9,224.3,102.9,224.3,103.6z"/>
		<path class="st15" d="M230.2,113.6c0.8,1,1.8,1.8,2.8,2.5c0.2,0.1,0.4,0.2,0.6,0.4l1.1,1c2.3-3,2.2-12.1,2.2-12.1l-3.5,0.3
			L230.2,113.6z"/>
		<path class="st14" d="M223.4,111.2l2.3-1.2l-1.9-5.2l-0.5-2.6c-0.2-1.1-1.2-1.8-2.3-1.6c-0.3,0.1-0.7,0.2-0.9,0.4l0,0
			c-0.8,0.7-0.9,1.9-0.3,2.7l1.9,2.4L223.4,111.2z"/>
		<path class="st3" d="M225.7,109.1l-3.1,1.5l2.3,7.3c0.3,1.1,1.2,1.9,2.3,2.1l0,0c1.4,0.3,2.8-0.3,3.5-1.5L237,108
			c0.9-1.5,0.4-3.5-1.1-4.5l0,0c-1.5-1-3.6-0.5-4.5,1c-0.1,0.1-0.1,0.2-0.2,0.3l-3.8,8.1L225.7,109.1z"/>
		<path class="st10" d="M228.4,91.4c-0.4,0.4-0.9,0.6-1.4,0.8c-0.5,0.2-1.1,0.2-1.6-0.1c-0.5-0.4-0.8-1-0.7-1.7
			c0.1-0.6,0.3-1.3,0.8-1.8c2.4-3.4,7.2-4.2,10.6-1.7c0.6,0.5,1.2,1,1.7,1.7c0.5,0.6,0.8,1.4,0.9,2.3c0.1,1.4-0.9,2.8-0.8,4.2
			c0.1,1.2,1,2.3,2,2.9c1,0.6,2.2,1,3.4,1.4c1.2,0.4,2.3,0.9,3.2,1.7s1.3,2.2,0.9,3.4c-0.4,0.9-1.3,1.5-2.2,1.9
			c-2.5,1.1-5.3,1.2-7.8,0.3c-0.9-0.3-2-1-2-2c0-0.4,0.2-0.8,0.3-1.3s0.1-0.9-0.2-1.2c-0.4-0.4-1-0.3-1.5,0
			c-0.4,0.3-0.7,0.8-1.1,1.2c-0.7,0.8-1.7,1.2-2.7,1.1c-1-0.1-1.9-1-2-2c-0.1-1.7,2.1-2.8,2.4-4.6c0.2-1.2-0.6-2.2-1.2-3.2
			c-0.7-1-1.3-2.2-0.8-3.3"/>
		<path class="st4" d="M155.9,147.1H70c-0.9,0-1.6-0.7-1.6-1.6V72c0-0.9,0.7-1.6,1.6-1.6h85.9c0.9,0,1.6,0.7,1.6,1.6v73.5
			C157.5,146.4,156.7,147.1,155.9,147.1z M70,71.1c-0.5,0-1,0.4-1,1v73.5c0,0.5,0.4,1,1,1h85.9c0.5,0,1-0.4,1-1V72c0-0.5-0.4-1-1-1
			H70z"/>
		<circle class="st9" cx="83.3" cy="134" r="6.5"/>
		<path class="st9" d="M98.3,129.7c-0.6,0-1.1,0.5-1.1,1.1c0,0.6,0.5,1.1,1.1,1.1h50.9c0.6,0,1.1-0.5,1.1-1.1s-0.5-1.1-1.1-1.1H98.3
			z"/>
		<path class="st9" d="M98.3,136.2c-0.6,0-1.1,0.5-1.1,1.1s0.5,1.1,1.1,1.1h21.9c0.6,0,1.1-0.5,1.1-1.1s-0.5-1.1-1.1-1.1
			c0,0,0,0,0,0H98.3z"/>
		<path class="st3" d="M176.3,121.4H90.4c-0.9,0-1.6-0.7-1.6-1.6V82.2c0-0.9,0.7-1.6,1.6-1.6h85.9c0.9,0,1.6,0.7,1.6,1.6v37.7
			C177.9,120.7,177.2,121.4,176.3,121.4z"/>
		<path class="st8" d="M107.9,93.7c-0.6,0-1.1,0.5-1.1,1.1c0,0.6,0.5,1.1,1.1,1.1h50.9c0.6,0,1.1-0.5,1.1-1.1c0-0.6-0.5-1.1-1.1-1.1
			H107.9z"/>
		<path class="st8" d="M107.9,100c-0.6,0-1.1,0.5-1.1,1.1c0,0.6,0.5,1.1,1.1,1.1h50.9c0.6,0,1.1-0.5,1.1-1.1c0-0.6-0.5-1.1-1.1-1.1
			H107.9z"/>
		<path class="st8" d="M107.9,106.1c-0.6,0-1.1,0.5-1.1,1.1c0,0.6,0.5,1.1,1.1,1.1h21.9c0.6,0,1.1-0.5,1.1-1.1
			c0-0.6-0.5-1.1-1.1-1.1c0,0,0,0,0,0H107.9z"/>
		<circle class="st4" cx="176.4" cy="119" r="6.5"/>
		<polygon class="st8" points="175.9,121.9 173.8,119.2 175,118.3 176,119.6 179.3,116.1 180.4,117.1 		"/>
		<polygon class="st10" points="165.7,52.4 155.2,54.8 150.8,46.4 159.8,42.9 		"/>
		<path class="st10" d="M174.5,112l3.9-3.6l-8.5-19.2l-7.4-9.2l12.1,5.3l1.3,13.4l6,2.1l-0.8-16.7c-0.1-2.1-1.4-4-3.4-4.8l-10-4
			l-1.8-7.5l-10.4-0.1c-3.2,5.6-4.7,10.6-2.3,14.1l10.8,10.6L174.5,112z"/>
		<path class="st10" d="M176.3,109.6c0,0,0.6-1.7,1.4-1.3c0.9,0.4,3.3,2.3,3.3,2.3s4.1,0.6,1.5,2.1c-2.6,1.5-3.6,1.4-3.7,1.2
			c-0.1-0.2-0.8-0.7-0.8-0.7l-1,0.6l-1.6,0.2c0,0-2.1-3.6-1.5-3.7C174.9,110.1,176.4,110.3,176.3,109.6z"/>
		<path class="st10" d="M178.9,99.3c0,0,1.7-0.4,1.9,0.5c0.2,0.9-0.1,4.1-0.1,4.1s1.8,3.8-0.9,2.4s-3.1-2.2-3-2.4
			c0.1-0.2,0.2-1,0.2-1l-1.1-0.5l-1-1.3c0,0,1.9-3.8,2.3-3.3C177.6,98.4,178.3,99.7,178.9,99.3z"/>
		<circle class="st11" cx="156.8" cy="47.8" r="3.8"/>
		<path class="st11" d="M156.4,60.4l9.3-1.3c-1.4-2.5-2.8-4.8-4.7-4.5c-1.7-1.2-1.8-3.1-1.4-5.3l-4.6,1.2c0.4,1.3,0.3,2.5-0.8,3.4
			C155.6,56,156.6,58.2,156.4,60.4z"/>
		<path class="st9" d="M155.7,68.5c3.3,4.3,6.7,6,10.3-0.1l0.3-2.7c2.3-2.9,1.6-5.5-1.2-7.7l-1.4-3.2l-2.1-0.3l0,0
			c0.8,0.9,0.7,2.2-0.2,3c-0.4,0.4-1,0.5-1.5,0.5l-0.7-0.1c-0.6,0-1.1-0.3-1.4-0.7l-3.2-3.7l-1.3,0.4c-0.3,0.1-0.5,0.4-0.6,0.7
			l-0.4,6.1C154.2,62.7,155.3,65.4,155.7,68.5z"/>
		<path class="st11" d="M154.2,65.9l-7.3-1.5l4.8-4.5l-1.8-3.3l-7.8,8.3c-0.4,0.5-0.4,1.2,0.1,1.6c0.2,0.2,0.4,0.2,0.6,0.3l10.6,1.2
			l0.4,1.9c0.2,0.9,1.1,1.4,1.9,1.2c0.2,0,0.4-0.1,0.5-0.2l0,0c0.8-0.5,1-1.5,0.5-2.2c-0.1-0.1-0.1-0.2-0.2-0.3L154.2,65.9z"/>
		<path class="st11" d="M165.6,77.8l-1,2.5c-0.4,1,0.1,2,1.1,2.4c0.1,0,0.1,0,0.2,0.1l0,0c1,0.3,2-0.4,2.3-1.4
			c0.1-0.2,0.1-0.5,0-0.8l-0.4-2.5l1.3-10l-1.2-6.6l-2.7,0.8l0.9,6.1L165.6,77.8z"/>
		<path class="st9" d="M164.5,63.1l4.1-1.6l-2.3-5.1c-0.5-1.1-1.6-1.8-2.8-1.9l-1.1-0.1L164.5,63.1z"/>
		<path class="st9" d="M150.9,61.1l4.4-1.5l-1.6-5.3c-0.1-0.4-0.5-0.6-0.8-0.5l0,0c-0.2,0-0.3,0.1-0.4,0.2l-4.5,4
			C148.9,59.4,149.8,59.4,150.9,61.1z"/>
		<path class="st10" d="M159.4,41.6c0,0,2.3,0.4,2.9,3.3c0.1,0.5,0.1,1,0,1.5c-0.1,0.6,0,1.7,1.2,3.1c0.8,0.9,1.5,1.9,2.2,2.8l0,0
			l-2.4,0.6l-1.1-4c-0.5-2-1.3-3.8-2.4-5.5l0,0c0,0-0.8,2.2-3,2.5l0.7-0.9c0,0-2.5,1.5-4,1.9c-0.5,0.2-0.8,0.7-0.6,1.2
			c0.1,0.2,0.2,0.3,0.3,0.5c0,0,0,0,0,0c1.1,0.8,3.2,2.7,2.4,4.6s0.1,2.2,0.1,2.2l-1.8-0.7l-0.8-0.4l0.1,0.6l-4.1,0.1
			c0,0-1.1,0,0.9-3c0,0,0.5-1.1,0.1-2c-0.3-0.6-0.5-1.3-0.5-2.1C149.7,45.1,150.9,39,159.4,41.6z"/>
	</g>
</g>
<g id="katman_4" class="st0">
	<path class="st1" d="M185.4,38.3c-11.2,9.5-25.8,8.9-38.6,4s-24.5-13.8-37-20.1c-10.4-5.3-21.4-8.7-32.5-10.3
		c-15.9-2.2-33.6,0.5-44.6,15.9c-12.3,17.2-11.4,48.2,1.9,63.9c6.8,8,15.6,12,23.4,18.2s14.9,16.7,14.2,28.8
		c-0.6,11.2-7.7,19.8-15,25.2c-5.7,4.2-12.7,8.7-13.3,17.3c-0.7,8.3,5.2,14.9,10.8,18.6c18.3,12.1,40.8,12,59.1-0.3
		c6.5-4.4,12.5-10.2,19.3-13.7c17.9-9,37.6,0.1,56.6,3.4c16,2.8,32.5,1.4,48.1-4.2c9.4-3.4,18.8-8.5,25.4-18.1
		c4.8-6.9,7.7-15.6,10.5-24.3c3-9.2,5.8-18.5,8.6-27.8c1.6-5.6,3.3-11.3,3.7-17.3c0.8-10.9-2.5-21.6-6.9-30.8
		c-10.5-21.8-28.1-37.1-47.2-40.9s-39.3,3.7-54.1,20.3"/>
	<g class="st2">
		<path class="st10" d="M13.6,197.2c4.1,7.6,12.7,10.8,12.7,10.8s2-9-2-16.6c-4.1-7.6-12.7-10.8-12.7-10.8S9.6,189.7,13.6,197.2z"/>
		<path class="st3" d="M16.4,194.7c7.4,4.4,10.2,13.2,10.2,13.2s-9.1,1.6-16.4-2.8C2.8,200.7,0,191.9,0,191.9S9.1,190.3,16.4,194.7z
			"/>
		<rect x="8.8" y="207.9" class="st4" width="297.9" height="0.7"/>
		<rect x="150.2" y="57.2" class="st3" width="24.7" height="4.8"/>
		<rect x="130.1" y="77.3" class="st3" width="24.7" height="4.8"/>
		<rect x="176" y="113.6" class="st4" width="12.4" height="4.8"/>
		<rect x="218.8" y="113.6" class="st4" width="12.4" height="4.8"/>
		<rect x="241.3" y="113.6" class="st4" width="12.4" height="4.8"/>
		<rect x="230" y="150.5" class="st4" width="12.4" height="4.8"/>
		<rect x="274.9" y="150.5" class="st4" width="12.4" height="4.8"/>
		<rect x="263.8" y="113.6" class="st4" width="12.4" height="4.8"/>
		<rect x="286.2" y="113.6" class="st4" width="12.4" height="4.8"/>
		<polygon class="st4" points="310,87.5 162.3,87.5 162.3,66.6 162.6,66.6 162.6,87.1 310,87.1 		"/>
		<polygon class="st4" points="298.3,124.7 202.7,124.7 202.7,87.4 203,87.4 203,124.4 298.3,124.4 		"/>
		<rect x="182.1" y="87.4" class="st4" width="0.3" height="20.8"/>
		<rect x="224.9" y="87.4" class="st4" width="0.3" height="20.8"/>
		<rect x="247.4" y="87.4" class="st4" width="0.3" height="20.8"/>
		<rect x="269.8" y="87.4" class="st4" width="0.3" height="20.8"/>
		<rect x="292.3" y="87.4" class="st4" width="0.3" height="20.8"/>
		<rect x="236.1" y="124.6" class="st4" width="0.3" height="20.8"/>
		<rect x="281" y="124.6" class="st4" width="0.3" height="20.8"/>
		<rect x="150.2" y="98.2" class="st3" width="24.7" height="4.8"/>
		<rect x="176" y="41.8" class="st4" width="12.4" height="4.8"/>
		<rect x="218.8" y="41.8" class="st4" width="12.4" height="4.8"/>
		<rect x="241.3" y="41.8" class="st4" width="12.4" height="4.8"/>
		<rect x="230" y="4.9" class="st4" width="12.4" height="4.8"/>
		<rect x="274.9" y="4.9" class="st4" width="12.4" height="4.8"/>
		<rect x="263.8" y="41.8" class="st4" width="12.4" height="4.8"/>
		<rect x="286.2" y="41.8" class="st4" width="12.4" height="4.8"/>
		<polygon class="st4" points="310,72.8 162.3,72.8 162.3,93.7 162.6,93.7 162.6,73.1 310,73.1 		"/>
		<polygon class="st4" points="298.3,35.6 202.7,35.6 202.7,72.9 203,72.9 203,35.9 298.3,35.9 		"/>
		<rect x="182.1" y="52.1" class="st4" width="0.3" height="20.8"/>
		<rect x="224.9" y="52.1" class="st4" width="0.3" height="20.8"/>
		<rect x="247.4" y="52.1" class="st4" width="0.3" height="20.8"/>
		<rect x="269.8" y="52.1" class="st4" width="0.3" height="20.8"/>
		<rect x="292.3" y="52.1" class="st4" width="0.3" height="20.8"/>
		<rect x="236.1" y="14.9" class="st4" width="0.3" height="20.8"/>
		<rect x="281" y="14.9" class="st4" width="0.3" height="20.8"/>
		<path class="st10" d="M98,6.9C94.1,0.3,86.4,0,86.4,0s-7.5-1-12.3,9.1c-4.5,9.4-10.7,18.4-1,20.6l1.8-5.5l1.1,5.9
			c1.4,0.1,2.8,0.1,4.2,0.1c10.4-0.3,20.3,0.1,20-3.6C99.6,21.6,101.8,13.3,98,6.9z"/>
		<path class="st19" d="M83.6,29.4c0,0.7,0,1.5-0.4,2.2c-0.7,1.3-2.5,1.5-3.6,2.5c-1.1,1.1-1.3,2.8-1.3,4.3
			c-0.1,1.6-0.1,3.3,0.5,4.8c0.4,0.8,0.8,1.6,1.4,2.3c0.7,0.9,1.3,1.9,2,2.8c0.4,0.5,0.8,1,1.2,1.5c1.2,1.2,2.8,1.9,4.5,2.4
			c1.1,0.3,2.2,0.6,3.2,0.2c0.7-0.3,1.3-0.7,1.9-1.2c0.8-0.6,1.5-1.3,2.1-2.1c0.9-1.3,1.1-2.9,1.3-4.4c0.5-4.6,0.7-9.1,0.6-13.7
			c0-0.5-0.1-1-0.3-1.5c-0.5-1.1-2-1.3-2.8-2.2c-0.7-0.8-0.7-1.9-0.7-2.9l0-2.6c0-0.2,0-0.4-0.1-0.6c-0.2-0.2-0.5-0.3-0.7-0.3
			c-1.6-0.3-3.2-0.4-4.9-0.3c-1.3,0-3.9-0.1-5,0.7c-1,0.7,0.3,2.5,0.5,3.6C83.5,26.3,83.6,27.8,83.6,29.4z"/>
		<path class="st10" d="M62.1,203.1c-0.3,1.1-0.5,2.5,0.2,3.4c0.4,0.5,0.9,0.9,1.5,1.1c1.5,0.6,3.1,0.8,4.7,0.7
			c0.6,0,1.2-0.2,1.7-0.6c3.7-3.1,6.2-7.3,7.1-12c0.1-0.2,0.1-0.5,0-0.7c-0.1-0.2-0.3-0.3-0.5-0.4c-0.8-0.5-1.7-0.9-2.6-1.2
			C68.9,191.9,63.4,198.8,62.1,203.1z"/>
		<path class="st10" d="M115.4,187c0.7,0.8,1.5,1.4,2.5,1.9c1,0.4,2.1,0.4,3-0.1c1.4-0.8,1.8-2.6,1.7-4.2c-0.2-3-1.6-5.6-3.3-8.1
			c-0.5-0.8-1.7-3-2.7-3.1c-0.5,0-2.3,1.7-2.7,2c-1.8,1.2-3,2.1-2.6,4.4C111.7,182.4,113.6,185.2,115.4,187z"/>
		<circle class="st19" cx="86.7" cy="14.4" r="10.5"/>
		<path class="st20" d="M82.4,40.4c-0.7-1-1.2-2.1-1.6-3.2c-0.4-1.1-0.4-2.4,0-3.5c-1.1-0.7-2.7-0.1-3.5,0.9c-0.8,1-1.1,2.4-1.2,3.7
			s0,2.6-0.3,3.9c-0.6,2.8-3,5.2-3.1,8c-0.2,2.8,1.8,5.3,2.7,8c0.6,1.7,0.8,3.4,0.7,5.2c0,0.6-0.1,1.2,0.3,1.6
			c0.2,0.2,0.5,0.3,0.7,0.4c4.6,1.6,9.6,1.8,14.5,1.9l8.1,0.2c0.5,0.1,1,0,1.4-0.2c0.7-0.4,0.8-1.4,0.8-2.3c0.1-7.4-0.2-14.7-0.5-22
			c-0.1-2.7-0.2-5.3-0.8-7.9c-0.1-0.7-0.4-1.4-1-1.7c-0.5-0.2-1.1-0.1-1.7,0.1c-2.5,0.9-4.7,2.6-6.2,4.8c-1.7,2.4-2.5,5.2-4.1,7.6
			c-1.2,1.7-1.9,0.2-2.7-1.1C84.2,43.4,83.3,41.9,82.4,40.4z"/>
		<path class="st3" d="M79.7,30.9c-0.6,0.3-1.3,0.4-1.9,0.8c-0.7,0.4-1.2,1.1-1.7,1.8l-2.5,3.7c-0.6,0.8-1.1,1.7-1.4,2.6
			c-0.4,1.1-0.4,2.4-0.5,3.6c-0.1,3.3-0.3,6.7-0.6,10c-0.1,1.6-0.4,3.2-0.7,4.8c-0.3,1.3-0.7,2.5-1.1,3.8l-4.6,13.7
			c-0.3,0.7-0.4,1.4-0.4,2.1c0.1,0.7,0.6,1.5,1.3,1.6c0.5,0,1-0.1,1.4-0.3c1.8-0.7,3.5-1.6,4.9-2.9c2.2-2.2,3.1-5.4,3.9-8.4
			c0.4-1.6,0.9-3.2,0.9-4.9c0-3.8-2.2-7.3-2.3-11c0-1,0.1-2,0.3-3.1c0.4-2.7,0.8-5.5,1.8-8.1c1-2.6,2.5-5.1,4.8-6.7
			c1.1-0.8,4-2.3,2.9-4.1C82.8,28.1,80.8,30.3,79.7,30.9z"/>
		<path class="st10" d="M99.9,64.7c-7.5-0.6-15-1.1-22.6-1.5c-0.6,0-1.4,0-1.8,0.4c-0.2,0.2-0.3,0.5-0.4,0.8l-1.6,4.3
			c-0.7,1.9-1,3.7-2.5,5.2c-1.4,1.5-3.1,2.7-4.5,4.2c-2.1,2.2-3.5,5-4,8.1c-0.4,2.5-0.2,5.1-0.8,7.5c-0.8,3,0.5,6.1,0.5,9.2
			c0,4.6-0.7,9.2-1.3,13.8c-1.8,13.3-3.7,26.5-5.7,39.7c-1.6,10.9-3.2,22.6,1.9,32.3c1.2,2.3,2.9,4.5,5.2,5.7c1.3,0.6,2.7,1,4.1,1.3
			c3.6,0.8,7.3,1.3,10.9,1.6c1.5,0.1,3.2,0.1,4.2-1c0.6-0.8,0.7-1.8,0.8-2.9l0.4-6.5c0.5-8.5,0.3-17.3-1.6-25.5
			c-0.6-2.8-1.4-5.5-2-8.4c-0.5-2.7-0.8-5.4-0.8-8.1c0-1.9,0.1-3.9,0.5-5.8c1.4-6.2,6-11.7,5.3-18c4.2,6.2,5.6,13.3,6.9,20.7
			c1,5.4,2,10.8,3.8,15.9c2,5.6,4.9,11.2,4.5,17.1c-0.1,1.2-0.3,2.5-0.6,3.7c-1.2,5,3.9,9.2,8.5,7.1c0,0,0.1,0,0.1,0
			c4.3-2,6.5-7.2,10.9-9c2-0.8,4.6-0.9,5.4-3.5c0.2-0.6,0.2-1.2,0.2-1.8c-0.2-2-1.4-3.7-2.3-5.4c-2-3.8-2.7-8.1-3.4-12.3
			c-0.7-4.2-1.4-8.4-2.1-12.6c-0.4-2.7-0.9-5.5-1.8-8.1c-0.4-1.2-0.9-2.3-1.2-3.5c-1.2-4.4,0-9.1-0.5-13.6
			c-0.6-5.1-1.6-10.1-2.7-15.1c-1.5-6.5-1.7-13.1-2-19.8c-0.1-2.6-0.2-5.3-1.2-7.8C105.6,69.6,102.9,66.9,99.9,64.7z"/>
		<polygon class="st10" points="96.3,6.3 88.7,2.3 78.1,3.9 76,13.5 81.4,13.3 82.9,9.8 82.9,13.3 85.4,13.2 86.9,7.6 87.8,13.5 
			96.7,13.4 		"/>
		<path class="st3" d="M92.3,35.5c0.6-0.6,1.4-1,2.2-1.1c0.3,0,0.6-0.1,0.8-0.3c0.1-0.2,0.2-0.4,0.1-0.6c0-1.8-0.1-3.7-0.5-5.5
			c0.7-0.3,1.5-0.4,2.2-0.3l7.1,0c1.4,0,2.9,0,4.2,0.6c1.3,0.7,2.4,1.8,3,3.1c0.6,1.3,1.1,2.7,1.4,4.2c0.8,3.6-2.2,7.3-2.4,11
			c-0.1,1.1,0,2.1-0.1,3.2c-0.1,1.1-0.4,2.2-0.4,3.4c0,1.4,0.4,2.8,0.8,4.1c1.4,4,3.5,7.8,5.1,11.7c0.4,0.9,0.7,1.9,0.8,2.8
			c0.1,1-0.1,2-0.8,2.8c-0.7,0.8-1.7,1.1-2.7,1.5c-1.2,0.5-2.4,1.1-3.5,1.8c-0.4,0.3-0.9,0.6-1.4,0.8c-0.5,0.2-1,0.3-1.5,0.3
			c-1.3,0.2-2.5,0.8-3.8,1.2c-0.4,0.1-0.9,0.3-1.3,0c-0.2-0.2-0.4-0.4-0.5-0.6c-2.4-4.2-3.3-9.1-3.8-13.9s-0.9-9.7-2.3-14.3
			c-0.4-1.4-1-2.8-1.3-4.2c-0.4-2.1-0.1-4.3-0.5-6.4C93,38.9,92.2,37.4,92.3,35.5z"/>
		<path class="st19" d="M108.4,75.5c-2.1,1-3.8,2.6-5.2,4.5c-0.3,0.4,0.1,1.1,1,1.1c0.8,0,1.3-1.1,2.2-1.1c0.3,2.2,0.7,4.4,1.4,6.5
			c1.7-1.5,2.6-3.5,3.6-5.5l1.9-3.9c0.7-1.4,1.4-2.9,2-4.4c0.2-0.3,0.3-0.7,0.3-1.1c0.1-2.5-2.4-2.6-3.5-1
			C110.8,72.5,110.5,74.5,108.4,75.5z"/>
		<path class="st3" d="M108.8,31.9c1.6,1.7,3.2,3.3,4.5,5.3c1.2,1.9,2.1,4.2,2.1,6.5c-0.1,0.6,0,1.2,0.1,1.8c0.2,0.5,0.5,1,0.8,1.5
			c1.6,2.3,2.8,4.8,3.6,7.5c0.1,0.5,0.3,1,0.6,1.5c0.2,0.4,0.6,0.7,0.8,1.1c0.9,1.4,1,3.2,0.1,4.6c-0.1,0.2-0.2,0.4-0.3,0.6
			c-0.1,0.6,0.7,1,1,1.6c0.3,0.6,0,1.3-0.5,1.8c-0.5,0.4-1.1,0.7-1.8,0.8c0.8,1.2-0.2,2.8-0.5,4.3c-0.2,1-0.2,2-0.4,3
			c-0.2,1-0.5,2-1.3,2.7c-0.1,0.1-0.2,0.2-0.3,0.2c-0.4,0.1-0.7-0.4-0.9-0.8c-0.5-1.3-0.9-2.6-1.8-3.6s-2.1-1.9-3.4-1.9
			c-0.2-0.5-0.2-1.2,0.1-1.7c0.3-0.5,0.7-0.9,1-1.4c0.4-0.7,0.6-1.4,0.8-2.2c0.7-3.5,0-7.1-1.9-10.2c-0.4-0.7-1-1.4-1.6-2
			c-0.7-0.6-1.4-1.1-2-1.8c-0.9-1.1-1.5-2.5-1.6-3.9c-0.1-1.4-0.1-2.9,0.1-4.3c0.3-2.8,0.6-5.7,1-8.5c0-0.4,0.1-0.7,0.3-1.1
			C107.7,32.4,108.2,32.2,108.8,31.9z"/>
	</g>
</g>
<g id="katman_5">
	<g>
		<ellipse class="st21" cx="235.9" cy="196.2" rx="53.3" ry="11.9"/>
		<g class="st22">
			<path class="st3" d="M175.3,19.3c0,43.3,27.2,78.3,60.7,78.3"/>
		</g>
		<path class="st21" d="M176,47.9c-19.6,0.1-38.5-4.3-56.5-9.2S83.5,28.2,64.3,25.9c-12.4-1.5-26.5-1.2-36.2,4.4
			C18.7,35.8,16,44.7,14.6,53c-1,6.2-1.5,12.7,2.1,18.4c2.5,3.9,6.8,7.1,9.9,10.9c10.6,13,4,29.7-6.5,43.1
			c-4.9,6.3-10.7,12.3-14.5,19C1.9,151,0.3,158.5,4,165c3.7,6.5,12.1,11.1,21.1,14.3c18.3,6.4,39.7,7.7,60.5,8.1
			c46.1,0.9,92.3-1.8,138.4-4.6c17.1-1,34.2-2,50.9-4.8c9.3-1.5,18.8-3.7,25.4-8.5c8.4-6,10.2-15.8,4.2-22.8
			c-10.1-11.7-36.9-13.8-44.1-26.5c-4-7-0.4-15.1,4.7-21.9c11.1-14.6,30.1-27.7,30.5-44c0.3-11.2-9.4-22-24-26.7
			c-15.3-5-36.3-3.5-47.1,6C213.4,43.4,193.3,47.8,176,47.9z"/>
		<path class="st8" d="M264.6,20.5v143.8c0,4.3-4.1,7.8-9.2,7.8H60.2c-5.1,0-9.2-3.5-9.2-7.8V20.5c0-4.3,4.1-8.7,9.2-8.7l195.1,0.5
			C260.4,12.3,264.6,16.2,264.6,20.5z"/>
		<path class="st4" d="M266.9,20.6v6.8H48.7v-6.8c0-4.9,4-8.9,8.9-8.9H258C262.9,11.7,266.9,15.6,266.9,20.6
			C266.9,20.5,266.9,20.5,266.9,20.6z"/>
		<circle class="st23" cx="61.4" cy="19.5" r="3.1"/>
		<circle class="st24" cx="70.3" cy="19.5" r="3.1"/>
		<circle class="st25" cx="79.2" cy="19.5" r="3.1"/>
		<path class="st26" d="M131.1,59.2h14.7c1.3,0,2.4,1.1,2.4,2.4V66c0,1.3-1.1,2.4-2.4,2.4h-14.7c-1.3,0-2.4-1.1-2.4-2.4v-4.5
			C128.7,60.2,129.7,59.2,131.1,59.2z"/>
		<path class="st26" d="M170.4,59.2h14.7c1.3,0,2.4,1.1,2.4,2.4V66c0,1.3-1.1,2.4-2.4,2.4h-14.7c-1.3,0-2.4-1.1-2.4-2.4v-4.5
			C168,60.2,169.1,59.2,170.4,59.2z"/>
		<polyline class="st27" points="138.3,68.2 157.8,93.6 177.8,68.1 		"/>
		<path class="st5" d="M145.3,92.8h24.9c1.3,0,2.4,1.1,2.4,2.4v9.3c0,1.3-1.1,2.4-2.4,2.4h-24.9c-1.3,0-2.4-1.1-2.4-2.4v-9.3
			C142.9,93.8,144,92.8,145.3,92.8z"/>
		<path class="st3" d="M145.9,93h23.7c1.3,0,2.4,1.1,2.4,2.4v8.8c0,1.3-1.1,2.4-2.4,2.4h-23.7c-1.3,0-2.4-1.1-2.4-2.4v-8.8
			C143.5,94.1,144.6,93,145.9,93z"/>
		<line class="st27" x1="138.5" y1="59.2" x2="138.2" y2="50.2"/>
		<polyline class="st27" points="189.2,50.6 177.8,59.2 165.8,50.6 		"/>
		<path class="st26" d="M131,41.4h14.7c1.3,0,2.4,1.1,2.4,2.4v4.5c0,1.3-1.1,2.4-2.4,2.4H131c-1.3,0-2.4-1.1-2.4-2.4v-4.5
			C128.6,42.5,129.6,41.4,131,41.4z"/>
		<path class="st26" d="M181.9,41.4h14.7c1.3,0,2.4,1.1,2.4,2.4v4.5c0,1.3-1.1,2.4-2.4,2.4h-14.7c-1.3,0-2.4-1.1-2.4-2.4v-4.5
			C179.5,42.5,180.6,41.4,181.9,41.4z"/>
		<path class="st26" d="M158.5,41.4h14.7c1.3,0,2.4,1.1,2.4,2.4v4.5c0,1.3-1.1,2.4-2.4,2.4h-14.7c-1.3,0-2.4-1.1-2.4-2.4v-4.5
			C156.1,42.5,157.2,41.4,158.5,41.4z"/>
		<line class="st27" x1="157.8" y1="106.6" x2="157.7" y2="131.1"/>
		<path class="st27" d="M157.6,140.1L157.6,140.1z"/>
		<polyline class="st27" points="130.2,148.6 157.6,140.1 185.2,148.6 		"/>
		<path class="st26" d="M150.4,131.1H165c1.3,0,2.4,1.1,2.4,2.4v4.5c0,1.3-1.1,2.4-2.4,2.4h-14.7c-1.3,0-2.4-1.1-2.4-2.4v-4.5
			C148,132.2,149.1,131.1,150.4,131.1z"/>
		<path class="st26" d="M242,78.2v14.7c0,1.3-1.1,2.4-2.4,2.4h-4.5c-1.3,0-2.4-1.1-2.4-2.4V78.2c0-1.3,1.1-2.4,2.4-2.4h4.5
			C240.9,75.8,242,76.9,242,78.2z"/>
		<path class="st26" d="M232.7,123.3v-14.7c0-1.3,1.1-2.4,2.4-2.4h4.5c1.3,0,2.4,1.1,2.4,2.4v14.7c0,1.3-1.1,2.4-2.4,2.4h-4.5
			C233.8,125.6,232.7,124.6,232.7,123.3z"/>
		<path class="st26" d="M177.9,148.5h14.7c1.3,0,2.4,1.1,2.4,2.4v4.5c0,1.3-1.1,2.4-2.4,2.4h-14.7c-1.3,0-2.4-1.1-2.4-2.4v-4.5
			C175.5,149.6,176.6,148.5,177.9,148.5z"/>
		<path class="st26" d="M137.5,157.7h-14.7c-1.3,0-2.4-1.1-2.4-2.4v-4.5c0-1.3,1.1-2.4,2.4-2.4h14.7c1.3,0,2.4,1.1,2.4,2.4v4.5
			C139.9,156.6,138.8,157.7,137.5,157.7z"/>
		<path class="st26" d="M165.5,157.7h-14.7c-1.3,0-2.4-1.1-2.4-2.4v-4.5c0-1.3,1.1-2.4,2.4-2.4h14.7c1.3,0,2.4,1.1,2.4,2.4v4.5
			C167.9,156.6,166.8,157.7,165.5,157.7z"/>
		<line class="st27" x1="224.1" y1="100.7" x2="232.7" y2="115.8"/>
		<line class="st27" x1="205.8" y1="100.5" x2="214.9" y2="100.5"/>
		<line class="st27" x1="172" y1="99.8" x2="196.8" y2="100.5"/>
		<line class="st27" x1="232.7" y1="85.5" x2="224.1" y2="100.7"/>
		<path class="st26" d="M206,93.1v14.7c0,1.3-1.1,2.4-2.4,2.4h-4.5c-1.3,0-2.4-1.1-2.4-2.4V93.1c0-1.3,1.1-2.4,2.4-2.4h4.5
			C204.9,90.8,206,91.8,206,93.1z"/>
		<path class="st26" d="M224.1,93.4v14.7c0,1.3-1.1,2.4-2.4,2.4h-4.5c-1.3,0-2.4-1.1-2.4-2.4V93.4c0-1.3,1.1-2.4,2.4-2.4h4.5
			C223,91,224.1,92.1,224.1,93.4z"/>
		<path class="st26" d="M82.8,78.2v14.7c0,1.3-1.1,2.4-2.4,2.4H76c-1.3,0-2.4-1.1-2.4-2.4V78.2c0-1.3,1.1-2.4,2.4-2.4h4.5
			C81.7,75.8,82.8,76.9,82.8,78.2z"/>
		<path class="st26" d="M73.6,123.3v-14.7c0-1.3,1.1-2.4,2.4-2.4h4.5c1.3,0,2.4,1.1,2.4,2.4v14.7c0,1.3-1.1,2.4-2.4,2.4H76
			C74.7,125.6,73.6,124.6,73.6,123.3z"/>
		<line class="st27" x1="91.5" y1="100.7" x2="82.8" y2="115.8"/>
		<line class="st27" x1="109.7" y1="100.5" x2="100.7" y2="100.5"/>
		<line class="st27" x1="143.5" y1="99.8" x2="118.8" y2="100.5"/>
		<line class="st27" x1="82.8" y1="85.5" x2="91.4" y2="100.7"/>
		<path class="st26" d="M118.8,93.1v14.7c0,1.3-1.1,2.4-2.4,2.4h-4.5c-1.3,0-2.4-1.1-2.4-2.4V93.1c0-1.3,1.1-2.4,2.4-2.4h4.5
			C117.7,90.8,118.8,91.8,118.8,93.1z"/>
		<path class="st26" d="M100.7,93.4v14.7c0,1.3-1.1,2.4-2.4,2.4h-4.5c-1.3,0-2.4-1.1-2.4-2.4V93.4c0-1.3,1.1-2.4,2.4-2.4h4.5
			C99.6,91,100.7,92.1,100.7,93.4z"/>
		<path class="st28" d="M31.9,151.1c0,13.9,8.7,25.2,19.5,25.2"/>
		<path class="st3" d="M51.4,176.3c0-14.1,9.8-25.5,21.8-25.5"/>
		<path class="st3" d="M39,152.3c0,13.2,5.6,23.9,12.5,23.9"/>
		<path class="st28" d="M51.4,176.3c0-18,11.3-32.6,25.2-32.6"/>
		<ellipse class="st29" cx="50.6" cy="180.3" rx="4.9" ry="0.8"/>
		<path class="st30" d="M47.3,176.4c0,0,2.8-0.1,3.6-0.7c0.8-0.6,4.3-1.3,4.5-0.4s4.2,4.7,1,4.8c-3.1,0-7.3-0.5-8.1-1
			C47.5,178.7,47.3,176.4,47.3,176.4z"/>
		<path class="st15" d="M56.5,179.8c-3.1,0-7.3-0.5-8.1-1c-0.6-0.4-0.9-1.8-1-2.4h-0.1c0,0,0.2,2.2,1,2.7c0.8,0.5,5,1,8.1,1
			c0.9,0,1.2-0.3,1.2-0.8C57.5,179.7,57.2,179.8,56.5,179.8z"/>
		
			<linearGradient id="SVGID_1_" gradientUnits="userSpaceOnUse" x1="284.043" y1="-34.958" x2="284.043" y2="39.3634" gradientTransform="matrix(1 0 0 -1 -48.1 169.5667)">
			<stop  offset="0" style="stop-color:#808080;stop-opacity:0.25"/>
			<stop  offset="0.54" style="stop-color:#808080;stop-opacity:0.12"/>
			<stop  offset="1" style="stop-color:#808080;stop-opacity:0.1"/>
		</linearGradient>
		<path class="st31" d="M267.2,191.8l-7.7-11.1c0,0-0.1-2.8-0.6-3.4c-0.5-0.6-0.1-2.1-0.1-2.1s0.5-0.8,0.1-0.9
			c-0.5-0.1-0.1-1.8-0.1-1.8l0-2.8c0,0,0.4-2.7,0.1-3.3c-0.2-0.4-0.2-0.8,0-1.1c0,0,0.4-1.5,0-1.9c-0.4-0.4-0.3-2.8-0.2-4.7
			c0.1-1.9-0.8-3-0.8-3.3c0-0.3-2.8-3.1-2.8-3.3s-1.8-1.3-2.9-1.6c-1.1-0.3-1.6-0.5-1.6-0.6s-1.7-0.7-1.7-0.7s-1.5-0.1-2.1-0.9
			s-2.3-1-2.4-1c0,0,0-0.1,0-0.1l0-0.2c0.1-0.2,0.3-0.5,0.4-0.7l0.1-0.2c0.6,0,1.2-0.2,1.8-0.6c0.5-0.4,0.8-1.1,0.9-1.7
			c0-0.7-0.1-1.3-0.4-1.9c-0.3-0.6-0.8-1.3-0.6-2c0.1-0.3,0.2-0.6,0.3-0.9c0.1-0.6,0-1.2-0.3-1.7c-0.3-0.5-0.6-1-1-1.5
			c-0.4-0.6-0.6-1.4-0.8-2.1c0-0.4-0.1-0.8-0.3-1.1c-0.2-0.3-0.4-0.5-0.6-0.6c-1.1-0.8-2.5-1.2-3.9-1.2c-1,0-1.9,0.3-2.9,0.2
			c-0.6-0.1-1.2-0.3-1.7-0.4c-1.2-0.4-2.6-0.5-3.6,0.2s-1.5,2-2.2,3.1c-0.6,0.9-1.5,1.7-2,2.7c0,0,0,0,0-0.1
			c-0.1,0.2-0.2,0.5-0.3,0.7c-0.2,0.8,0,1.6,0.2,2.4c0.1,0.4,0.2,0.8,0.6,1.1c0.3,0.2,0.8,0.2,1.3,0.2c0,0.1,0,0.1,0,0.2
			c-0.9,4.2,1.6,8.3,5.7,9.6c0,0.1,0,0.1,0,0.2c0,0.2,0,0.4,0,0.6l0,0c0,0-3.6-0.7-4.6-0.2c-1,0.5-2.9,0.9-3.2,1.2
			c-0.3,0.3-1,0.1-1.7,1.8s-0.7,3.4-1.5,4.2c-0.8,0.8-1.3,1.3-1.3,1.9s0.1,0.7-0.2,0.9c-0.3,0.2-0.8,0.9-0.6,1.2
			c0,0,0.2,0.7-0.4,1.1c-0.3,0.2-0.5,0.7-0.5,1.1c0,0-0.2,0.8-0.7,1c-0.5,0.2-0.8,1.4-0.8,1.4l-1.6,1.9l-3.2-3.6
			c-0.5-0.6-1.4-0.6-1.9-0.1l-1.6,1.4c-0.6,0.1-1.2,0.5-1.6,0.9c-0.3,0.4-0.6,0.8-0.8,1.2l-0.9,0.8c-0.3,0.2-0.4,0.6-0.4,1
			c-0.2,0.5-0.1,1.1,0.2,1.5l2.1,2.3v0c-0.7,0.1-1.4,0.3-2,0.8c-3.1,2.7-3.1,5.2-2.7,6.4c0.5,1.2,4.4,5.5,4.4,5.5s2.3,3,5.5,4.5l0,0
			l0,0c-0.1,0.1-0.1,0.1-0.2,0.2l-0.1,0.1l0,0.1l-0.1,0.1l0,0.1l-0.1,0.1c0,0,0,0,0,0.1c0,0,0,0.1-0.1,0.1l0,0
			c0,0.1-0.1,0.1-0.1,0.2c0,0.1,0,0,0,0.1c0,0,0,0.1-0.1,0.1l0,0.1c0,0,0,0.1,0,0.1c0,0,0,0.1,0,0.1l0,0.2l0,0.1
			c0,0.1,0,0.2-0.1,0.3l0,0.1c0,0.1,0,0.1,0,0.2s0,0.1,0,0.1c0,0,0,0.1,0,0.2c0,0.1,0,0.1,0,0.1c0,0,0,0.1,0,0.2c0,0.1,0,0.1,0,0.1
			c0,0.1,0,0.2,0,0.3c-0.1,4.2,0.2,4.8,0.2,4.8s0.5,1.3,1.9,1.4c0.2,0,0.4,0,0.6,0c1.9-0.3,6.2-1.1,7.8-0.8c0.9,0.2,2.6-0.1,3.9-0.3
			l0.3-0.1l0.2,0.7l0.7-0.2l0.6,0.3l0.4,0.2c0.7,2.4,3.6,1.6,3.6,1.6l0.7,0.4l6.9,0.2c0.8,0.5,1.6,0.9,2.5,1.2
			c0.1,0,0.2,0.1,0.3,0.1c0.6,0.1,1.3,0.1,1.9,0c0.5,0,0.9,0,0.9,0s-0.1-1.9-0.2-4c2.6-0.1,5-0.3,6.4-0.5c3.7-0.6,5.2-4,5.8-5.8
			c0.2,0.7,0.3,1.5,0.4,2.2c0.2,0.7,0.3,1.3,0.6,1.9c0.2,0.5,0.5,1,0.8,1.4c2.7-0.9,1.1-2.3,0.5-2.9c-0.6-0.6,0.4-1.1,0.4-1.1
			s0.8-0.5,0.7-1s-0.1-1,2.3-0.9C267.3,193.8,267.2,191.8,267.2,191.8z M229.3,168.9c0,0.2,0.4,2.4,0.7,3c0.1,0.4,0.1,0.8,0.1,1.2
			c-1.4-0.1-3-0.2-3-0.2c0,0.1,0.1,0.1,0.1,0.2l-0.2-0.1c-0.1,0-0.2,0-0.3-0.1L229.3,168.9L229.3,168.9z M224,177.3l2.5,0.4l0.2,0
			c-0.1,0.4-0.1,0.8-0.1,1.2c0,0,0.1,0.1,0.1,0.1c0,0.2,0,0.4,0,0.6c0,0.2,1.2,0.6,2.6,1c0,0.1,0,0.1-0.1,0.2l0,0
			c-1.2-0.6-3.1-0.9-3.3-1.4s-6.5-2.7-6.5-2.7s-0.2-0.1-0.6-0.3l1.7,0.3l0.5,0C221.9,177,222.9,177.2,224,177.3L224,177.3z"/>
		<path class="st32" d="M259,193.4c0,0-1,6-6,6.9s-21.9,0.7-21.9,0.7s-9.6-1.4-13.1-9.5c-3.5-8.1-5.7-11.4-2.7-11.5
			c3-0.1,19.1,5.4,20,5.5C236.1,185.5,259.9,173.1,259,193.4z"/>
		<path class="st33" d="M259,193.4c0,0-1,6-6,6.9s-21.9,0.7-21.9,0.7s-9.6-1.4-13.1-9.5c-3.5-8.1-5.7-11.4-2.7-11.5
			c3-0.1,19.1,5.4,20,5.5C236.1,185.5,259.9,173.1,259,193.4z"/>
		<path class="st4" d="M213.8,200c0,0,0.5,1.3,1.9,1.4c0.2,0,0.4,0,0.6,0c1.9-0.3,6.2-1.1,7.7-0.8c0.9,0.2,2.6-0.1,3.8-0.3
			c0.8-0.2,1.4-0.3,1.4-0.3s-1.4-4.7-1.6-4.9c-0.2-0.2-6.4-3.9-6.4-3.9l-4.9-0.3l0,0c-0.7,0.1-1.3,0.5-1.7,1c-0.5,0.6-1,1.7-1,3.4
			C213.6,199.4,213.8,200,213.8,200z"/>
		<path class="st33" d="M213.8,200c0,0,0.5,1.3,1.9,1.4c-0.5-0.6-0.9-1.3-1.3-1.9l0-3.4c-0.2-1.9,0.5-3.8,1.9-5.1h0
			c0,0-2.6,0.2-2.7,4.3S213.8,200,213.8,200z"/>
		<path class="st5" d="M235.2,192.5l4.6-3.6l7.2-7.1c0,0-0.8,0-2-0.1c-0.3,0.2-1.1,0.8-1.1,1.5c0,0.9-1.9,0.1-2.9,0.6
			c-1,0.5-5.9,6.7-6.7,6.7c-0.9,0-1.5-0.4-1.9,0.2l0,0L235.2,192.5z"/>
		<path class="st5" d="M214.6,191.9c0.2,0.1,0.3,0.2,0.5,0.2c3.5,1.5,7.8,4.6,8.1,5.2c0.2,0.3,2.7,1.9,4.6,3
			c0.8-0.2,1.4-0.3,1.4-0.3s-1.4-4.7-1.6-4.9c-0.2-0.2-6.4-3.9-6.4-3.9l-4.9-0.3l0,0C215.6,191,215.1,191.4,214.6,191.9z"/>
		<path class="st32" d="M205,181.7c0.5,1.1,4.3,5.5,4.3,5.5s2.5,3.2,5.9,4.7s7.8,4.6,8.1,5.2c0.2,0.4,3,2,4.9,3.2l0.4,0.3l1,0.6
			l0.5,0.3c0,0,1.2-1,2.4-1.9c1.2-1,2.3-1.9,2.4-1.9c0-0.1,0.5-1.3,0.4-1.4c-0.1,0-0.3-0.5-0.7-1.1c-0.5-0.6-1.1-1.1-1.8-1.5
			c-1.6-0.7-2.3-2.4-2.3-2.4s-0.2-0.1-0.4-0.3c-0.5-0.3-1-0.6-1.6-0.7c-0.8-0.1-2.2-1.7-2.2-1.7s-1-0.6-1.4-1.5
			c-0.4-0.8-5.9-4.6-6.4-4.9l13.4,8.6l3.2,2.1l4.6-3.6l7.2-7.1c0,0-1,0-2.4-0.1c-3.5-0.2-9.7-0.4-10.5-0.2c-0.6,0.1-1.3,0.2-1.9,0.1
			c0,0-1.8,0.1-2.9-0.5c-1.2-0.6-3-0.9-3.2-1.4c-0.2-0.5-6.5-2.7-6.5-2.7s-8.6-4.5-11.6-1.8C204.5,178.1,204.5,180.6,205,181.7z"/>
		<path class="st34" d="M232.6,155.6l1.1,3.7l1.4,8.2l5.2,0.4l1.5-2.5l1.5-2.5c0,0,0.9-3.3,1.6-6.6c0.6-2.9,1-5.6,0.3-5.9
			c-0.6-0.3-1-1.2-1.2-2.3c0-0.1-0.1-0.3-0.1-0.4c-0.2-0.9-0.3-1.8-0.3-2.7c0,0-10.9-0.6-9.4,3.9c0.3,0.8,0.4,1.6,0.4,2.4
			c0,0.2,0,0.4,0,0.6C234.5,153.5,233.7,154.8,232.6,155.6z"/>
		<path class="st35" d="M230.3,155l0.4,6.2l0.9,5.3l1,2.5l0.9,13.4c0,0,8.6,1,10.7,0c0.1-0.1,0.3-0.2,0.4-0.3
			c2.5-3.8,1.7-14.8,1.7-14.8l1-7.1l-0.6-3.7l-1.5-0.2l-1.2-0.1c0,0-0.3,0.3-0.7,0.8c-1.1,1.4-3,4.1-2.9,5.3
			c0.2,1.6-0.2,3.2-0.8,3.4c-0.6,0.2-1.1,0.7-1.2,0.2s-0.2-0.5-0.1-1.1c0.1-0.6-0.5-2.5-0.5-2.5s-1-2.2-0.9-3.1
			c0.1-0.9-0.1-2-0.4-2.2c-0.3-0.2-0.7-0.5-0.4-1.6c0.3-1.1-1.4-3.3-1.4-3.3L230.3,155z"/>
		<path class="st5" d="M241.6,170.6l0.4,10.6l2.1,1.1c0.1-0.1,0.3-0.2,0.4-0.3c2.5-3.8,1.7-14.8,1.7-14.8l1-7.1l-0.6-3.7l-1.5-0.2
			c0.6-2.9,1-5.6,0.3-5.9c-0.6-0.3-1-1.2-1.2-2.3l0,0l-1.1,7.5c0,0,0.1,0.7,0.1,1.4c0,0.4,0,0.9-0.1,1.3c-0.2,0.6-0.1,1.8-0.1,1.8
			c-0.6,1.1-1,3.2-1.1,5.2C241.5,168,241.6,170.6,241.6,170.6z"/>
		<path class="st4" d="M244,147.9c0,0,1.8,0.2,2.4,1s2.1,0.9,2.1,0.9s1.7,0.6,1.7,0.7s0.5,0.4,1.6,0.6c1.1,0.3,2.8,1.3,2.8,1.6
			c0,0.2,2.8,3,2.8,3.3c0,0.3,0.9,1.4,0.7,3.2s-0.2,4.3,0.2,4.7c0.4,0.4,0,1.9,0,1.9c-0.2,0.3-0.2,0.8,0,1.1
			c0.4,0.6-0.1,3.3-0.1,3.3l0,2.8c0,0-0.4,1.7,0.1,1.8c0.5,0.1-0.1,0.9-0.1,0.9s-0.4,1.4,0.1,2.1c0.5,0.6,0.6,3.4,0.6,3.4l7.6,11.1
			c0,0,0.1,2-2.3,2c-2.4,0-2.4,0.5-2.3,0.9c0.1,0.5-0.7,1-0.7,1s-1,0.5-0.4,1.1s2.2,2-0.5,2.9c-0.3-0.4-0.6-0.9-0.8-1.4
			c-0.2-0.6-0.4-1.3-0.6-1.9c0,0-0.2-2.7-0.7-3.1c-0.5-0.3-0.4-2.1-0.4-2.1s0.7-1.4-0.3-2c-1-0.6-15.4-8.6-15.4-8.6l-0.4-10.6
			c0,0-0.2-7.9,1.2-10.5c0,0-0.2-1.1,0.1-1.8c0.2-0.6,0-2.7,0-2.7L244,147.9z"/>
		<path class="st5" d="M234.7,152.2c0,0-3.6-0.7-4.5-0.2c-1,0.5-2.8,0.9-3.1,1.2c-0.3,0.3-1,0.1-1.6,1.7c-0.6,1.7-0.7,3.4-1.5,4.2
			c-0.8,0.8-1.2,1.3-1.3,1.9s0.1,0.7-0.2,0.9c-0.3,0.2-0.8,0.9-0.6,1.2c0.1,0.3,7.4,6.5,7.4,6.5s0.4,2.4,0.7,3
			c0.3,0.6-0.4,8.9-1.1,9.5c-0.7,0.6,4.8,0.5,4.8,0.5s0.2-5.5,0.5-5.7s-0.1-6.1-0.1-6.1s0-5,0.4-6.3c0.5-1.3,0.4-5.7,0.4-5.7
			s0.4-2.6,0.9-3.2C236.1,154.9,234.7,152.2,234.7,152.2z"/>
		<path class="st4" d="M234.6,152.1c0,0-3.6-0.7-4.5-0.2c-1,0.5-2.8,0.9-3.1,1.2c-0.3,0.3-1,0.1-1.6,1.7c-0.6,1.7-0.7,3.4-1.5,4.2
			c-0.8,0.8-1.2,1.3-1.3,1.9c0,0.6,0.1,0.7-0.2,0.9c-0.3,0.2-0.8,0.9-0.6,1.2c0.1,0.3,7.4,6.6,7.4,6.6s0.4,2.4,0.7,3
			c0.3,0.6-0.4,8.9-1.1,9.5c-0.7,0.6,4.8,0.5,4.8,0.5s0.2-5.5,0.5-5.7s-0.1-6.1-0.1-6.1s0-5,0.4-6.3c0.5-1.3,0.4-5.7,0.4-5.7
			s0.4-2.6,0.9-3.2C236,154.7,234.6,152.1,234.6,152.1z"/>
		<path class="st5" d="M234.3,149.1c0.3,0.8,0.4,1.6,0.4,2.4c3.6,1.1,7.5-0.5,9.4-3.7c-0.2-0.9-0.3-1.8-0.3-2.7
			C243.7,145.1,232.7,144.5,234.3,149.1z"/>
		<path class="st34" d="M228.8,143.4c0,4.5,3.6,8.1,8.1,8.1c4.5,0,8.1-3.6,8.1-8.1c0-4.5-3.6-8.1-8.1-8.1c-3.8,0-7.2,2.7-8,6.5
			C228.9,142.3,228.8,142.9,228.8,143.4z"/>
		<path class="st4" d="M223.6,162.3l-1.9,0.6c0,0,0.2,0.7-0.4,1.1c-0.3,0.2-0.5,0.6-0.5,1.1c0,0-0.2,0.8-0.7,1
			c-0.5,0.2-0.8,1.4-0.8,1.4l-1.6,1.9c0,0-0.6,0.5-0.5,0.7s-0.6,0.3-0.6,0.3l0.4,6.3l3.4,0.6l2.1-0.2l1.7-0.6l1.5-0.9l0.7-1.7l3-4.5
			L223.6,162.3z"/>
		<path class="st34" d="M217,170.8c0,0-4.3-6.3-7.6-2.9c-3.2,3.4,1.3,8.9,2.4,8.7c1.1-0.2,6.1-0.5,6.1-0.5L217,170.8z"/>
		<path class="st4" d="M207.9,158.2l19.5,9.9c0.2,0.1,0.3,0.4,0.2,0.6l-7.6,14.9c-0.1,0.2-0.4,0.3-0.6,0.2l-19.5-9.9
			c-0.2-0.1-0.3-0.4-0.2-0.6l7.6-14.9C207.4,158.2,207.7,158.1,207.9,158.2z"/>
		
			<rect x="206.4" y="161.5" transform="matrix(0.4546 -0.8907 0.8907 0.4546 -35.8126 283.5488)" class="st3" width="14.4" height="19.1"/>
		<circle class="st36" cx="204.5" cy="166.3" r="0.3"/>
		<circle class="st36" cx="222.9" cy="175.8" r="0.5"/>
		<path class="st34" d="M214.2,172.1c0,4.7,9.7,5.7,9.7,5.7l2.5,0.4l1.1,0.2l0.5-4.6c0,0-0.5-0.1-1.1-0.2c-0.9-0.2-2.2-0.6-2.4-1.1
			C223.9,171.5,214.2,167.4,214.2,172.1z"/>
		<path class="st5" d="M229,141.8c0.2,0,0.4,0.1,0.6,0.3c0.3,0.3,0.3,0.8,0.6,1c0.1,0.1,0.3,0.1,0.4,0c0.9-0.1,1.5-1.2,2.4-1.5
			c0.5-0.1,1.1-0.1,1.6,0.1c0.2,0.1,0.4,0.2,0.5,0.3c0.3,0.4,0.1,1,0.2,1.4c0.2,0.7,1,0.9,1.7,1s1.5,0.1,1.9,0.6
			c0.3,0.4,0.4,0.9,0.3,1.4c0,0.2,0,0.3,0,0.5c0.2,0.5,1.1,0.5,1.4,0c0.2-0.3,0.1-0.6,0.5-0.6c0.3,0,0.6,0,0.9,0.1
			c0.7,0.2,1.5,0.4,2.2,0.3c1.9-4.1,0.2-8.9-3.9-10.8s-8.9-0.2-10.8,3.9C229.4,140.6,229.2,141.2,229,141.8L229,141.8z"/>
		<path class="st4" d="M239.3,146.8c0-0.2,0-0.3,0-0.5c0.1-0.5,0-1-0.3-1.4c-0.5-0.5-1.2-0.6-1.9-0.6c-0.7-0.1-1.5-0.3-1.7-1
			c-0.1-0.5,0.1-1.1-0.2-1.4c-0.1-0.2-0.3-0.3-0.5-0.3c-0.5-0.2-1.1-0.3-1.6-0.1c-0.9,0.3-1.5,1.4-2.4,1.5c-0.1,0-0.3,0-0.4,0
			c-0.4-0.2-0.4-0.7-0.6-1c-0.4-0.5-1.3-0.2-1.8-0.5c-0.3-0.2-0.5-0.7-0.6-1.1c-0.2-0.8-0.3-1.6-0.2-2.4c0.3-1.3,1.5-2.2,2.2-3.4
			c0.7-1.1,1.1-2.4,2.2-3.1c1-0.7,2.4-0.5,3.6-0.2c0.5,0.2,1.1,0.3,1.7,0.4c1,0.1,1.9-0.1,2.9-0.2c1.4,0,2.7,0.4,3.8,1.2
			c0.3,0.2,0.5,0.4,0.6,0.6c0.2,0.4,0.3,0.7,0.3,1.1c0.1,0.7,0.4,1.4,0.8,2.1c0.3,0.5,0.7,1,0.9,1.5c0.3,0.5,0.4,1.1,0.3,1.7
			c-0.1,0.3-0.3,0.6-0.3,0.9c-0.2,0.7,0.3,1.4,0.6,2c0.3,0.6,0.4,1.2,0.4,1.9c0,0.7-0.3,1.3-0.9,1.7c-0.5,0.4-1.2,0.6-1.8,0.6
			c-0.8,0-1.6-0.1-2.3-0.4c-0.3-0.1-0.6-0.2-0.9-0.1c-0.4,0.1-0.4,0.3-0.5,0.6C240.5,147.3,239.5,147.3,239.3,146.8z"/>
		<path class="st5" d="M235,192.7l4.6-3.6l7.2-7.1c0,0-1,0-2.4-0.1c-0.3,0.3-0.5,0.6-0.5,1c0,0.9-1.9,0.1-2.9,0.6
			c-1,0.5-5.9,6.7-6.7,6.7c-0.9,0-1.5-0.4-1.9,0.2l0,0c-0.1,0.2-0.3,0.3-0.6,0.3L235,192.7z"/>
		<path class="st32" d="M225.7,192.5l2.3,7.4l0.4,1.2l1.1-0.3l2.4-0.7l10.8-3c1.4-0.1,2.7-0.4,3.9-1c2-1.1,4.4-1.6,6.7-1.5
			c1.4,0.1,3-0.5,4.3-2.9c0,0,3-8.8-4.6-11.3c-7.5-2.5-7.9,1.3-7.9,1.3l-0.1,0.1c-0.3,0.2-1.1,0.8-1.1,1.5c0,0.9-1.9,0.1-2.9,0.6
			c-1,0.5-5.9,6.7-6.7,6.7c-0.9,0-1.5-0.4-1.9,0.2l0,0c-0.3,0.4-1.1,0.4-1.6,0.5c-0.3,0-0.5,0-0.5,0l-0.1,0l-0.6,0.2L225.7,192.5z"
			/>
		<path class="st5" d="M226.3,178.2l1.1,0.2l0.5-4.6c0,0-0.5-0.1-1.1-0.2C226.9,174.2,226.5,176.7,226.3,178.2z"/>
		<path class="st5" d="M255.4,156.7c0,0,3.3-1,2.5,8.4c-0.8,9.4-6.9,15.3-6.9,15.3s-7,3.1-10.2,2.6c-1.8-0.3-3.6-0.5-5.5-0.6
			c-1-0.5-2.1-0.8-3.2-0.9c-1.8-0.1-5.5-1.2-5.6-1.5c-0.1-0.4,0.9-5.6,0.5-6c0,0,5,0.2,5.5,0.6c0.5,0.3,1.2,0.1,1.7,0
			s2.2-1.5,5.4-0.3c0,0,1.1,0.1,1.5-0.2c0.4-0.3,1.1-0.1,1.1-0.1c0.3-0.1,0.5-0.2,0.8-0.4c0.1-0.1,1,0,1,0c0.2,0.1,0.4,0,0.5-0.2
			c0,0,0-0.1,0-0.1c0.1-0.3,0.3-0.6,0.5-0.8c0,0,1-5.4,2.8-7.4c0,0,0.5-0.5,0.4-1C248,163.7,251.1,155.6,255.4,156.7z"/>
		<path class="st4" d="M255.3,156c0,0,3.3-1,2.5,8.4c-0.8,9.4-6.9,15.3-6.9,15.3s-7,3.1-10.2,2.6c-3.2-0.5-5.5-0.6-5.5-0.6
			c-1-0.5-2.1-0.8-3.2-0.9c-1.8-0.1-5.5-1.2-5.6-1.5c-0.1-0.4,0.9-5.6,0.5-6c0,0,5,0.2,5.5,0.6c0.5,0.3,1.2,0.1,1.7,0
			s2.2-1.5,5.4-0.3c0,0,1.1,0.1,1.5-0.2c0.4-0.3,1.1-0.1,1.1-0.1c0.3-0.1,0.5-0.2,0.8-0.4c0.1-0.1,1,0,1,0c0.2,0.1,0.4,0,0.5-0.2
			c0,0,0-0.1,0-0.1c0.1-0.3,0.3-0.6,0.5-0.8c0,0,1-5.4,2.8-7.4c0,0,0.5-0.5,0.4-1C247.9,163,251,154.9,255.3,156z"/>
		<path class="st5" d="M229.6,191.3l4.7,5.7c0,0,0,0,0,0c0-0.1,0.5-1.3,0.4-1.4c-0.1-0.1-0.9-1.9-2.6-2.6c-0.8-0.4-1.5-1-2-1.8
			L229.6,191.3z"/>
		<path class="st5" d="M229.7,201.1l0.5,0.3c0,0,1.2-1,2.4-1.9c1.2-1,2.3-1.9,2.4-1.9c0-0.1,0.5-1.3,0.4-1.4c-0.1,0-0.3-0.5-0.7-1.1
			c-3.2-0.9-1.2,1.3-0.9,1.4c0,0-3.9-0.9-4.1,3.3C229.6,200.3,229.6,200.7,229.7,201.1z"/>
		<path class="st4" d="M233.6,202.9l0.7,0.4l6.9,0.2c0.8,0.5,1.6,0.9,2.4,1.2c0.1,0,0.2,0.1,0.3,0.1c0.6,0,1.3,0.1,1.9,0
			c0.5,0,0.9,0,0.9,0s-0.3-8.7-0.6-9.6c-0.1-0.4-0.7-0.3-1.3-0.1c-0.4,0.2-0.8,0.4-1.2,0.6c0,0-2.9,0.3-3.4,0.5s-1.8-0.1-2.6,0
			c-0.8,0.1-2.3-1-2.3-1c-4-1.3-1.7,1.1-1.5,1.2c0,0-3.9-0.9-4.1,3.3S233.6,202.9,233.6,202.9z"/>
		<path class="st37" d="M243.5,199.6c0.1,1.8,1.5,4,2.3,5.2c0.5,0,0.9,0,0.9,0s-0.3-8.7-0.6-9.6c-0.1-0.4-0.7-0.3-1.3-0.1
			C244.2,196.3,243.5,198.1,243.5,199.6z"/>
		<path class="st5" d="M243.5,199.6c0.1,1.8,1.5,4,2.3,5.2c0.5,0,0.9,0,0.9,0s-0.3-8.7-0.6-9.6c-0.1-0.4-0.7-0.3-1.3-0.1
			C244.2,196.3,243.5,198.1,243.5,199.6z"/>
		<path class="st33" d="M242.4,199.8c0.5,1.7,0.5,3.7,1.2,4.8c0.1,0,0.2,0.1,0.3,0.1c0.6,0,1.3,0.1,1.9,0c0.5,0,0.9,0,0.9,0
			s-0.3-8.7-0.6-9.6c-0.1-0.4-0.7-0.3-1.3-0.1c-0.4,0.2-0.8,0.4-1.2,0.6C243.7,195.7,241.8,197.6,242.4,199.8z"/>
		<path class="st5" d="M218.7,182.3c0,0,3.4,1.1,6.3,5L218.7,182.3z"/>
		<g class="st22">
			<path d="M246.4,139.6C246.4,139.6,246.4,139.7,246.4,139.6c-0.1,0.2-0.1,0.3-0.1,0.4C246.3,139.9,246.3,139.7,246.4,139.6z"/>
			<path d="M227.1,137.9c0.1-0.2,0.2-0.5,0.3-0.7c0,0.1,0,0.1-0.1,0.2c-0.2,0.8,0,1.6,0.2,2.4c0.1,0.4,0.2,0.8,0.6,1.1
				c0.5,0.3,1.3,0,1.8,0.5c0.3,0.3,0.3,0.8,0.6,1c0.1,0.1,0.3,0.1,0.4,0c0.9-0.1,1.5-1.2,2.4-1.5c0.5-0.1,1.1-0.1,1.6,0.1
				c0.2,0.1,0.4,0.2,0.5,0.3c0.3,0.4,0.1,1,0.2,1.4c0.2,0.7,1,0.9,1.7,1c0.7,0.1,1.5,0.1,1.9,0.6c0.3,0.4,0.4,0.9,0.3,1.4
				c0,0.2,0,0.3,0,0.5c0.2,0.5,1.1,0.5,1.4,0c0.2-0.3,0.1-0.6,0.5-0.6c0.3,0,0.6,0,0.9,0.2c0.7,0.3,1.5,0.4,2.3,0.3
				c0.6,0,1.3-0.2,1.8-0.6c0.2-0.2,0.4-0.4,0.6-0.7c-0.1,0.5-0.4,0.9-0.8,1.2c-0.5,0.4-1.2,0.6-1.8,0.6c-0.8,0-1.6-0.1-2.3-0.4
				c-0.3-0.1-0.6-0.2-0.9-0.1c-0.4,0.1-0.4,0.3-0.5,0.6c-0.2,0.4-1.2,0.5-1.4,0c0-0.2,0-0.3,0-0.5c0.1-0.5,0-1-0.3-1.4
				c-0.5-0.5-1.2-0.6-1.9-0.6s-1.5-0.3-1.7-1c-0.1-0.5,0.1-1.1-0.2-1.4c-0.1-0.2-0.3-0.3-0.5-0.3c-0.5-0.2-1.1-0.3-1.6-0.1
				c-0.9,0.3-1.5,1.4-2.4,1.5c-0.1,0-0.3,0-0.4,0c-0.4-0.2-0.4-0.7-0.6-1c-0.4-0.5-1.3-0.2-1.8-0.5c-0.3-0.2-0.5-0.7-0.6-1.1
				C227.1,139.5,226.9,138.7,227.1,137.9z"/>
		</g>
		<path class="st5" d="M246.9,166.3c-0.7,0.9-1.4,1.7-2,2.6c-0.6,0.9-1,2-0.9,3.1c0.6-0.6,0.9-1.5,1.2-2.2c0.6-1.3,1.6-2.4,2.4-3.6
			c0.2-0.2,1.1-1.5,0.6-1.6C248,164.6,247.2,166,246.9,166.3z"/>
	</g>
</g>
</svg>
