<?xml version="1.0" encoding="utf-8"?>
<!-- Generator: Adobe Illustrator 22.0.1, SVG Export Plug-In . SVG Version: 6.00 Build 0)  -->
<svg version="1.1" id="ab82d996-d758-4a94-9ad9-9e4bd5f70489"
	 xmlns="http://www.w3.org/2000/svg" xmlns:xlink="http://www.w3.org/1999/xlink" x="0px" y="0px" viewBox="0 0 1677.6 1063.3"
	 style="enable-background:new 0 0 1677.6 1063.3;" xml:space="preserve">
<style type="text/css">
	.st0{opacity:0.5;fill:#FFEFD2;}
	.st1{opacity:0.7;}
	.st2{fill:#BBBBBB;}
	.st3{opacity:0.7;fill:#BBBBBB;}
	.st4{fill:#222222;}
	.st5{fill:none;stroke:#3F3D56;stroke-width:3.8704;stroke-miterlimit:10;}
	.st6{fill:#57B793;}
	.st7{opacity:0.1;enable-background:new    ;}
	.st8{fill:#656380;}
	.st9{opacity:0.2;enable-background:new    ;}
	.st10{fill:#F7941E;}
	.st11{opacity:5.000000e-02;enable-background:new    ;}
	.st12{fill:#444444;}
	.st13{fill:#FFC0C6;}
	.st14{fill:#605D82;}
	.st15{fill:#333333;}
	.st16{fill:#3F3D56;}
	.st17{fill:#E6E6E6;}
	.st18{fill:#6D6E71;}
	.st19{fill:#FFFFFF;}
</style>
<path class="st0" d="M1522.2,961.1c54.6-207.2,3.5-424.8-119.2-581.6L354.8,658.7l995.7-339c-497-484-1291.3-24.3-1126.9,643.8
	L1522.2,961.1z"/>
<g class="st1">
	<path class="st2" d="M288.1,404.5c-7.7,5.8-16.9,10.3-27.8,13.4c-10.9,3.1-21.7,4.7-32.6,4.7c-17.7,0-33-3.2-45.7-9.7
		c-12.8-6.4-22.6-15.6-29.4-27.6c-6.8-12-10.3-26.1-10.3-42.4c0-15.7,3.3-29.6,9.8-41.7c6.5-12.1,15.6-21.5,27-28.4
		c11.5-6.8,24.8-10.3,39.9-10.3c14.7,0,27.4,3.2,38.2,9.7c10.8,6.4,19.1,15.6,24.9,27.5c5.8,11.9,8.8,25.9,8.8,42v7.2H190.6
		l0.6-25.4h66.7l-13.3,8.8c0-10.9-2.1-19-6.2-24.3c-4.1-5.3-10.1-8-18-8c-8.7,0-15.2,3.2-19.8,9.5c-4.5,6.3-6.8,16-6.8,28.8
		c0,15.9,2.9,27.2,8.8,34c5.8,6.7,15.1,10.1,27.8,10.1c7.6,0,15.3-1.3,23.1-3.8c7.7-2.5,14.6-6,20.7-10.4L288.1,404.5z"/>
	<path class="st2" d="M316.2,420.2V310.9c0-7.2-0.2-14.6-0.5-22c-0.3-7.4-1-14.8-2-22h51.3l3.6,29l-3.6-2.4
		c4.4-9.7,11-17.2,19.8-22.6s19.2-8.2,31.3-8.2c13.7,0,24.6,3.6,32.8,10.7c8.2,7.1,13.5,17.8,16.2,31.9l-7.2-9.7
		c5-9.9,12.3-17.8,21.9-23.9c9.6-6,20.2-9.1,31.9-9.1c17.9,0,31.1,5.5,39.6,16.5c8.5,11,12.7,27.5,12.7,49.7v91.5h-54.7v-90
		c0-8.9-1.3-15.3-3.9-19.5c-2.6-4.1-7.2-6.2-13.9-6.2c-7.7,0-13.6,2.8-17.8,8.5c-4.2,5.6-6.3,13.6-6.3,23.9v83.3h-54.7v-90
		c0-8.9-1.4-15.3-4.1-19.5c-2.7-4.1-7.3-6.2-13.7-6.2c-7.7,0-13.5,2.8-17.7,8.5c-4.1,5.6-6.2,13.6-6.2,23.9v83.3H316.2z"/>
	<path class="st2" d="M595.5,485.4V310.9c0-7.2-0.2-14.6-0.5-22c-0.3-7.4-1-14.8-2-22h51.3l3.6,28.7l-1.8-1.8
		c3.2-9.3,9.5-16.8,18.7-22.5c9.3-5.7,19.8-8.6,31.7-8.6c13.3,0,25,3.4,35.2,10.3c10.2,6.8,18.2,16.4,24,28.5
		c5.8,12.2,8.8,26.3,8.8,42.4c0,15.9-2.9,29.8-8.8,41.7c-5.8,11.9-13.8,21-24,27.5c-10.2,6.4-21.9,9.7-35.2,9.7
		c-11.9,0-22.4-2.7-31.7-8.2c-9.3-5.4-15.5-12.9-18.7-22.3l3.9-6.9v100.2H595.5z M680,381.8c9.9,0,17.3-3.3,22.3-9.8
		c5-6.5,7.5-16,7.5-28.2c0-12.7-2.6-22.5-7.7-29.4c-5.1-6.9-12.5-10.4-22.2-10.4c-9.9,0-17.4,3.3-22.6,10
		c-5.2,6.6-7.9,16.4-7.9,29.3c0,12.5,2.6,22,7.9,28.7C662.6,378.5,670.2,381.8,680,381.8z"/>
	<path class="st2" d="M773,306.9v-40.2h120.2v40.2H773z M893.5,376.7V418c-4.6,1.8-9.3,3-13.9,3.6c-4.6,0.6-9.5,0.9-14.5,0.9
		c-21.1,0-37-5.9-47.6-17.8c-10.6-11.9-15.9-28-15.9-48.3V232l54.7-17.5v141.9c0,5,1.1,9.2,3.2,12.5s4.9,5.7,8.3,7.2
		c3.4,1.5,7.1,2.3,11.2,2.3c2,0,4.2-0.2,6.5-0.5C887.8,377.7,890.5,377.3,893.5,376.7z"/>
	<path class="st2" d="M968.1,433.1l-72.8-166.4h56.8l39.3,101.2L968.1,433.1z M918.9,489l-12.7-41.7c9.5-1.8,17.3-4,23.4-6.6
		c6.1-2.6,11.1-5.8,14.9-9.5c3.8-3.7,6.9-8.1,9.4-13.1l12.7-27.8l14.8-22.3l40.8-101.2h53.7l-70.4,158.8c-6.4,14.7-14,26.4-22.6,35
		c-8.7,8.7-18.3,15.2-29,19.6C943.2,484.7,931.5,487.6,918.9,489z"/>
</g>
<title>deliveries</title>
<g>
	<path class="st3" d="M1093,656l7.2-4.5c0.7-0.4,1.4-0.9,2.1-1.3c-31.9-5.5-55.8-32.5-57.3-64.8c-0.5-10.8,1.5-21.6,6-31.4
		c8.4-18.7,24.6-32.7,44.3-38.2l-0.4,28.4l15.6-31c0.1,0,0.1,0,0.2,0c38.1-1.8,70.4,27.7,72.2,65.7c0,0,0,0,0,0c0.1,1.3,0,2.6,0,3.9
		c5.4-6.2,10.4-12.8,13.6-20.1c6.6-14.8,6.8-31.5,6.2-51.8c-1-40.3-2.8-80.8-5-121.2c-33.7-3.7-59.7-31.4-61.3-65.3
		c-0.1-2.1-0.1-4.2,0-6.3c0-0.5,0-1,0.1-1.5c0.1-2,0.3-4,0.6-5.9c0-0.3,0.1-0.6,0.2-1c0.3-1.7,0.6-3.3,1-4.9
		c0.2-0.6,0.3-1.2,0.5-1.8c0.5-1.8,1-3.5,1.6-5.2c0.2-0.6,0.4-1.1,0.7-1.7c0.5-1.3,1-2.5,1.6-3.7c0.3-0.6,0.6-1.3,0.9-1.9
		c0.1-0.2,0.1-0.3,0.2-0.5l0,0c15-29.7,49.1-44.4,81-35l-0.5,37l15.5-30.6c26.1,14.9,39.4,45.1,32.9,74.4h0.1
		c-0.1,0.5-0.3,1-0.4,1.5c-0.2,0.9-0.4,1.8-0.7,2.7c-0.3,1.2-0.7,2.3-1.1,3.4c-0.3,0.8-0.6,1.7-0.9,2.5c-0.5,1.2-1,2.4-1.5,3.6
		c-0.3,0.7-0.6,1.4-1,2.1c-0.9,1.8-1.9,3.5-2.9,5.2c-0.4,0.6-0.8,1.2-1.1,1.7c-0.7,1.1-1.5,2.3-2.3,3.4c-0.5,0.7-1,1.3-1.5,2
		c-0.8,1-1.5,1.9-2.3,2.8c-0.6,0.6-1.2,1.3-1.8,1.9c-0.8,0.9-1.7,1.8-2.6,2.6c-0.6,0.6-1.2,1.1-1.8,1.7c-1,0.9-2.1,1.8-3.2,2.6
		c-0.5,0.4-1.1,0.9-1.6,1.3c-1.6,1.2-3.3,2.4-5.1,3.4c-0.3,0.2-0.7,0.4-1,0.6c-1.5,0.9-2.9,1.7-4.5,2.4c-0.6,0.3-1.3,0.6-2,0.9
		c-1.2,0.6-2.5,1.1-3.8,1.6c-0.7,0.3-1.5,0.5-2.3,0.8c-1.3,0.4-2.6,0.8-3.9,1.2c-0.8,0.2-1.5,0.4-2.3,0.6c-1.4,0.3-2.9,0.6-4.3,0.9
		c-0.1,0-0.2,0-0.3,0.1c1,17.1,1.8,34.1,2.5,51.2c16.7-34.3,58-48.5,92.2-31.8c1.2,0.6,2.4,1.2,3.6,1.9l-12.2,33.4l25.1-24.1
		c13.4,12.3,21.4,29.5,22.3,47.7c0.3,6.4-0.3,12.8-1.8,19c-8.7,37.1-45.8,60.1-82.9,51.5c-18.5-4.3-34.5-16.2-44-32.7
		c0,1.7,0.1,3.5,0.2,5.2c0.5,17.9,1,40.2-7.9,60.1c-6,13.5-15.8,24.5-25.4,34.3c-6.3,6.4-12.8,12.6-19.4,18.6
		c-6.5,8.8-15.1,15.9-24.9,20.7c-10.9,8.4-22.3,16.3-34,23.7l-7.1,4.6c-6.6,4.1-13.3,8.3-19.9,12.6c1.2-0.1,2.3-0.2,3.5-0.3
		c30-1.4,57.5,16.8,68,44.9l-43.1,35.1l47.4-11c0,38.1-31,69-69.1,69c-10.3,0-20.5-2.3-29.8-6.8c1.1,1.3,2.1,2.7,3.2,4
		c2.1,2.6,4.2,5.3,6.3,7.9c28.1,35.5,35.9,69.3,22,95l-16.9-9.1c13.5-25-6.8-57.1-20.2-74c-2-2.6-4.1-5.1-6.2-7.7
		c-17.9-22.3-38.2-47.5-37.7-78.5C1011.2,706.7,1056.6,678.6,1093,656z"/>
	<ellipse class="st4" cx="872.6" cy="912.7" rx="440.7" ry="20.3"/>
	<path class="st5" d="M1228.6,905.1c2.9-5.3-0.4-11.9-4.1-16.6c-3.8-4.8-8.3-9.7-8.2-15.8c0.1-8.7,9.4-13.8,16.8-18.5
		c5.5-3.4,10.5-7.5,15-12.1c1.9-1.8,3.5-3.9,4.6-6.2c1.5-3.4,1.5-7.3,1.4-11c-0.3-12.4-0.9-24.8-1.8-37.2"/>
	<path class="st6" d="M1266.3,787c-0.2-4.6-2.8-8.8-6.8-11.1l-3,6l0.1-7.3c-7.2-2.1-14.7,1.9-16.9,9.1c-0.4,1.5-0.6,3-0.6,4.6
		c0.4,7.5,6.7,13.3,14.2,12.9C1260.8,800.9,1266.6,794.5,1266.3,787L1266.3,787L1266.3,787z"/>
	<path class="st6" d="M1242.1,879c-3.4,6.7-11.6,9.3-18.2,5.8s-9.3-11.6-5.8-18.2c3.4-6.7,11.6-9.3,18.2-5.8c3,1.5,5.3,4.2,6.5,7.3
		l-8.5,6.9l9.3-2.2C1243.6,874.9,1243.1,877,1242.1,879z"/>
	<path class="st6" d="M1235.4,852.6c-7.5,0.4-13.8-5.4-14.2-12.9c0,0,0,0,0-0.1c-0.1-2.1,0.3-4.2,1.2-6.2c1.6-3.7,4.8-6.4,8.7-7.5
		l-0.1,5.6l3.1-6.1l0,0c7.5-0.4,13.9,5.4,14.2,12.9C1248.6,845.8,1242.8,852.2,1235.4,852.6L1235.4,852.6z"/>
	<path class="st6" d="M1268.3,830.6c-7.5,0.4-13.8-5.4-14.2-12.9c-0.4-7.5,5.4-13.8,12.9-14.2c2.5-0.1,5.1,0.5,7.3,1.7l-2.4,6.6
		l4.9-4.7c2.6,2.4,4.2,5.8,4.4,9.4c0.1,1.3-0.1,2.5-0.3,3.7C1279.5,826.1,1274.4,830.3,1268.3,830.6z"/>
	<path class="st7" d="M1264.5,790.6c-3.1,0.3-6.2,1.3-9.3,1.5s-6.6-0.6-8.6-3c-1.1-1.3-1.6-3-2.5-4.4c-0.9-1.3-2-2.4-3.4-3.2
		c-3.2,6.7-0.4,14.8,6.4,18.1c6.7,3.2,14.8,0.4,18.1-6.4c0.4-0.9,0.7-1.8,0.9-2.7C1265.5,790.5,1265,790.6,1264.5,790.6z"/>
	<path class="st7" d="M1268.3,830.6c-7.5,0.4-13.8-5.4-14.2-12.8c-0.1-2.2,0.3-4.5,1.3-6.5c1.1,0.7,2,1.7,2.7,2.7
		c1,1.5,1.5,3.1,2.7,4.5c2.1,2.5,5.7,3.3,9,3.1c3.3-0.2,6.4-1.1,9.7-1.4c0.4,0,0.9-0.1,1.4-0.1
		C1279.5,826,1274.4,830.3,1268.3,830.6z"/>
	<path class="st7" d="M1235.4,852.6c-7.5,0.4-13.8-5.4-14.2-12.9c0,0,0,0,0-0.1c-0.1-2.1,0.3-4.2,1.2-6.2c1.1,0.7,2.1,1.7,2.9,2.8
		c1.1,1.5,1.7,3.2,2.9,4.6c2.3,2.6,6.1,3.5,9.6,3.4c3.5-0.1,6.6-0.9,9.9-1.2C1246,848.5,1241.1,852.3,1235.4,852.6z"/>
	<path class="st7" d="M1242.1,879c-3.1,6.8-11.1,9.9-17.9,6.8c-6.8-3.1-9.9-11.1-6.8-17.9c1.1,0.7,2.1,1.6,3,2.7
		c1.3,1.6,2.1,3.4,3.6,4.8c2.8,2.7,7.3,3.9,11.2,3.9C1237.5,879.3,1239.8,879.2,1242.1,879z"/>
	<path class="st8" d="M1208.2,898.9c0,0,10.7-0.3,13.9-2.6c3.2-2.3,16.4-5.1,17.3-1.4c0.8,3.7,16.1,18.4,4,18.4
		c-12.1,0.1-28.1-1.9-31.3-3.9C1208.8,907.6,1208.2,898.9,1208.2,898.9z"/>
	<path class="st9" d="M1243.6,912.1c-12.1,0.1-28.1-1.9-31.3-3.9c-2.4-1.5-3.4-6.9-3.8-9.3h-0.4c0,0,0.7,8.6,3.9,10.6
		s19.2,3.9,31.3,3.9c3.5,0,4.7-1.3,4.6-3.1C1247.6,911.4,1246.2,912.1,1243.6,912.1z"/>
	<path class="st5" d="M619.9,875.2c-7-13,1-28.9,10.1-40.5c9.1-11.6,20.3-23.6,20.1-38.4c-0.3-21.2-22.9-33.8-40.9-45
		c-13.4-8.4-25.7-18.3-36.7-29.5c-4.4-4.5-8.7-9.3-11.3-15.1c-3.7-8.3-3.6-17.7-3.4-26.8c0.8-30.3,2.3-60.6,4.5-90.8"/>
	<path class="st6" d="M528.2,587.4c0.5-11.3,6.8-21.5,16.5-27.1l7.4,14.7l-0.2-17.7c17.5-5.2,36,4.9,41.1,22.4
		c5.2,17.5-4.9,36-22.4,41.1c-17.5,5.2-36-4.9-41.1-22.4C528.4,594.8,528,591.1,528.2,587.4L528.2,587.4z"/>
	<path class="st6" d="M587.2,811.5c8.3,16.3,28.3,22.7,44.5,14.3c10.5-5.4,17.4-16,17.9-27.9c0.2-4.6-0.5-9.2-2.2-13.4
		c-6.6-17.1-25.7-25.6-42.8-19c-8.9,3.4-15.8,10.5-19.1,19.3l20.7,16.8l-22.7-5.3C583.5,801.6,584.8,806.8,587.2,811.5z"/>
	<path class="st6" d="M603.5,747.2c18.3,0.8,33.8-13.3,34.6-31.6c0.7-15.4-9.3-29.2-24.1-33.4l0.2,13.6l-7.5-14.8h-0.1
		c-18.3-0.9-33.8,13.3-34.6,31.5S585.3,746.3,603.5,747.2L603.5,747.2L603.5,747.2z"/>
	<path class="st6" d="M523.2,693.7c18.3,0.9,33.8-13.2,34.7-31.5c0.9-18.3-13.2-33.8-31.5-34.7c-6.2-0.3-12.4,1.2-17.9,4.2l5.8,16
		l-12-11.6c-6.5,5.9-10.3,14.1-10.7,22.9c-0.2,3.1,0.1,6.1,0.8,9.1C495.8,682.6,508.4,693,523.2,693.7z"/>
	<path class="st7" d="M532.6,596.2c7.6,0.8,15.1,3.2,22.7,3.7s16.1-1.4,20.9-7.3c2.6-3.2,3.9-7.3,6.1-10.8c2.1-3.3,5-6,8.3-7.8
		c8.2,16.3,1.6,36.2-14.7,44.5c-16.3,8.2-36.2,1.6-44.5-14.7c-1.2-2.5-2.2-5.1-2.8-7.8C530.1,596,531.4,596.1,532.6,596.2z"/>
	<path class="st7" d="M523.2,693.7c18.3,0.8,33.8-13.3,34.6-31.6c0.2-5.4-0.8-10.8-3.1-15.6c-2.6,1.8-4.9,4-6.7,6.7
		c-2.4,3.6-3.8,7.7-6.6,10.9c-5.2,6.1-14,8-22,7.7c-8-0.4-15.7-2.6-23.7-3.4c-1.1-0.1-2.2-0.2-3.3-0.2
		C495.9,682.6,508.4,693,523.2,693.7z"/>
	<path class="st7" d="M603.5,747.2c18.3,0.9,33.8-13.3,34.6-31.5c0.2-5.2-0.7-10.4-2.9-15.1c-2.7,1.8-5.1,4.1-7,6.8
		c-2.6,3.6-4.2,7.8-7.2,11.2c-5.6,6.2-15,8.4-23.4,8.2c-8.2-0.2-16.1-2.2-24.2-2.8C577.6,737.2,589.6,746.5,603.5,747.2z"/>
	<path class="st7" d="M587.2,811.5c8.3,16.3,28.3,22.7,44.5,14.3c10.5-5.4,17.4-16,17.9-27.9c0.2-4.6-0.5-9.2-2.2-13.4
		c-2.7,1.8-5.2,4-7.3,6.5c-3.1,3.9-5.2,8.2-8.9,11.8c-6.8,6.6-17.7,9.4-27.4,9.7C598.4,812.4,592.8,812.1,587.2,811.5z"/>
	<polygon class="st10" points="849.1,894.6 721.4,920.7 718.5,920.4 606.2,909.1 606.2,766.8 743.6,743.6 843.3,755.2 843.3,755.9 
		843.3,756.2 	"/>
	<polygon class="st7" points="849.1,894.6 721.4,920.7 718.5,920.4 718.5,774.6 843.3,755.9 	"/>
	<polygon class="st11" points="843.3,756.2 843.3,756.2 718.5,774.6 606.2,766.8 743.6,743.6 843.3,755.2 843.3,755.9 	"/>
	<polygon class="st12" points="989.4,900.4 861.7,926.5 858.8,926.2 746.5,914.9 746.5,772.6 883.9,749.4 983.6,761 983.6,761.7 
		983.6,762 	"/>
	<polygon class="st7" points="989.4,900.4 861.7,926.5 858.8,926.2 858.8,780.4 983.6,761.7 	"/>
	<polygon class="st11" points="983.6,762 983.6,762 858.8,780.4 746.5,772.6 883.9,749.4 983.6,761 983.6,761.7 	"/>
	<polygon class="st12" points="901.3,761 773.6,787.2 770.7,786.9 658.5,775.6 658.5,633.3 795.9,610.1 895.5,621.7 895.6,622.3 
		895.6,622.6 	"/>
	<polygon class="st7" points="901.3,761 773.6,787.2 770.7,786.9 770.7,641.1 895.6,622.3 	"/>
	<polygon class="st11" points="895.6,622.6 895.5,622.7 770.7,641.1 658.5,633.3 795.9,610.1 895.5,621.7 895.6,622.3 	"/>
	<polygon class="st12" points="973.9,767 907.2,780.6 905.7,780.5 847.1,774.6 847.1,700.3 918.9,688.2 970.9,694.3 970.9,694.6 
		970.9,694.8 	"/>
	<polygon class="st7" points="973.9,767 907.2,780.6 905.7,780.5 905.7,704.4 970.9,694.6 	"/>
	<polygon class="st11" points="970.9,694.8 970.9,694.8 905.7,704.4 847.1,700.3 918.9,688.2 970.9,694.3 970.9,694.6 	"/>
	<polygon class="st12" points="794.9,622.8 728.2,636.5 726.7,636.3 668.1,630.4 668.1,556.2 739.8,544 791.9,550.1 791.9,550.4 
		791.9,550.6 	"/>
	<polygon class="st7" points="794.9,622.8 728.2,636.5 726.7,636.3 726.7,560.2 791.9,550.4 	"/>
	<polygon class="st11" points="791.9,550.6 791.9,550.6 726.7,560.2 668.1,556.2 739.8,544 791.9,550.1 791.9,550.4 	"/>
	<polygon class="st10" points="912,619.9 845.3,633.6 843.8,633.4 785.2,627.5 785.2,553.3 856.9,541.1 908.9,547.2 909,547.5 
		909,547.7 	"/>
	<polygon class="st7" points="912,619.9 845.3,633.6 843.8,633.4 843.8,557.3 909,547.5 	"/>
	<polygon class="st11" points="909,547.7 908.9,547.7 843.8,557.3 785.2,553.3 856.9,541.1 908.9,547.2 909,547.5 	"/>
	<polygon class="st12" points="946.8,545.4 880.1,559.1 878.6,558.9 820.1,553 820.1,478.8 891.8,466.6 943.8,472.7 943.8,473 
		943.8,473.2 	"/>
	<polygon class="st7" points="946.8,545.4 880.1,559.1 878.6,558.9 878.6,482.8 943.8,473 	"/>
	<polygon class="st11" points="943.8,473.2 943.8,473.2 878.6,482.8 820.1,478.8 891.8,466.6 943.8,472.7 943.8,473 	"/>
	<path class="st13" d="M992.2,393.7c-0.7,6.3-5.5,11.4-7.3,17.4c-2.7,9.1,1.9,19,8.3,26.1c10.3,11.5,24.8,18.4,40.3,19.1
		c2.2,0.2,4.5-0.1,6.7-0.7c1.9-0.8,3.6-2,5.1-3.5c4.8-4.8,7.3-11.4,8.3-18.1c1-6.7,0.6-13.5,0.2-20.2c0-1.4-0.3-2.8-0.8-4.1
		c-0.6-1.2-1.5-2.3-2.6-3.2c-3.4-3.2-7.2-5.9-11.3-8.2c-1.7-1-3.6-1.9-4.7-3.6c-0.8-1.3-1.3-2.8-1.5-4.3l-1.2-6.3
		c-0.2-1.8-0.8-3.6-1.8-5.1c-2.2-3-6.4-3.4-10.1-3.5l-13.5-0.5c-4.2-0.2-9.7-1.4-13.9-0.5c-3.9,0.8-2.6,4.3-1.9,7.5
		C991.5,385.7,992.1,389.7,992.2,393.7z"/>
	<path class="st7" d="M992.2,393.7c-0.7,6.3-5.5,11.4-7.3,17.4c-2.7,9.1,1.9,19,8.3,26.1c10.3,11.5,24.8,18.4,40.3,19.1
		c2.2,0.2,4.5-0.1,6.7-0.7c1.9-0.8,3.6-2,5.1-3.5c4.8-4.8,7.3-11.4,8.3-18.1c1-6.7,0.6-13.5,0.2-20.2c0-1.4-0.3-2.8-0.8-4.1
		c-0.6-1.2-1.5-2.3-2.6-3.2c-3.4-3.2-7.2-5.9-11.3-8.2c-1.7-1-3.6-1.9-4.7-3.6c-0.8-1.3-1.3-2.8-1.5-4.3l-1.2-6.3
		c-0.2-1.8-0.8-3.6-1.8-5.1c-2.2-3-6.4-3.4-10.1-3.5l-13.5-0.5c-4.2-0.2-9.7-1.4-13.9-0.5c-3.9,0.8-2.6,4.3-1.9,7.5
		C991.5,385.7,992.1,389.7,992.2,393.7z"/>
	<path class="st14" d="M1078.2,676.9l-5.7,63c-1.5,16.5-3,33.1-6,49.4c-1,5.6-2.2,11.2-3.6,16.8c-3.9,15.4-9.6,30.4-11.5,46.2
		c-0.1,0.5-0.1,1-0.2,1.4c-0.4,3.5-0.7,7-1.9,10.3c-1,2.4-2.3,4.6-3.3,7c-1.9,4.8-2.2,10-2.5,15.2c-7-3.9-14.6-6.6-22.5-7.7
		c-3.9-0.6-8.1-1-10.6-3.9c-2.9-3.2-2.6-8-2.1-12.2c1.5-13.2,3-26.3,4.5-39.5c0.5-5.7,1.5-11.3,2.9-16.8c0.5-1.8,1.2-3.6,1.8-5.4
		c0.9-2.5,1.8-5,2.4-7.5c0.9-4.1,1.6-8.2,1.9-12.4c1.6-13.2,3.4-26.4,5.1-39.7l0.1-0.7c2.5-20,4.3-40.2,3.8-60.4c-0.1-3-0.2-6-0.4-9
		c-0.3-4.3-0.7-6.6,2.9-9.4c4-3,9.2-5.1,13.8-7.1c2.4-1.1,29.4-10.6,30-8.5c1.3,4.5,1.9,9.1,1.9,13.8
		C1079.1,665.5,1078.8,671.3,1078.2,676.9z"/>
	<path class="st7" d="M1066.5,789.4c-1,5.6-2.2,11.2-3.6,16.8c-3.9,15.4-9.6,30.4-11.5,46.2c-0.1,0.5-0.1,1-0.2,1.4
		c-12-17.2-22.1-35.6-33.9-53c0.9-2.5,1.8-5,2.4-7.5c1-4.1,1.6-8.3,2-12.5c1.6-13.2,3.4-26.4,5.1-39.7l0.1-0.7
		c0.7,2.8,1.7,5.5,2.9,8.1c7.9,16,26.6,24.1,35.7,39.4C1066,788.4,1066.3,788.9,1066.5,789.4z"/>
	<path class="st14" d="M969,648.7c0.4,12.8,2.4,25.6,4.5,38.2l4.2,26.1c2.3,14.3,4.7,28.9,11.5,41.7c5.1,9.6,12.4,17.8,19,26.4
		c16.2,21.2,28.4,45.1,43.8,66.9c4.5,6.3,10.9,13.2,18.5,11.9c5-0.9,8.7-5,12.6-8.3c4.6-3.8,10.2-6.6,13.9-11.3s4.4-12.7-0.6-16
		c-1.7-1.2-3.8-1.6-5.7-2.3c-7.7-2.9-12.6-10.4-15.8-18c-3.2-7.6-5.1-15.7-9.3-22.8c-9.2-15.3-27.9-23.4-35.8-39.4
		c-4.4-9-4.8-19.4-5.2-29.3l-0.9-25.5c-0.1-2.8-0.2-5.7,1-8.2c3-6.8,12.1-7.4,19.5-8.3c8.4-1,16.5-3.5,23.9-7.5
		c4.2-2.3,8.4-5.2,10.6-9.5c2.1-3.9,2.4-8.4,2.6-12.8l2.6-46.1c0.2-4,0.4-8.1-1-11.8c-3.5-9.3-15.3-12.4-25.3-12
		c-18.6,0.8-35.7,8.8-53.2,14.2c-4.3,1.3-8.7,2.5-13.2,3.4c-3.9,0.8-8.7,0.5-12.4,1.7c-6.7,2.2-6.5,16.8-7.4,22.9
		C969.6,624.8,968.7,636.7,969,648.7z"/>
	<path class="st15" d="M1068,861.8c1.6,1.7,2.2,4.1,2.6,6.4c2.4,12.7,3.6,25.5,3.7,38.4c-0.1,1.2,0.1,2.4,0.7,3.5
		c0.5,0.6,1.1,1.1,1.8,1.5c4.7,2.3,10.2-0.9,14.2-4.3c7.3-6.4,13.5-15,13.9-24.7c0.1-2.5-0.2-5,0.3-7.5c0.6-3.7,2.8-6.8,4.7-10
		c3.2-5.4,5.8-11.2,7.7-17.2c0.7-2.3,1.2-5.1-0.6-6.7c-0.6-0.5-1.3-0.9-2.1-1.1l-21.4-7.9c-1.9-0.7-6.5,11.1-7.2,12.4
		c-1.8,3.2-3.6,5-7.2,5.7c-3.6,0.7-8-0.3-11.4,1.5C1061.9,854.8,1064.8,858.6,1068,861.8z"/>
	<path class="st15" d="M1035.1,869.2c-0.4-0.8-0.9-1.5-1.6-2.1c-1-0.6-2.1-1-3.3-1.1c-4.1-0.7-8.9-1.2-11.7,1.9
		c-2.6,2.8-2.2,7.5-4.4,10.6c-0.7,1-1.6,1.8-2.2,2.9c-0.7,1.6-1.1,3.4-1,5.2c-0.1,4.9-0.2,9.9,0.1,14.8c0.3,4.1,1,8.4,3.6,11.7
		c4.1,5.2,11.6,5.9,18.2,6.3l5.4,0.3c1.5,0.2,3,0,4.4-0.4c1.8-0.8,3.1-2.3,3.8-4.2c2.8-6.9-1.6-14.4-4.4-21.4
		C1038.8,885.6,1039.4,876.7,1035.1,869.2z"/>
	<path class="st16" d="M990.7,358.2c-0.1-0.7,0-1.4,0.3-2.1c0.8-1.4,2.8-1,4.4-0.6c6.2,1.6,12.8,0.1,19.2,0.5s13.6,3.6,14.9,9.9
		c4.7-3.3,8.7-7.4,11.8-12.2c1.8-2.7,3.3-5.7,3.1-8.9c-0.3-4.6-4.2-8.1-7.7-11l-10.6-8.7c-1.4-1.3-3-2.3-4.8-3
		c-2.5-0.8-5.1-0.4-7.7-0.4c-7.7,0-16-3.5-22.9,0c-2.9,1.5-5.1,4-7.2,6.5l-9.5,11.3c-0.7,0.7-1.2,1.6-1.5,2.6
		c-0.3,1.4,0.4,2.7,0.7,4.1c0.4,2.5-0.6,5.2,0.2,7.6c1.4,4,6.3,4.6,9.2,6.9c1.1,0.9,2.8,3.8,4.2,3.7
		C989,364.3,990.6,360.1,990.7,358.2z"/>
	<circle class="st13" cx="1006.8" cy="360.9" r="30.5"/>
	<path class="st15" d="M1013.9,427.6c-2.1-6.1-7.9-10.1-14.3-9.9c-0.9,0.2-1.8,0.1-2.7-0.3c-0.5-0.4-0.8-0.8-1.1-1.4
		c-1.8-3.3-3.3-6.9-4.4-10.5c-0.5-1.6-1.2-3.5-2.8-3.9c-1.3-0.3-2.7,0.5-3.5,1.5c-0.8,1.1-1.6,2.2-2.5,3.2
		c-3.9,3.4-10.6,0.3-14.7,3.4c-0.7,0.5-1.2,1.2-1.9,1.6c-0.7,0.4-1.4,0.8-2.2,1c-7.9,2.6-15.6,5.6-23.1,9
		c2.7,16.3,5.5,32.9,11.8,48.1c3,7.3,6.4,14.4,8.9,21.8c5.4,16.6,5.6,34.3,5.7,51.7c0,11.9,0,24.1-3.9,35.4
		c-0.9,2.6-1.9,5.1-2.2,7.7s0.6,5.7,2.7,7.2c1.3,0.8,2.7,1.3,4.2,1.5c6.7,1,13.4-0.8,20-2.3c17.6-4.1,35.6-6.4,53.6-8.7l30.1-3.9
		c2.2-0.2,4.3-0.7,6.2-1.6c5.5-3,6-11.3,2.6-16.6c-1.6-2.5-3.9-4.6-5.3-7.3c-1.4-2.7-1.5-6.4,0.9-8.3c4.8-3.8,3.4-10.8,3.6-16.9
		c0.6-17.1,0.6-34.2-0.3-51.3c-0.2-3.5-0.3-7.1-0.2-10.6c0.3-6,1.8-11.9,3.3-17.8l9.1-36c-2.4-3.8-7-6.2-11.3-7.3
		c-4.3-1.1-8.8-1.4-13.1-2.7c-8.7-2.7-16.5-9.6-25.7-8.9c-0.7,0-1.4,0.2-2,0.5c-2.1,1.2-1.7,4.1-1.9,6.5c-0.3,5.2-4.1,9.6-8.4,12.7
		c-4.2,3.1-9.1,5.3-13,8.8C1014.9,424.3,1014,425.9,1013.9,427.6z"/>
	<path class="st13" d="M893.2,461.8c-2,1.3-4.2,2.4-6.4,3.3c-2.1,0.8-4.4,1.5-6.1,3c-0.9,0.7-1.6,1.6-2.1,2.6
		c-3.2,5.6-1.2,12.8,4.5,16c1.9,1.1,4.1,1.6,6.4,1.5c2.8-0.1,5.4-1.3,8-2.4l21.5-9.4c3.6-1.6,7.6-3.4,9.3-7c0.2-0.3,0.3-0.7,0.2-1.1
		c-0.2-0.4-0.5-0.8-0.9-1c-4.8-3.2-9.1-7.2-12.5-11.8c-0.9-1.2-1.9-4-3.2-4.8C907.1,448.3,896.8,459.4,893.2,461.8z"/>
	<path class="st13" d="M1123,454.2l7.9,9.1c1.7,1.9,3.4,3.9,5,6c3.8,5.2,6.9,11,9.1,17.1c1.7,4.5,3.2,9.3,2.6,14.1
		c-0.4,2.5-1.1,4.9-2,7.2c-1.5,4.5-3.3,8.8-5.4,13c-1.8,3.2-3.8,6.2-6,9.1c-6.1,8.1-12.9,15.8-20.1,23c-2.7,2.7-3.9,7-5,10.6
		c-2.2,6.7-7.4,11.9-12.4,16.8c-1.6,1.7-3.4,3.2-5.3,4.6c-2.9,1.9-6.2,2.8-9.7,2.7c-1.5,0-3-0.3-4.3-0.9c-3.4-1.6-5.2-5.6-5.5-9.4
		c-0.3-3.4,0.3-6.9,1.7-10c4.5-10.1,16.2-14.4,24.5-21.8c4.8-4.3,8.5-9.7,12.2-15.1c2.5-3.3,4.5-7,6.2-10.8
		c1.8-4.9,1.1-10.7,2.7-15.7c0.7-2.1,1.9-4,2.6-6.1c0.7-2.1,0.9-4.6-0.4-6.4c-1-1.2-2.2-2.1-3.6-2.6c-5.3-2.7-11.2-6.1-12.2-11.9
		c-0.4-3.2,0.4-6.5,2.4-9.1c1.9-2.6,4.1-4.9,6.6-7C1116.8,458.5,1120.7,456.2,1123,454.2z"/>
	<path class="st13" d="M888.1,474.4c-1.4-2.8-3.1-5.7-6-7.1c-2.8-1.2-5.9-1.2-8.7,0c-2.7,1.2-5.3,2.7-7.6,4.6l-6.8,5
		c-1.5,1-2.9,2.3-4.1,3.7c-1.1,1.8-1.8,3.7-2.1,5.8c-1,4.7-1.8,9.6-1.1,14.3c1.1,7.7,5.7,14.4,10.8,20.3c3.2,3.7,7.1,7.4,12,7.5
		c2.1,0.1,4.4-0.8,5.3-2.7c0.3-0.8,0.5-1.6,0.5-2.4c0.5-8.6-2.6-17-6.1-24.8c-1-2.1-2-4.3-1.9-6.7c0-0.4,0.1-0.8,0.3-1.1
		c0.3-0.3,0.7-0.5,1.2-0.6c4.9-1,13.4,2.8,16.8-2.6C892.7,484.2,889.7,477.6,888.1,474.4z"/>
	<path class="st16" d="M989,348.6c-0.1-0.7,0-1.4,0.3-2.1c0.8-1.4,2.8-1,4.4-0.6c6.2,1.6,12.8,0.1,19.2,0.5
		c6.4,0.4,13.6,3.6,14.9,9.9c4.6-3.3,8.7-7.4,11.8-12.2c1.8-2.7,3.3-5.7,3.1-8.9c-0.3-4.6-4.2-8.1-7.7-11l-10.6-8.7
		c-1.4-1.3-3-2.3-4.8-3c-2.5-0.8-5.1-0.4-7.7-0.4c-7.7,0-16-3.5-22.9,0c-2.9,1.5-5.1,4-7.2,6.5l-9.5,11.3c-0.7,0.7-1.2,1.6-1.5,2.6
		c-0.3,1.4,0.4,2.7,0.7,4.1c0.4,2.5-0.6,5.2,0.2,7.6c1.4,4,6.3,4.6,9.2,6.9c1.1,0.9,2.8,3.8,4.2,3.7
		C987.3,354.7,989,350.5,989,348.6z"/>
	<path class="st15" d="M924.3,432.1c-1.2,0.8-2.3,1.8-3.2,3c-1.1,1.7-1.3,3.9-2.3,5.6c-2.1,3.8-6.9,5.2-9.9,8.3
		c-0.5,0.4-0.8,1-1,1.6c0,0.9,0.3,1.7,0.8,2.3l14.5,22.7c4.8,0.4,9.4-2.6,14.2-2.2c1.8,0.1,3.6,0.8,5.4,0.2c1.2-0.5,2.4-1.3,3.4-2.1
		c2.9-1.8,6.7-2,9.1-4.4s2.6-5.9,2.6-9.2c0-2.8-0.2-5.7-0.9-8.4c-2.1-8.7-8.8-15.4-13-23.1c-2-3.8-3.1-6-7.5-3.4
		C932.4,425.7,928.4,429.2,924.3,432.1z"/>
	<path class="st15" d="M1099.8,420.6c2.7,1.8,5.2,3.9,7.3,6.4c2.2,2.8,3.4,6.3,5.6,9.2s4.8,5,7.2,7.6c3.5,3.9,5.9,8.7,8.3,13.5
		c-5.7,7.5-12,14.5-18.7,21.1c-0.7,0.9-1.7,1.5-2.8,1.9c-1.5,0.2-3-0.5-4-1.6c-1-1.1-1.8-2.4-2.8-3.6c-2.3-2.4-5.5-3.9-8.8-4.3
		c-3.3-0.3-6.7-0.4-10-0.1c-0.7,0.1-1.5,0-2.1-0.4c-0.5-0.3-0.9-0.8-1.2-1.3c-3.9-6.7-2.7-15-1.3-22.6l3.2-17.4
		c0.5-3.3,1.3-6.6,2.6-9.7c1.2-2.6,3.9-6.9,7.2-6.1C1092.7,413.8,1097.1,418.6,1099.8,420.6z"/>
	<polygon class="st10" points="823.9,548.3 757.3,562 755.7,561.8 697.2,555.9 697.2,481.7 768.9,469.5 820.9,475.6 820.9,475.9 
		820.9,476.1 	"/>
	<polygon class="st7" points="823.9,548.3 757.3,562 755.7,561.8 755.7,485.7 820.9,475.9 	"/>
	<polygon class="st11" points="820.9,476.1 820.9,476.1 755.7,485.7 697.2,481.7 768.9,469.5 820.9,475.6 820.9,475.9 	"/>
	<polygon class="st12" points="858.8,474.8 792.1,488.4 790.6,488.3 732,482.4 732,408.1 803.7,396 855.7,402.1 855.7,402.4 
		855.7,402.6 	"/>
	<polygon class="st7" points="858.8,474.8 792.1,488.4 790.6,488.3 790.6,412.2 855.7,402.4 	"/>
	<polygon class="st11" points="855.7,402.6 855.7,402.6 790.6,412.2 732,408.1 803.7,396 855.7,402.1 855.7,402.4 	"/>
</g>
<g>
	
		<ellipse transform="matrix(0.1602 -0.9871 0.9871 0.1602 328.4811 2269.7378)" class="st15" cx="1498.1" cy="941.8" rx="43.4" ry="43.4"/>
	<circle class="st17" cx="1490.2" cy="941.8" r="19.3"/>
	<polygon class="st15" points="1529.2,979.8 1580.6,973.9 1488.2,1014.9 1433.7,1021.1 1430.7,1011.7 1525.5,972.2 	"/>
	<path class="st15" d="M1447.9,1008l-118-387.1l-0.1-0.3l-28.5-50.7c-0.3-1.8-1.1-8.8,2.1-13.5c1.7-2.4,4.3-4,7.3-4.4
		c14.6-2.7,47.9-4.2,51.6-4.4c2.3,0.4,19.6,3.9,23.2,18.8l0.1,0.4l24.7,45l111.5,366.5l6.1-1.9l-111.6-366.9l-0.1-0.3l-24.6-44.9
		c-5.1-19.8-27.8-23.1-28.7-23.2l-0.3,0l-0.3,0c-1.5,0.1-37,1.5-52.8,4.5c-4.6,0.7-8.8,3.3-11.4,7.2c-5.2,7.7-3.1,18.4-3,18.8
		l0.1,0.5l28.7,51l117.9,386.8L1447.9,1008z"/>
	
		<rect x="1339.2" y="654" transform="matrix(0.9841 -0.1777 0.1777 0.9841 -94.7977 256.179)" class="st16" width="86.5" height="6.4"/>
	<rect x="1355.6" y="707.5" transform="matrix(0.9798 -0.2 0.2 0.9798 -113.86 294.0663)" class="st16" width="86.3" height="6.4"/>
	
		<rect x="1385.4" y="804.5" transform="matrix(0.9614 -0.2751 0.2751 0.9614 -167.0962 424.0929)" class="st16" width="85.9" height="6.4"/>
	<polygon class="st15" points="1496.7,942.1 1501.9,885.4 1415.7,917.6 1390.3,954.3 1395.6,958 1419.8,922.9 1494.6,895 
		1490.7,937.6 1410.5,969 1412.9,974.9 	"/>
	<circle class="st15" cx="1385.1" cy="983.3" r="43.4"/>
	<circle class="st17" cx="1373.7" cy="985.3" r="19.3"/>
</g>
<g class="st1">
	<path class="st2" d="M159,233.1v-83.1h20.4v38.2l-1.5-2.5c1.2-3.4,3.5-6.2,7-8.3c3.5-2.1,7.4-3.2,11.9-3.2c5,0,9.3,1.2,13.1,3.7
		c3.8,2.4,6.8,5.9,9,10.4c2.2,4.5,3.3,9.7,3.3,15.6c0,6-1.1,11.3-3.3,15.8c-2.2,4.5-5.2,8-9,10.6c-3.8,2.5-8.2,3.8-13.1,3.8
		c-4.4,0-8.4-1-11.9-3c-3.5-2-5.8-4.8-7-8.4l1.2-2.9v13.4H159z M190.6,218.8c3.6,0,6.4-1.3,8.3-3.8c1.9-2.6,2.9-6.2,2.9-11.1
		c0-4.6-0.9-8.1-2.8-10.6c-1.9-2.4-4.7-3.7-8.4-3.7c-3.7,0-6.5,1.3-8.5,3.8c-2,2.5-2.9,6.1-2.9,10.7c0,4.8,1,8.5,2.9,10.9
		C184.1,217.6,186.9,218.8,190.6,218.8z"/>
	<path class="st2" d="M254.5,234c-4.9,0-9.3-1.2-13.1-3.6c-3.8-2.4-6.8-5.8-9-10.3c-2.1-4.4-3.2-9.6-3.2-15.6c0-6,1.1-11.3,3.3-15.9
		c2.2-4.6,5.2-8.1,9-10.7c3.8-2.6,8.1-3.8,13-3.8c4.4,0,8.3,1.1,11.8,3.2s5.9,4.9,7.2,8.4l-1.4,0.8v-10.8h20.1v57.3h-20.1v-10.5h1.4
		c-1.3,3.5-3.7,6.3-7.2,8.4S258.9,234,254.5,234z M260.8,218.8c3.5,0,6.3-1.2,8.3-3.7c2-2.5,3-6.1,3-10.7c0-4.8-1-8.5-2.9-10.9
		c-2-2.5-4.7-3.7-8.4-3.7c-3.5,0-6.3,1.3-8.4,3.9c-2,2.6-3,6.3-3,11c0,4.6,1,8.1,2.9,10.6C254.3,217.6,257.1,218.8,260.8,218.8z"/>
	<path class="st2" d="M327.5,234c-11.4,0-20.5-2.3-27.1-6.9l5.2-13.9c3.1,2.1,6.6,3.7,10.6,4.9c4,1.2,7.8,1.7,11.5,1.7
		c2.3,0,4.1-0.3,5.4-1c1.3-0.7,1.9-1.6,1.9-2.8c0-1.1-0.5-1.9-1.4-2.5c-0.9-0.6-2.7-1.2-5.4-1.8l-9.3-2.1
		c-5.9-1.2-10.1-3.1-12.7-5.7c-2.6-2.6-3.9-6.2-3.9-10.8c0-3.7,1.1-7,3.3-9.8c2.2-2.9,5.2-5.1,9.1-6.7c3.9-1.6,8.3-2.4,13.4-2.4
		c4.2,0,8.3,0.6,12.3,1.9c4,1.2,7.7,2.9,11.1,5l-5.4,13.5c-3-2-6.1-3.5-9.3-4.5c-3.2-1.1-6.1-1.6-8.9-1.6c-2.2,0-3.9,0.4-5.2,1.1
		c-1.3,0.7-2,1.7-2,3.1c0,0.8,0.4,1.5,1.1,2c0.8,0.5,2.2,1,4.3,1.5l9.6,2.1c6.1,1.4,10.5,3.4,13.1,6.2c2.7,2.8,4,6.5,4,11.3
		c0,5.6-2.2,10.1-6.7,13.3C341.6,232.4,335.4,234,327.5,234z"/>
	<path class="st2" d="M361.6,233.1v-83.1H382v83.1H361.6z M401.6,233.1l-23-29.1l22.7-28.1h24.2l-26.6,32.3l1-8.7l26.5,33.6H401.6z"
		/>
	<path class="st2" d="M480.6,227.3c-2.9,2.2-6.3,3.9-10.4,5c-4.1,1.2-8.1,1.7-12.2,1.7c-6.6,0-12.3-1.2-17.1-3.6
		c-4.8-2.4-8.4-5.9-11-10.3c-2.6-4.5-3.8-9.8-3.8-15.9c0-5.9,1.2-11.1,3.7-15.6c2.4-4.5,5.8-8.1,10.1-10.6c4.3-2.6,9.3-3.8,14.9-3.8
		c5.5,0,10.3,1.2,14.3,3.6c4,2.4,7.1,5.8,9.3,10.3c2.2,4.4,3.3,9.7,3.3,15.7v2.7h-37.5l0.2-9.5h24.9l-5,3.3c0-4.1-0.8-7.1-2.3-9.1
		c-1.5-2-3.8-3-6.7-3c-3.2,0-5.7,1.2-7.4,3.6c-1.7,2.4-2.5,6-2.5,10.8c0,5.9,1.1,10.2,3.3,12.7c2.2,2.5,5.6,3.8,10.4,3.8
		c2.9,0,5.7-0.5,8.6-1.4c2.9-0.9,5.5-2.2,7.7-3.9L480.6,227.3z"/>
	<path class="st2" d="M484,190.8v-15h44.9v15H484z M529,216.9v15.5c-1.7,0.7-3.5,1.1-5.2,1.4c-1.7,0.2-3.5,0.3-5.4,0.3
		c-7.9,0-13.8-2.2-17.8-6.7c-4-4.4-5.9-10.5-5.9-18.1v-46.5l20.4-6.5v53.1c0,1.9,0.4,3.4,1.2,4.7c0.8,1.2,1.8,2.1,3.1,2.7
		c1.3,0.6,2.7,0.8,4.2,0.8c0.8,0,1.6-0.1,2.4-0.2C526.9,217.3,527.9,217.1,529,216.9z"/>
</g>
<g>
	<path class="st18" d="M947,128.3L947,128.3c-0.8-9.1-4.6-17.3-10.3-23.8l15.4-15.4c0,0-6.6-1.3-20-1.3c-11.1,0-16.2,1.3-16.2,1.3
		c-12.8-11.9-29.9-19.3-48.8-19.3c-0.1,0-0.1,0-0.2,0c-0.1,0-0.1,0-0.2,0c-18.9,0-36,7.3-48.8,19.3c0,0-5.1-1.3-16.2-1.3
		c-13.4,0-20,1.3-20,1.3l15.4,15.4c-5.7,6.5-9.4,14.7-10.3,23.8l0,0c-0.1,1.3-0.2,2.5-0.2,3.8c0,0,0,0,0,0l0,0l0,0c0,0,0,0,0,0
		c0,2.8,0.3,5.5,0.8,8.1c0,0.1,0,0.1,0,0.2c0,0.2,0.1,0.4,0.1,0.6c0.2,1.1,0.5,2.3,0.9,3.3c0.1,0.3,0.2,0.6,0.3,0.9
		c0.3,0.9,0.6,1.9,1,2.8c0.2,0.4,0.4,0.8,0.5,1.2c0.4,0.8,0.7,1.6,1.1,2.4c0.2,0.4,0.5,0.9,0.7,1.3c0.4,0.7,0.8,1.4,1.3,2.1
		c0.3,0.4,0.6,0.9,0.9,1.3c0.5,0.6,0.9,1.3,1.4,1.9c0.3,0.4,0.7,0.8,1,1.2c0.3,0.3,0.6,0.6,0.9,0.9c0.2,0.3,0.5,0.5,0.7,0.8
		c0.2,0.2,0.4,0.4,0.6,0.6c0.6,0.6,1.1,1.1,1.7,1.6c0.5,0.4,0.9,0.8,1.4,1.2c0.6,0.5,1.2,1,1.9,1.4c0.5,0.4,1.1,0.7,1.6,1.1
		c0.7,0.4,1.3,0.8,2,1.2c0.6,0.3,1.1,0.6,1.7,0.9c0.7,0.3,1.4,0.7,2.1,1c0.6,0.3,1.3,0.5,1.9,0.8c0.7,0.3,1.4,0.6,2.1,0.8
		c0.7,0.2,1.4,0.4,2.1,0.6c0.7,0.2,1.4,0.4,2.1,0.5c0.8,0.2,1.7,0.3,2.5,0.4c0.6,0.1,1.2,0.2,1.9,0.3c1.3,0.1,2.7,0.2,4.1,0.2
		c0.1,0,0.2,0,0.4,0h0h0c0.1,0,0.2,0,0.3,0c1.2,0,2.4-0.1,3.6-0.2c0.1,0,0.2,0,0.3,0c0.7-0.1,1.3-0.2,2-0.3c0.5-0.1,1.1-0.1,1.6-0.3
		c0.4-0.1,0.7-0.1,1.1-0.2c0,0,0,0,0,0c0.6-0.1,1.1-0.3,1.7-0.4c0.6-0.2,1.3-0.3,1.9-0.5c0.1,0,0.2-0.1,0.3-0.1
		c0.1,0,0.2-0.1,0.3-0.1c0.5-0.2,1.1-0.4,1.6-0.6c0.4-0.1,0.8-0.3,1.2-0.4c0.4-0.2,0.7-0.3,1.1-0.5c0.1,0,0.1-0.1,0.2-0.1
		c0.5-0.2,1-0.5,1.5-0.7c0.2-0.1,0.5-0.2,0.7-0.3c0.4-0.2,0.7-0.4,1.1-0.6c0.2-0.1,0.4-0.3,0.7-0.4c0.4-0.3,0.9-0.5,1.3-0.8
		c0.3-0.2,0.7-0.4,1-0.6c0.2-0.2,0.4-0.3,0.7-0.5c0.2-0.2,0.5-0.3,0.7-0.5c0.4-0.3,0.7-0.5,1.1-0.8c0.1-0.1,0.3-0.2,0.5-0.3
		c0.4-0.3,0.7-0.6,1.1-0.9c0.3-0.2,0.5-0.5,0.8-0.7c0.3-0.3,0.6-0.5,0.8-0.8l0,0c0.3-0.3,0.7-0.7,1-1c0.4-0.4,0.8-0.9,1.3-1.4
		c0.2-0.2,0.3-0.3,0.5-0.5c0.1-0.1,0.2-0.3,0.4-0.4c0,0,0,0,0,0c0,0,0,0,0,0c0.2-0.2,0.4-0.4,0.6-0.7c0.5-0.6,1-1.3,1.4-1.9
		c0.3-0.4,0.6-0.9,0.9-1.3c0.4-0.7,0.9-1.4,1.3-2.1c0.3-0.4,0.5-0.9,0.7-1.3c0.4-0.8,0.8-1.6,1.1-2.4c0.1-0.2,0.2-0.5,0.3-0.7
		c0.1,0.2,0.2,0.5,0.3,0.7c0.4,0.8,0.7,1.6,1.1,2.4c0.2,0.4,0.5,0.9,0.7,1.3c0.4,0.7,0.8,1.4,1.3,2.1c0.3,0.4,0.6,0.9,0.9,1.3
		c0.5,0.6,0.9,1.3,1.4,1.9c0.2,0.2,0.4,0.5,0.6,0.7c0,0,0,0,0,0c0,0,0,0,0,0c0.1,0.1,0.2,0.3,0.4,0.4c0.2,0.2,0.3,0.3,0.5,0.5
		c0.4,0.5,0.8,0.9,1.3,1.4c0.3,0.3,0.7,0.7,1,1l0,0c0.3,0.3,0.6,0.5,0.8,0.8c0.3,0.2,0.5,0.5,0.8,0.7c0.4,0.3,0.7,0.6,1.1,0.9
		c0.1,0.1,0.3,0.2,0.5,0.3c0.3,0.3,0.7,0.5,1.1,0.8c0.2,0.2,0.5,0.3,0.7,0.5c0.2,0.2,0.4,0.3,0.7,0.5c0.3,0.2,0.7,0.4,1,0.6
		c0.4,0.3,0.8,0.5,1.3,0.8c0.2,0.1,0.4,0.3,0.7,0.4c0.3,0.2,0.7,0.4,1.1,0.6c0.2,0.1,0.5,0.2,0.7,0.3c0.5,0.2,1,0.5,1.5,0.7
		c0.1,0,0.1,0.1,0.2,0.1c0.4,0.2,0.7,0.3,1.1,0.5c0.4,0.2,0.8,0.3,1.2,0.4c0.5,0.2,1.1,0.4,1.6,0.6c0.1,0,0.2,0.1,0.3,0.1
		c0.1,0,0.2,0.1,0.3,0.1c0.6,0.2,1.2,0.3,1.9,0.5c0.6,0.1,1.1,0.3,1.7,0.4c0,0,0,0,0,0c0.4,0.1,0.7,0.1,1.1,0.2
		c0.5,0.1,1.1,0.2,1.6,0.3c0.7,0.1,1.3,0.2,2,0.3c0.1,0,0.2,0,0.3,0c1.2,0.1,2.4,0.2,3.6,0.2c0.1,0,0.2,0,0.3,0h0h0
		c0.1,0,0.2,0,0.4,0c1.4,0,2.8-0.1,4.1-0.2c0.6-0.1,1.2-0.2,1.9-0.3c0.8-0.1,1.7-0.2,2.5-0.4c0.7-0.1,1.4-0.4,2.1-0.5
		c0.7-0.2,1.4-0.4,2.1-0.6c0.7-0.2,1.4-0.5,2.1-0.8c0.6-0.3,1.3-0.5,1.9-0.8c0.7-0.3,1.4-0.7,2.1-1c0.6-0.3,1.2-0.6,1.7-0.9
		c0.7-0.4,1.3-0.8,2-1.2c0.5-0.3,1.1-0.7,1.6-1.1c0.6-0.5,1.3-0.9,1.9-1.4c0.5-0.4,1-0.8,1.4-1.2c0.6-0.5,1.2-1.1,1.7-1.6
		c0.2-0.2,0.4-0.4,0.6-0.6c0.2-0.3,0.5-0.5,0.7-0.8c0.3-0.3,0.6-0.6,0.9-0.9c0.3-0.4,0.7-0.8,1-1.2c0.5-0.6,1-1.3,1.4-1.9
		c0.3-0.4,0.6-0.9,0.9-1.3c0.4-0.7,0.9-1.4,1.3-2.1c0.3-0.4,0.5-0.9,0.7-1.3c0.4-0.8,0.8-1.6,1.1-2.4c0.2-0.4,0.4-0.8,0.5-1.2
		c0.4-0.9,0.7-1.9,1-2.8c0.1-0.3,0.2-0.6,0.3-0.9c0.3-1.1,0.6-2.2,0.9-3.3c0-0.2,0.1-0.4,0.1-0.6c0.5-2.7,0.8-5.5,0.8-8.3
		c0,0,0,0,0,0c0,0,0,0,0,0C947.1,130.8,947.1,129.5,947,128.3z"/>
	<g>
		<circle class="st19" cx="905.3" cy="131.9" r="33.3"/>
		<circle class="st18" cx="894.3" cy="140.8" r="13.9"/>
	</g>
	<g>
		<circle class="st19" cx="827.6" cy="131.9" r="33.3"/>
		<circle class="st18" cx="816.5" cy="140.8" r="13.9"/>
	</g>
	<polygon class="st10" points="856.1,171.9 866.9,185.8 877.7,171.9 866.9,158.5 	"/>
	<path class="st10" d="M867.1,50.3c-16.9,0-32.5,5.4-45.3,14.5v15.4c11.8-11.1,27.7-17.9,45.3-17.9c17.6,0,33.6,6.9,45.5,18.2V65
		C899.8,55.8,884.1,50.3,867.1,50.3z"/>
	<path class="st10" d="M867.2,2.2l-85.6,41.9l15.5,6.7v7.5l-2.8,5.3v16.1h9.3V63.5l-2.8-5.1v-5.9l17.2,7.5c0,0,13.2-15.8,49.1-15.8
		c36.3,0,49.1,15.8,49.1,15.8l34.2-15.8L867.2,2.2z"/>
</g>
</svg>
