<?xml version="1.0" encoding="utf-8"?>
<!-- Generator: Adobe Illustrator 22.0.1, SVG Export Plug-In . SVG Version: 6.00 Build 0)  -->
<svg version="1.1" xmlns="http://www.w3.org/2000/svg" xmlns:xlink="http://www.w3.org/1999/xlink" x="0px" y="0px"
	 viewBox="0 0 314 314" style="enable-background:new 0 0 314 314;" xml:space="preserve">
<style type="text/css">
	.st0{display:none;}
	.st1{display:inline;opacity:0.1;fill:#F7941E;enable-background:new    ;}
	.st2{display:inline;fill:#F7941E;}
	.st3{display:inline;fill:#444053;}
	.st4{display:inline;fill:#3F3D56;}
	.st5{display:inline;opacity:0.1;enable-background:new    ;}
	.st6{display:inline;fill:#FFFFFF;}
	.st7{display:inline;opacity:0.1;fill:#444053;enable-background:new    ;}
	.st8{display:inline;fill:#3ACC6C;}
	.st9{display:inline;}
	.st10{fill:url(#SVGID_1_);}
	.st11{fill:#A1616A;}
	.st12{fill:#3F3D56;}
	.st13{opacity:0.1;enable-background:new    ;}
	.st14{opacity:0.15;enable-background:new    ;}
	.st15{fill:#F7941E;}
	.st16{fill:#FBBEBE;}
	.st17{opacity:0.1;}
	.st18{fill:#FFFFFF;enable-background:new    ;}
	.st19{fill:#FFFFFF;}
	.st20{opacity:0.2;fill:#5A5773;enable-background:new    ;}
	.st21{fill:#E6E6E6;}
	.st22{fill:#2F2E41;}
	.st23{fill:#9F616A;}
	.st24{opacity:0.1;fill:#F7941E;enable-background:new    ;}
	.st25{fill:none;stroke:#565987;stroke-width:0.2912;stroke-miterlimit:10;}
	.st26{display:inline;fill:#E6E6E6;}
	.st27{display:inline;fill:#A0616A;}
	.st28{display:inline;fill:#2F2E41;}
	.st29{display:inline;opacity:0.2;enable-background:new    ;}
	.st30{fill:#A0616A;}
	.st31{fill:#FFB8B8;}
	.st32{fill:none;stroke:#D0CDE1;stroke-width:0.5583;stroke-miterlimit:10;}
	.st33{fill:#D0CDE1;}
</style>
<g id="katman_1" class="st0">
	<path class="st1" d="M181.8,73.3c-19.7-0.7-38.5-7.1-56.5-14s-35.7-14.7-55-18.4c-12.4-2.4-26.6-2.7-36.5,3.9
		c-9.6,6.4-12.7,17.4-14.4,27.7c-1.3,7.7-2,15.8,1.4,23c2.4,5,6.6,9.2,9.6,14c10.2,16.7,3,37.3-8.1,53.6
		c-5.2,7.6-11.2,14.9-15.2,23.1s-5.8,17.5-2.3,25.8c3.5,8.2,11.7,14.4,20.7,18.8c18.2,8.8,39.6,11.3,60.6,12.8
		c46.3,3.2,92.9,1.8,139.3,0.4c17.2-0.5,34.4-1,51.3-3.7c9.4-1.5,19.1-3.8,25.9-9.5c8.6-7.2,10.8-19.3,5-28.3
		c-9.7-15.1-36.6-18.8-43.4-35c-3.7-8.9,0.1-18.8,5.5-27.1c11.7-17.7,31.2-33.3,32.2-53.6c0.7-13.9-8.7-27.9-23.2-34.5
		c-15.2-6.9-36.3-6-47.6,5.4C219.6,69.4,199.2,73.9,181.8,73.3z"/>
	<path class="st2" d="M249.2,225.5c-1.1-0.4-2.3-0.5-3.4-0.4c-1.4,0.2-1.2,2.3,0.2,2.2c0.7-0.1,1.4-0.2,2.1-0.4L249.2,225.5z"/>
	<path class="st2" d="M249.6,225.5c0.5,1,0.8,2.2,0.8,3.4c0,1.4-2.1,1.5-2.2,0.1c0-0.7,0-1.4,0.1-2.1L249.6,225.5z"/>
	<path class="st2" d="M252.9,220.9c0,0-0.7-2.2-4.9-1.3c-1.9,0.4-1.9,3.1,0.1,3.4h0.1C250.9,223.4,251.8,222.2,252.9,220.9z"/>
	<path class="st2" d="M253.3,220.8c0,0,2.3,0.2,2.4,4.5c0.1,1.9-2.6,2.5-3.3,0.7c0,0,0-0.1,0-0.1
		C251.3,223.3,252.2,222.1,253.3,220.8z"/>
	<path class="st2" d="M256.3,215.2c-0.3-1.6-1.5-2.9-3-3.4c-2.9-0.9-4.4,3.4-1.6,4.5c1.2,0.4,2.4,0.6,3.6,0.5L256.3,215.2z"/>
	<path class="st2" d="M259.8,208.1c0,0-1.2-2.7-4.1-3.3c-3.2-0.6-4.1,4.2-1,4.9c1.4,0.3,2.9,0.3,4.3,0L259.8,208.1z"/>
	<path class="st2" d="M261.9,201c-1-1.6-2.6-2.6-4.4-3c-2.7-0.5-3.6,3.6-1,4.3c1.7,0.4,3.4,0.4,5.1-0.1L261.9,201z"/>
	<path class="st2" d="M263.9,194.2c-0.9-1.4-2.2-2.5-3.8-3c-2.7-0.8-4.1,3.3-1.4,4.2c1.6,0.5,3.3,0.5,5,0L263.9,194.2z"/>
	<path class="st2" d="M264.7,188c0,0-1.1-2.6-3.3-3.9c-2.5-1.5-4.8,2.2-2.5,3.8c1.5,1,3.3,1.7,5.5,1.3L264.7,188z"/>
	<path class="st2" d="M265.1,180.5c0,0-1.2-2.6-3.5-3.8c-2.6-1.4-4.8,2.4-2.4,4c1.6,1.1,3.6,1.7,5.7,0.9L265.1,180.5z"/>
	<path class="st2" d="M264.9,173.8c-0.9-1.4-2-2.7-3.3-3.7c-1.8-1.5-4.1,1.2-2.4,2.8c1.6,1.4,3.5,2.7,5.6,2.6L264.9,173.8z"/>
	<path class="st2" d="M264.2,167.3c-1-1.7-2.3-3.3-3.7-4.8c-1.4-1.4-3.5,0.7-2.2,2.2c1.5,1.6,3.6,3.3,6.1,4.1L264.2,167.3z"/>
	<path class="st2" d="M262.9,159.7c-0.9-1.3-1.8-2.5-3-3.7c-1.4-1.4-3.6,0.7-2.2,2.2c1.5,1.5,3.3,3,5.5,3.5L262.9,159.7z"/>
	<path class="st2" d="M261.7,152.6c-0.9-1.2-1.8-2.3-2.8-3.4c-1.1-1.2-3,0.5-1.9,1.7c1.3,1.5,2.9,2.7,4.7,3L261.7,152.6z"/>
	<path class="st2" d="M260.5,146c-0.8-1.6-1.7-3.1-2.7-4.5c-0.9-1.2-2.6,0.1-1.8,1.3c1.1,1.6,2.5,3.1,4.4,3.9L260.5,146z"/>
	<path class="st2" d="M259.5,137.2c0,0-0.7-1.1-1.6-2.5c-0.9-1.2-2.8,0-1.9,1.3c0.9,1.4,2.1,2.6,3.4,2.9L259.5,137.2z"/>
	<path class="st2" d="M259.1,131.4l-0.9-4.3c-0.2-1.1-1.9-0.9-1.8,0.3c0.3,2.3,1.1,4.6,2.8,6.1L259.1,131.4z"/>
	<path class="st2" d="M259.6,119.3L259.6,119.3c-0.2-0.4-0.7-0.6-1.1-0.4c-0.4,0.2-0.6,0.5-0.5,0.9c0.2,1.2,0.5,2.4,0.9,3.5
		L259.6,119.3z"/>
	<path class="st2" d="M256.5,215.1c1.6-0.5,3.3-0.1,4.5,1c2.2,2-0.8,5.5-3.1,3.6c-0.9-0.8-1.7-1.8-2.2-2.9L256.5,215.1z"/>
	<path class="st2" d="M260,207.8c0,0,2.9-0.7,5.1,1.4c2.4,2.2-0.9,5.8-3.4,3.8c-1.1-0.9-2-2.1-2.6-3.4L260,207.8z"/>
	<path class="st2" d="M262.1,201.5c1.5-1.1,3.4-1.5,5.2-1.2c2.7,0.5,2,4.7-0.7,4.3c-1.7-0.2-3.3-0.9-4.7-2L262.1,201.5z"/>
	<path class="st2" d="M264,194.2c1.3-1,3-1.5,4.7-1.4c2.9,0.2,2.5,4.6-0.3,4.4c-1.7-0.1-3.3-0.8-4.6-1.9L264,194.2z"/>
	<path class="st2" d="M264.7,188.1c0,0,1.5-2.3,3.9-3.3c2.7-1.1,4.4,3,1.8,4.2c-1.6,0.8-3.6,1.2-5.7,0.3L264.7,188.1z"/>
	<path class="st2" d="M264.8,180.4c0,0,1.5-2.4,4-3.3c2.7-1,4.5,3,1.9,4.3c-1.7,0.8-3.8,1.3-5.8,0.2L264.8,180.4z"/>
	<path class="st2" d="M264.3,173.7c0.6-1.6,1.4-3,2.4-4.3c1.4-1.8,4.3,0.3,2.9,2.2c-1.2,1.8-2.9,3.4-4.9,3.7L264.3,173.7z"/>
	<path class="st2" d="M264.1,167.3c0.5-2,1.2-3.9,2.2-5.6c1-1.7,3.6-0.3,2.7,1.5c-1,2-2.5,4.2-4.7,5.6L264.1,167.3z"/>
	<path class="st2" d="M262.5,159.3c0.6-1.5,1.3-3,2.3-4.3c1.1-1.6,3.6,0,2.6,1.7c-1.1,1.8-2.7,3.7-4.8,4.6L262.5,159.3z"/>
	<path class="st2" d="M261.2,152.5c0.3-1.4,0.7-2.9,1.2-4.2c0.5-1.5,2.9-0.8,2.4,0.8c-0.5,1.9-1.5,3.7-3.1,4.7L261.2,152.5z"/>
	<path class="st2" d="M260.3,145.9c0.4-1.7,1-3.4,1.6-5c0.6-1.3,2.6-0.5,2.1,0.8c-0.7,1.8-1.7,3.6-3.4,4.8L260.3,145.9z"/>
	<path class="st2" d="M259,137.8c0,0,0.3-1.3,0.7-2.9c0.4-1.5,2.6-0.9,2.3,0.6c-0.4,1.6-1.1,3.2-2.3,3.9L259,137.8z"/>
	<path class="st2" d="M259.3,131.1l1.5-4.1c0.4-1.1,2-0.6,1.7,0.5c-0.6,2.2-1.8,4.4-3.7,5.6L259.3,131.1z"/>
	<path class="st2" d="M261.2,119.7c0,0,0.2-0.2,0.6-0.5c0.7-0.6,1.7,0.4,1,1.1c-1.2,1.1-2.6,1.9-4,2.6L261.2,119.7z"/>
	<path class="st2" d="M261.1,117.3c0.9-1.8,1.9-3.6,3-5.3c0.1-0.3,0-0.6-0.2-0.7c-0.2-0.1-0.5-0.1-0.7,0.1c-0.9,1.2-1.7,2.9-2.4,5.5
		L261.1,117.3z"/>
	<path class="st3" d="M259.4,139l0.3,0c-1.4-12.7-0.8-20.6,1.6-22.1l-0.2-0.3C258.6,118.2,258,126,259.4,139z"/>
	<path class="st3" d="M264.1,169.1l0.5-0.1c-0.2-1.2-0.4-2.4-0.6-3.5c-2-10.3-3.5-19.9-4.3-27.1l-0.3-0.3c0.8,7.3,2.2,17.1,4.2,27.5
		C263.7,166.7,263.9,167.9,264.1,169.1z"/>
	<path class="st3" d="M242,233.4c0.1-0.1,7.3-5.6,13.7-16.3c3.7-6.2,6.5-13,8.1-20.1c2-8.9,2.1-19.2,0.6-28.9l-0.4,0.3
		c3.3,21.7-3,38.6-8.8,48.3c-6.3,10.6-13.5,16.1-13.6,16.1L242,233.4z"/>
	<ellipse class="st2" cx="55.8" cy="229.8" rx="18.2" ry="3.5"/>
	<ellipse class="st4" cx="55.5" cy="228.4" rx="2.1" ry="2.8"/>
	<ellipse class="st4" cx="55.5" cy="225" rx="2.1" ry="2.8"/>
	<ellipse class="st4" cx="55.5" cy="221.6" rx="2.1" ry="2.8"/>
	<ellipse class="st4" cx="55.5" cy="218.2" rx="2.1" ry="2.8"/>
	<ellipse class="st4" cx="55.5" cy="214.8" rx="2.1" ry="2.8"/>
	<ellipse class="st4" cx="55.5" cy="211.4" rx="2.1" ry="2.8"/>
	<ellipse class="st4" cx="55.5" cy="208.1" rx="2.1" ry="2.8"/>
	<path class="st2" d="M63.4,184.9c0.3-0.4,0.6-0.8,0.8-1.2l-5.6-0.9l6,0c1.2-2.5,1.2-5.4,0.2-8l-8.1,4.2l7.4-5.5
		c-2.8-4.8-9-6.5-13.8-3.7c-4.8,2.8-6.5,9-3.7,13.8c0.2,0.4,0.5,0.8,0.8,1.2c-0.4,0.6-0.8,1.2-1.2,1.8l7.2,3.7l-7.7-2.6
		c-1.1,3.2-0.5,6.8,1.6,9.5c-3.5,4.4-2.7,10.8,1.7,14.2s10.8,2.7,14.2-1.7c2.9-3.7,2.9-8.9,0-12.5C66.3,193.8,66.3,188.6,63.4,184.9
		L63.4,184.9z"/>
	<path class="st5" d="M45.3,191.2c0,2.3,0.8,4.5,2.2,6.3c-3.5,4.4-2.7,10.8,1.7,14.2c4.4,3.5,10.8,2.7,14.2-1.7
		c2.9-3.7,2.9-8.9,0-12.5C64.8,195.7,45.3,190,45.3,191.2z"/>
	<path class="st6" d="M66.2,110.6v120.6c0,2.3,1.9,4.2,4.2,4.2h173c2.3,0,4.2-1.9,4.2-4.2V110.6H66.2z"/>
	<path class="st5" d="M82.9,121.4h38.6c1.3,0,2.4,1.1,2.4,2.4v20.7c0,1.3-1.1,2.4-2.4,2.4H82.9c-1.3,0-2.4-1.1-2.4-2.4v-20.7
		C80.5,122.5,81.6,121.4,82.9,121.4z"/>
	<path class="st5" d="M137.6,121.4h38.6c1.3,0,2.4,1.1,2.4,2.4v20.7c0,1.3-1.1,2.4-2.4,2.4h-38.6c-1.3,0-2.4-1.1-2.4-2.4v-20.7
		C135.2,122.5,136.2,121.4,137.6,121.4z"/>
	<path class="st5" d="M137.6,157.4h38.6c1.3,0,2.4,1.1,2.4,2.4v20.7c0,1.3-1.1,2.4-2.4,2.4h-38.6c-1.3,0-2.4-1.1-2.4-2.4v-20.7
		C135.2,158.5,136.2,157.4,137.6,157.4z"/>
	<path class="st7" d="M83.5,157.5h37.4c1.3,0,2.4,1.1,2.4,2.4v20c0,1.3-1.1,2.4-2.4,2.4H83.5c-1.3,0-2.4-1.1-2.4-2.4v-20
		C81.1,158.6,82.2,157.5,83.5,157.5z"/>
	<path class="st7" d="M230.3,182.3h-37.4c-1.3,0-2.4-1.1-2.4-2.4v-20c0-1.3,1.1-2.4,2.4-2.4h37.4c1.3,0,2.4,1.1,2.4,2.4v20
		C232.6,181.2,231.6,182.3,230.3,182.3z"/>
	<path class="st7" d="M83.5,193.3h37.4c1.3,0,2.4,1.1,2.4,2.4v20c0,1.3-1.1,2.4-2.4,2.4H83.5c-1.3,0-2.4-1.1-2.4-2.4v-20
		C81.1,194.3,82.2,193.3,83.5,193.3z"/>
	<path class="st7" d="M230.3,218h-37.4c-1.3,0-2.4-1.1-2.4-2.4v-20c0-1.3,1.1-2.4,2.4-2.4h37.4c1.3,0,2.4,1.1,2.4,2.4v20
		C232.6,216.9,231.6,218,230.3,218z"/>
	<path class="st7" d="M175.6,218h-37.4c-1.3,0-2.4-1.1-2.4-2.4v-20c0-1.3,1.1-2.4,2.4-2.4h37.4c1.3,0,2.4,1.1,2.4,2.4v20
		C177.9,216.9,176.9,218,175.6,218z"/>
	<path class="st2" d="M66.2,89.3v21.9h181.4V89.3c0-2.3-1.9-4.2-4.2-4.2c0,0,0,0,0,0h-173C68,85.1,66.2,87,66.2,89.3
		C66.2,89.3,66.2,89.3,66.2,89.3z M111.1,95.8c-1.9,0-3.4-1.5-3.4-3.4s1.5-3.4,3.4-3.4c1.9,0,3.4,1.5,3.4,3.4l0,0
		C114.4,94.3,112.9,95.8,111.1,95.8z M202.7,95.8c-1.9,0-3.4-1.5-3.4-3.4s1.5-3.4,3.4-3.4c1.9,0,3.4,1.5,3.4,3.4l0,0
		C206,94.3,204.5,95.8,202.7,95.8C202.7,95.8,202.7,95.8,202.7,95.8L202.7,95.8z"/>
	<path class="st5" d="M111.1,88.5c-2.2,0-4,1.8-4,4c0,2.2,1.8,4,4,4c2.2,0,4-1.8,4-4c0,0,0,0,0,0C115,90.3,113.3,88.5,111.1,88.5
		C111.1,88.5,111.1,88.5,111.1,88.5z M111.1,95.8c-1.9,0-3.4-1.5-3.4-3.4s1.5-3.4,3.4-3.4c1.9,0,3.4,1.5,3.4,3.4l0,0
		C114.4,94.3,112.9,95.8,111.1,95.8z"/>
	<path class="st5" d="M202.7,88.5c-2.2,0-4,1.8-4,4c0,2.2,1.8,4,4,4c2.2,0,4-1.8,4-4c0,0,0,0,0,0C206.7,90.3,204.9,88.5,202.7,88.5z
		 M202.7,95.8c-1.9,0-3.4-1.5-3.4-3.4s1.5-3.4,3.4-3.4c1.9,0,3.4,1.5,3.4,3.4l0,0C206,94.3,204.5,95.8,202.7,95.8z"/>
	<circle class="st1" cx="284.8" cy="154" r="4.2"/>
	<circle class="st1" cx="299.7" cy="135.4" r="7"/>
	<circle class="st1" cx="290.5" cy="169.3" r="7"/>
	<circle class="st1" cx="12.7" cy="133.7" r="9.9"/>
	<path class="st2" d="M230.6,146.5h-37.4c-1.3,0-2.4-1.1-2.4-2.4v-20c0-1.3,1.1-2.4,2.4-2.4h37.4c1.3,0,2.4,1.1,2.4,2.4v20
		C232.9,145.5,231.9,146.5,230.6,146.5z"/>
	<path class="st8" d="M226.8,114.7l-2-2c-0.4-0.4-1.1-0.4-1.5,0c0,0,0,0,0,0L210.9,125l-5.3-5.3c-0.4-0.4-1.1-0.4-1.5,0l-2,2
		c-0.4,0.4-0.4,1.1,0,1.5l8,8c0.4,0.4,1.1,0.4,1.5,0l15.2-15.1C227.2,115.7,227.2,115.1,226.8,114.7
		C226.8,114.7,226.8,114.7,226.8,114.7z"/>
	<g class="st9">
		
			<linearGradient id="SVGID_1_" gradientUnits="userSpaceOnUse" x1="330.5293" y1="12.9613" x2="330.5293" y2="134.2802" gradientTransform="matrix(-1 0 0 -1 503.2186 287.0367)">
			<stop  offset="0" style="stop-color:#808080;stop-opacity:0.25"/>
			<stop  offset="0.54" style="stop-color:#808080;stop-opacity:0.12"/>
			<stop  offset="1" style="stop-color:#808080;stop-opacity:0.1"/>
		</linearGradient>
		<path class="st10" d="M147.8,264.9c0.5,1.1,1.9,1.3,2.5,2.3c0.4,0.6,0.4,1.4,0.9,1.8c0.3,0.2,0.5,0.4,0.8,0.5
			c0.5,0.4,0.8,1,1.4,1.4c0.3,0.2,0.6,0.3,0.9,0.4c1.1,0.4,2.4,0.9,3.4,0.3c0.3-0.1,0.5-0.4,0.5-0.7c0-0.2,0-0.5-0.2-0.7
			c-0.2-0.4-0.6-0.8-0.9-1.1c-0.2-0.2-0.6-0.3-0.8,0c0,0.1-0.1,0.1-0.1,0.2c-0.1-0.2-0.1-0.5-0.2-0.7c-0.1-0.6-0.2-1.1-0.2-1.7
			c-0.2-1.1-0.1-2.2,0.1-3.2c0.2-0.7,0.5-1.4,0.8-2c0.4-0.9,0.9-1.7,1.4-2.5c0.3,0.3,0.6,0.6,0.9,0.9c2.3-2,3.5-5,5.3-7.5
			c1.2-1.5,2.6-2.8,4.3-3.9c-0.9,1.3-1.1,3.2-1,4.8c0.1,0.8,0.2,1.6,0.4,2.4c0.4,2.5,0.4,5.3-1,7.4c0.5,0.2,0.9,0.5,1.4,0.6
			c-0.1,1.6-0.2,3.2-0.5,4.8c-0.3-0.1-0.7,0.1-0.8,0.4c-0.5,0.8-0.5,2.1-0.6,3c0,0.2,0,0.5,0.1,0.7c0.1,0.2,0.3,0.4,0.5,0.4
			c0,0,0,0,0,0c-0.1,0.1-0.1,0.4,0,0.5c0.2,0.1,0.3,0.2,0.5,0.2c0.8,0.1,1.6,0.1,2.4,0c0.3,0,0.5-0.1,0.7-0.3
			c0.2-0.2,0.3-0.5,0.1-0.7l1.9-0.1c1.1,0,2.1-0.2,3.1-0.4c1-0.3,1.9-0.9,2.5-1.8c0.2-0.3,0.3-0.6,0.3-1c-0.1-0.4-0.4-0.7-0.7-0.8
			c-1.1-0.7-2.4-0.9-3.6-0.6l0.2,0.2c-0.2,0-0.4-0.1-0.6-0.2c-0.6-0.2-1.2-0.6-1.4-1.2c-0.1-0.3-0.1-0.6-0.1-0.9
			c0-0.4,0.1-1.1,0-1.8c0.7-0.2,1.4-0.7,1.9-1.3c0.5-5.4,1.6-10.5,2.9-15.7c0.3-1,0.5-2.1,0.6-3.2c0.2-2.2-0.4-4.7,0.2-6.7
			c0.3-1,0.5-2,0.5-3.1c0-0.1,0-0.2,0-0.3c0-0.8,0.1-1.5,0.3-2.2c0.4-1.7,0.8-3.5,1.2-5.2c0.5-2.3,1-4.7,0.5-6.9
			c0.3-0.1,0.5-0.2,0.7-0.4c0.4-0.3,0.4-0.9,0.2-1.4c-0.2-0.5-0.5-1-0.2-1.5c0.1-0.2,0.3-0.4,0.4-0.5c0.3-0.4,0.3-0.9,0.4-1.4
			c0-0.7,0.1-1.3,0.1-2l-0.1,0l0.6-4c0.1-0.3,0.1-0.7,0-1c-0.2-0.3-0.5-0.6-0.8-0.8c-0.6-0.4-1.3-0.7-2-1c0,0,0-0.1,0-0.1
			c-0.1-0.3-0.2-0.6-0.2-0.9c0-0.3,0-0.7,0-1c-0.1-0.8-0.4-1.6-0.2-2.3c0-0.5-0.1-1-0.4-1.4c-0.3-0.4-0.3-1-0.2-1.5
			c0.2-0.6,0.4-1.2,0.4-1.8c0-0.3-0.1-0.5-0.1-0.8c0-0.6,0.5-1,0.9-1.4c1.3-1.5,1.4-3.7,0.4-5.4c-0.5-0.8-1.2-1.4-1.6-2.2
			c0,0,0.1-0.1,0.1-0.1c0.2-0.6,0.3-1.3,0.3-1.9c0-0.2,0-0.3,0-0.5v0c0-0.5,0-0.9-0.1-1.4c-0.1-0.3-0.3-0.6-0.5-0.9
			c0-0.4,0-0.8-0.1-1.2c-0.1-0.6-0.4-1.3-0.8-1.8l0.3-0.3c0.5-0.6,1-1.2,1-1.9c0-0.1,0-0.1,0-0.2v-0.1v-0.1c0,0,0,0,0-0.1
			c0-0.1,0-0.1,0-0.2c0,0,0,0,0,0l0-0.2l0,0c0-0.1-0.1-0.3-0.1-0.4c0-0.2-0.1-0.5-0.1-0.7l1.9-0.3c0.4-0.1,0.9-0.2,1.1-0.5
			c0.1-0.3,0.2-0.6,0.1-1c0,0,0-0.1,0-0.1c0.3-0.1,0.5-0.3,0.8-0.4c2.4-1.5,4.4-3.7,6.2-5.8c1.2-1.4,2.5-2.8,3.8-4.2
			c0.8-0.2,1.6-0.4,2.2-1.1c0.3-0.3,0.5-0.8,0.9-1c0.2-0.1,0.5-0.1,0.7-0.2c0.7-0.1,1.3-0.7,1.5-1.3c0.2-0.7-0.1-1.5-0.7-1.9
			c-0.2-0.1-0.3-0.2-0.5-0.3c-0.1-0.2-0.1-0.4,0-0.6c0.1-0.6,0.3-1.1,0.6-1.6c0.3-0.5,0.6-1.1,0.3-1.5l-3.3,3.6
			c-0.5,0.5-1,1.1-1.4,1.6c-0.4,0.5-0.6,1.1-1,1.7c-1.1,1.7-3,2.7-4.8,3.6c-1.1,0.5-2.2,1-3.3,1.5v-0.1c0,0,0,0,0,0
			c0-0.1,0-0.1,0-0.2v0c0-0.4-0.1-0.9-0.3-1.3c-0.4-0.7-1-1.2-1.1-1.9c-0.1-0.4,0.1-0.9,0.1-1.3c0-0.8-0.6-1.4-1.3-1.8
			s-1.5-0.4-2.2-0.5l0.7,0.3l-2.6-1c-1-0.4-2-0.8-3.1-0.8c-2-0.1-3.9,1.1-5.2,2.7c-0.6,0.8-1,1.6-1.4,2.5l0,0
			c-0.1,0.1-0.1,0.3-0.1,0.4l0,0c0,0.1-0.1,0.3-0.1,0.4l0,0c0,0.1-0.1,0.2-0.1,0.4v0c0,0.1-0.1,0.2-0.1,0.4c0,0,0,0,0,0
			c0,0.1-0.1,0.2-0.1,0.3l0,0.1c0,0.1-0.1,0.2-0.1,0.3l0,0.1c0,0.1,0,0.2-0.1,0.3l0,0.1c0,0.1-0.1,0.3-0.1,0.4
			c0,0.2-0.1,0.4-0.1,0.6c0,0.2-0.1,0.4-0.1,0.7c-0.1,1-0.4,1.9-0.9,2.7c-0.8,1.3-2.3,2.2-3.2,3.4l0,0c-0.1,0.2-0.3,0.4-0.4,0.6l0,0
			c0,0.1-0.1,0.1-0.1,0.2l0,0c0,0-0.1,0.1-0.1,0.1s0,0,0,0.1c0,0,0,0.1,0,0.1s0,0,0,0.1s0,0.1,0,0.1c0,0,0,0,0,0.1
			c0,0.1,0,0.1,0,0.2c0,0.1,0,0.2,0,0.3c0,0.5,0.1,0.9,0.2,1.4c0,0.2,0.1,0.3,0.1,0.5l0,0c0,0.2,0.1,0.4,0.1,0.5c0,0.1,0,0.1,0,0.2
			c0,0.1,0,0.2,0,0.4c0,0.1,0,0.1,0,0.2c0,0.1,0,0.3,0,0.4c0,0.1,0,0.1,0,0.2c0,0.2,0,0.3,0,0.5c0,0.1,0,0.2,0,0.3l0,0.3
			c0,0.1,0,0.2,0,0.3s0,0.2,0,0.2c0,0.1,0,0.2,0,0.3c-0.1,0.4-0.2,0.7-0.3,1.1c-0.4,1.4-1.1,2.7-1.6,4l0,0.1c0,0.1-0.1,0.2-0.1,0.3
			l0,0.1c0,0.1-0.1,0.2-0.1,0.3l0,0.1c0,0.1-0.1,0.2-0.1,0.4l0,0c-0.1,0.2-0.1,0.4-0.1,0.6c-0.1,0.3-0.1,0.6-0.1,0.9
			c0,0.3,0.1,0.6,0.2,0.9c0.2,0.6,0.6,1.1,1,1.6c0.1,0.1,0.2,0.3,0.3,0.4c0.1,0.2,0.3,0.4,0.3,0.6c0,0.1,0.1,0.1,0.1,0.2
			c0.1,0.1,0.1,0.3,0.1,0.5c0,0.1,0,0.1,0,0.2v0.1l0,0c0,0.6-0.2,1.1-0.4,1.7c-0.5,1.2-0.9,2.4-1.4,3.5l0,0c0.3,0,0.7-0.1,1-0.1
			c0.7-0.1,1.5-0.3,2.2-0.5l0.4-0.1c0.5-0.2,0.9-0.3,1.4-0.5c-0.1,1.3-0.1,2.6-0.1,3.9c0,2.6-0.2,5.3-1.8,7.4
			c0.2,0.1,0.5,0.1,0.7,0.2c-1.3,1.7-1.9,3.9-1.8,6.1c0.1,2.7,1,5.3,2,7.9c1.3,3.7,2.7,7.3,4,10.9c-0.2,0.4-0.2,0.8-0.3,1.2
			c-0.1,0.4,0,0.9,0.3,1.2c0.1,0.1,0.3,0.3,0.4,0.4c0.4,0.4,0.4,1.1,0.4,1.7c-0.1,0.6-0.2,1.2,0,1.8c0.1,0.2,0.2,0.5,0.2,0.7
			c0.1,0.3,0,0.5-0.2,0.7c-0.3,0.2-0.8,0.2-0.9,0.5c-3.7,3.2-6.8,7-9.1,11.3c-0.9,1.6-1.8,3.4-3.4,4.2c0.3,0.2,0.5,0.4,0.8,0.6
			c-1.3,1.3-2.7,2.5-4.2,3.6c-0.1,0-0.1,0-0.2,0c-0.7,0.3-1.4,0.7-2,1.1C147.9,262.2,147.2,263.7,147.8,264.9z"/>
		<path class="st11" d="M172,263.3c-0.3-0.2-3.5-0.1-3.5,0c0,2-0.2,4-0.6,5.9c0,0.2-0.1,0.4,0,0.5c0.1,0.6,0.8,0.8,1.3,1
			c1.6,0.4,3.2,0.6,4.8,0.7c0.8,0.1,1.6,0.1,2.2-0.3s1-1.4,0.4-1.9c-0.2-0.2-0.5-0.3-0.7-0.4c-0.6-0.2-1.3-0.2-1.9-0.5
			c-0.6-0.2-1.2-0.6-1.4-1.2c-0.1-0.3-0.1-0.6-0.2-0.9C172.4,265.5,172.6,263.7,172,263.3z"/>
		<path class="st11" d="M158.9,258.7c-0.4-1-1.9-1.7-2.8-2.1c-0.1-0.1-0.2-0.1-0.3-0.1c-0.1,0-0.3,0.1-0.4,0.2
			c-1.5,1.5-3.1,2.9-4.8,4.1c-0.2,0.1-0.3,0.2-0.4,0.4c-0.1,0.2-0.2,0.5-0.1,0.7c0.1,3,1.8,5.8,4.2,7.8c0.4,0.3,0.8,0.6,1.2,0.8
			c0.5,0.2,1,0.1,1.4-0.1c-0.5-0.3-0.6-0.9-0.7-1.5c-0.1-0.6-0.2-1.1-0.2-1.7c-0.2-1.1-0.1-2.1,0.1-3.2c0.2-0.7,0.5-1.3,0.8-2
			c0.5-0.9,1-1.8,1.5-2.7C158.4,259,158.6,258.8,158.9,258.7z"/>
		<path class="st12" d="M167.1,269.3c-0.5,0.8-0.5,2.1-0.6,3c0,0.2,0,0.5,0.1,0.7c0.1,0.2,0.3,0.4,0.5,0.4c0,0,0,0,0,0
			c-0.1,0.1-0.1,0.4,0,0.5c0.2,0.1,0.3,0.2,0.5,0.2c0.8,0.1,1.6,0.1,2.4,0c0.3,0,0.5-0.1,0.7-0.3c0.2-0.2,0.3-0.5,0.1-0.7l1.9-0.1
			c1,0,2.1-0.2,3.1-0.4c1-0.3,1.9-0.9,2.5-1.8c0.2-0.3,0.3-0.6,0.3-1c-0.1-0.4-0.4-0.7-0.7-0.8c-1.1-0.7-2.4-0.9-3.6-0.6l1.4,1.2
			c0.2,0.1,0.3,0.3,0.5,0.5c0.1,0.2,0.1,0.5,0,0.6c-0.2,0.2-0.5,0.2-0.7,0.1c-2.1-0.3-4.3-0.6-6.2-1.4
			C168.6,269.1,167.6,268.5,167.1,269.3z"/>
		<path class="st12" d="M147.9,265c0.5,1.1,1.9,1.3,2.5,2.3c0.4,0.6,0.4,1.3,0.9,1.8c0.3,0.2,0.5,0.4,0.8,0.5c0.5,0.4,0.8,1,1.4,1.4
			c0.3,0.2,0.5,0.3,0.8,0.4c1.1,0.4,2.4,0.9,3.4,0.3c0.3-0.1,0.5-0.4,0.5-0.7c0-0.2,0-0.5-0.2-0.7c-0.2-0.4-0.5-0.8-0.9-1.1
			c-0.2-0.2-0.6-0.3-0.8,0c-0.1,0.2,0,0.5-0.2,0.6c-0.1,0.1-0.3-0.1-0.4-0.2c-0.8-0.9-1.1-2.2-1.5-3.4c-0.7-2.1-1.7-4-3-5.8
			c0,0,0,0,0,0c-0.1-0.1-0.2-0.1-0.3,0c-0.7,0.3-1.4,0.7-2,1.1C148,262.3,147.3,263.8,147.9,265z"/>
		<path class="st12" d="M177.4,207c1.2,0,2.2,0.8,2.5,2c0.8,1.8,1.3,4.2,0.2,5.9c0.4-0.8,1.1-1.4,1.9-1.7l-0.1,2
			c0,0.5-0.1,1-0.4,1.4c-0.2,0.2-0.3,0.3-0.4,0.5c-0.2,0.5,0,1,0.2,1.5c0.2,0.5,0.3,1.1-0.2,1.4c-0.2,0.2-0.5,0.3-0.7,0.4
			c0.5,2.2,0,4.6-0.5,6.9l-1.2,5.2c-0.2,0.7-0.2,1.5-0.3,2.2c0,0.1,0,0.2,0,0.3c-0.1,1-0.2,2-0.5,3c-0.6,2,0,4.4-0.2,6.6
			c-0.1,1.1-0.3,2.1-0.6,3.1c-1.3,5.2-2.5,10.2-2.9,15.5c-0.6,0.8-1.5,1.3-2.5,1.5c-1.6,0.2-3.2-0.3-4.7-1.1c1.3-2.1,1.4-4.8,1-7.3
			c-0.2-0.8-0.3-1.6-0.4-2.4c-0.1-1.6,0.2-3.4,1-4.7c-1.6,1-3.1,2.3-4.3,3.8c-1.9,2.4-3,5.3-5.3,7.4c-1.5-1.4-3-2.8-4.6-4.1
			c1.7-0.8,2.5-2.5,3.4-4.1c2.3-4.2,5.4-8,9.1-11.2c0.1-0.3,0.6-0.3,0.9-0.5c0.2-0.2,0.3-0.4,0.2-0.7c0-0.2-0.2-0.5-0.2-0.7
			c-0.2-0.6,0-1.2,0-1.7c0.1-0.6,0-1.2-0.4-1.7c-0.1-0.1-0.3-0.3-0.4-0.4c-0.3-0.3-0.4-0.8-0.3-1.2c0-0.4,0.1-0.8,0.3-1.2
			c-1.3-3.6-2.7-7.2-4-10.8c-0.9-2.5-1.9-5.1-2-7.8c-0.1-2.7,0.8-5.5,3-7.2C167.7,204.4,173.1,206.2,177.4,207z"/>
		<path class="st13" d="M167.8,221.7l0.5,14.7v6.5c0,0,0.5,6.1,0.5,5.6c0-0.5,0.4-4.7,0-5.6c-0.4-0.9,0-4.5,0-4.5v-6.8
			c0,0-0.5-9.7-0.5-10.8c0-1.1-2.2-2.5-2.2-2.5L167.8,221.7z"/>
		<path class="st11" d="M179.6,174.8c1-0.2,1.9-0.6,2.8-1.1c2.4-1.4,4.4-3.6,6.2-5.8c1.2-1.4,2.5-2.8,3.8-4.2
			c0.8-0.2,1.6-0.4,2.2-1.1c0.3-0.3,0.5-0.8,0.9-1c0.2-0.1,0.5-0.1,0.7-0.2c0.7-0.1,1.3-0.6,1.5-1.3c0.2-0.7-0.1-1.5-0.7-1.8
			c-0.2-0.1-0.3-0.2-0.5-0.3c-0.1-0.2-0.1-0.4,0-0.5c0.1-0.6,0.3-1.1,0.6-1.6c0.3-0.5,0.6-1,0.3-1.5l-3.3,3.6c-0.5,0.5-1,1-1.4,1.6
			c-0.4,0.5-0.6,1.1-1,1.7c-1.1,1.7-2.9,2.7-4.7,3.6c-2.5,1.2-5,2.2-7.6,3.3l-1.3,0.5C178.8,170.6,179.3,172.7,179.6,174.8z"/>
		<path class="st14" d="M179.6,174.8c1-0.2,1.9-0.6,2.8-1.1c2.4-1.4,4.4-3.6,6.2-5.8c1.2-1.4,2.5-2.8,3.8-4.2
			c0.8-0.2,1.6-0.4,2.2-1.1c0.3-0.3,0.5-0.8,0.9-1c0.2-0.1,0.5-0.1,0.7-0.2c0.7-0.1,1.3-0.6,1.5-1.3c0.2-0.7-0.1-1.5-0.7-1.8
			c-0.2-0.1-0.3-0.2-0.5-0.3c-0.1-0.2-0.1-0.4,0-0.5c0.1-0.6,0.3-1.1,0.6-1.6c0.3-0.5,0.6-1,0.3-1.5l-3.3,3.6c-0.5,0.5-1,1-1.4,1.6
			c-0.4,0.5-0.6,1.1-1,1.7c-1.1,1.7-2.9,2.7-4.7,3.6c-2.5,1.2-5,2.2-7.6,3.3l-1.3,0.5C178.8,170.6,179.3,172.7,179.6,174.8z"/>
		<path class="st15" d="M177.6,176.2c-0.5,0.1-1.7,0.5-2.1,0.2c-0.4-0.3-1-4.5-1.3-4.4c1.1-0.4,2.1-0.9,3.2-1.4
			c1.1-0.6,2.3-1.3,2.9-2.4c0.7,2,1.1,4,1.4,6c0.1,0.3,0,0.7-0.1,0.9c-0.2,0.3-0.7,0.4-1.1,0.5L177.6,176.2z"/>
		<circle class="st11" cx="177.5" cy="168.7" r="5.7"/>
		<path class="st16" d="M173.2,170.4c1.1,3.2-5.6,8.6-5.6,8.6s7.2,3.8,9.3,3.6c2.2-0.2,1.3-1.6-0.4-3.8c-1.6-2.2,2.2-5.4,2.2-5.4
			S172.1,167.2,173.2,170.4z"/>
		<path class="st15" d="M176.4,180c0.1,0.1,0.1,0.2,0.1,0.3c0,0.3-0.2,0.6-0.5,0.6c-1,0.1-2.1,0-3.1-0.3c-1.3-0.4-2.6-1.4-2.9-2.7
			c-0.2-1.1,0-2.3-0.9-3c-0.5-0.4-1.2-0.5-1.9-0.2c-1.3,0.5-1.9,1.7-2.4,2.8c-0.6,1.2-1.2,2.5-1.3,3.9c0,0.7,0,1.3,0.2,1.9
			c0.3,1.6,0.6,3.2,1.4,4.6c-0.6,4.2-0.9,8.5-1,12.8c0,2.6-0.2,5.3-1.8,7.3c0.7,0.2,1.5,0.4,2.2,0.5c2.5,0.5,5,1,7.5,1.1
			c2.8,0.1,5.6-0.3,8.2-1.5l-0.5-1.8c-0.1-0.3-0.2-0.6-0.2-0.9c0-0.3,0-0.7,0-1c-0.1-0.8-0.4-1.5-0.2-2.3c0-0.5-0.1-1-0.4-1.4
			c-0.3-0.4-0.3-1-0.2-1.5c0.2-0.6,0.4-1.2,0.4-1.8c0-0.3-0.1-0.5-0.1-0.8c0-0.6,0.5-1,0.9-1.4c1.3-1.5,1.4-3.7,0.4-5.4
			c-0.5-0.8-1.2-1.4-1.6-2.3c-0.8-1.8,0.1-3.9-0.4-5.9c-0.4-1.6-1.7-2.9-3.3-3.3C175.5,179,175.9,179.5,176.4,180z"/>
		<path class="st11" d="M166.4,202.1c-0.1,0-0.2,0.1-0.2,0.1c-0.1,0.1-0.1,0.2-0.1,0.3c0.1,0.9,0.6,1.7,1.3,2.2
			c0.7,0.5,1.5,1,2.3,1.3c3.1,1.4,6.4,2.5,9.4,4c0.2,0.1,0.3,0.4,0.3,0.6c0,0.7-0.1,1.4-0.2,2.1c-0.1,0.7-0.1,1.4,0.3,2
			c0.1,0.1,0.1,0.2,0.2,0.3c0.2,0.3,0.1,0.6,0.1,1c0.9-0.7,2-1.5,2.2-2.7l0.6-4.3c0.1-0.3,0.1-0.7,0-1c-0.2-0.3-0.5-0.6-0.8-0.7
			c-1.4-0.8-2.9-1.3-4.4-2c-2.5-1.2-4.6-3-6.7-4.7C169.3,201.2,167.8,201.6,166.4,202.1z"/>
		<path class="st13" d="M174.9,183.2c-1.1,0.8-1.9,1.9-2.7,3c-0.5,0.7-1.4,1.3-1.8,2.2c-0.3,0.7-0.7,1.3-1.1,1.8
			c-1.3,1.8-2.2,3.8-3.1,5.8l-1.1,2.3c-0.4,0.8-0.7,1.7-0.9,2.7c-0.2,1.2,0.2,2.6,0.5,3.8c1.6,0.2,3.2-0.4,4.6-1.1
			c0.9-0.4,1.8-1,2.1-1.9c-0.2,0-0.3-0.2-0.2-0.4c0.1-0.2,0.2-0.3,0.3-0.4c0.1-0.1,0.2-0.3,0.2-0.5c0-0.1-0.1-0.2-0.1-0.3
			c-0.1-0.3,0.3-0.7,0.5-1c2.5-3.3,3.7-7.3,6.2-10.6c0.2-0.3,0.5-0.6,0.6-0.9c0.2-0.6,0.4-1.2,0.3-1.9c0-0.5,0-0.9-0.1-1.4
			c-0.4-1-1.5-1.6-2.5-1.7C176,182.6,175.3,182.9,174.9,183.2z"/>
		<path class="st15" d="M174.9,182.7c-1.1,0.8-1.9,1.9-2.7,3c-0.5,0.7-1.4,1.3-1.8,2.2c-0.3,0.7-0.7,1.3-1.1,1.8
			c-1.3,1.8-2.2,3.8-3.1,5.8l-1.1,2.3c-0.4,0.8-0.7,1.7-0.9,2.7c-0.2,1.2,0.2,2.6,0.5,3.8c1.6,0.2,3.2-0.4,4.6-1.1
			c0.9-0.4,1.8-1,2.1-1.9c-0.2,0-0.3-0.2-0.2-0.4c0.1-0.2,0.2-0.3,0.3-0.4c0.1-0.1,0.2-0.3,0.2-0.5c0-0.1-0.1-0.2-0.1-0.3
			c-0.1-0.3,0.3-0.7,0.5-1c2.5-3.3,3.7-7.3,6.2-10.6c0.2-0.3,0.5-0.6,0.6-0.9c0.2-0.6,0.4-1.2,0.3-1.9c0-0.5,0-0.9-0.1-1.4
			c-0.4-1-1.5-1.6-2.5-1.7C176,182.1,175.3,182.4,174.9,182.7z"/>
		<path class="st12" d="M179.7,159.6l-2.6-1c-1-0.4-2-0.7-3.1-0.8c-2-0.1-3.9,1.1-5.2,2.6c-1.3,1.6-1.9,3.6-2.3,5.5
			c-0.3,1.4-0.4,2.8-1.1,4c-1.2,1.8-3.7,2.8-3.9,5c-0.1,0.7,0.1,1.4,0.2,2.1c0.3,1.6,0.2,3.2-0.3,4.8c-0.5,1.8-1.5,3.3-2,5.1
			c-0.2,0.8-0.3,1.6-0.1,2.4c0.4,1.2,1.7,2,1.8,3.3c0.1,0.7-0.2,1.3-0.4,1.9l-1.4,3.5c2.4-0.2,4.8-0.9,6.9-2.2
			c0.8-0.5,1.6-1.1,2.1-1.8c0.6-0.9,1-1.9,1.5-2.9c0.5-0.9,1-1.9,1.6-2.7c2-3,4.1-5.9,6.5-8.6c0.5-0.5,1-1.1,1-1.9
			c0-0.4,0-0.8-0.1-1.2c-0.4-2,0.2-4.1,1.5-5.7c0.8-1,1.9-1.8,2.7-2.7s1.3-2.4,0.7-3.5c-0.3-0.6-1-1.1-1.1-1.9
			c-0.1-0.4,0.1-0.9,0.1-1.3c0-0.8-0.6-1.4-1.3-1.8c-0.7-0.3-1.5-0.4-2.2-0.5"/>
		<g class="st17">
			<path d="M167.4,162.9c-0.4,1-0.7,2.1-0.9,3.1c-0.1,0.4-0.1,0.8-0.2,1.3c0.6-1.1,0.7-2.4,0.9-3.6
				C167.3,163.5,167.3,163.2,167.4,162.9z"/>
			<path d="M162.1,173.4c-0.4,0.5-0.6,1-0.7,1.6c-0.1,0.7,0.1,1.4,0.2,2.1c0.2,1.2,0.2,2.4,0,3.7c0.2-0.4,0.3-0.8,0.4-1.2
				c0.5-1.5,0.6-3.2,0.3-4.8C162.3,174.3,162.2,173.8,162.1,173.4z"/>
			<path d="M159.3,189.4c0.4,1.2,1.7,2,1.8,3.3c0,0.1,0,0.2,0,0.3c0.1-0.2,0.2-0.5,0.3-0.7c0.3-0.6,0.5-1.3,0.4-1.9
				c-0.2-1.3-1.4-2.1-1.8-3.3c-0.2-0.5-0.2-1.1-0.1-1.6c-0.2,0.5-0.4,1-0.5,1.5C159.1,187.7,159,188.6,159.3,189.4z"/>
			<path d="M160.2,195.7l-1,2.3c2.4-0.2,4.8-0.9,6.9-2.2c0.8-0.5,1.6-1.1,2.1-1.8c0.6-0.9,1-1.9,1.5-2.9c0.5-0.9,1-1.9,1.6-2.7
				c2-3,4.1-5.9,6.5-8.6c0.5-0.5,1-1.1,1-1.9c0-0.3,0-0.5-0.1-0.8c-0.1,0.1-0.2,0.2-0.2,0.3c-2.3,2.7-4.5,5.6-6.5,8.6
				c-0.6,0.9-1.1,1.8-1.6,2.7c-0.5,1-0.8,2-1.5,2.9c-0.6,0.7-1.3,1.4-2.1,1.8C164.8,194.7,162.6,195.5,160.2,195.7z"/>
			<path d="M179.4,172.3c0.2-0.4,0.5-0.9,0.8-1.2c0.8-1,1.9-1.7,2.7-2.7c0.6-0.7,0.9-1.7,0.9-2.6c-0.1,0.1-0.1,0.2-0.2,0.3
				c-0.8,1-1.9,1.8-2.7,2.7C180.1,169.7,179.5,170.9,179.4,172.3z"/>
		</g>
	</g>
</g>
<g id="katman_2" class="st0">
	<path class="st1" d="M153.5,205.6c3.3-14.7,15.3-26,28.5-33.2c13.2-7.2,27.8-11.3,41.5-17.6c11.5-5.2,22.3-11.9,32.1-19.8
		c14-11.4,26.6-27.1,26.2-45.2c-0.4-20.1-19.7-37.8-39.7-36.6c-10.2,0.6-19.6,5.4-29.6,7.8c-9.9,2.4-21.9,2-28.5-5.8
		c-6.2-7.2-5.7-18-3-27c2-7,4.9-15.3,0.3-21c-4.5-5.5-13-4.7-19.8-2.5c-21.9,7.4-39.8,25.5-47,47.4c-2.6,7.8-3.9,16.1-7.3,23.6
		c-8.9,19.7-30.1,30-47.2,43.2c-14.5,11.2-26.7,25.1-35.9,41c-5.5,9.5-10,20.1-9.5,31.1c0.3,7.9,3.2,15.5,6.1,22.9
		c3.1,7.9,6.4,15.7,9.8,23.4c2,4.7,4.1,9.4,7.4,13.3c5.9,7.1,14.9,10.9,23.9,12.9c21.4,4.6,44.6-0.3,62.2-13.3s29.2-33.6,31.1-55.4"
		/>
	<g class="st9">
		<g>
			<path class="st18" d="M37.8,57.9h157.7c1.2,0,2.1,1.4,2.1,3.2v127.2c0,1.7-1,3.2-2.1,3.2H37.8c-1.2,0-2.1-1.4-2.1-3.2V61
				C35.7,59.3,36.6,57.9,37.8,57.9z"/>
			<path class="st12" d="M196.8,56.6H36.5c-0.5,0-0.8,0.4-0.8,1v4.1h162v-4.1C197.7,57.1,197.3,56.6,196.8,56.6
				C196.8,56.6,196.8,56.6,196.8,56.6z"/>
			<g id="_x38_3eb5f8b-b68b-4721-b047-6100bc74156f">
				<ellipse class="st19" cx="38.9" cy="59.2" rx="1.1" ry="1.3"/>
				<ellipse class="st19" cx="41.9" cy="59.2" rx="1.1" ry="1.3"/>
				<ellipse class="st19" cx="44.9" cy="59.2" rx="1.1" ry="1.3"/>
			</g>
			<path class="st20" d="M41.5,67H79c0.4,0,0.7,0.3,0.7,0.8V71c0,0.4-0.3,0.8-0.7,0.8H41.5c-0.4,0-0.7-0.3-0.7-0.8v-3.2
				C40.8,67.4,41.1,67,41.5,67z"/>
		</g>
		<g>
			<rect x="142.6" y="250.9" class="st12" width="135.2" height="0.5"/>
			<path class="st21" d="M52,149.8c-1.8-2.7-2.6-7.5,0.8-9.9c1.7-1.2,3.7-1,5.5-0.5c2.5,0.7,4.6,2.2,6.5,3.8c2.2,1.9,4,4.1,5.9,6.3
				c1.8,2.2,3.7,4.3,5.6,6.4c3.8,4.1,7.9,8,12.1,11.5c4.2,3.5,8.6,6.8,13.2,9.7c2.3,1.5,4.6,2.9,7,4.2c2.2,1.3,4.5,2.4,6.9,3.4
				c3.1,1.3,8.5,3,11.3-0.5c1.5-1.9,1.5-4.4,1.2-6.6c-0.4-2.6-1.4-5-2.4-7.3c-4.6-11-9.4-21.9-14-32.8c-1.1-2.6-2.2-5.1-3.1-7.7
				c-0.8-2.5-1.6-5.1-1.6-7.8c0-2.3,0.5-5,2.3-6.8c1.5-1.5,3.6-2,5.5-2c4.8,0,9.4,2.5,13.2,5.1c4.7,3.2,8.8,7.1,13.5,10.4
				c3.8,2.6,8.2,5,13,5.3c1.8,0.1,3.8-0.1,5.5-1.1c1.6-1,2.8-2.6,3.3-4.4c0.6-2.1,0.5-4.3,0.2-6.4c-0.4-2.4-1.2-4.8-2.2-7
				c-2.3-4.8-5.4-9.2-8-13.8c-1.3-2.3-2.6-4.6-3.4-7.1c-0.7-2.1-1.3-4.7-0.6-7c1.4-4.8,7.1-3,10-1.6c2,1,3.9,2.1,5.7,3.3
				c0.4,0.3,0.8-0.4,0.4-0.7c-1.9-1.3-3.9-2.5-6-3.4c-1.8-0.8-3.7-1.5-5.7-1.5c-1.7,0-3.4,0.7-4.4,2.3c-1.2,1.8-1.1,4.1-0.8,6.1
				c0.4,2.6,1.4,4.9,2.6,7.2c1.2,2.4,2.6,4.6,4,6.9c2.8,4.5,5.9,9.1,7.3,14.3c1,3.7,1.6,9.4-2.4,12.1c-1.8,1.2-3.9,1.3-5.9,1.1
				c-2.4-0.3-4.6-1.1-6.7-2c-9.8-4.6-16.3-14.2-26.8-17.7c-3.6-1.2-8.5-2-11.7,1.3c-1.6,1.7-2.3,4-2.4,6.2c-0.2,2.6,0.4,5.2,1.1,7.7
				c0.8,2.6,1.8,5.1,2.9,7.5c1.2,2.7,2.3,5.5,3.5,8.2l7.1,16.7l3.5,8.3c1.1,2.5,2.2,5.1,2.8,7.8c0.5,2.2,0.6,5.3-1.4,7.1
				c-1.6,1.4-3.9,1.4-5.7,1c-2.4-0.4-4.6-1.4-6.7-2.4c-2.5-1.2-4.8-2.5-7.2-3.9c-4.8-2.8-9.5-6-13.9-9.5c-4.4-3.5-8.6-7.2-12.6-11.2
				c-2-2-3.9-4.1-5.8-6.3c-1.9-2.2-3.7-4.5-5.7-6.7c-1.8-2-3.8-3.8-6.1-5.1c-1.9-1.2-4.2-2.1-6.5-2c-1.7,0-3.3,0.8-4.3,2.1
				c-1.1,1.3-1.6,2.9-1.6,4.6c0,1.9,0.6,3.7,1.7,5.3C51.6,150.6,52.3,150.2,52,149.8L52,149.8z"/>
			<path class="st21" d="M52.7,86.6h27.1c1.2,0,2.1,1,2.1,2.1v23.6c0,1.2-1,2.1-2.1,2.1H52.7c-1.2,0-2.1-1-2.1-2.1V88.7
				C50.6,87.6,51.6,86.6,52.7,86.6z"/>
			<path class="st15" d="M52.7,136.8h27.1c1.2,0,2.1,1,2.1,2.1v23.6c0,1.2-1,2.1-2.1,2.1H52.7c-1.2,0-2.1-1-2.1-2.1v-23.6
				C50.6,137.7,51.6,136.8,52.7,136.8z"/>
			<path class="st15" d="M153.6,86.6h27.1c1.2,0,2.1,1,2.1,2.1v23.6c0,1.2-1,2.1-2.1,2.1h-27.1c-1.2,0-2.1-1-2.1-2.1V88.7
				C151.5,87.6,152.4,86.6,153.6,86.6z"/>
			<path class="st21" d="M153.6,136.8h27.1c1.2,0,2.1,1,2.1,2.1v23.6c0,1.2-1,2.1-2.1,2.1h-27.1c-1.2,0-2.1-1-2.1-2.1v-23.6
				C151.5,137.7,152.4,136.8,153.6,136.8z"/>
			<path class="st15" d="M103.5,86.6h27.1c1.2,0,2.1,1,2.1,2.1v23.6c0,1.2-1,2.1-2.1,2.1h-27.1c-1.2,0-2.1-1-2.1-2.1V88.7
				C101.4,87.6,102.4,86.6,103.5,86.6z"/>
			<path class="st15" d="M103.5,136.8h27.1c1.2,0,2.1,1,2.1,2.1v23.6c0,1.2-1,2.1-2.1,2.1h-27.1c-1.2,0-2.1-1-2.1-2.1v-23.6
				C101.4,137.7,102.4,136.8,103.5,136.8z"/>
			<circle class="st12" cx="101.5" cy="86.6" r="5.2"/>
			<circle class="st12" cx="152" cy="86.6" r="5.2"/>
			<circle class="st12" cx="50.9" cy="136.9" r="5.2"/>
			<circle class="st12" cx="101.5" cy="136.9" r="5.2"/>
			<path class="st22" d="M223.6,248.2c0,0-7.3,0.6-6.6,3.2s6.6,2.3,6.6,2.3s4.5-0.4,6.9,0.4s5.3,0,5.4-1.3s-1.3-2.3-1.3-2.3
				l-0.9-1.9L223.6,248.2z"/>
			<path class="st23" d="M204.4,189.6l-0.8,3c0,0-3.4,6.9,0.8,6.9s2.6-6.4,2.6-6.4l0.4-3L204.4,189.6z"/>
			<path class="st23" d="M240.6,187.1l0.8,3c0,0,3.4,6.9-0.8,6.9s-2.6-6.4-2.6-6.4l-0.4-3L240.6,187.1z"/>
			<circle class="st23" cx="221.1" cy="128" r="8.1"/>
			<path class="st23" d="M218.7,134.2c0,0,0.9,4.3,0.4,6.4s11.6-0.4,11.6-0.4s-4.3-7.1-4.1-7.3L218.7,134.2z"/>
			<path class="st15" d="M220.5,139.1c0,0-3.4-0.9-4.5,0.2c-1.1,1.1-7.7,4.3-7.7,4.3l4.5,27.6l19.5-1.8l3.4-28.6
				c0,0-5.3-3.1-6.2-2.5C228.6,138.9,220.5,139.1,220.5,139.1z"/>
			<path class="st15" d="M209.8,143.7L209.8,143.7c-0.7-0.4-1.5-0.4-2.2,0c-1,0.5-2.1,1.3-2,2.9c0.2,2.5,0.8,15.4,0.9,17.1
				c0,0.1,0,0.3,0,0.4l-2.7,24c-0.1,1.3,0.7,2.4,2,2.6l1,0.2c1.2,0.2,2.4-0.6,2.7-1.8l4.8-19.5c0.1-0.3,0.1-0.7,0-1L209.8,143.7z"/>
			<path class="st15" d="M233.9,141.3l-0.5-1c0,0,4.8,1.2,4.6,3.8c-0.2,2.6,0.3,17.3,0.3,17.3l3,26.5l-5.4,0.9l-5.4-22.2
				L233.9,141.3z"/>
			<path class="st12" d="M213.9,170.2c-0.5,0.1-1,0.5-1,1.1l-0.7,8.5l-2.4,22.8c0,0.1,0,0.1,0,0.2l3.5,46.4c0,0.6,0.5,1.1,1.1,1.1
				l10.1,0.3c0.7,0,1.2-0.6,1.2-1.3l-3.6-43.8c0-0.1,0-0.2,0-0.4l3.5-14.5c0.1-0.5,0.6-0.9,1.1-0.9l10.3-0.4c0.6,0,1.1-0.5,1.1-1.1
				c0-3.6-0.2-15.2-5.7-20.1c-0.3-0.2-0.6-0.3-0.9-0.3L213.9,170.2z"/>
			<polygon class="st12" points="226.5,187.1 224.6,228.5 223.9,249.4 235,250.6 237.8,189 233.5,184.7 			"/>
			<path class="st12" d="M224.7,117.3c0,0-7.3-0.9-9.4,2.6c0,0-0.6,2.6-2.4,3.6c-1.9,0.9,0.4,4.1,0.9,5.1c0.6,0.9,2.1,6.4,0.4,7.7
				c-1.7,1.3,3,5.1,3,5.1s2.3,3,0.4,5.3c-1.9,2.3,2.4,3,2.4,3s-0.9,6.4,0.8,4.7c0,0,0.8,14.5,7.9,5.4c7.1-9,10.1-13.3,7.1-16.9
				c-3-3.6-0.8-6.8-0.8-6.8s0.9-1.9-1.1-4.7S231.8,117.3,224.7,117.3z"/>
			<path class="st22" d="M214.1,249.3c0,0-7.3,0.6-6.6,3.2s6.6,2.3,6.6,2.3s4.5-0.4,6.9,0.4c2.4,0.8,5.3,0,5.4-1.3
				c0.2-1.3-1.3-2.3-1.3-2.3l-0.9-1.9L214.1,249.3z"/>
		</g>
		<g>
			<ellipse class="st24" cx="275.8" cy="251" rx="5.6" ry="0.8"/>
			<path class="st15" d="M275.6,250.8c0,0,7.8-25.6-1.2-35.8c-6.7-7.7-14.4-6.7-17.8-5.8c-1.8,0.5-3.3,1.7-4.1,3.4
				c-1.2,2.6-1,6.8,7.5,11.7c14.2,8.2,15.1,19.5,15.1,19.5L275.6,250.8z"/>
			<path class="st25" d="M257.8,212.8c0,0,23,7.2,17.8,38"/>
			<path class="st25" d="M271.2,215.4c0,0-3.2,2.1-2.2,5.3"/>
			<path class="st25" d="M260.1,217.3c0,0,1.9-2,4.3-0.9"/>
			<path class="st25" d="M269.2,227.2c0,0,3.4-1.7,4.3,0.4"/>
			<path class="st25" d="M277.6,230.8c0,0-2.6-0.2-2.6,1"/>
			<path class="st15" d="M276,251c0,0-9.1-18.6-11.6-18.2c-1.2,0.2-1.7,1.4-2,2.5c-0.3,1.5-0.1,3.1,0.5,4.5
				C264.1,242.9,267.6,248.5,276,251z"/>
			<path class="st25" d="M264.4,236.4c0,0,9.6,13.9,11.4,14.5"/>
			<line class="st25" x1="263.5" y1="238.6" x2="265.7" y2="238.6"/>
			<line class="st25" x1="266.2" y1="243.6" x2="269.7" y2="243.8"/>
			<line class="st25" x1="268.3" y1="239.6" x2="267.9" y2="241.4"/>
			<line class="st25" x1="272" y1="245.1" x2="272" y2="246.8"/>
			<path class="st15" d="M275.7,251c0,0,9.1-18.6,11.6-18.2c1.2,0.2,1.7,1.4,2,2.5c0.3,1.5,0.1,3.1-0.5,4.5
				C287.5,242.9,284,248.5,275.7,251z"/>
			<path class="st25" d="M287.3,236.4c0,0-9.6,13.9-11.4,14.5"/>
			<line class="st25" x1="288.1" y1="238.6" x2="285.9" y2="238.6"/>
			<line class="st25" x1="285.5" y1="243.6" x2="282" y2="243.8"/>
			<line class="st25" x1="283.3" y1="239.6" x2="283.7" y2="241.4"/>
			<line class="st25" x1="279.6" y1="245.1" x2="279.7" y2="246.8"/>
		</g>
		<g>
			<ellipse class="st24" cx="186.7" cy="250.7" rx="4" ry="0.5"/>
			<path class="st15" d="M184.5,249.5c-0.2-0.2-0.4-0.5-0.5-0.8c-0.1-0.3,0.1-0.7,0.4-0.8c0.3-0.1,0.7,0.1,1,0.3
				c0.3,0.2,0.6,0.5,0.9,0.5c-0.4-0.3-0.5-0.8-0.4-1.3c0-0.1,0.1-0.2,0.1-0.3c0.2-0.2,0.5-0.1,0.7,0c0.7,0.5,0.9,1.5,0.9,2.3
				c0-0.3,0-0.6,0-1c0-0.3,0.1-0.6,0.4-0.8c0.2-0.1,0.4-0.1,0.5-0.1c0.3,0,0.6,0,0.9,0.3c0.2,0.3,0.2,0.8,0,1.1
				c-0.3,0.3-0.6,0.5-0.9,0.7c-0.3,0.2-0.5,0.4-0.7,0.6c0,0,0,0.1,0,0.1h-2C185.3,250.1,184.9,249.8,184.5,249.5z"/>
		</g>
		<g>
			<ellipse class="st24" cx="243.7" cy="260.2" rx="4" ry="0.5"/>
			<path class="st15" d="M242.6,258.5c-0.2-0.2-0.4-0.5-0.5-0.8c-0.1-0.3,0.1-0.7,0.4-0.8c0.3-0.1,0.7,0.1,1,0.3
				c0.3,0.2,0.6,0.5,0.9,0.5c-0.4-0.3-0.5-0.8-0.4-1.3c0-0.1,0.1-0.2,0.1-0.3c0.2-0.2,0.5-0.1,0.7,0c0.7,0.5,0.9,1.5,0.9,2.3
				c0-0.3,0-0.6,0-1c0-0.3,0.1-0.6,0.4-0.8c0.2-0.1,0.4-0.1,0.5-0.1c0.3,0,0.6,0,0.9,0.3c0.2,0.3,0.2,0.8,0,1.1
				c-0.3,0.3-0.6,0.5-0.9,0.7c-0.3,0.2-0.5,0.4-0.7,0.6c0,0,0,0.1,0,0.1h-2C243.4,259.1,243,258.8,242.6,258.5z"/>
		</g>
	</g>
</g>
<g id="katman_3" class="st0">
	<path class="st1" d="M211.2,90.8c-8.9,7.6-20.5,7.1-30.7,3.1s-19.5-11-29.4-16c-8.3-4.2-17-6.9-25.8-8.2
		c-12.6-1.7-26.7,0.4-35.5,12.6c-9.8,13.6-9,38.3,1.5,50.8c5.4,6.4,12.4,9.5,18.6,14.5c6.1,5,11.8,13.2,11.3,22.8
		c-0.5,8.9-6.1,15.7-11.9,20c-4.5,3.3-10,6.9-10.6,13.8c-0.5,6.6,4.1,11.8,8.6,14.8c14.5,9.6,32.4,9.5,46.9-0.2
		c5.2-3.5,9.9-8.1,15.3-10.9c14.2-7.1,29.9,0,44.9,2.7c12.7,2.2,25.8,1.1,38.2-3.4c7.5-2.7,14.9-6.8,20.2-14.4
		c3.8-5.5,6.1-12.4,8.3-19.3c2.4-7.3,4.6-14.7,6.8-22.1c1.3-4.4,2.6-9,2.9-13.7c0.6-8.6-2-17.1-5.5-24.4
		c-8.3-17.3-22.3-29.4-37.5-32.5s-31.2,2.9-43,16.1"/>
	<rect x="138.2" y="110" class="st6" width="91.6" height="78.6"/>
	<ellipse class="st26" cx="78.5" cy="241.9" rx="55.6" ry="2.9"/>
	<path class="st27" d="M104.4,182.8l-3.2-1.6l2.7-7.2l0.7-3.6c0.3-1.5,1.7-2.5,3.2-2.2c0.5,0.1,0.9,0.3,1.3,0.6l0,0
		c1.1,1,1.3,2.6,0.4,3.8l-2.6,3.3L104.4,182.8z"/>
	<path class="st2" d="M105.4,182l-0.6,1.8l-2.6,8.3c-0.7,2.3-3.2,3.6-5.6,2.9c-1-0.3-1.9-1-2.5-1.9l-8.6-14.7
		c-0.1-0.2-0.3-0.5-0.4-0.7c-0.9-2.3,0.3-5,2.6-5.8c2.2-0.8,4.6,0.1,5.7,2.2l5.2,11.2l2.4-5.3L105.4,182z"/>
	<path class="st28" d="M104.2,235.6l-5.9,0.5l-3.2-23.2c-10.5,1.8-20.5,2.3-29.1,0.2c-2.9-0.7-4.7-3.7-4-6.6c0-0.1,0.1-0.3,0.1-0.4
		c1-3.1,2.8-6.4,5-9.7l14.1,5.1l0.5,2.1l15.1-1.9c3-0.4,5.8,1.8,6.2,4.8c0,0.2,0,0.3,0,0.5L104.2,235.6z"/>
	<path class="st28" d="M110.6,240.1L110.6,240.1c0.1-0.8-0.3-1.6-0.9-2.1l-6-3l-4.5,0.6l-1.1,3.8c-0.2,1.1,0.6,2.2,1.7,2.4
		c0,0,0.1,0,0.1,0l8.5,0C109.4,242,110.4,241.2,110.6,240.1z"/>
	<path class="st28" d="M105.7,232.6l-5.9,0.5l-3.2-23.2c-10.5,1.8-20.5,2.3-29.1,0.2c-2.9-0.7-4.7-3.7-4-6.6c0-0.1,0.1-0.3,0.1-0.4
		c1-3.1,2.8-6.4,5-9.7l14.1,5.1l0.5,2.1l15.1-1.9c3-0.4,5.8,1.8,6.2,4.8c0,0.2,0,0.3,0,0.5L105.7,232.6z"/>
	<path class="st28" d="M112.1,237.1L112.1,237.1c0.1-0.8-0.3-1.6-0.9-2.1l-6-3l-4.5,0.6l-1.1,3.8c-0.2,1.1,0.6,2.2,1.7,2.4
		c0,0,0.1,0,0.1,0l8.5,0C110.9,239,111.9,238.2,112.1,237.1z"/>
	<circle class="st27" cx="95" cy="162" r="7.2"/>
	<polygon class="st27" points="94.8,176.6 86.5,175.6 89.7,165.7 97.7,165.7 	"/>
	<path class="st2" d="M97,186.6c-0.4,1.2-1,2.3-1.8,3.2c-1.1,1.4-2.4,2.5-3.9,3.4c-0.3,0.2-0.5,0.3-0.8,0.5l-1.6,1.4l-5.6,4.8
		l-15.5-5.9c3.4-7.6,7.7-13.6,12.5-18.4c2.1-3,5.8-4.5,9.4-3.6l5.8,1.4C97.6,178.3,98.4,182.7,97,186.6z"/>
	<path class="st4" d="M99.5,175.6c-0.2,0.2-0.2,0.6,0,0.8c0.2,0.1,3.7,4.1,3.9,3.8c0.1,0,0.3-0.1,0.4-0.2l10.8-10.7
		c0.1-0.1,0.2-0.3,0.2-0.5c0.3-0.3-4.3-3-4.5-3.2c-0.2-0.1-0.5-0.1-0.7,0.1L99.5,175.6z"/>
	<path class="st6" d="M113.7,168.8l-0.4-0.3c0.1,0.2,0,0.5-0.2,0.6c-0.1,0.1-0.3,0.1-0.4,0l-2.8-1.9c-0.2-0.1-0.2-0.4-0.1-0.6
		c0.1-0.1,0.1-0.1,0.2-0.2c-0.1,0-0.3-0.3-0.4-0.1l-9.5,9.4c-0.3,0.2,3.5,3.5,3.5,3.6c0.3,0.3,10.1-10.2,10.3-10.2
		C113.8,169,113.8,168.9,113.7,168.8C113.7,168.8,113.7,168.8,113.7,168.8z"/>
	<polygon class="st2" points="102.7,173.6 105.6,176.3 112.6,169.4 109,167.1 	"/>
	<path class="st26" d="M112.3,171.1c0,0,0.1,0,0.1,0c0-0.1,0.8-0.6,0.6-0.8c0,0-0.1,0-0.1,0C112.9,170.5,112.1,171,112.3,171.1
		L112.3,171.1z"/>
	<path class="st26" d="M111.4,172.2c0-0.1,0.8-0.6,0.6-0.8c-0.1-0.2-0.7,0.6-0.8,0.6C111.2,172.1,111.3,172.3,111.4,172.2z"/>
	<path class="st2" d="M103.4,175.9c0,0.9-1.4,0.9-1.4,0C102.1,175,103.5,175,103.4,175.9z"/>
	<path class="st29" d="M95.2,189.8c-1.1,1.4-2.4,2.5-3.9,3.4c-0.3,0.2-0.5,0.3-0.8,0.5l-1.6,1.4c-3.2-4.1-3-16.7-3-16.7l4.8,0.5
		L95.2,189.8z"/>
	<path class="st27" d="M104.6,186.5l-3.2-1.6l2.7-7.2l0.7-3.6c0.3-1.5,1.7-2.5,3.2-2.2c0.5,0.1,0.9,0.3,1.3,0.6l0,0
		c1.1,1,1.3,2.6,0.4,3.8l-2.6,3.3L104.6,186.5z"/>
	<path class="st2" d="M101.4,183.5l4.3,2.1l-3.2,10.1c-0.5,1.5-1.7,2.6-3.2,3l0,0c-1.9,0.4-3.8-0.4-4.8-2L85.8,182
		c-1.3-2.1-0.6-4.8,1.5-6.2l0,0c2.1-1.3,4.9-0.7,6.2,1.4c0.1,0.1,0.2,0.3,0.2,0.4l5.2,11.2L101.4,183.5z"/>
	<path class="st28" d="M97.7,159.2c0.6,0.5,1.2,0.9,2,1.2c0.7,0.2,1.6,0.2,2.2-0.2c0.8-0.5,1.1-1.5,1-2.3c-0.1-0.9-0.5-1.7-1-2.5
		c-3.4-4.7-9.9-5.8-14.6-2.4c-0.9,0.6-1.7,1.4-2.3,2.3c-0.7,0.9-1.2,2-1.3,3.1c-0.1,2,1.3,3.9,1.1,5.9c-0.1,1.7-1.3,3.1-2.8,4
		c-1.4,0.9-3.1,1.4-4.7,1.9s-3.2,1.2-4.4,2.4c-1.2,1.2-1.8,3.1-1.2,4.6c0.5,1.3,1.8,2.1,3.1,2.7c3.4,1.5,7.3,1.6,10.8,0.4
		c1.3-0.5,2.7-1.4,2.7-2.7c0-0.6-0.3-1.2-0.4-1.7c-0.2-0.6-0.2-1.3,0.2-1.7c0.5-0.5,1.4-0.4,2,0s1,1.1,1.5,1.6
		c0.9,1,2.4,1.7,3.8,1.5c1.4-0.2,2.6-1.4,2.7-2.8c0.1-2.4-2.9-3.9-3.3-6.3c-0.2-1.6,0.8-3.1,1.7-4.4c0.9-1.3,1.7-3,1.1-4.5"/>
	<path class="st4" d="M59,215.6c-3.3,0-6-2.7-6-6c0-0.8,0.2-1.6,0.5-2.3l0.9,0.4c-1.1,2.6,0.1,5.5,2.7,6.6c1.2,0.5,2.6,0.5,3.8,0
		l0.4,0.9C60.5,215.5,59.7,215.6,59,215.6z"/>
	<path class="st26" d="M52.7,209.3L52.7,209.3c-1.4,0-2.5-1.2-2.5-2.6v-43l0,0c0.9-0.9,2.3-0.9,3.1,0c0.1,0.1,0.1,0.2,0.2,0.2
		c12.3,16.6,12.8,31.4,1.2,44.5C54.2,209,53.5,209.3,52.7,209.3z"/>
	<path class="st4" d="M49.8,206.7L49.8,206.7v-42.9l0,0c0.4,0,0.9,0.2,1.1,0.6c5.6,10,9.7,17.9,9.6,25.1c-0.1,6.4-4.6,9.4-8.5,16
		C51.5,206.3,50.7,206.7,49.8,206.7z"/>
	<polygon class="st4" points="68.2,215.5 60.8,215.5 60.8,213.6 66.7,211.9 	"/>
	<path class="st4" d="M65.5,213.6h19.7l0,0l0,0c0,2.3-1.8,4.1-4.1,4.1l0,0H69.6C67.4,217.6,65.5,215.8,65.5,213.6L65.5,213.6
		L65.5,213.6L65.5,213.6z"/>
	<rect x="74.9" y="217.2" class="st4" width="2.6" height="2.2"/>
	<rect x="73.9" y="218.8" class="st4" width="4.8" height="6.5"/>
	<rect x="74.3" y="228.8" class="st4" width="4.1" height="8.6"/>
	<polygon class="st4" points="80.5,229.7 72.1,229.7 73.3,224.5 80.5,224.5 	"/>
	<path class="st4" d="M73.1,229.3l-17,7.9l-0.2,1.2h-2.4l0.1-1.8c0.1-1.2,0.8-2.3,1.9-2.9l18.1-9.2L73.1,229.3z"/>
	<path class="st4" d="M79.6,229.3l18,7.9l0.2,1.2h2.4l-0.1-1.8c-0.1-1.2-0.8-2.3-1.9-2.9l-17.6-9.2L79.6,229.3z"/>
	<circle class="st4" cx="54.4" cy="240.8" r="2.6"/>
	<circle class="st4" cx="84.9" cy="240.8" r="2.6"/>
	<circle class="st4" cx="99" cy="240.8" r="2.6"/>
	<path class="st4" d="M85.8,239.1l-1.9-0.2l-0.5-1.9l-6.5-7.9l2.9-2.9l5.1,7.8c0.6,0.9,0.9,1.9,0.9,2.9L85.8,239.1z"/>
	<path class="st26" d="M93.7,214.2H61.9c-1.7,0-3.2-1.4-3.2-3.2l0,0v-1.7c0-1.5,0.7-2.9,1.8-3.8c5.4-4.4,9.7-8.2,15.7-7.9
		c5.2,0.3,11.7,6.8,17.4,8.8c1.9,0.7,3.2,2.6,3.2,4.6l0,0C96.8,212.7,95.4,214.2,93.7,214.2L93.7,214.2z"/>
	<path class="st26" d="M228.7,189.3h-89.6c-0.9,0-1.7-0.7-1.7-1.7V111c0-0.9,0.7-1.7,1.7-1.7h89.6c0.9,0,1.7,0.7,1.7,1.7v76.6
		C230.4,188.5,229.6,189.3,228.7,189.3z M139.1,110c-0.5,0-1,0.4-1,1v76.6c0,0.5,0.4,1,1,1h89.6c0.5,0,1-0.4,1-1V111
		c0-0.5-0.4-1-1-1L139.1,110z"/>
	<circle class="st26" cx="153.1" cy="175.7" r="6.8"/>
	<path class="st26" d="M168.7,171.1c-0.6,0-1.1,0.5-1.1,1.1s0.5,1.1,1.1,1.1h53.1c0.6,0,1.1-0.5,1.1-1.1s-0.5-1.1-1.1-1.1H168.7z"/>
	<path class="st26" d="M168.7,177.9c-0.6,0-1.1,0.5-1.1,1.1s0.5,1.1,1.1,1.1c0,0,0,0,0,0h22.8c0.6,0,1.1-0.5,1.1-1.1
		c0-0.6-0.5-1.1-1.1-1.1H168.7z"/>
	<path class="st2" d="M250,162.6h-89.6c-0.9,0-1.7-0.7-1.7-1.7v-39.3c0-0.9,0.7-1.7,1.7-1.7H250c0.9,0,1.7,0.7,1.7,1.7v39.3
		C251.7,161.8,250.9,162.6,250,162.6z"/>
	<path class="st6" d="M178.7,133.6c-0.6,0-1.1,0.5-1.1,1.1s0.5,1.1,1.1,1.1h53.1c0.6,0,1.1-0.5,1.1-1.1c0-0.6-0.5-1.1-1.1-1.1H178.7
		z"/>
	<path class="st6" d="M178.7,140.2c-0.6,0-1.1,0.5-1.1,1.1c0,0.6,0.5,1.1,1.1,1.1h53.1c0.6,0,1.1-0.5,1.1-1.1c0-0.6-0.5-1.1-1.1-1.1
		H178.7z"/>
	<path class="st6" d="M178.7,146.6c-0.6,0-1.1,0.5-1.1,1.1s0.5,1.1,1.1,1.1h22.8c0.6,0,1.1-0.5,1.1-1.1s-0.5-1.1-1.1-1.1l0,0H178.7z
		"/>
	<circle class="st4" cx="250.2" cy="160" r="6.8"/>
	<polygon class="st6" points="249.6,163 247.5,160.3 248.7,159.3 249.7,160.6 253.1,157 254.3,158.1 	"/>
</g>
<g id="katman_4">
	<g>
		<circle class="st22" cx="180.3" cy="123.8" r="10.2"/>
		<path class="st22" d="M183.1,113.9c5.6,0,10.2,4.6,10.2,10.2c0,1.7-0.4,3.3-1.2,4.8c3.5-4.4,2.8-10.8-1.6-14.3s-10.8-2.8-14.3,1.6
			c-0.4,0.5-0.7,1-1,1.5C177.1,115.3,180,113.9,183.1,113.9z"/>
		<circle class="st22" cx="161.3" cy="93.9" r="29.8"/>
		<path class="st22" d="M137.9,75.4c10.7-12,29-13.4,41.4-3.1c-0.2-0.2-0.5-0.5-0.7-0.7c-12.3-10.9-31.2-9.8-42.1,2.5
			c-10.9,12.3-9.8,31.2,2.5,42.1c0.3,0.2,0.5,0.4,0.8,0.7C128,105.7,127.2,87.4,137.9,75.4z"/>
		<circle class="st30" cx="161.1" cy="104.3" r="19.2"/>
		<path class="st30" d="M147.4,110.4c0,0,2.5,23.3-1.5,25.8c-4,2.5,23.3,6.1,23.3,6.1s-4-25.3,6.1-31.9L147.4,110.4z"/>
		<path class="st15" d="M171.7,132.1c0,0,7.5-3.5-3.3-2.3s-20.2-3.6-20.2-3.6s-3.3-3.3-3.8,0.3s1.5,10.1-9.6,11.1s-21.2-2-25.3,5.6
			c-4,7.6-2,40.5-2,40.5s7.6,27.3,13.7,31.4s59.2-1.5,59.2-1.5l15.2-27.3v-31.9c0,0-2-11.1-16.2-8.1c0,0-9.1-2-8.6-6.6
			C171.2,135.1,171.7,132.1,171.7,132.1z"/>
		<path class="st22" d="M123.1,234.4c0.3-1.4,0.5-2.1,0.5-2.1l-0.2-1.1l-1.7-11.3l-0.7-4.8c6.1-2.5,7.6-14.2,7.6-14.2l0.2-0.1l1-0.6
			v0l3.7-2.2l0.1,0l1.5,1l3.1,2c10.7,7.8,21.5,7.7,28.3,6.5c4.1-0.8,6.6-1.9,6.6-1.9l7.4-2.5l0.2-0.1l0.2,0l4.3,0.7l0.1,0l0.4,0.1
			l-1,6.9l-1.4,10c3.8,2,7.2,5.8,10.2,10.5c0.7,1,1.3,2.1,1.9,3.2c0.8,1.5,1.6,3,2.3,4.5c0.1,0.2,0.2,0.4,0.3,0.6
			c0.3,0.6,0.6,1.2,0.8,1.8h-77.1c0.1-0.6,0.2-1.2,0.3-1.8c0,0,0,0,0-0.1c0-0.2,0.1-0.4,0.1-0.6
			C122.5,237.1,122.8,235.5,123.1,234.4z"/>
		<path class="st22" d="M120.1,137.2c0,0,5.6,10.1,3.5,22.8c-2,12.6,6.1,44,6.1,44l6.1-1.5c0,0-4-26.3-3-32.4c1-6.1,1-29.8-4-32.9
			C123.6,134.1,120.1,137.2,120.1,137.2z"/>
		<path class="st22" d="M178.9,147.7l2.1,56l4,2.5c0,0,5.8-61.5,2.8-61.5h-6.2c-1.5,0-2.8,1.2-2.8,2.8
			C178.9,147.6,178.9,147.6,178.9,147.7z"/>
		<circle class="st15" cx="132.5" cy="200.1" r="2.5"/>
		<circle class="st15" cx="183.1" cy="202.7" r="2.5"/>
		<polygon class="st22" points="144.6,80.3 144.6,99.5 149.1,99.5 154.7,93.4 154,99.5 173.6,99.5 172.4,93.4 174.9,99.5 178,99.5 
			178,80.3 		"/>
		<ellipse class="st30" cx="141.6" cy="100.2" rx="1.5" ry="2.8"/>
		<ellipse class="st30" cx="180.5" cy="100.2" rx="1.5" ry="2.8"/>
		<path class="st31" d="M190.9,202.4c0,0-23-4.3-24.5,3.3c-1.5,7.6,25.5,4.3,25.5,4.3L190.9,202.4z"/>
		<path class="st15" d="M190.4,150.3c0,0,55.1,44,45,54.6c-10.1,10.6-48.6,7.6-48.6,7.6l2.5-12.6l22.3-2.5l-11.1-11.1l-10.1,1
			L190.4,150.3z"/>
		<path class="st31" d="M109,223.7l7.1,5.6c0,0,5.1,15.7,12.6,11.1c7.6-4.6-7.1-20.7-7.1-20.7l-8.6-3L109,223.7z"/>
		<path class="st15" d="M116,142.2l-7.1,2.1c0,0-49.1,36.3-51.1,46.4c-2,10.1,9.6,15.7,9.6,15.7l44,20.7l4.6-12.1l-20.7-10.6
			c0,0,1.5-3-4.6-3.5c-6.1-0.5-7.1-7.1-7.1-7.1s12.1-18.7,18.7-14.7s8.6,7.1,8.6,7.1L116,142.2z"/>
		<path class="st12" d="M216.8,236.1v1.7c0,0.5-0.1,0.9-0.3,1.4c-0.1,0.2-0.2,0.4-0.3,0.6c-0.7,1.1-1.9,1.8-3.2,1.8H88.4
			c-1.3,0-2.5-0.7-3.2-1.8c-0.1-0.2-0.2-0.4-0.3-0.6c-0.2-0.4-0.3-0.9-0.3-1.4v-1.7c0-2.1,1.7-3.7,3.7-3.7c0,0,0,0,0,0h7.2v-0.8
			c0-0.1,0.1-0.2,0.2-0.2c0,0,0,0,0,0h3.7c0.1,0,0.2,0.1,0.2,0.2c0,0,0,0,0,0v0.8h2.3v-0.8c0-0.1,0.1-0.2,0.2-0.2c0,0,0,0,0,0h3.7
			c0.1,0,0.2,0.1,0.2,0.2c0,0,0,0,0,0v0.8h2.3v-0.8c0-0.1,0.1-0.2,0.2-0.2c0,0,0,0,0,0h3.7c0.1,0,0.2,0.1,0.2,0.2c0,0,0,0,0,0v0.8
			h2.3v-0.8c0-0.1,0.1-0.2,0.2-0.2c0,0,0,0,0,0h3.7c0.1,0,0.2,0.1,0.2,0.2c0,0,0,0,0,0v0.8h2.3v-0.8c0-0.1,0.1-0.2,0.2-0.2
			c0,0,0,0,0,0h3.7c0.1,0,0.2,0.1,0.2,0.2c0,0,0,0,0,0v0.8h2.3v-0.8c0-0.1,0.1-0.2,0.2-0.2c0,0,0,0,0,0h3.7c0.1,0,0.2,0.1,0.2,0.2
			c0,0,0,0,0,0v0.8h2.3v-0.8c0-0.1,0.1-0.2,0.2-0.2c0,0,0,0,0,0h29.4c0.1,0,0.2,0.1,0.2,0.2c0,0,0,0,0,0v0.8h2.3v-0.8
			c0-0.1,0.1-0.2,0.2-0.2c0,0,0,0,0,0h3.7c0.1,0,0.2,0.1,0.2,0.2v0.8h2.3v-0.8c0-0.1,0.1-0.2,0.2-0.2c0,0,0,0,0,0h3.7
			c0.1,0,0.2,0.1,0.2,0.2c0,0,0,0,0,0v0.8h2.3v-0.8c0-0.1,0.1-0.2,0.2-0.2c0,0,0,0,0,0h3.7c0.1,0,0.2,0.1,0.2,0.2c0,0,0,0,0,0v0.8
			h2.3v-0.8c0-0.1,0.1-0.2,0.2-0.2c0,0,0,0,0,0h3.7c0.1,0,0.2,0.1,0.2,0.2v0.8h2.3v-0.8c0-0.1,0.1-0.2,0.2-0.2c0,0,0,0,0,0h3.7
			c0.1,0,0.2,0.1,0.2,0.2c0,0,0,0,0,0v0.8h2.3v-0.8c0-0.1,0.1-0.2,0.2-0.2c0,0,0,0,0,0h3.7c0.1,0,0.2,0.1,0.2,0.2c0,0,0,0,0,0v0.8
			H213C215.1,232.4,216.8,234,216.8,236.1C216.8,236.1,216.8,236.1,216.8,236.1z"/>
		<rect x="48.4" y="239.2" class="st12" width="204.6" height="0.6"/>
		<path class="st12" d="M206.7,164.8h-46.5v-1h-21.1v1H92.5c-1.7,0-3.1,1.4-3.1,3.1v63.6c0,1.7,1.4,3.1,3.1,3.1h114.2
			c1.7,0,3.1-1.4,3.1-3.1v-63.6C209.9,166.2,208.5,164.8,206.7,164.8L206.7,164.8z"/>
		<circle class="st32" cx="149.7" cy="187" r="7"/>
		<circle class="st33" cx="147.5" cy="189.5" r="7"/>
		<rect x="10.6" y="249.3" class="st12" width="52.8" height="0.6"/>
		<rect x="240.9" y="249.3" class="st12" width="52.8" height="0.6"/>
		<path class="st12" d="M41.3,228.9c-5.6,9.1-3.6,20.4-3.6,20.4s10.9-3.4,16.5-12.5c5.6-9.1,3.6-20.4,3.6-20.4
			S46.9,219.9,41.3,228.9z"/>
		<path class="st15" d="M37.5,249.4l-0.3-0.1c-0.1,0-11.5-1.9-18.3-10.1c-6.8-8.2-6.6-19.7-6.6-19.8l0-0.3l0.3,0.1
			c0.1,0,11.5,1.9,18.3,10.1l0,0c6.8,8.2,6.6,19.7,6.6,19.8L37.5,249.4z"/>
		<path class="st12" d="M37.9,249.6l-0.3-0.1c-0.1,0-11.1-3.6-16.6-12.6c-5.5-9.1-3.7-20.4-3.7-20.6l0.1-0.3l0.3,0.1
			c0.1,0,11.1,3.6,16.6,12.6l0,0c5.5,9.1,3.7,20.4,3.7,20.6L37.9,249.6z M17.8,216.8c-0.3,1.9-1.3,11.8,3.7,19.8
			c4.9,8,14.2,11.6,16,12.3c0.3-1.9,1.3-11.8-3.7-19.8l0,0C28.9,221,19.6,217.4,17.8,216.8L17.8,216.8z"/>
		<circle class="st12" cx="38" cy="213.7" r="6.1"/>
		<polygon class="st12" points="114.9,136.1 79.7,100.6 63.1,100.6 63.1,100.1 79.9,100.1 80,100.1 115.3,135.7 		"/>
		<polygon class="st12" points="197.7,135 232.9,99.5 249.5,99.5 249.5,98.9 232.7,98.9 232.6,99 197.3,134.6 		"/>
		<rect x="3.3" y="83.1" class="st33" width="40.8" height="8.1"/>
		<rect x="3.3" y="95.5" class="st33" width="40.8" height="8.1"/>
		<rect x="3.3" y="107.8" class="st33" width="40.8" height="8.1"/>
		<rect x="3.3" y="83.1" class="st14" width="16.9" height="8.1"/>
		<rect x="3.3" y="95.5" class="st14" width="5.5" height="8.1"/>
		<rect x="3.3" y="107.8" class="st14" width="27.2" height="8.1"/>
		<rect x="269.8" y="84.9" class="st33" width="40.8" height="3.6"/>
		<rect x="254.6" y="84.5" class="st15" width="8.1" height="8.1"/>
		<rect x="254.6" y="96.6" class="st15" width="8.1" height="8.1"/>
		<rect x="254.6" y="108.7" class="st15" width="8.1" height="8.1"/>
		<path class="st12" d="M264.9,90.9h-8.6v-8.6h8.6V90.9z M256.8,90.3h7.5v-7.5h-7.5V90.3z"/>
		<rect x="269.8" y="97" class="st33" width="40.8" height="3.6"/>
		<path class="st12" d="M264.9,103h-8.6v-8.6h8.6V103z M256.8,102.4h7.5v-7.5h-7.5V102.4z"/>
		<rect x="269.8" y="109.2" class="st33" width="40.8" height="3.6"/>
		<path class="st12" d="M264.9,115.1h-8.6v-8.6h8.6V115.1z M256.8,114.5h7.5V107h-7.5V114.5z"/>
		<circle class="st15" cx="56.1" cy="87.2" r="4.5"/>
		<circle class="st15" cx="56.1" cy="100.6" r="4.5"/>
		<circle class="st15" cx="56.1" cy="112.6" r="4.5"/>
		<path class="st12" d="M53.9,90.8c-2.6,0-4.7-2.1-4.7-4.7c0-2.6,2.1-4.7,4.7-4.7c2.6,0,4.7,2.1,4.7,4.7
			C58.6,88.7,56.5,90.8,53.9,90.8z M53.9,81.9c-2.3,0-4.2,1.9-4.2,4.2c0,2.3,1.9,4.2,4.2,4.2c2.3,0,4.2-1.9,4.2-4.2
			C58,83.8,56.2,81.9,53.9,81.9z"/>
		<path class="st12" d="M53.9,104.2c-2.6,0-4.7-2.1-4.7-4.7c0-2.6,2.1-4.7,4.7-4.7c2.6,0,4.7,2.1,4.7,4.7
			C58.6,102.1,56.5,104.2,53.9,104.2z M53.9,95.3c-2.3,0-4.2,1.9-4.2,4.2c0,2.3,1.9,4.2,4.2,4.2c2.3,0,4.2-1.9,4.2-4.2
			C58,97.2,56.2,95.3,53.9,95.3z"/>
		<path class="st12" d="M53.9,116.2c-2.6,0-4.7-2.1-4.7-4.7c0-2.6,2.1-4.7,4.7-4.7c2.6,0,4.7,2.1,4.7,4.7
			C58.6,114.1,56.5,116.2,53.9,116.2z M53.9,107.3c-2.3,0-4.2,1.9-4.2,4.2c0,2.3,1.9,4.2,4.2,4.2c2.3,0,4.2-1.9,4.2-4.2
			C58,109.2,56.2,107.3,53.9,107.3z"/>
		<path class="st12" d="M279.4,230.4h-0.6v-4.2c0-0.5,0.4-0.8,0.8-0.8h1.4c0.2,0,0.3-0.1,0.3-0.3v-2.8c0-0.2-0.1-0.3-0.3-0.3h-1.4
			c-0.5,0-0.8-0.4-0.8-0.8v-1.4c0-0.2-0.1-0.3-0.3-0.3h-2.5c-0.5,0-0.8-0.4-0.8-0.8v-0.3c0-0.2-0.1-0.3-0.3-0.3h-10
			c-0.2,0-0.3,0.1-0.3,0.3v0.3c0,0.5-0.4,0.8-0.8,0.8h-2.5c-0.2,0-0.3,0.1-0.3,0.3v1.4c0,0.5-0.4,0.8-0.8,0.8h-1.4
			c-0.2,0-0.3,0.1-0.3,0.3v2.8c0,0.2,0.1,0.3,0.3,0.3h1.7c0.5,0,0.8,0.4,0.8,0.8v4.2h-0.6v-4.2c0-0.2-0.1-0.3-0.3-0.3h-1.7
			c-0.5,0-0.8-0.4-0.8-0.8v-2.8c0-0.5,0.4-0.8,0.8-0.8h1.4c0.2,0,0.3-0.1,0.3-0.3v-1.4c0-0.5,0.4-0.8,0.8-0.8h2.5
			c0.2,0,0.3-0.1,0.3-0.3v-0.3c0-0.5,0.4-0.8,0.8-0.8h10c0.5,0,0.8,0.4,0.8,0.8v0.3c0,0.2,0.1,0.3,0.3,0.3h2.5
			c0.5,0,0.8,0.4,0.8,0.8v1.4c0,0.2,0.1,0.3,0.3,0.3h1.4c0.5,0,0.8,0.4,0.8,0.8v2.8c0,0.5-0.4,0.8-0.8,0.8h-1.4
			c-0.2,0-0.3,0.1-0.3,0.3V230.4z"/>
		<path class="st12" d="M278.6,250h-17c-0.5,0-0.8-0.4-0.8-0.8v-12h0.6v12c0,0.2,0.1,0.3,0.3,0.3h17c0.2,0,0.3-0.1,0.3-0.3v-12h0.6
			v12C279.4,249.6,279,250,278.6,250z"/>
		<path class="st15" d="M261.3,232.4h20.9c0.3,0,0.6,0.2,0.6,0.6v5.6c0,0.3-0.2,0.6-0.6,0.6h-20.9c-0.3,0-0.6-0.2-0.6-0.6v-5.6
			C260.7,232.6,261,232.4,261.3,232.4z"/>
		<path class="st12" d="M280.4,237.4h-20.9c-0.5,0-0.8-0.4-0.8-0.8V231c0-0.5,0.4-0.8,0.8-0.8h20.9c0.5,0,0.8,0.4,0.8,0.8v5.6
			C281.2,237,280.8,237.4,280.4,237.4z M259.4,230.7c-0.2,0-0.3,0.1-0.3,0.3v5.6c0,0.2,0.1,0.3,0.3,0.3h20.9c0.2,0,0.3-0.1,0.3-0.3
			V231c0-0.2-0.1-0.3-0.3-0.3H259.4z"/>
		<path class="st33" d="M269.4,215.6L269.4,215.6c-0.7-5-0.9-10.1-0.6-15.1l0.6-8.3l0,0C266.1,198.6,266.9,207,269.4,215.6
			L269.4,215.6z"/>
		<path class="st33" d="M271.9,217L271.9,217c-0.4-3-0.5-6-0.3-9l0.3-5l0,0C270.3,206.9,270.7,211.9,271.9,217z"/>
	</g>
</g>
</svg>
