<?xml version="1.0" encoding="utf-8"?>
<!-- Generator: Adobe Illustrator 22.0.1, SVG Export Plug-In . SVG Version: 6.00 Build 0)  -->
<svg version="1.1" id="katman_1" xmlns="http://www.w3.org/2000/svg" xmlns:xlink="http://www.w3.org/1999/xlink" x="0px" y="0px"
	 viewBox="0 0 314 314" style="enable-background:new 0 0 314 314;" xml:space="preserve">
<style type="text/css">
	.st0{opacity:0.1;fill:#F7941E;enable-background:new    ;}
	.st1{fill:#F7941E;}
	.st2{fill:#444053;}
	.st3{fill:#3F3D56;}
	.st4{opacity:0.1;enable-background:new    ;}
	.st5{fill:#FFFFFF;}
	.st6{opacity:0.1;fill:#444053;enable-background:new    ;}
	.st7{fill:#3ACC6C;}
	.st8{fill:url(#SVGID_1_);}
	.st9{fill:#A1616A;}
	.st10{opacity:0.15;enable-background:new    ;}
	.st11{fill:#FBBEBE;}
	.st12{opacity:0.1;}
</style>
<path class="st0" d="M181.8,73.3c-19.7-0.7-38.5-7.1-56.5-14s-35.7-14.7-55-18.4c-12.4-2.4-26.6-2.7-36.5,3.9
	c-9.6,6.4-12.7,17.4-14.4,27.7c-1.3,7.7-2,15.8,1.4,23c2.4,5,6.6,9.2,9.6,14c10.2,16.7,3,37.3-8.1,53.6
	c-5.2,7.6-11.2,14.9-15.2,23.1s-5.8,17.5-2.3,25.8c3.5,8.2,11.7,14.4,20.7,18.8c18.2,8.8,39.6,11.3,60.6,12.8
	c46.3,3.2,92.9,1.8,139.3,0.4c17.2-0.5,34.4-1,51.3-3.7c9.4-1.5,19.1-3.8,25.9-9.5c8.6-7.2,10.8-19.3,5-28.3
	c-9.7-15.1-36.6-18.8-43.4-35c-3.7-8.9,0.1-18.8,5.5-27.1c11.7-17.7,31.2-33.3,32.2-53.6c0.7-13.9-8.7-27.9-23.2-34.5
	c-15.2-6.9-36.3-6-47.6,5.4C219.6,69.4,199.2,73.9,181.8,73.3z"/>
<g>
	<path class="st1" d="M229.2,225.5c-1.1-0.4-2.3-0.5-3.4-0.4c-1.4,0.2-1.2,2.3,0.2,2.2c0.7-0.1,1.4-0.2,2.1-0.4L229.2,225.5z"/>
	<path class="st1" d="M229.6,225.5c0.5,1,0.8,2.2,0.8,3.4c0,1.4-2.1,1.5-2.2,0.1c0-0.7,0-1.4,0.1-2.1L229.6,225.5z"/>
	<path class="st1" d="M232.8,220.9c0,0-0.7-2.2-4.9-1.3c-1.9,0.4-1.9,3.1,0.1,3.4h0.1C230.8,223.4,231.8,222.2,232.8,220.9z"/>
	<path class="st1" d="M233.3,220.8c0,0,2.3,0.2,2.4,4.5c0.1,1.9-2.6,2.5-3.3,0.7c0,0,0-0.1,0-0.1
		C231.3,223.3,232.2,222.1,233.3,220.8z"/>
	<path class="st1" d="M236.3,215.2c-0.3-1.6-1.5-2.9-3-3.4c-2.9-0.9-4.4,3.4-1.6,4.5c1.2,0.4,2.4,0.6,3.6,0.5L236.3,215.2z"/>
	<path class="st1" d="M239.8,208.1c0,0-1.2-2.7-4.1-3.3c-3.2-0.6-4.1,4.2-1,4.9c1.4,0.3,2.9,0.3,4.3,0L239.8,208.1z"/>
	<path class="st1" d="M241.9,201c-1-1.6-2.6-2.6-4.4-3c-2.7-0.5-3.6,3.6-1,4.3c1.7,0.4,3.4,0.4,5.1-0.1L241.9,201z"/>
	<path class="st1" d="M243.9,194.2c-0.9-1.4-2.2-2.5-3.8-3c-2.7-0.8-4.1,3.3-1.4,4.2c1.6,0.5,3.3,0.5,5,0L243.9,194.2z"/>
	<path class="st1" d="M244.7,188c0,0-1.1-2.6-3.3-3.9c-2.5-1.5-4.8,2.2-2.5,3.8c1.5,1,3.3,1.7,5.5,1.3L244.7,188z"/>
	<path class="st1" d="M245.1,180.5c0,0-1.2-2.6-3.5-3.8c-2.6-1.4-4.8,2.4-2.4,4c1.6,1.1,3.6,1.7,5.7,0.9L245.1,180.5z"/>
	<path class="st1" d="M244.9,173.8c-0.9-1.4-2-2.7-3.3-3.7c-1.8-1.5-4.1,1.2-2.4,2.8c1.6,1.4,3.5,2.7,5.6,2.6L244.9,173.8z"/>
	<path class="st1" d="M244.2,167.3c-1-1.7-2.3-3.3-3.7-4.8c-1.4-1.4-3.5,0.7-2.2,2.2c1.5,1.6,3.6,3.3,6.1,4.1L244.2,167.3z"/>
	<path class="st1" d="M242.9,159.7c-0.9-1.3-1.8-2.5-3-3.7c-1.4-1.4-3.6,0.7-2.2,2.2c1.5,1.5,3.3,3,5.5,3.5L242.9,159.7z"/>
	<path class="st1" d="M241.7,152.6c-0.9-1.2-1.8-2.3-2.8-3.4c-1.1-1.2-3,0.5-1.9,1.7c1.3,1.5,2.9,2.7,4.7,3L241.7,152.6z"/>
	<path class="st1" d="M240.5,146c-0.8-1.6-1.7-3.1-2.7-4.5c-0.9-1.2-2.6,0.1-1.8,1.3c1.1,1.6,2.5,3.1,4.4,3.9L240.5,146z"/>
	<path class="st1" d="M239.5,137.2c0,0-0.7-1.1-1.6-2.5c-0.9-1.2-2.8,0-1.9,1.3c0.9,1.4,2.1,2.6,3.4,2.9L239.5,137.2z"/>
	<path class="st1" d="M239,131.4l-0.9-4.3c-0.2-1.1-1.9-0.9-1.8,0.3c0.3,2.3,1.1,4.6,2.8,6.1L239,131.4z"/>
	<path class="st1" d="M239.5,119.3L239.5,119.3c-0.2-0.4-0.7-0.6-1.1-0.4c-0.4,0.2-0.6,0.5-0.5,0.9c0.2,1.2,0.5,2.4,0.9,3.5
		L239.5,119.3z"/>
	<path class="st1" d="M236.5,215.1c1.6-0.5,3.3-0.1,4.5,1c2.2,2-0.8,5.5-3.1,3.6c-0.9-0.8-1.7-1.8-2.2-2.9L236.5,215.1z"/>
	<path class="st1" d="M240,207.8c0,0,2.9-0.7,5.1,1.4c2.4,2.2-0.9,5.8-3.4,3.8c-1.1-0.9-2-2.1-2.6-3.4L240,207.8z"/>
	<path class="st1" d="M242.1,201.5c1.5-1.1,3.4-1.5,5.2-1.2c2.7,0.5,2,4.7-0.7,4.3c-1.7-0.2-3.3-0.9-4.7-2L242.1,201.5z"/>
	<path class="st1" d="M244,194.2c1.3-1,3-1.5,4.7-1.4c2.9,0.2,2.5,4.6-0.3,4.4c-1.7-0.1-3.3-0.8-4.6-1.9L244,194.2z"/>
	<path class="st1" d="M244.7,188.1c0,0,1.5-2.3,3.9-3.3c2.7-1.1,4.4,3,1.8,4.2c-1.6,0.8-3.6,1.2-5.7,0.3L244.7,188.1z"/>
	<path class="st1" d="M244.8,180.4c0,0,1.5-2.4,4-3.3c2.7-1,4.5,3,1.9,4.3c-1.7,0.8-3.8,1.3-5.8,0.2L244.8,180.4z"/>
	<path class="st1" d="M244.3,173.7c0.6-1.6,1.4-3,2.4-4.3c1.4-1.8,4.3,0.3,2.9,2.2c-1.2,1.8-2.9,3.4-4.9,3.7L244.3,173.7z"/>
	<path class="st1" d="M244.1,167.3c0.5-2,1.2-3.9,2.2-5.6c1-1.7,3.6-0.3,2.7,1.5c-1,2-2.5,4.2-4.7,5.6L244.1,167.3z"/>
	<path class="st1" d="M242.5,159.3c0.6-1.5,1.3-3,2.3-4.3c1.1-1.6,3.6,0,2.6,1.7c-1.1,1.8-2.7,3.7-4.8,4.6L242.5,159.3z"/>
	<path class="st1" d="M241.2,152.5c0.3-1.4,0.7-2.9,1.2-4.2c0.5-1.5,2.9-0.8,2.4,0.8c-0.5,1.9-1.5,3.7-3.1,4.7L241.2,152.5z"/>
	<path class="st1" d="M240.3,145.9c0.4-1.7,1-3.4,1.6-5c0.6-1.3,2.6-0.5,2.1,0.8c-0.7,1.8-1.7,3.6-3.4,4.8L240.3,145.9z"/>
	<path class="st1" d="M239,137.8c0,0,0.3-1.3,0.7-2.9c0.4-1.5,2.6-0.9,2.3,0.6c-0.4,1.6-1.1,3.2-2.3,3.9L239,137.8z"/>
	<path class="st1" d="M239.3,131.1l1.5-4.1c0.4-1.1,2-0.6,1.7,0.5c-0.6,2.2-1.8,4.4-3.7,5.6L239.3,131.1z"/>
	<path class="st1" d="M241.2,119.7c0,0,0.2-0.2,0.6-0.5c0.7-0.6,1.7,0.4,1,1.1c-1.2,1.1-2.6,1.9-4,2.6L241.2,119.7z"/>
	<path class="st1" d="M241.1,117.3c0.9-1.8,1.9-3.6,3-5.3c0.1-0.3,0-0.6-0.2-0.7c-0.2-0.1-0.5-0.1-0.7,0.1c-0.9,1.2-1.7,2.9-2.4,5.5
		L241.1,117.3z"/>
	<path class="st2" d="M239.4,139l0.3,0c-1.4-12.7-0.8-20.6,1.6-22.1l-0.2-0.3C238.6,118.2,238,126,239.4,139z"/>
	<path class="st2" d="M244.1,169.1l0.5-0.1c-0.2-1.2-0.4-2.4-0.6-3.5c-2-10.3-3.5-19.9-4.3-27.1l-0.3-0.3c0.8,7.3,2.2,17.1,4.2,27.5
		C243.7,166.7,243.9,167.9,244.1,169.1z"/>
	<path class="st2" d="M222,233.4c0.1-0.1,7.3-5.6,13.7-16.3c3.7-6.2,6.5-13,8.1-20.1c2-8.9,2.1-19.2,0.6-28.9l-0.4,0.3
		c3.3,21.7-3,38.6-8.8,48.3c-6.3,10.6-13.5,16.1-13.6,16.1L222,233.4z"/>
</g>
<g>
	<ellipse class="st1" cx="77.1" cy="229.8" rx="18.2" ry="3.5"/>
	<ellipse class="st3" cx="76.7" cy="228.4" rx="2.1" ry="2.8"/>
	<ellipse class="st3" cx="76.7" cy="225" rx="2.1" ry="2.8"/>
	<ellipse class="st3" cx="76.7" cy="221.6" rx="2.1" ry="2.8"/>
	<ellipse class="st3" cx="76.7" cy="218.2" rx="2.1" ry="2.8"/>
	<ellipse class="st3" cx="76.7" cy="214.8" rx="2.1" ry="2.8"/>
	<ellipse class="st3" cx="76.7" cy="211.4" rx="2.1" ry="2.8"/>
	<ellipse class="st3" cx="76.7" cy="208.1" rx="2.1" ry="2.8"/>
	<path class="st1" d="M84.7,184.9c0.3-0.4,0.6-0.8,0.8-1.2l-5.6-0.9l6,0c1.2-2.5,1.2-5.4,0.2-8L78,179l7.4-5.5
		c-2.8-4.8-9-6.5-13.8-3.7c-4.8,2.8-6.5,9-3.7,13.8c0.2,0.4,0.5,0.8,0.8,1.2c-0.4,0.6-0.8,1.2-1.2,1.8l7.2,3.7l-7.7-2.6
		c-1.1,3.2-0.5,6.8,1.6,9.5c-3.5,4.4-2.7,10.8,1.7,14.2c4.4,3.5,10.8,2.7,14.2-1.7c2.9-3.7,2.9-8.9,0-12.5
		C87.6,193.8,87.6,188.6,84.7,184.9L84.7,184.9z"/>
	<path class="st4" d="M66.6,191.2c0,2.3,0.8,4.5,2.2,6.3c-3.5,4.4-2.7,10.8,1.7,14.2c4.4,3.5,10.8,2.7,14.2-1.7
		c2.9-3.7,2.9-8.9,0-12.5C86,195.7,66.6,190,66.6,191.2z"/>
</g>
<path class="st1" d="M87.7,89.3v21.9h138.4V89.3c0-2.3-1.4-4.2-3.2-4.2c0,0,0,0,0,0h-132C89.1,85.1,87.7,87,87.7,89.3
	C87.7,89.3,87.7,89.3,87.7,89.3z M111.1,95.8c-1.9,0-3.4-1.5-3.4-3.4s1.5-3.4,3.4-3.4c1.9,0,3.4,1.5,3.4,3.4l0,0
	C114.4,94.3,112.9,95.8,111.1,95.8z M202.7,95.8c-1.9,0-3.4-1.5-3.4-3.4s1.5-3.4,3.4-3.4c1.9,0,3.4,1.5,3.4,3.4l0,0
	C206,94.3,204.5,95.8,202.7,95.8C202.7,95.8,202.7,95.8,202.7,95.8L202.7,95.8z"/>
<path class="st4" d="M111.1,88.5c-2.2,0-4,1.8-4,4c0,2.2,1.8,4,4,4c2.2,0,4-1.8,4-4c0,0,0,0,0,0C115,90.3,113.3,88.5,111.1,88.5
	C111.1,88.5,111.1,88.5,111.1,88.5z M111.1,95.8c-1.9,0-3.4-1.5-3.4-3.4s1.5-3.4,3.4-3.4c1.9,0,3.4,1.5,3.4,3.4l0,0
	C114.4,94.3,112.9,95.8,111.1,95.8z"/>
<path class="st4" d="M202.7,88.5c-2.2,0-4,1.8-4,4c0,2.2,1.8,4,4,4c2.2,0,4-1.8,4-4c0,0,0,0,0,0C206.7,90.3,204.9,88.5,202.7,88.5z
	 M202.7,95.8c-1.9,0-3.4-1.5-3.4-3.4s1.5-3.4,3.4-3.4c1.9,0,3.4,1.5,3.4,3.4l0,0C206,94.3,204.5,95.8,202.7,95.8z"/>
<circle class="st0" cx="284.8" cy="154" r="4.2"/>
<circle class="st0" cx="299.7" cy="135.4" r="7"/>
<circle class="st0" cx="290.5" cy="169.3" r="7"/>
<circle class="st0" cx="12.7" cy="133.7" r="9.9"/>
<g>
	<path class="st5" d="M87.7,110.6v120.6c0,2.3,1.4,4.2,3.2,4.2h132c1.8,0,3.2-1.9,3.2-4.2V110.6H87.7z"/>
	<path class="st4" d="M100.4,121.4h29.5c1,0,1.8,1.1,1.8,2.4v20.7c0,1.3-0.8,2.4-1.8,2.4h-29.5c-1,0-1.8-1.1-1.8-2.4v-20.7
		C98.6,122.5,99.4,121.4,100.4,121.4z"/>
	<path class="st4" d="M142.1,121.4h29.5c1,0,1.8,1.1,1.8,2.4v20.7c0,1.3-0.8,2.4-1.8,2.4h-29.5c-1,0-1.8-1.1-1.8-2.4v-20.7
		C140.3,122.5,141.1,121.4,142.1,121.4z"/>
	<path class="st4" d="M142.1,157.4h29.5c1,0,1.8,1.1,1.8,2.4v20.7c0,1.3-0.8,2.4-1.8,2.4h-29.5c-1,0-1.8-1.1-1.8-2.4v-20.7
		C140.3,158.5,141.1,157.4,142.1,157.4z"/>
	<path class="st6" d="M100.9,157.5h28.6c1,0,1.8,1.1,1.8,2.4v20c0,1.3-0.8,2.4-1.8,2.4h-28.6c-1,0-1.8-1.1-1.8-2.4v-20
		C99.1,158.6,99.9,157.5,100.9,157.5z"/>
	<path class="st6" d="M212.9,182.3h-28.6c-1,0-1.8-1.1-1.8-2.4v-20c0-1.3,0.8-2.4,1.8-2.4h28.6c1,0,1.8,1.1,1.8,2.4v20
		C214.7,181.2,213.9,182.3,212.9,182.3z"/>
	<path class="st6" d="M100.9,193.3h28.6c1,0,1.8,1.1,1.8,2.4v20c0,1.3-0.8,2.4-1.8,2.4h-28.6c-1,0-1.8-1.1-1.8-2.4v-20
		C99.1,194.3,99.9,193.3,100.9,193.3z"/>
	<path class="st6" d="M212.9,218h-28.6c-1,0-1.8-1.1-1.8-2.4v-20c0-1.3,0.8-2.4,1.8-2.4h28.6c1,0,1.8,1.1,1.8,2.4v20
		C214.7,216.9,213.9,218,212.9,218z"/>
	<path class="st6" d="M171.2,218h-28.6c-1,0-1.8-1.1-1.8-2.4v-20c0-1.3,0.8-2.4,1.8-2.4h28.6c1,0,1.8,1.1,1.8,2.4v20
		C173,216.9,172.1,218,171.2,218z"/>
	<path class="st1" d="M213.1,146.5h-28.6c-1,0-1.8-1.1-1.8-2.4v-20c0-1.3,0.8-2.4,1.8-2.4h28.6c1,0,1.8,1.1,1.8,2.4v20
		C214.9,145.5,214.1,146.5,213.1,146.5z"/>
</g>
<path class="st7" d="M223.5,124.2l-2-2c-0.4-0.4-1.1-0.4-1.5,0c0,0,0,0,0,0l-12.4,12.3l-5.3-5.3c-0.4-0.4-1.1-0.4-1.5,0l-2,2
	c-0.4,0.4-0.4,1.1,0,1.5l8,8c0.4,0.4,1.1,0.4,1.5,0l15.2-15.1C223.9,125.3,223.9,124.7,223.5,124.2
	C223.5,124.2,223.5,124.2,223.5,124.2z"/>
<g>
	
		<linearGradient id="SVGID_1_" gradientUnits="userSpaceOnUse" x1="330.5293" y1="12.9613" x2="330.5293" y2="134.2802" gradientTransform="matrix(-1 0 0 -1 503.2186 287.0367)">
		<stop  offset="0" style="stop-color:#808080;stop-opacity:0.25"/>
		<stop  offset="0.54" style="stop-color:#808080;stop-opacity:0.12"/>
		<stop  offset="1" style="stop-color:#808080;stop-opacity:0.1"/>
	</linearGradient>
	<path class="st8" d="M147.8,264.9c0.5,1.1,1.9,1.3,2.5,2.3c0.4,0.6,0.4,1.4,0.9,1.8c0.3,0.2,0.5,0.4,0.8,0.5c0.5,0.4,0.8,1,1.4,1.4
		c0.3,0.2,0.6,0.3,0.9,0.4c1.1,0.4,2.4,0.9,3.4,0.3c0.3-0.1,0.5-0.4,0.5-0.7c0-0.2,0-0.5-0.2-0.7c-0.2-0.4-0.6-0.8-0.9-1.1
		c-0.2-0.2-0.6-0.3-0.8,0c0,0.1-0.1,0.1-0.1,0.2c-0.1-0.2-0.1-0.5-0.2-0.7c-0.1-0.6-0.2-1.1-0.2-1.7c-0.2-1.1-0.1-2.2,0.1-3.2
		c0.2-0.7,0.5-1.4,0.8-2c0.4-0.9,0.9-1.7,1.4-2.5c0.3,0.3,0.6,0.6,0.9,0.9c2.3-2,3.5-5,5.3-7.5c1.2-1.5,2.6-2.8,4.3-3.9
		c-0.9,1.3-1.1,3.2-1,4.8c0.1,0.8,0.2,1.6,0.4,2.4c0.4,2.5,0.4,5.3-1,7.4c0.5,0.2,0.9,0.5,1.4,0.6c-0.1,1.6-0.2,3.2-0.5,4.8
		c-0.3-0.1-0.7,0.1-0.8,0.4c-0.5,0.8-0.5,2.1-0.6,3c0,0.2,0,0.5,0.1,0.7c0.1,0.2,0.3,0.4,0.5,0.4c0,0,0,0,0,0
		c-0.1,0.1-0.1,0.4,0,0.5c0.2,0.1,0.3,0.2,0.5,0.2c0.8,0.1,1.6,0.1,2.4,0c0.3,0,0.5-0.1,0.7-0.3c0.2-0.2,0.3-0.5,0.1-0.7l1.9-0.1
		c1.1,0,2.1-0.2,3.1-0.4c1-0.3,1.9-0.9,2.5-1.8c0.2-0.3,0.3-0.6,0.3-1c-0.1-0.4-0.4-0.7-0.7-0.8c-1.1-0.7-2.4-0.9-3.6-0.6l0.2,0.2
		c-0.2,0-0.4-0.1-0.6-0.2c-0.6-0.2-1.2-0.6-1.4-1.2c-0.1-0.3-0.1-0.6-0.1-0.9c0-0.4,0.1-1.1,0-1.8c0.7-0.2,1.4-0.7,1.9-1.3
		c0.5-5.4,1.6-10.5,2.9-15.7c0.3-1,0.5-2.1,0.6-3.2c0.2-2.2-0.4-4.7,0.2-6.7c0.3-1,0.5-2,0.5-3.1c0-0.1,0-0.2,0-0.3
		c0-0.8,0.1-1.5,0.3-2.2c0.4-1.7,0.8-3.5,1.2-5.2c0.5-2.3,1-4.7,0.5-6.9c0.3-0.1,0.5-0.2,0.7-0.4c0.4-0.3,0.4-0.9,0.2-1.4
		c-0.2-0.5-0.5-1-0.2-1.5c0.1-0.2,0.3-0.4,0.4-0.5c0.3-0.4,0.3-0.9,0.4-1.4c0-0.7,0.1-1.3,0.1-2l-0.1,0l0.6-4c0.1-0.3,0.1-0.7,0-1
		c-0.2-0.3-0.5-0.6-0.8-0.8c-0.6-0.4-1.3-0.7-2-1c0,0,0-0.1,0-0.1c-0.1-0.3-0.2-0.6-0.2-0.9c0-0.3,0-0.7,0-1
		c-0.1-0.8-0.4-1.6-0.2-2.3c0-0.5-0.1-1-0.4-1.4c-0.3-0.4-0.3-1-0.2-1.5c0.2-0.6,0.4-1.2,0.4-1.8c0-0.3-0.1-0.5-0.1-0.8
		c0-0.6,0.5-1,0.9-1.4c1.3-1.5,1.4-3.7,0.4-5.4c-0.5-0.8-1.2-1.4-1.6-2.2c0,0,0.1-0.1,0.1-0.1c0.2-0.6,0.3-1.3,0.3-1.9
		c0-0.2,0-0.3,0-0.5v0c0-0.5,0-0.9-0.1-1.4c-0.1-0.3-0.3-0.6-0.5-0.9c0-0.4,0-0.8-0.1-1.2c-0.1-0.6-0.4-1.3-0.8-1.8l0.3-0.3
		c0.5-0.6,1-1.2,1-1.9c0-0.1,0-0.1,0-0.2v-0.1v-0.1c0,0,0,0,0-0.1c0-0.1,0-0.1,0-0.2c0,0,0,0,0,0l0-0.2l0,0c0-0.1-0.1-0.3-0.1-0.4
		c0-0.2-0.1-0.5-0.1-0.7l1.9-0.3c0.4-0.1,0.9-0.2,1.1-0.5c0.1-0.3,0.2-0.6,0.1-1c0,0,0-0.1,0-0.1c0.3-0.1,0.5-0.3,0.8-0.4
		c2.4-1.5,4.4-3.7,6.2-5.8c1.2-1.4,2.5-2.8,3.8-4.2c0.8-0.2,1.6-0.4,2.2-1.1c0.3-0.3,0.5-0.8,0.9-1c0.2-0.1,0.5-0.1,0.7-0.2
		c0.7-0.1,1.3-0.7,1.5-1.3c0.2-0.7-0.1-1.5-0.7-1.9c-0.2-0.1-0.3-0.2-0.5-0.3c-0.1-0.2-0.1-0.4,0-0.6c0.1-0.6,0.3-1.1,0.6-1.6
		c0.3-0.5,0.6-1.1,0.3-1.5l-3.3,3.6c-0.5,0.5-1,1.1-1.4,1.6c-0.4,0.5-0.6,1.1-1,1.7c-1.1,1.7-3,2.7-4.8,3.6c-1.1,0.5-2.2,1-3.3,1.5
		v-0.1c0,0,0,0,0,0c0-0.1,0-0.1,0-0.2v0c0-0.4-0.1-0.9-0.3-1.3c-0.4-0.7-1-1.2-1.1-1.9c-0.1-0.4,0.1-0.9,0.1-1.3
		c0-0.8-0.6-1.4-1.3-1.8s-1.5-0.4-2.2-0.5l0.7,0.3l-2.6-1c-1-0.4-2-0.8-3.1-0.8c-2-0.1-3.9,1.1-5.2,2.7c-0.6,0.8-1,1.6-1.4,2.5l0,0
		c-0.1,0.1-0.1,0.3-0.1,0.4l0,0c0,0.1-0.1,0.3-0.1,0.4l0,0c0,0.1-0.1,0.2-0.1,0.4v0c0,0.1-0.1,0.2-0.1,0.4c0,0,0,0,0,0
		c0,0.1-0.1,0.2-0.1,0.3l0,0.1c0,0.1-0.1,0.2-0.1,0.3l0,0.1c0,0.1,0,0.2-0.1,0.3l0,0.1c0,0.1-0.1,0.3-0.1,0.4c0,0.2-0.1,0.4-0.1,0.6
		c0,0.2-0.1,0.4-0.1,0.7c-0.1,1-0.4,1.9-0.9,2.7c-0.8,1.3-2.3,2.2-3.2,3.4l0,0c-0.1,0.2-0.3,0.4-0.4,0.6l0,0c0,0.1-0.1,0.1-0.1,0.2
		l0,0c0,0-0.1,0.1-0.1,0.1s0,0,0,0.1c0,0,0,0.1,0,0.1s0,0,0,0.1s0,0.1,0,0.1c0,0,0,0,0,0.1c0,0.1,0,0.1,0,0.2c0,0.1,0,0.2,0,0.3
		c0,0.5,0.1,0.9,0.2,1.4c0,0.2,0.1,0.3,0.1,0.5l0,0c0,0.2,0.1,0.4,0.1,0.5c0,0.1,0,0.1,0,0.2c0,0.1,0,0.2,0,0.4c0,0.1,0,0.1,0,0.2
		c0,0.1,0,0.3,0,0.4c0,0.1,0,0.1,0,0.2c0,0.2,0,0.3,0,0.5c0,0.1,0,0.2,0,0.3l0,0.3c0,0.1,0,0.2,0,0.3s0,0.2,0,0.2c0,0.1,0,0.2,0,0.3
		c-0.1,0.4-0.2,0.7-0.3,1.1c-0.4,1.4-1.1,2.7-1.6,4l0,0.1c0,0.1-0.1,0.2-0.1,0.3l0,0.1c0,0.1-0.1,0.2-0.1,0.3l0,0.1
		c0,0.1-0.1,0.2-0.1,0.4l0,0c-0.1,0.2-0.1,0.4-0.1,0.6c-0.1,0.3-0.1,0.6-0.1,0.9c0,0.3,0.1,0.6,0.2,0.9c0.2,0.6,0.6,1.1,1,1.6
		c0.1,0.1,0.2,0.3,0.3,0.4c0.1,0.2,0.3,0.4,0.3,0.6c0,0.1,0.1,0.1,0.1,0.2c0.1,0.1,0.1,0.3,0.1,0.5c0,0.1,0,0.1,0,0.2v0.1l0,0
		c0,0.6-0.2,1.1-0.4,1.7c-0.5,1.2-0.9,2.4-1.4,3.5l0,0c0.3,0,0.7-0.1,1-0.1c0.7-0.1,1.5-0.3,2.2-0.5l0.4-0.1
		c0.5-0.2,0.9-0.3,1.4-0.5c-0.1,1.3-0.1,2.6-0.1,3.9c0,2.6-0.2,5.3-1.8,7.4c0.2,0.1,0.5,0.1,0.7,0.2c-1.3,1.7-1.9,3.9-1.8,6.1
		c0.1,2.7,1,5.3,2,7.9c1.3,3.7,2.7,7.3,4,10.9c-0.2,0.4-0.2,0.8-0.3,1.2c-0.1,0.4,0,0.9,0.3,1.2c0.1,0.1,0.3,0.3,0.4,0.4
		c0.4,0.4,0.4,1.1,0.4,1.7c-0.1,0.6-0.2,1.2,0,1.8c0.1,0.2,0.2,0.5,0.2,0.7c0.1,0.3,0,0.5-0.2,0.7c-0.3,0.2-0.8,0.2-0.9,0.5
		c-3.7,3.2-6.8,7-9.1,11.3c-0.9,1.6-1.8,3.4-3.4,4.2c0.3,0.2,0.5,0.4,0.8,0.6c-1.3,1.3-2.7,2.5-4.2,3.6c-0.1,0-0.1,0-0.2,0
		c-0.7,0.3-1.4,0.7-2,1.1C147.9,262.2,147.2,263.7,147.8,264.9z"/>
	<path class="st9" d="M172,263.3c-0.3-0.2-3.5-0.1-3.5,0c0,2-0.2,4-0.6,5.9c0,0.2-0.1,0.4,0,0.5c0.1,0.6,0.8,0.8,1.3,1
		c1.6,0.4,3.2,0.6,4.8,0.7c0.8,0.1,1.6,0.1,2.2-0.3s1-1.4,0.4-1.9c-0.2-0.2-0.5-0.3-0.7-0.4c-0.6-0.2-1.3-0.2-1.9-0.5
		c-0.6-0.2-1.2-0.6-1.4-1.2c-0.1-0.3-0.1-0.6-0.2-0.9C172.4,265.5,172.6,263.7,172,263.3z"/>
	<path class="st9" d="M158.9,258.7c-0.4-1-1.9-1.7-2.8-2.1c-0.1-0.1-0.2-0.1-0.3-0.1c-0.1,0-0.3,0.1-0.4,0.2
		c-1.5,1.5-3.1,2.9-4.8,4.1c-0.2,0.1-0.3,0.2-0.4,0.4c-0.1,0.2-0.2,0.5-0.1,0.7c0.1,3,1.8,5.8,4.2,7.8c0.4,0.3,0.8,0.6,1.2,0.8
		c0.5,0.2,1,0.1,1.4-0.1c-0.5-0.3-0.6-0.9-0.7-1.5c-0.1-0.6-0.2-1.1-0.2-1.7c-0.2-1.1-0.1-2.1,0.1-3.2c0.2-0.7,0.5-1.3,0.8-2
		c0.5-0.9,1-1.8,1.5-2.7C158.4,259,158.6,258.8,158.9,258.7z"/>
	<path class="st3" d="M167.1,269.3c-0.5,0.8-0.5,2.1-0.6,3c0,0.2,0,0.5,0.1,0.7c0.1,0.2,0.3,0.4,0.5,0.4c0,0,0,0,0,0
		c-0.1,0.1-0.1,0.4,0,0.5c0.2,0.1,0.3,0.2,0.5,0.2c0.8,0.1,1.6,0.1,2.4,0c0.3,0,0.5-0.1,0.7-0.3c0.2-0.2,0.3-0.5,0.1-0.7l1.9-0.1
		c1,0,2.1-0.2,3.1-0.4c1-0.3,1.9-0.9,2.5-1.8c0.2-0.3,0.3-0.6,0.3-1c-0.1-0.4-0.4-0.7-0.7-0.8c-1.1-0.7-2.4-0.9-3.6-0.6l1.4,1.2
		c0.2,0.1,0.3,0.3,0.5,0.5c0.1,0.2,0.1,0.5,0,0.6c-0.2,0.2-0.5,0.2-0.7,0.1c-2.1-0.3-4.3-0.6-6.2-1.4
		C168.6,269.1,167.6,268.5,167.1,269.3z"/>
	<path class="st3" d="M147.9,265c0.5,1.1,1.9,1.3,2.5,2.3c0.4,0.6,0.4,1.3,0.9,1.8c0.3,0.2,0.5,0.4,0.8,0.5c0.5,0.4,0.8,1,1.4,1.4
		c0.3,0.2,0.5,0.3,0.8,0.4c1.1,0.4,2.4,0.9,3.4,0.3c0.3-0.1,0.5-0.4,0.5-0.7c0-0.2,0-0.5-0.2-0.7c-0.2-0.4-0.5-0.8-0.9-1.1
		c-0.2-0.2-0.6-0.3-0.8,0c-0.1,0.2,0,0.5-0.2,0.6c-0.1,0.1-0.3-0.1-0.4-0.2c-0.8-0.9-1.1-2.2-1.5-3.4c-0.7-2.1-1.7-4-3-5.8
		c0,0,0,0,0,0c-0.1-0.1-0.2-0.1-0.3,0c-0.7,0.3-1.4,0.7-2,1.1C148,262.3,147.3,263.8,147.9,265z"/>
	<path class="st3" d="M177.4,207c1.2,0,2.2,0.8,2.5,2c0.8,1.8,1.3,4.2,0.2,5.9c0.4-0.8,1.1-1.4,1.9-1.7l-0.1,2c0,0.5-0.1,1-0.4,1.4
		c-0.2,0.2-0.3,0.3-0.4,0.5c-0.2,0.5,0,1,0.2,1.5c0.2,0.5,0.3,1.1-0.2,1.4c-0.2,0.2-0.5,0.3-0.7,0.4c0.5,2.2,0,4.6-0.5,6.9l-1.2,5.2
		c-0.2,0.7-0.2,1.5-0.3,2.2c0,0.1,0,0.2,0,0.3c-0.1,1-0.2,2-0.5,3c-0.6,2,0,4.4-0.2,6.6c-0.1,1.1-0.3,2.1-0.6,3.1
		c-1.3,5.2-2.5,10.2-2.9,15.5c-0.6,0.8-1.5,1.3-2.5,1.5c-1.6,0.2-3.2-0.3-4.7-1.1c1.3-2.1,1.4-4.8,1-7.3c-0.2-0.8-0.3-1.6-0.4-2.4
		c-0.1-1.6,0.2-3.4,1-4.7c-1.6,1-3.1,2.3-4.3,3.8c-1.9,2.4-3,5.3-5.3,7.4c-1.5-1.4-3-2.8-4.6-4.1c1.7-0.8,2.5-2.5,3.4-4.1
		c2.3-4.2,5.4-8,9.1-11.2c0.1-0.3,0.6-0.3,0.9-0.5c0.2-0.2,0.3-0.4,0.2-0.7c0-0.2-0.2-0.5-0.2-0.7c-0.2-0.6,0-1.2,0-1.7
		c0.1-0.6,0-1.2-0.4-1.7c-0.1-0.1-0.3-0.3-0.4-0.4c-0.3-0.3-0.4-0.8-0.3-1.2c0-0.4,0.1-0.8,0.3-1.2c-1.3-3.6-2.7-7.2-4-10.8
		c-0.9-2.5-1.9-5.1-2-7.8c-0.1-2.7,0.8-5.5,3-7.2C167.7,204.4,173.1,206.2,177.4,207z"/>
	<path class="st4" d="M167.8,221.7l0.5,14.7v6.5c0,0,0.5,6.1,0.5,5.6c0-0.5,0.4-4.7,0-5.6c-0.4-0.9,0-4.5,0-4.5v-6.8
		c0,0-0.5-9.7-0.5-10.8c0-1.1-2.2-2.5-2.2-2.5L167.8,221.7z"/>
	<path class="st9" d="M179.6,174.8c1-0.2,1.9-0.6,2.8-1.1c2.4-1.4,4.4-3.6,6.2-5.8c1.2-1.4,2.5-2.8,3.8-4.2c0.8-0.2,1.6-0.4,2.2-1.1
		c0.3-0.3,0.5-0.8,0.9-1c0.2-0.1,0.5-0.1,0.7-0.2c0.7-0.1,1.3-0.6,1.5-1.3c0.2-0.7-0.1-1.5-0.7-1.8c-0.2-0.1-0.3-0.2-0.5-0.3
		c-0.1-0.2-0.1-0.4,0-0.5c0.1-0.6,0.3-1.1,0.6-1.6c0.3-0.5,0.6-1,0.3-1.5l-3.3,3.6c-0.5,0.5-1,1-1.4,1.6c-0.4,0.5-0.6,1.1-1,1.7
		c-1.1,1.7-2.9,2.7-4.7,3.6c-2.5,1.2-5,2.2-7.6,3.3l-1.3,0.5C178.8,170.6,179.3,172.7,179.6,174.8z"/>
	<path class="st10" d="M179.6,174.8c1-0.2,1.9-0.6,2.8-1.1c2.4-1.4,4.4-3.6,6.2-5.8c1.2-1.4,2.5-2.8,3.8-4.2
		c0.8-0.2,1.6-0.4,2.2-1.1c0.3-0.3,0.5-0.8,0.9-1c0.2-0.1,0.5-0.1,0.7-0.2c0.7-0.1,1.3-0.6,1.5-1.3c0.2-0.7-0.1-1.5-0.7-1.8
		c-0.2-0.1-0.3-0.2-0.5-0.3c-0.1-0.2-0.1-0.4,0-0.5c0.1-0.6,0.3-1.1,0.6-1.6c0.3-0.5,0.6-1,0.3-1.5l-3.3,3.6c-0.5,0.5-1,1-1.4,1.6
		c-0.4,0.5-0.6,1.1-1,1.7c-1.1,1.7-2.9,2.7-4.7,3.6c-2.5,1.2-5,2.2-7.6,3.3l-1.3,0.5C178.8,170.6,179.3,172.7,179.6,174.8z"/>
	<path class="st1" d="M177.6,176.2c-0.5,0.1-1.7,0.5-2.1,0.2c-0.4-0.3-1-4.5-1.3-4.4c1.1-0.4,2.1-0.9,3.2-1.4
		c1.1-0.6,2.3-1.3,2.9-2.4c0.7,2,1.1,4,1.4,6c0.1,0.3,0,0.7-0.1,0.9c-0.2,0.3-0.7,0.4-1.1,0.5L177.6,176.2z"/>
	<circle class="st9" cx="177.5" cy="168.7" r="5.7"/>
	<path class="st11" d="M173.2,170.4c1.1,3.2-5.6,8.6-5.6,8.6s7.2,3.8,9.3,3.6c2.2-0.2,1.3-1.6-0.4-3.8c-1.6-2.2,2.2-5.4,2.2-5.4
		S172.1,167.2,173.2,170.4z"/>
	<path class="st1" d="M176.4,180c0.1,0.1,0.1,0.2,0.1,0.3c0,0.3-0.2,0.6-0.5,0.6c-1,0.1-2.1,0-3.1-0.3c-1.3-0.4-2.6-1.4-2.9-2.7
		c-0.2-1.1,0-2.3-0.9-3c-0.5-0.4-1.2-0.5-1.9-0.2c-1.3,0.5-1.9,1.7-2.4,2.8c-0.6,1.2-1.2,2.5-1.3,3.9c0,0.7,0,1.3,0.2,1.9
		c0.3,1.6,0.6,3.2,1.4,4.6c-0.6,4.2-0.9,8.5-1,12.8c0,2.6-0.2,5.3-1.8,7.3c0.7,0.2,1.5,0.4,2.2,0.5c2.5,0.5,5,1,7.5,1.1
		c2.8,0.1,5.6-0.3,8.2-1.5l-0.5-1.8c-0.1-0.3-0.2-0.6-0.2-0.9c0-0.3,0-0.7,0-1c-0.1-0.8-0.4-1.5-0.2-2.3c0-0.5-0.1-1-0.4-1.4
		c-0.3-0.4-0.3-1-0.2-1.5c0.2-0.6,0.4-1.2,0.4-1.8c0-0.3-0.1-0.5-0.1-0.8c0-0.6,0.5-1,0.9-1.4c1.3-1.5,1.4-3.7,0.4-5.4
		c-0.5-0.8-1.2-1.4-1.6-2.3c-0.8-1.8,0.1-3.9-0.4-5.9c-0.4-1.6-1.7-2.9-3.3-3.3C175.5,179,175.9,179.5,176.4,180z"/>
	<path class="st9" d="M166.4,202.1c-0.1,0-0.2,0.1-0.2,0.1c-0.1,0.1-0.1,0.2-0.1,0.3c0.1,0.9,0.6,1.7,1.3,2.2c0.7,0.5,1.5,1,2.3,1.3
		c3.1,1.4,6.4,2.5,9.4,4c0.2,0.1,0.3,0.4,0.3,0.6c0,0.7-0.1,1.4-0.2,2.1c-0.1,0.7-0.1,1.4,0.3,2c0.1,0.1,0.1,0.2,0.2,0.3
		c0.2,0.3,0.1,0.6,0.1,1c0.9-0.7,2-1.5,2.2-2.7l0.6-4.3c0.1-0.3,0.1-0.7,0-1c-0.2-0.3-0.5-0.6-0.8-0.7c-1.4-0.8-2.9-1.3-4.4-2
		c-2.5-1.2-4.6-3-6.7-4.7C169.3,201.2,167.8,201.6,166.4,202.1z"/>
	<path class="st4" d="M174.9,183.2c-1.1,0.8-1.9,1.9-2.7,3c-0.5,0.7-1.4,1.3-1.8,2.2c-0.3,0.7-0.7,1.3-1.1,1.8
		c-1.3,1.8-2.2,3.8-3.1,5.8l-1.1,2.3c-0.4,0.8-0.7,1.7-0.9,2.7c-0.2,1.2,0.2,2.6,0.5,3.8c1.6,0.2,3.2-0.4,4.6-1.1
		c0.9-0.4,1.8-1,2.1-1.9c-0.2,0-0.3-0.2-0.2-0.4c0.1-0.2,0.2-0.3,0.3-0.4c0.1-0.1,0.2-0.3,0.2-0.5c0-0.1-0.1-0.2-0.1-0.3
		c-0.1-0.3,0.3-0.7,0.5-1c2.5-3.3,3.7-7.3,6.2-10.6c0.2-0.3,0.5-0.6,0.6-0.9c0.2-0.6,0.4-1.2,0.3-1.9c0-0.5,0-0.9-0.1-1.4
		c-0.4-1-1.5-1.6-2.5-1.7C176,182.6,175.3,182.9,174.9,183.2z"/>
	<path class="st1" d="M174.9,182.7c-1.1,0.8-1.9,1.9-2.7,3c-0.5,0.7-1.4,1.3-1.8,2.2c-0.3,0.7-0.7,1.3-1.1,1.8
		c-1.3,1.8-2.2,3.8-3.1,5.8l-1.1,2.3c-0.4,0.8-0.7,1.7-0.9,2.7c-0.2,1.2,0.2,2.6,0.5,3.8c1.6,0.2,3.2-0.4,4.6-1.1
		c0.9-0.4,1.8-1,2.1-1.9c-0.2,0-0.3-0.2-0.2-0.4c0.1-0.2,0.2-0.3,0.3-0.4c0.1-0.1,0.2-0.3,0.2-0.5c0-0.1-0.1-0.2-0.1-0.3
		c-0.1-0.3,0.3-0.7,0.5-1c2.5-3.3,3.7-7.3,6.2-10.6c0.2-0.3,0.5-0.6,0.6-0.9c0.2-0.6,0.4-1.2,0.3-1.9c0-0.5,0-0.9-0.1-1.4
		c-0.4-1-1.5-1.6-2.5-1.7C176,182.1,175.3,182.4,174.9,182.7z"/>
	<path class="st3" d="M179.7,159.6l-2.6-1c-1-0.4-2-0.7-3.1-0.8c-2-0.1-3.9,1.1-5.2,2.6c-1.3,1.6-1.9,3.6-2.3,5.5
		c-0.3,1.4-0.4,2.8-1.1,4c-1.2,1.8-3.7,2.8-3.9,5c-0.1,0.7,0.1,1.4,0.2,2.1c0.3,1.6,0.2,3.2-0.3,4.8c-0.5,1.8-1.5,3.3-2,5.1
		c-0.2,0.8-0.3,1.6-0.1,2.4c0.4,1.2,1.7,2,1.8,3.3c0.1,0.7-0.2,1.3-0.4,1.9l-1.4,3.5c2.4-0.2,4.8-0.9,6.9-2.2
		c0.8-0.5,1.6-1.1,2.1-1.8c0.6-0.9,1-1.9,1.5-2.9c0.5-0.9,1-1.9,1.6-2.7c2-3,4.1-5.9,6.5-8.6c0.5-0.5,1-1.1,1-1.9
		c0-0.4,0-0.8-0.1-1.2c-0.4-2,0.2-4.1,1.5-5.7c0.8-1,1.9-1.8,2.7-2.7s1.3-2.4,0.7-3.5c-0.3-0.6-1-1.1-1.1-1.9
		c-0.1-0.4,0.1-0.9,0.1-1.3c0-0.8-0.6-1.4-1.3-1.8c-0.7-0.3-1.5-0.4-2.2-0.5"/>
	<g class="st12">
		<path d="M167.4,162.9c-0.4,1-0.7,2.1-0.9,3.1c-0.1,0.4-0.1,0.8-0.2,1.3c0.6-1.1,0.7-2.4,0.9-3.6
			C167.3,163.5,167.3,163.2,167.4,162.9z"/>
		<path d="M162.1,173.4c-0.4,0.5-0.6,1-0.7,1.6c-0.1,0.7,0.1,1.4,0.2,2.1c0.2,1.2,0.2,2.4,0,3.7c0.2-0.4,0.3-0.8,0.4-1.2
			c0.5-1.5,0.6-3.2,0.3-4.8C162.3,174.3,162.2,173.8,162.1,173.4z"/>
		<path d="M159.3,189.4c0.4,1.2,1.7,2,1.8,3.3c0,0.1,0,0.2,0,0.3c0.1-0.2,0.2-0.5,0.3-0.7c0.3-0.6,0.5-1.3,0.4-1.9
			c-0.2-1.3-1.4-2.1-1.8-3.3c-0.2-0.5-0.2-1.1-0.1-1.6c-0.2,0.5-0.4,1-0.5,1.5C159.1,187.7,159,188.6,159.3,189.4z"/>
		<path d="M160.2,195.7l-1,2.3c2.4-0.2,4.8-0.9,6.9-2.2c0.8-0.5,1.6-1.1,2.1-1.8c0.6-0.9,1-1.9,1.5-2.9c0.5-0.9,1-1.9,1.6-2.7
			c2-3,4.1-5.9,6.5-8.6c0.5-0.5,1-1.1,1-1.9c0-0.3,0-0.5-0.1-0.8c-0.1,0.1-0.2,0.2-0.2,0.3c-2.3,2.7-4.5,5.6-6.5,8.6
			c-0.6,0.9-1.1,1.8-1.6,2.7c-0.5,1-0.8,2-1.5,2.9c-0.6,0.7-1.3,1.4-2.1,1.8C164.8,194.7,162.6,195.5,160.2,195.7z"/>
		<path d="M179.4,172.3c0.2-0.4,0.5-0.9,0.8-1.2c0.8-1,1.9-1.7,2.7-2.7c0.6-0.7,0.9-1.7,0.9-2.6c-0.1,0.1-0.1,0.2-0.2,0.3
			c-0.8,1-1.9,1.8-2.7,2.7C180.1,169.7,179.5,170.9,179.4,172.3z"/>
	</g>
</g>
</svg>
