<?xml version="1.0" encoding="utf-8"?>
<!-- Generator: Adobe Illustrator 22.0.1, SVG Export Plug-In . SVG Version: 6.00 Build 0)  -->
<svg version="1.1" xmlns="http://www.w3.org/2000/svg" xmlns:xlink="http://www.w3.org/1999/xlink" x="0px" y="0px"
	 viewBox="0 0 314 314" style="enable-background:new 0 0 314 314;" xml:space="preserve">
<style type="text/css">
	.st0{display:none;}
	.st1{display:inline;opacity:0.1;fill:#F7941E;enable-background:new    ;}
	.st2{display:inline;fill:#F7941E;}
	.st3{display:inline;fill:#444053;}
	.st4{display:inline;fill:#3F3D56;}
	.st5{display:inline;opacity:0.1;enable-background:new    ;}
	.st6{display:inline;fill:#FFFFFF;}
	.st7{display:inline;opacity:0.1;fill:#444053;enable-background:new    ;}
	.st8{display:inline;fill:#3ACC6C;}
	.st9{display:inline;}
	.st10{fill:url(#SVGID_1_);}
	.st11{fill:#A1616A;}
	.st12{fill:#3F3D56;}
	.st13{opacity:0.1;enable-background:new    ;}
	.st14{opacity:0.15;enable-background:new    ;}
	.st15{fill:#F7941E;}
	.st16{fill:#FBBEBE;}
	.st17{opacity:0.1;}
	.st18{opacity:0.1;fill:#F7941E;enable-background:new    ;}
	.st19{fill:#FFFFFF;enable-background:new    ;}
	.st20{fill:#FFFFFF;}
	.st21{opacity:0.2;fill:#5A5773;enable-background:new    ;}
	.st22{fill:#E6E6E6;}
	.st23{fill:#2F2E41;}
	.st24{fill:#9F616A;}
	.st25{fill:none;stroke:#565987;stroke-width:0.2912;stroke-miterlimit:10;}
</style>
<g id="katman_1" class="st0">
	<path class="st1" d="M181.8,73.3c-19.7-0.7-38.5-7.1-56.5-14s-35.7-14.7-55-18.4c-12.4-2.4-26.6-2.7-36.5,3.9
		c-9.6,6.4-12.7,17.4-14.4,27.7c-1.3,7.7-2,15.8,1.4,23c2.4,5,6.6,9.2,9.6,14c10.2,16.7,3,37.3-8.1,53.6
		c-5.2,7.6-11.2,14.9-15.2,23.1s-5.8,17.5-2.3,25.8c3.5,8.2,11.7,14.4,20.7,18.8c18.2,8.8,39.6,11.3,60.6,12.8
		c46.3,3.2,92.9,1.8,139.3,0.4c17.2-0.5,34.4-1,51.3-3.7c9.4-1.5,19.1-3.8,25.9-9.5c8.6-7.2,10.8-19.3,5-28.3
		c-9.7-15.1-36.6-18.8-43.4-35c-3.7-8.9,0.1-18.8,5.5-27.1c11.7-17.7,31.2-33.3,32.2-53.6c0.7-13.9-8.7-27.9-23.2-34.5
		c-15.2-6.9-36.3-6-47.6,5.4C219.6,69.4,199.2,73.9,181.8,73.3z"/>
	<path class="st2" d="M249.2,225.5c-1.1-0.4-2.3-0.5-3.4-0.4c-1.4,0.2-1.2,2.3,0.2,2.2c0.7-0.1,1.4-0.2,2.1-0.4L249.2,225.5z"/>
	<path class="st2" d="M249.6,225.5c0.5,1,0.8,2.2,0.8,3.4c0,1.4-2.1,1.5-2.2,0.1c0-0.7,0-1.4,0.1-2.1L249.6,225.5z"/>
	<path class="st2" d="M252.9,220.9c0,0-0.7-2.2-4.9-1.3c-1.9,0.4-1.9,3.1,0.1,3.4h0.1C250.9,223.4,251.8,222.2,252.9,220.9z"/>
	<path class="st2" d="M253.3,220.8c0,0,2.3,0.2,2.4,4.5c0.1,1.9-2.6,2.5-3.3,0.7c0,0,0-0.1,0-0.1
		C251.3,223.3,252.2,222.1,253.3,220.8z"/>
	<path class="st2" d="M256.3,215.2c-0.3-1.6-1.5-2.9-3-3.4c-2.9-0.9-4.4,3.4-1.6,4.5c1.2,0.4,2.4,0.6,3.6,0.5L256.3,215.2z"/>
	<path class="st2" d="M259.8,208.1c0,0-1.2-2.7-4.1-3.3c-3.2-0.6-4.1,4.2-1,4.9c1.4,0.3,2.9,0.3,4.3,0L259.8,208.1z"/>
	<path class="st2" d="M261.9,201c-1-1.6-2.6-2.6-4.4-3c-2.7-0.5-3.6,3.6-1,4.3c1.7,0.4,3.4,0.4,5.1-0.1L261.9,201z"/>
	<path class="st2" d="M263.9,194.2c-0.9-1.4-2.2-2.5-3.8-3c-2.7-0.8-4.1,3.3-1.4,4.2c1.6,0.5,3.3,0.5,5,0L263.9,194.2z"/>
	<path class="st2" d="M264.7,188c0,0-1.1-2.6-3.3-3.9c-2.5-1.5-4.8,2.2-2.5,3.8c1.5,1,3.3,1.7,5.5,1.3L264.7,188z"/>
	<path class="st2" d="M265.1,180.5c0,0-1.2-2.6-3.5-3.8c-2.6-1.4-4.8,2.4-2.4,4c1.6,1.1,3.6,1.7,5.7,0.9L265.1,180.5z"/>
	<path class="st2" d="M264.9,173.8c-0.9-1.4-2-2.7-3.3-3.7c-1.8-1.5-4.1,1.2-2.4,2.8c1.6,1.4,3.5,2.7,5.6,2.6L264.9,173.8z"/>
	<path class="st2" d="M264.2,167.3c-1-1.7-2.3-3.3-3.7-4.8c-1.4-1.4-3.5,0.7-2.2,2.2c1.5,1.6,3.6,3.3,6.1,4.1L264.2,167.3z"/>
	<path class="st2" d="M262.9,159.7c-0.9-1.3-1.8-2.5-3-3.7c-1.4-1.4-3.6,0.7-2.2,2.2c1.5,1.5,3.3,3,5.5,3.5L262.9,159.7z"/>
	<path class="st2" d="M261.7,152.6c-0.9-1.2-1.8-2.3-2.8-3.4c-1.1-1.2-3,0.5-1.9,1.7c1.3,1.5,2.9,2.7,4.7,3L261.7,152.6z"/>
	<path class="st2" d="M260.5,146c-0.8-1.6-1.7-3.1-2.7-4.5c-0.9-1.2-2.6,0.1-1.8,1.3c1.1,1.6,2.5,3.1,4.4,3.9L260.5,146z"/>
	<path class="st2" d="M259.5,137.2c0,0-0.7-1.1-1.6-2.5c-0.9-1.2-2.8,0-1.9,1.3c0.9,1.4,2.1,2.6,3.4,2.9L259.5,137.2z"/>
	<path class="st2" d="M259.1,131.4l-0.9-4.3c-0.2-1.1-1.9-0.9-1.8,0.3c0.3,2.3,1.1,4.6,2.8,6.1L259.1,131.4z"/>
	<path class="st2" d="M259.6,119.3L259.6,119.3c-0.2-0.4-0.7-0.6-1.1-0.4c-0.4,0.2-0.6,0.5-0.5,0.9c0.2,1.2,0.5,2.4,0.9,3.5
		L259.6,119.3z"/>
	<path class="st2" d="M256.5,215.1c1.6-0.5,3.3-0.1,4.5,1c2.2,2-0.8,5.5-3.1,3.6c-0.9-0.8-1.7-1.8-2.2-2.9L256.5,215.1z"/>
	<path class="st2" d="M260,207.8c0,0,2.9-0.7,5.1,1.4c2.4,2.2-0.9,5.8-3.4,3.8c-1.1-0.9-2-2.1-2.6-3.4L260,207.8z"/>
	<path class="st2" d="M262.1,201.5c1.5-1.1,3.4-1.5,5.2-1.2c2.7,0.5,2,4.7-0.7,4.3c-1.7-0.2-3.3-0.9-4.7-2L262.1,201.5z"/>
	<path class="st2" d="M264,194.2c1.3-1,3-1.5,4.7-1.4c2.9,0.2,2.5,4.6-0.3,4.4c-1.7-0.1-3.3-0.8-4.6-1.9L264,194.2z"/>
	<path class="st2" d="M264.7,188.1c0,0,1.5-2.3,3.9-3.3c2.7-1.1,4.4,3,1.8,4.2c-1.6,0.8-3.6,1.2-5.7,0.3L264.7,188.1z"/>
	<path class="st2" d="M264.8,180.4c0,0,1.5-2.4,4-3.3c2.7-1,4.5,3,1.9,4.3c-1.7,0.8-3.8,1.3-5.8,0.2L264.8,180.4z"/>
	<path class="st2" d="M264.3,173.7c0.6-1.6,1.4-3,2.4-4.3c1.4-1.8,4.3,0.3,2.9,2.2c-1.2,1.8-2.9,3.4-4.9,3.7L264.3,173.7z"/>
	<path class="st2" d="M264.1,167.3c0.5-2,1.2-3.9,2.2-5.6c1-1.7,3.6-0.3,2.7,1.5c-1,2-2.5,4.2-4.7,5.6L264.1,167.3z"/>
	<path class="st2" d="M262.5,159.3c0.6-1.5,1.3-3,2.3-4.3c1.1-1.6,3.6,0,2.6,1.7c-1.1,1.8-2.7,3.7-4.8,4.6L262.5,159.3z"/>
	<path class="st2" d="M261.2,152.5c0.3-1.4,0.7-2.9,1.2-4.2c0.5-1.5,2.9-0.8,2.4,0.8c-0.5,1.9-1.5,3.7-3.1,4.7L261.2,152.5z"/>
	<path class="st2" d="M260.3,145.9c0.4-1.7,1-3.4,1.6-5c0.6-1.3,2.6-0.5,2.1,0.8c-0.7,1.8-1.7,3.6-3.4,4.8L260.3,145.9z"/>
	<path class="st2" d="M259,137.8c0,0,0.3-1.3,0.7-2.9c0.4-1.5,2.6-0.9,2.3,0.6c-0.4,1.6-1.1,3.2-2.3,3.9L259,137.8z"/>
	<path class="st2" d="M259.3,131.1l1.5-4.1c0.4-1.1,2-0.6,1.7,0.5c-0.6,2.2-1.8,4.4-3.7,5.6L259.3,131.1z"/>
	<path class="st2" d="M261.2,119.7c0,0,0.2-0.2,0.6-0.5c0.7-0.6,1.7,0.4,1,1.1c-1.2,1.1-2.6,1.9-4,2.6L261.2,119.7z"/>
	<path class="st2" d="M261.1,117.3c0.9-1.8,1.9-3.6,3-5.3c0.1-0.3,0-0.6-0.2-0.7c-0.2-0.1-0.5-0.1-0.7,0.1c-0.9,1.2-1.7,2.9-2.4,5.5
		L261.1,117.3z"/>
	<path class="st3" d="M259.4,139l0.3,0c-1.4-12.7-0.8-20.6,1.6-22.1l-0.2-0.3C258.6,118.2,258,126,259.4,139z"/>
	<path class="st3" d="M264.1,169.1l0.5-0.1c-0.2-1.2-0.4-2.4-0.6-3.5c-2-10.3-3.5-19.9-4.3-27.1l-0.3-0.3c0.8,7.3,2.2,17.1,4.2,27.5
		C263.7,166.7,263.9,167.9,264.1,169.1z"/>
	<path class="st3" d="M242,233.4c0.1-0.1,7.3-5.6,13.7-16.3c3.7-6.2,6.5-13,8.1-20.1c2-8.9,2.1-19.2,0.6-28.9l-0.4,0.3
		c3.3,21.7-3,38.6-8.8,48.3c-6.3,10.6-13.5,16.1-13.6,16.1L242,233.4z"/>
	<ellipse class="st2" cx="55.8" cy="229.8" rx="18.2" ry="3.5"/>
	<ellipse class="st4" cx="55.5" cy="228.4" rx="2.1" ry="2.8"/>
	<ellipse class="st4" cx="55.5" cy="225" rx="2.1" ry="2.8"/>
	<ellipse class="st4" cx="55.5" cy="221.6" rx="2.1" ry="2.8"/>
	<ellipse class="st4" cx="55.5" cy="218.2" rx="2.1" ry="2.8"/>
	<ellipse class="st4" cx="55.5" cy="214.8" rx="2.1" ry="2.8"/>
	<ellipse class="st4" cx="55.5" cy="211.4" rx="2.1" ry="2.8"/>
	<ellipse class="st4" cx="55.5" cy="208.1" rx="2.1" ry="2.8"/>
	<path class="st2" d="M63.4,184.9c0.3-0.4,0.6-0.8,0.8-1.2l-5.6-0.9l6,0c1.2-2.5,1.2-5.4,0.2-8l-8.1,4.2l7.4-5.5
		c-2.8-4.8-9-6.5-13.8-3.7c-4.8,2.8-6.5,9-3.7,13.8c0.2,0.4,0.5,0.8,0.8,1.2c-0.4,0.6-0.8,1.2-1.2,1.8l7.2,3.7l-7.7-2.6
		c-1.1,3.2-0.5,6.8,1.6,9.5c-3.5,4.4-2.7,10.8,1.7,14.2s10.8,2.7,14.2-1.7c2.9-3.7,2.9-8.9,0-12.5C66.3,193.8,66.3,188.6,63.4,184.9
		L63.4,184.9z"/>
	<path class="st5" d="M45.3,191.2c0,2.3,0.8,4.5,2.2,6.3c-3.5,4.4-2.7,10.8,1.7,14.2c4.4,3.5,10.8,2.7,14.2-1.7
		c2.9-3.7,2.9-8.9,0-12.5C64.8,195.7,45.3,190,45.3,191.2z"/>
	<path class="st6" d="M66.2,110.6v120.6c0,2.3,1.9,4.2,4.2,4.2h173c2.3,0,4.2-1.9,4.2-4.2V110.6H66.2z"/>
	<path class="st5" d="M82.9,121.4h38.6c1.3,0,2.4,1.1,2.4,2.4v20.7c0,1.3-1.1,2.4-2.4,2.4H82.9c-1.3,0-2.4-1.1-2.4-2.4v-20.7
		C80.5,122.5,81.6,121.4,82.9,121.4z"/>
	<path class="st5" d="M137.6,121.4h38.6c1.3,0,2.4,1.1,2.4,2.4v20.7c0,1.3-1.1,2.4-2.4,2.4h-38.6c-1.3,0-2.4-1.1-2.4-2.4v-20.7
		C135.2,122.5,136.2,121.4,137.6,121.4z"/>
	<path class="st5" d="M137.6,157.4h38.6c1.3,0,2.4,1.1,2.4,2.4v20.7c0,1.3-1.1,2.4-2.4,2.4h-38.6c-1.3,0-2.4-1.1-2.4-2.4v-20.7
		C135.2,158.5,136.2,157.4,137.6,157.4z"/>
	<path class="st7" d="M83.5,157.5h37.4c1.3,0,2.4,1.1,2.4,2.4v20c0,1.3-1.1,2.4-2.4,2.4H83.5c-1.3,0-2.4-1.1-2.4-2.4v-20
		C81.1,158.6,82.2,157.5,83.5,157.5z"/>
	<path class="st7" d="M230.3,182.3h-37.4c-1.3,0-2.4-1.1-2.4-2.4v-20c0-1.3,1.1-2.4,2.4-2.4h37.4c1.3,0,2.4,1.1,2.4,2.4v20
		C232.6,181.2,231.6,182.3,230.3,182.3z"/>
	<path class="st7" d="M83.5,193.3h37.4c1.3,0,2.4,1.1,2.4,2.4v20c0,1.3-1.1,2.4-2.4,2.4H83.5c-1.3,0-2.4-1.1-2.4-2.4v-20
		C81.1,194.3,82.2,193.3,83.5,193.3z"/>
	<path class="st7" d="M230.3,218h-37.4c-1.3,0-2.4-1.1-2.4-2.4v-20c0-1.3,1.1-2.4,2.4-2.4h37.4c1.3,0,2.4,1.1,2.4,2.4v20
		C232.6,216.9,231.6,218,230.3,218z"/>
	<path class="st7" d="M175.6,218h-37.4c-1.3,0-2.4-1.1-2.4-2.4v-20c0-1.3,1.1-2.4,2.4-2.4h37.4c1.3,0,2.4,1.1,2.4,2.4v20
		C177.9,216.9,176.9,218,175.6,218z"/>
	<path class="st2" d="M66.2,89.3v21.9h181.4V89.3c0-2.3-1.9-4.2-4.2-4.2c0,0,0,0,0,0h-173C68,85.1,66.2,87,66.2,89.3
		C66.2,89.3,66.2,89.3,66.2,89.3z M111.1,95.8c-1.9,0-3.4-1.5-3.4-3.4s1.5-3.4,3.4-3.4c1.9,0,3.4,1.5,3.4,3.4l0,0
		C114.4,94.3,112.9,95.8,111.1,95.8z M202.7,95.8c-1.9,0-3.4-1.5-3.4-3.4s1.5-3.4,3.4-3.4c1.9,0,3.4,1.5,3.4,3.4l0,0
		C206,94.3,204.5,95.8,202.7,95.8C202.7,95.8,202.7,95.8,202.7,95.8L202.7,95.8z"/>
	<path class="st5" d="M111.1,88.5c-2.2,0-4,1.8-4,4c0,2.2,1.8,4,4,4c2.2,0,4-1.8,4-4c0,0,0,0,0,0C115,90.3,113.3,88.5,111.1,88.5
		C111.1,88.5,111.1,88.5,111.1,88.5z M111.1,95.8c-1.9,0-3.4-1.5-3.4-3.4s1.5-3.4,3.4-3.4c1.9,0,3.4,1.5,3.4,3.4l0,0
		C114.4,94.3,112.9,95.8,111.1,95.8z"/>
	<path class="st5" d="M202.7,88.5c-2.2,0-4,1.8-4,4c0,2.2,1.8,4,4,4c2.2,0,4-1.8,4-4c0,0,0,0,0,0C206.7,90.3,204.9,88.5,202.7,88.5z
		 M202.7,95.8c-1.9,0-3.4-1.5-3.4-3.4s1.5-3.4,3.4-3.4c1.9,0,3.4,1.5,3.4,3.4l0,0C206,94.3,204.5,95.8,202.7,95.8z"/>
	<circle class="st1" cx="284.8" cy="154" r="4.2"/>
	<circle class="st1" cx="299.7" cy="135.4" r="7"/>
	<circle class="st1" cx="290.5" cy="169.3" r="7"/>
	<circle class="st1" cx="12.7" cy="133.7" r="9.9"/>
	<path class="st2" d="M230.6,146.5h-37.4c-1.3,0-2.4-1.1-2.4-2.4v-20c0-1.3,1.1-2.4,2.4-2.4h37.4c1.3,0,2.4,1.1,2.4,2.4v20
		C232.9,145.5,231.9,146.5,230.6,146.5z"/>
	<path class="st8" d="M226.8,114.7l-2-2c-0.4-0.4-1.1-0.4-1.5,0c0,0,0,0,0,0L210.9,125l-5.3-5.3c-0.4-0.4-1.1-0.4-1.5,0l-2,2
		c-0.4,0.4-0.4,1.1,0,1.5l8,8c0.4,0.4,1.1,0.4,1.5,0l15.2-15.1C227.2,115.7,227.2,115.1,226.8,114.7
		C226.8,114.7,226.8,114.7,226.8,114.7z"/>
	<g class="st9">
		
			<linearGradient id="SVGID_1_" gradientUnits="userSpaceOnUse" x1="330.5293" y1="12.9613" x2="330.5293" y2="134.2802" gradientTransform="matrix(-1 0 0 -1 503.2186 287.0367)">
			<stop  offset="0" style="stop-color:#808080;stop-opacity:0.25"/>
			<stop  offset="0.54" style="stop-color:#808080;stop-opacity:0.12"/>
			<stop  offset="1" style="stop-color:#808080;stop-opacity:0.1"/>
		</linearGradient>
		<path class="st10" d="M147.8,264.9c0.5,1.1,1.9,1.3,2.5,2.3c0.4,0.6,0.4,1.4,0.9,1.8c0.3,0.2,0.5,0.4,0.8,0.5
			c0.5,0.4,0.8,1,1.4,1.4c0.3,0.2,0.6,0.3,0.9,0.4c1.1,0.4,2.4,0.9,3.4,0.3c0.3-0.1,0.5-0.4,0.5-0.7c0-0.2,0-0.5-0.2-0.7
			c-0.2-0.4-0.6-0.8-0.9-1.1c-0.2-0.2-0.6-0.3-0.8,0c0,0.1-0.1,0.1-0.1,0.2c-0.1-0.2-0.1-0.5-0.2-0.7c-0.1-0.6-0.2-1.1-0.2-1.7
			c-0.2-1.1-0.1-2.2,0.1-3.2c0.2-0.7,0.5-1.4,0.8-2c0.4-0.9,0.9-1.7,1.4-2.5c0.3,0.3,0.6,0.6,0.9,0.9c2.3-2,3.5-5,5.3-7.5
			c1.2-1.5,2.6-2.8,4.3-3.9c-0.9,1.3-1.1,3.2-1,4.8c0.1,0.8,0.2,1.6,0.4,2.4c0.4,2.5,0.4,5.3-1,7.4c0.5,0.2,0.9,0.5,1.4,0.6
			c-0.1,1.6-0.2,3.2-0.5,4.8c-0.3-0.1-0.7,0.1-0.8,0.4c-0.5,0.8-0.5,2.1-0.6,3c0,0.2,0,0.5,0.1,0.7c0.1,0.2,0.3,0.4,0.5,0.4
			c0,0,0,0,0,0c-0.1,0.1-0.1,0.4,0,0.5c0.2,0.1,0.3,0.2,0.5,0.2c0.8,0.1,1.6,0.1,2.4,0c0.3,0,0.5-0.1,0.7-0.3
			c0.2-0.2,0.3-0.5,0.1-0.7l1.9-0.1c1.1,0,2.1-0.2,3.1-0.4c1-0.3,1.9-0.9,2.5-1.8c0.2-0.3,0.3-0.6,0.3-1c-0.1-0.4-0.4-0.7-0.7-0.8
			c-1.1-0.7-2.4-0.9-3.6-0.6l0.2,0.2c-0.2,0-0.4-0.1-0.6-0.2c-0.6-0.2-1.2-0.6-1.4-1.2c-0.1-0.3-0.1-0.6-0.1-0.9
			c0-0.4,0.1-1.1,0-1.8c0.7-0.2,1.4-0.7,1.9-1.3c0.5-5.4,1.6-10.5,2.9-15.7c0.3-1,0.5-2.1,0.6-3.2c0.2-2.2-0.4-4.7,0.2-6.7
			c0.3-1,0.5-2,0.5-3.1c0-0.1,0-0.2,0-0.3c0-0.8,0.1-1.5,0.3-2.2c0.4-1.7,0.8-3.5,1.2-5.2c0.5-2.3,1-4.7,0.5-6.9
			c0.3-0.1,0.5-0.2,0.7-0.4c0.4-0.3,0.4-0.9,0.2-1.4c-0.2-0.5-0.5-1-0.2-1.5c0.1-0.2,0.3-0.4,0.4-0.5c0.3-0.4,0.3-0.9,0.4-1.4
			c0-0.7,0.1-1.3,0.1-2l-0.1,0l0.6-4c0.1-0.3,0.1-0.7,0-1c-0.2-0.3-0.5-0.6-0.8-0.8c-0.6-0.4-1.3-0.7-2-1c0,0,0-0.1,0-0.1
			c-0.1-0.3-0.2-0.6-0.2-0.9c0-0.3,0-0.7,0-1c-0.1-0.8-0.4-1.6-0.2-2.3c0-0.5-0.1-1-0.4-1.4c-0.3-0.4-0.3-1-0.2-1.5
			c0.2-0.6,0.4-1.2,0.4-1.8c0-0.3-0.1-0.5-0.1-0.8c0-0.6,0.5-1,0.9-1.4c1.3-1.5,1.4-3.7,0.4-5.4c-0.5-0.8-1.2-1.4-1.6-2.2
			c0,0,0.1-0.1,0.1-0.1c0.2-0.6,0.3-1.3,0.3-1.9c0-0.2,0-0.3,0-0.5v0c0-0.5,0-0.9-0.1-1.4c-0.1-0.3-0.3-0.6-0.5-0.9
			c0-0.4,0-0.8-0.1-1.2c-0.1-0.6-0.4-1.3-0.8-1.8l0.3-0.3c0.5-0.6,1-1.2,1-1.9c0-0.1,0-0.1,0-0.2v-0.1v-0.1c0,0,0,0,0-0.1
			c0-0.1,0-0.1,0-0.2c0,0,0,0,0,0l0-0.2l0,0c0-0.1-0.1-0.3-0.1-0.4c0-0.2-0.1-0.5-0.1-0.7l1.9-0.3c0.4-0.1,0.9-0.2,1.1-0.5
			c0.1-0.3,0.2-0.6,0.1-1c0,0,0-0.1,0-0.1c0.3-0.1,0.5-0.3,0.8-0.4c2.4-1.5,4.4-3.7,6.2-5.8c1.2-1.4,2.5-2.8,3.8-4.2
			c0.8-0.2,1.6-0.4,2.2-1.1c0.3-0.3,0.5-0.8,0.9-1c0.2-0.1,0.5-0.1,0.7-0.2c0.7-0.1,1.3-0.7,1.5-1.3c0.2-0.7-0.1-1.5-0.7-1.9
			c-0.2-0.1-0.3-0.2-0.5-0.3c-0.1-0.2-0.1-0.4,0-0.6c0.1-0.6,0.3-1.1,0.6-1.6c0.3-0.5,0.6-1.1,0.3-1.5l-3.3,3.6
			c-0.5,0.5-1,1.1-1.4,1.6c-0.4,0.5-0.6,1.1-1,1.7c-1.1,1.7-3,2.7-4.8,3.6c-1.1,0.5-2.2,1-3.3,1.5v-0.1c0,0,0,0,0,0
			c0-0.1,0-0.1,0-0.2v0c0-0.4-0.1-0.9-0.3-1.3c-0.4-0.7-1-1.2-1.1-1.9c-0.1-0.4,0.1-0.9,0.1-1.3c0-0.8-0.6-1.4-1.3-1.8
			s-1.5-0.4-2.2-0.5l0.7,0.3l-2.6-1c-1-0.4-2-0.8-3.1-0.8c-2-0.1-3.9,1.1-5.2,2.7c-0.6,0.8-1,1.6-1.4,2.5l0,0
			c-0.1,0.1-0.1,0.3-0.1,0.4l0,0c0,0.1-0.1,0.3-0.1,0.4l0,0c0,0.1-0.1,0.2-0.1,0.4v0c0,0.1-0.1,0.2-0.1,0.4c0,0,0,0,0,0
			c0,0.1-0.1,0.2-0.1,0.3l0,0.1c0,0.1-0.1,0.2-0.1,0.3l0,0.1c0,0.1,0,0.2-0.1,0.3l0,0.1c0,0.1-0.1,0.3-0.1,0.4
			c0,0.2-0.1,0.4-0.1,0.6c0,0.2-0.1,0.4-0.1,0.7c-0.1,1-0.4,1.9-0.9,2.7c-0.8,1.3-2.3,2.2-3.2,3.4l0,0c-0.1,0.2-0.3,0.4-0.4,0.6l0,0
			c0,0.1-0.1,0.1-0.1,0.2l0,0c0,0-0.1,0.1-0.1,0.1s0,0,0,0.1c0,0,0,0.1,0,0.1s0,0,0,0.1s0,0.1,0,0.1c0,0,0,0,0,0.1
			c0,0.1,0,0.1,0,0.2c0,0.1,0,0.2,0,0.3c0,0.5,0.1,0.9,0.2,1.4c0,0.2,0.1,0.3,0.1,0.5l0,0c0,0.2,0.1,0.4,0.1,0.5c0,0.1,0,0.1,0,0.2
			c0,0.1,0,0.2,0,0.4c0,0.1,0,0.1,0,0.2c0,0.1,0,0.3,0,0.4c0,0.1,0,0.1,0,0.2c0,0.2,0,0.3,0,0.5c0,0.1,0,0.2,0,0.3l0,0.3
			c0,0.1,0,0.2,0,0.3s0,0.2,0,0.2c0,0.1,0,0.2,0,0.3c-0.1,0.4-0.2,0.7-0.3,1.1c-0.4,1.4-1.1,2.7-1.6,4l0,0.1c0,0.1-0.1,0.2-0.1,0.3
			l0,0.1c0,0.1-0.1,0.2-0.1,0.3l0,0.1c0,0.1-0.1,0.2-0.1,0.4l0,0c-0.1,0.2-0.1,0.4-0.1,0.6c-0.1,0.3-0.1,0.6-0.1,0.9
			c0,0.3,0.1,0.6,0.2,0.9c0.2,0.6,0.6,1.1,1,1.6c0.1,0.1,0.2,0.3,0.3,0.4c0.1,0.2,0.3,0.4,0.3,0.6c0,0.1,0.1,0.1,0.1,0.2
			c0.1,0.1,0.1,0.3,0.1,0.5c0,0.1,0,0.1,0,0.2v0.1l0,0c0,0.6-0.2,1.1-0.4,1.7c-0.5,1.2-0.9,2.4-1.4,3.5l0,0c0.3,0,0.7-0.1,1-0.1
			c0.7-0.1,1.5-0.3,2.2-0.5l0.4-0.1c0.5-0.2,0.9-0.3,1.4-0.5c-0.1,1.3-0.1,2.6-0.1,3.9c0,2.6-0.2,5.3-1.8,7.4
			c0.2,0.1,0.5,0.1,0.7,0.2c-1.3,1.7-1.9,3.9-1.8,6.1c0.1,2.7,1,5.3,2,7.9c1.3,3.7,2.7,7.3,4,10.9c-0.2,0.4-0.2,0.8-0.3,1.2
			c-0.1,0.4,0,0.9,0.3,1.2c0.1,0.1,0.3,0.3,0.4,0.4c0.4,0.4,0.4,1.1,0.4,1.7c-0.1,0.6-0.2,1.2,0,1.8c0.1,0.2,0.2,0.5,0.2,0.7
			c0.1,0.3,0,0.5-0.2,0.7c-0.3,0.2-0.8,0.2-0.9,0.5c-3.7,3.2-6.8,7-9.1,11.3c-0.9,1.6-1.8,3.4-3.4,4.2c0.3,0.2,0.5,0.4,0.8,0.6
			c-1.3,1.3-2.7,2.5-4.2,3.6c-0.1,0-0.1,0-0.2,0c-0.7,0.3-1.4,0.7-2,1.1C147.9,262.2,147.2,263.7,147.8,264.9z"/>
		<path class="st11" d="M172,263.3c-0.3-0.2-3.5-0.1-3.5,0c0,2-0.2,4-0.6,5.9c0,0.2-0.1,0.4,0,0.5c0.1,0.6,0.8,0.8,1.3,1
			c1.6,0.4,3.2,0.6,4.8,0.7c0.8,0.1,1.6,0.1,2.2-0.3s1-1.4,0.4-1.9c-0.2-0.2-0.5-0.3-0.7-0.4c-0.6-0.2-1.3-0.2-1.9-0.5
			c-0.6-0.2-1.2-0.6-1.4-1.2c-0.1-0.3-0.1-0.6-0.2-0.9C172.4,265.5,172.6,263.7,172,263.3z"/>
		<path class="st11" d="M158.9,258.7c-0.4-1-1.9-1.7-2.8-2.1c-0.1-0.1-0.2-0.1-0.3-0.1c-0.1,0-0.3,0.1-0.4,0.2
			c-1.5,1.5-3.1,2.9-4.8,4.1c-0.2,0.1-0.3,0.2-0.4,0.4c-0.1,0.2-0.2,0.5-0.1,0.7c0.1,3,1.8,5.8,4.2,7.8c0.4,0.3,0.8,0.6,1.2,0.8
			c0.5,0.2,1,0.1,1.4-0.1c-0.5-0.3-0.6-0.9-0.7-1.5c-0.1-0.6-0.2-1.1-0.2-1.7c-0.2-1.1-0.1-2.1,0.1-3.2c0.2-0.7,0.5-1.3,0.8-2
			c0.5-0.9,1-1.8,1.5-2.7C158.4,259,158.6,258.8,158.9,258.7z"/>
		<path class="st12" d="M167.1,269.3c-0.5,0.8-0.5,2.1-0.6,3c0,0.2,0,0.5,0.1,0.7c0.1,0.2,0.3,0.4,0.5,0.4c0,0,0,0,0,0
			c-0.1,0.1-0.1,0.4,0,0.5c0.2,0.1,0.3,0.2,0.5,0.2c0.8,0.1,1.6,0.1,2.4,0c0.3,0,0.5-0.1,0.7-0.3c0.2-0.2,0.3-0.5,0.1-0.7l1.9-0.1
			c1,0,2.1-0.2,3.1-0.4c1-0.3,1.9-0.9,2.5-1.8c0.2-0.3,0.3-0.6,0.3-1c-0.1-0.4-0.4-0.7-0.7-0.8c-1.1-0.7-2.4-0.9-3.6-0.6l1.4,1.2
			c0.2,0.1,0.3,0.3,0.5,0.5c0.1,0.2,0.1,0.5,0,0.6c-0.2,0.2-0.5,0.2-0.7,0.1c-2.1-0.3-4.3-0.6-6.2-1.4
			C168.6,269.1,167.6,268.5,167.1,269.3z"/>
		<path class="st12" d="M147.9,265c0.5,1.1,1.9,1.3,2.5,2.3c0.4,0.6,0.4,1.3,0.9,1.8c0.3,0.2,0.5,0.4,0.8,0.5c0.5,0.4,0.8,1,1.4,1.4
			c0.3,0.2,0.5,0.3,0.8,0.4c1.1,0.4,2.4,0.9,3.4,0.3c0.3-0.1,0.5-0.4,0.5-0.7c0-0.2,0-0.5-0.2-0.7c-0.2-0.4-0.5-0.8-0.9-1.1
			c-0.2-0.2-0.6-0.3-0.8,0c-0.1,0.2,0,0.5-0.2,0.6c-0.1,0.1-0.3-0.1-0.4-0.2c-0.8-0.9-1.1-2.2-1.5-3.4c-0.7-2.1-1.7-4-3-5.8
			c0,0,0,0,0,0c-0.1-0.1-0.2-0.1-0.3,0c-0.7,0.3-1.4,0.7-2,1.1C148,262.3,147.3,263.8,147.9,265z"/>
		<path class="st12" d="M177.4,207c1.2,0,2.2,0.8,2.5,2c0.8,1.8,1.3,4.2,0.2,5.9c0.4-0.8,1.1-1.4,1.9-1.7l-0.1,2
			c0,0.5-0.1,1-0.4,1.4c-0.2,0.2-0.3,0.3-0.4,0.5c-0.2,0.5,0,1,0.2,1.5c0.2,0.5,0.3,1.1-0.2,1.4c-0.2,0.2-0.5,0.3-0.7,0.4
			c0.5,2.2,0,4.6-0.5,6.9l-1.2,5.2c-0.2,0.7-0.2,1.5-0.3,2.2c0,0.1,0,0.2,0,0.3c-0.1,1-0.2,2-0.5,3c-0.6,2,0,4.4-0.2,6.6
			c-0.1,1.1-0.3,2.1-0.6,3.1c-1.3,5.2-2.5,10.2-2.9,15.5c-0.6,0.8-1.5,1.3-2.5,1.5c-1.6,0.2-3.2-0.3-4.7-1.1c1.3-2.1,1.4-4.8,1-7.3
			c-0.2-0.8-0.3-1.6-0.4-2.4c-0.1-1.6,0.2-3.4,1-4.7c-1.6,1-3.1,2.3-4.3,3.8c-1.9,2.4-3,5.3-5.3,7.4c-1.5-1.4-3-2.8-4.6-4.1
			c1.7-0.8,2.5-2.5,3.4-4.1c2.3-4.2,5.4-8,9.1-11.2c0.1-0.3,0.6-0.3,0.9-0.5c0.2-0.2,0.3-0.4,0.2-0.7c0-0.2-0.2-0.5-0.2-0.7
			c-0.2-0.6,0-1.2,0-1.7c0.1-0.6,0-1.2-0.4-1.7c-0.1-0.1-0.3-0.3-0.4-0.4c-0.3-0.3-0.4-0.8-0.3-1.2c0-0.4,0.1-0.8,0.3-1.2
			c-1.3-3.6-2.7-7.2-4-10.8c-0.9-2.5-1.9-5.1-2-7.8c-0.1-2.7,0.8-5.5,3-7.2C167.7,204.4,173.1,206.2,177.4,207z"/>
		<path class="st13" d="M167.8,221.7l0.5,14.7v6.5c0,0,0.5,6.1,0.5,5.6c0-0.5,0.4-4.7,0-5.6c-0.4-0.9,0-4.5,0-4.5v-6.8
			c0,0-0.5-9.7-0.5-10.8c0-1.1-2.2-2.5-2.2-2.5L167.8,221.7z"/>
		<path class="st11" d="M179.6,174.8c1-0.2,1.9-0.6,2.8-1.1c2.4-1.4,4.4-3.6,6.2-5.8c1.2-1.4,2.5-2.8,3.8-4.2
			c0.8-0.2,1.6-0.4,2.2-1.1c0.3-0.3,0.5-0.8,0.9-1c0.2-0.1,0.5-0.1,0.7-0.2c0.7-0.1,1.3-0.6,1.5-1.3c0.2-0.7-0.1-1.5-0.7-1.8
			c-0.2-0.1-0.3-0.2-0.5-0.3c-0.1-0.2-0.1-0.4,0-0.5c0.1-0.6,0.3-1.1,0.6-1.6c0.3-0.5,0.6-1,0.3-1.5l-3.3,3.6c-0.5,0.5-1,1-1.4,1.6
			c-0.4,0.5-0.6,1.1-1,1.7c-1.1,1.7-2.9,2.7-4.7,3.6c-2.5,1.2-5,2.2-7.6,3.3l-1.3,0.5C178.8,170.6,179.3,172.7,179.6,174.8z"/>
		<path class="st14" d="M179.6,174.8c1-0.2,1.9-0.6,2.8-1.1c2.4-1.4,4.4-3.6,6.2-5.8c1.2-1.4,2.5-2.8,3.8-4.2
			c0.8-0.2,1.6-0.4,2.2-1.1c0.3-0.3,0.5-0.8,0.9-1c0.2-0.1,0.5-0.1,0.7-0.2c0.7-0.1,1.3-0.6,1.5-1.3c0.2-0.7-0.1-1.5-0.7-1.8
			c-0.2-0.1-0.3-0.2-0.5-0.3c-0.1-0.2-0.1-0.4,0-0.5c0.1-0.6,0.3-1.1,0.6-1.6c0.3-0.5,0.6-1,0.3-1.5l-3.3,3.6c-0.5,0.5-1,1-1.4,1.6
			c-0.4,0.5-0.6,1.1-1,1.7c-1.1,1.7-2.9,2.7-4.7,3.6c-2.5,1.2-5,2.2-7.6,3.3l-1.3,0.5C178.8,170.6,179.3,172.7,179.6,174.8z"/>
		<path class="st15" d="M177.6,176.2c-0.5,0.1-1.7,0.5-2.1,0.2c-0.4-0.3-1-4.5-1.3-4.4c1.1-0.4,2.1-0.9,3.2-1.4
			c1.1-0.6,2.3-1.3,2.9-2.4c0.7,2,1.1,4,1.4,6c0.1,0.3,0,0.7-0.1,0.9c-0.2,0.3-0.7,0.4-1.1,0.5L177.6,176.2z"/>
		<circle class="st11" cx="177.5" cy="168.7" r="5.7"/>
		<path class="st16" d="M173.2,170.4c1.1,3.2-5.6,8.6-5.6,8.6s7.2,3.8,9.3,3.6c2.2-0.2,1.3-1.6-0.4-3.8c-1.6-2.2,2.2-5.4,2.2-5.4
			S172.1,167.2,173.2,170.4z"/>
		<path class="st15" d="M176.4,180c0.1,0.1,0.1,0.2,0.1,0.3c0,0.3-0.2,0.6-0.5,0.6c-1,0.1-2.1,0-3.1-0.3c-1.3-0.4-2.6-1.4-2.9-2.7
			c-0.2-1.1,0-2.3-0.9-3c-0.5-0.4-1.2-0.5-1.9-0.2c-1.3,0.5-1.9,1.7-2.4,2.8c-0.6,1.2-1.2,2.5-1.3,3.9c0,0.7,0,1.3,0.2,1.9
			c0.3,1.6,0.6,3.2,1.4,4.6c-0.6,4.2-0.9,8.5-1,12.8c0,2.6-0.2,5.3-1.8,7.3c0.7,0.2,1.5,0.4,2.2,0.5c2.5,0.5,5,1,7.5,1.1
			c2.8,0.1,5.6-0.3,8.2-1.5l-0.5-1.8c-0.1-0.3-0.2-0.6-0.2-0.9c0-0.3,0-0.7,0-1c-0.1-0.8-0.4-1.5-0.2-2.3c0-0.5-0.1-1-0.4-1.4
			c-0.3-0.4-0.3-1-0.2-1.5c0.2-0.6,0.4-1.2,0.4-1.8c0-0.3-0.1-0.5-0.1-0.8c0-0.6,0.5-1,0.9-1.4c1.3-1.5,1.4-3.7,0.4-5.4
			c-0.5-0.8-1.2-1.4-1.6-2.3c-0.8-1.8,0.1-3.9-0.4-5.9c-0.4-1.6-1.7-2.9-3.3-3.3C175.5,179,175.9,179.5,176.4,180z"/>
		<path class="st11" d="M166.4,202.1c-0.1,0-0.2,0.1-0.2,0.1c-0.1,0.1-0.1,0.2-0.1,0.3c0.1,0.9,0.6,1.7,1.3,2.2
			c0.7,0.5,1.5,1,2.3,1.3c3.1,1.4,6.4,2.5,9.4,4c0.2,0.1,0.3,0.4,0.3,0.6c0,0.7-0.1,1.4-0.2,2.1c-0.1,0.7-0.1,1.4,0.3,2
			c0.1,0.1,0.1,0.2,0.2,0.3c0.2,0.3,0.1,0.6,0.1,1c0.9-0.7,2-1.5,2.2-2.7l0.6-4.3c0.1-0.3,0.1-0.7,0-1c-0.2-0.3-0.5-0.6-0.8-0.7
			c-1.4-0.8-2.9-1.3-4.4-2c-2.5-1.2-4.6-3-6.7-4.7C169.3,201.2,167.8,201.6,166.4,202.1z"/>
		<path class="st13" d="M174.9,183.2c-1.1,0.8-1.9,1.9-2.7,3c-0.5,0.7-1.4,1.3-1.8,2.2c-0.3,0.7-0.7,1.3-1.1,1.8
			c-1.3,1.8-2.2,3.8-3.1,5.8l-1.1,2.3c-0.4,0.8-0.7,1.7-0.9,2.7c-0.2,1.2,0.2,2.6,0.5,3.8c1.6,0.2,3.2-0.4,4.6-1.1
			c0.9-0.4,1.8-1,2.1-1.9c-0.2,0-0.3-0.2-0.2-0.4c0.1-0.2,0.2-0.3,0.3-0.4c0.1-0.1,0.2-0.3,0.2-0.5c0-0.1-0.1-0.2-0.1-0.3
			c-0.1-0.3,0.3-0.7,0.5-1c2.5-3.3,3.7-7.3,6.2-10.6c0.2-0.3,0.5-0.6,0.6-0.9c0.2-0.6,0.4-1.2,0.3-1.9c0-0.5,0-0.9-0.1-1.4
			c-0.4-1-1.5-1.6-2.5-1.7C176,182.6,175.3,182.9,174.9,183.2z"/>
		<path class="st15" d="M174.9,182.7c-1.1,0.8-1.9,1.9-2.7,3c-0.5,0.7-1.4,1.3-1.8,2.2c-0.3,0.7-0.7,1.3-1.1,1.8
			c-1.3,1.8-2.2,3.8-3.1,5.8l-1.1,2.3c-0.4,0.8-0.7,1.7-0.9,2.7c-0.2,1.2,0.2,2.6,0.5,3.8c1.6,0.2,3.2-0.4,4.6-1.1
			c0.9-0.4,1.8-1,2.1-1.9c-0.2,0-0.3-0.2-0.2-0.4c0.1-0.2,0.2-0.3,0.3-0.4c0.1-0.1,0.2-0.3,0.2-0.5c0-0.1-0.1-0.2-0.1-0.3
			c-0.1-0.3,0.3-0.7,0.5-1c2.5-3.3,3.7-7.3,6.2-10.6c0.2-0.3,0.5-0.6,0.6-0.9c0.2-0.6,0.4-1.2,0.3-1.9c0-0.5,0-0.9-0.1-1.4
			c-0.4-1-1.5-1.6-2.5-1.7C176,182.1,175.3,182.4,174.9,182.7z"/>
		<path class="st12" d="M179.7,159.6l-2.6-1c-1-0.4-2-0.7-3.1-0.8c-2-0.1-3.9,1.1-5.2,2.6c-1.3,1.6-1.9,3.6-2.3,5.5
			c-0.3,1.4-0.4,2.8-1.1,4c-1.2,1.8-3.7,2.8-3.9,5c-0.1,0.7,0.1,1.4,0.2,2.1c0.3,1.6,0.2,3.2-0.3,4.8c-0.5,1.8-1.5,3.3-2,5.1
			c-0.2,0.8-0.3,1.6-0.1,2.4c0.4,1.2,1.7,2,1.8,3.3c0.1,0.7-0.2,1.3-0.4,1.9l-1.4,3.5c2.4-0.2,4.8-0.9,6.9-2.2
			c0.8-0.5,1.6-1.1,2.1-1.8c0.6-0.9,1-1.9,1.5-2.9c0.5-0.9,1-1.9,1.6-2.7c2-3,4.1-5.9,6.5-8.6c0.5-0.5,1-1.1,1-1.9
			c0-0.4,0-0.8-0.1-1.2c-0.4-2,0.2-4.1,1.5-5.7c0.8-1,1.9-1.8,2.7-2.7s1.3-2.4,0.7-3.5c-0.3-0.6-1-1.1-1.1-1.9
			c-0.1-0.4,0.1-0.9,0.1-1.3c0-0.8-0.6-1.4-1.3-1.8c-0.7-0.3-1.5-0.4-2.2-0.5"/>
		<g class="st17">
			<path d="M167.4,162.9c-0.4,1-0.7,2.1-0.9,3.1c-0.1,0.4-0.1,0.8-0.2,1.3c0.6-1.1,0.7-2.4,0.9-3.6
				C167.3,163.5,167.3,163.2,167.4,162.9z"/>
			<path d="M162.1,173.4c-0.4,0.5-0.6,1-0.7,1.6c-0.1,0.7,0.1,1.4,0.2,2.1c0.2,1.2,0.2,2.4,0,3.7c0.2-0.4,0.3-0.8,0.4-1.2
				c0.5-1.5,0.6-3.2,0.3-4.8C162.3,174.3,162.2,173.8,162.1,173.4z"/>
			<path d="M159.3,189.4c0.4,1.2,1.7,2,1.8,3.3c0,0.1,0,0.2,0,0.3c0.1-0.2,0.2-0.5,0.3-0.7c0.3-0.6,0.5-1.3,0.4-1.9
				c-0.2-1.3-1.4-2.1-1.8-3.3c-0.2-0.5-0.2-1.1-0.1-1.6c-0.2,0.5-0.4,1-0.5,1.5C159.1,187.7,159,188.6,159.3,189.4z"/>
			<path d="M160.2,195.7l-1,2.3c2.4-0.2,4.8-0.9,6.9-2.2c0.8-0.5,1.6-1.1,2.1-1.8c0.6-0.9,1-1.9,1.5-2.9c0.5-0.9,1-1.9,1.6-2.7
				c2-3,4.1-5.9,6.5-8.6c0.5-0.5,1-1.1,1-1.9c0-0.3,0-0.5-0.1-0.8c-0.1,0.1-0.2,0.2-0.2,0.3c-2.3,2.7-4.5,5.6-6.5,8.6
				c-0.6,0.9-1.1,1.8-1.6,2.7c-0.5,1-0.8,2-1.5,2.9c-0.6,0.7-1.3,1.4-2.1,1.8C164.8,194.7,162.6,195.5,160.2,195.7z"/>
			<path d="M179.4,172.3c0.2-0.4,0.5-0.9,0.8-1.2c0.8-1,1.9-1.7,2.7-2.7c0.6-0.7,0.9-1.7,0.9-2.6c-0.1,0.1-0.1,0.2-0.2,0.3
				c-0.8,1-1.9,1.8-2.7,2.7C180.1,169.7,179.5,170.9,179.4,172.3z"/>
		</g>
	</g>
</g>
<g id="katman_2">
	<path class="st18" d="M153.5,205.6c3.3-14.7,15.3-26,28.5-33.2c13.2-7.2,27.8-11.3,41.5-17.6c11.5-5.2,22.3-11.9,32.1-19.8
		c14-11.4,26.6-27.1,26.2-45.2c-0.4-20.1-19.7-37.8-39.7-36.6c-10.2,0.6-19.6,5.4-29.6,7.8c-9.9,2.4-21.9,2-28.5-5.8
		c-6.2-7.2-5.7-18-3-27c2-7,4.9-15.3,0.3-21c-4.5-5.5-13-4.7-19.8-2.5c-21.9,7.4-39.8,25.5-47,47.4c-2.6,7.8-3.9,16.1-7.3,23.6
		c-8.9,19.7-30.1,30-47.2,43.2c-14.5,11.2-26.7,25.1-35.9,41c-5.5,9.5-10,20.1-9.5,31.1c0.3,7.9,3.2,15.5,6.1,22.9
		c3.1,7.9,6.4,15.7,9.8,23.4c2,4.7,4.1,9.4,7.4,13.3c5.9,7.1,14.9,10.9,23.9,12.9c21.4,4.6,44.6-0.3,62.2-13.3s29.2-33.6,31.1-55.4"
		/>
	<g>
		<g>
			<path class="st19" d="M37.8,74.7h157.7c1.2,0,2.1,1.3,2.1,2.8v113c0,1.5-1,2.8-2.1,2.8H37.8c-1.2,0-2.1-1.3-2.1-2.8v-113
				C35.7,76,36.6,74.7,37.8,74.7z"/>
			<path class="st12" d="M196.8,73.6H36.5c-0.5,0-0.8,0.4-0.8,0.9v3.6h162v-3.6C197.7,74,197.3,73.6,196.8,73.6
				C196.8,73.6,196.8,73.6,196.8,73.6z"/>
			<g id="_x38_3eb5f8b-b68b-4721-b047-6100bc74156f">
				<ellipse class="st20" cx="38.9" cy="75.9" rx="1.1" ry="1.2"/>
				<ellipse class="st20" cx="41.9" cy="75.9" rx="1.1" ry="1.2"/>
				<ellipse class="st20" cx="44.9" cy="75.9" rx="1.1" ry="1.2"/>
			</g>
			<path class="st21" d="M41.5,82.9H79c0.4,0,0.7,0.3,0.7,0.7v2.9c0,0.4-0.3,0.7-0.7,0.7H41.5c-0.4,0-0.7-0.3-0.7-0.7v-2.9
				C40.8,83.2,41.1,82.9,41.5,82.9z"/>
		</g>
		<g>
			<rect x="133.9" y="267.9" class="st12" width="135.2" height="0.5"/>
			<path class="st22" d="M79.4,147.2c-1.4-1.9-1.9-5.4,0.6-7.1c1.3-0.8,2.8-0.7,4.1-0.4c1.8,0.5,3.4,1.6,4.8,2.7
				c1.6,1.3,3,2.9,4.4,4.5c1.3,1.6,2.7,3.1,4.1,4.6c2.8,2.9,5.8,5.7,9,8.2c3.1,2.5,6.4,4.8,9.8,6.9c1.7,1,3.4,2,5.2,3
				c1.6,0.9,3.3,1.7,5.1,2.4c2.3,0.9,6.3,2.1,8.4-0.4c1.1-1.3,1.1-3.1,0.9-4.7c-0.3-1.8-1.1-3.6-1.8-5.2
				c-3.4-7.8-6.9-15.6-10.4-23.3c-0.8-1.8-1.6-3.6-2.3-5.5c-0.6-1.8-1.2-3.6-1.2-5.5c0-1.7,0.4-3.6,1.7-4.8c1.1-1.1,2.6-1.4,4.1-1.4
				c3.6,0,7,1.8,9.8,3.6c3.5,2.3,6.5,5.1,10,7.4c2.8,1.9,6.1,3.6,9.6,3.8c1.4,0.1,2.8-0.1,4.1-0.8c1.2-0.7,2.1-1.8,2.4-3.1
				c0.5-1.5,0.4-3.1,0.2-4.6c-0.3-1.7-0.9-3.4-1.7-5c-1.7-3.4-4-6.5-6-9.8c-1-1.6-1.9-3.3-2.5-5c-0.5-1.5-0.9-3.3-0.4-5
				c1-3.4,5.3-2.1,7.4-1.1c1.5,0.7,2.9,1.5,4.2,2.4c0.3,0.2,0.6-0.3,0.3-0.5c-1.4-0.9-2.9-1.7-4.4-2.5c-1.3-0.6-2.8-1.1-4.3-1.1
				c-1.3,0-2.5,0.5-3.3,1.6c-0.9,1.3-0.8,2.9-0.6,4.3c0.3,1.8,1.1,3.5,1.9,5.1c0.9,1.7,1.9,3.3,3,4.9c2.1,3.2,4.4,6.5,5.4,10.2
				c0.7,2.6,1.2,6.7-1.8,8.6c-1.3,0.8-2.9,1-4.4,0.8c-1.8-0.2-3.4-0.7-5-1.4c-7.3-3.3-12.1-10.1-19.9-12.6c-2.6-0.9-6.3-1.4-8.6,0.9
				c-1.2,1.2-1.7,2.9-1.8,4.4c-0.1,1.9,0.3,3.7,0.8,5.5c0.6,1.8,1.3,3.6,2.1,5.4c0.9,2,1.7,3.9,2.6,5.9l5.3,11.9l2.6,5.9
				c0.8,1.8,1.7,3.6,2.1,5.6c0.3,1.6,0.4,3.8-1,5.1c-1.2,1-2.9,1-4.2,0.7c-1.8-0.3-3.4-1-5-1.7c-1.8-0.9-3.6-1.8-5.3-2.8
				c-3.6-2-7-4.3-10.3-6.7c-3.3-2.5-6.4-5.1-9.3-8c-1.5-1.4-2.9-2.9-4.3-4.5c-1.4-1.6-2.8-3.2-4.2-4.8c-1.3-1.4-2.8-2.7-4.5-3.7
				c-1.4-0.8-3.1-1.5-4.8-1.4c-1.2,0-2.4,0.6-3.2,1.5c-0.8,0.9-1.2,2.1-1.2,3.3c0,1.3,0.4,2.7,1.2,3.8
				C79.1,147.8,79.6,147.5,79.4,147.2L79.4,147.2z"/>
			<path class="st22" d="M60.7,103.6h27.1c1.2,0,2.1,1,2.1,2.1v23.6c0,1.2-1,2.1-2.1,2.1H60.7c-1.2,0-2.1-1-2.1-2.1v-23.6
				C58.5,104.6,59.5,103.6,60.7,103.6z"/>
			<path class="st15" d="M60.7,141.7h27.1c1.2,0,2.1,1,2.1,2.1v23.6c0,1.2-1,2.1-2.1,2.1H60.7c-1.2,0-2.1-1-2.1-2.1v-23.6
				C58.5,142.6,59.5,141.7,60.7,141.7z"/>
			<path class="st15" d="M144.9,103.6H172c1.2,0,2.1,1,2.1,2.1v23.6c0,1.2-1,2.1-2.1,2.1h-27.1c-1.2,0-2.1-1-2.1-2.1v-23.6
				C142.8,104.6,143.7,103.6,144.9,103.6z"/>
			<path class="st22" d="M144.9,141.7H172c1.2,0,2.1,1,2.1,2.1v23.6c0,1.2-1,2.1-2.1,2.1h-27.1c-1.2,0-2.1-1-2.1-2.1v-23.6
				C142.8,142.6,143.7,141.7,144.9,141.7z"/>
			<path class="st15" d="M102.7,103.6h27.1c1.2,0,2.1,1,2.1,2.1v23.6c0,1.2-1,2.1-2.1,2.1h-27.1c-1.2,0-2.1-1-2.1-2.1v-23.6
				C100.6,104.6,101.5,103.6,102.7,103.6z"/>
			<path class="st15" d="M102.7,141.7h27.1c1.2,0,2.1,1,2.1,2.1v23.6c0,1.2-1,2.1-2.1,2.1h-27.1c-1.2,0-2.1-1-2.1-2.1v-23.6
				C100.6,142.6,101.5,141.7,102.7,141.7z"/>
			<circle class="st12" cx="100.6" cy="103.6" r="5.2"/>
			<circle class="st12" cx="143.3" cy="103.6" r="5.2"/>
			<circle class="st12" cx="58.8" cy="141.8" r="5.2"/>
			<circle class="st12" cx="100.6" cy="141.8" r="5.2"/>
			<path class="st23" d="M214.9,265.2c0,0-7.3,0.6-6.6,3.2s6.6,2.3,6.6,2.3s4.5-0.4,6.9,0.4c2.4,0.8,5.3,0,5.4-1.3
				c0.2-1.3-1.3-2.3-1.3-2.3l-0.9-1.9L214.9,265.2z"/>
			<path class="st24" d="M195.7,206.6l-0.8,3c0,0-3.4,6.9,0.8,6.9c4.1,0,2.6-6.4,2.6-6.4l0.4-3L195.7,206.6z"/>
			<path class="st24" d="M231.9,204.1l0.8,3c0,0,3.4,6.9-0.8,6.9s-2.6-6.4-2.6-6.4l-0.4-3L231.9,204.1z"/>
			<circle class="st24" cx="212.4" cy="145" r="8.1"/>
			<path class="st24" d="M209.9,151.2c0,0,0.9,4.3,0.4,6.4s11.6-0.4,11.6-0.4s-4.3-7.1-4.1-7.3L209.9,151.2z"/>
			<path class="st15" d="M211.8,156.1c0,0-3.4-0.9-4.5,0.2c-1.1,1.1-7.7,4.3-7.7,4.3l4.5,27.6l19.5-1.8l3.4-28.6
				c0,0-5.3-3.1-6.2-2.5C219.9,155.9,211.8,156.1,211.8,156.1z"/>
			<path class="st15" d="M201.1,160.7L201.1,160.7c-0.7-0.4-1.5-0.4-2.2,0c-1,0.5-2.1,1.3-2,2.9c0.2,2.5,0.8,15.4,0.9,17.1
				c0,0.1,0,0.3,0,0.4l-2.7,24c-0.1,1.3,0.7,2.4,2,2.6l1,0.2c1.2,0.2,2.4-0.6,2.7-1.8l4.8-19.5c0.1-0.3,0.1-0.7,0-1L201.1,160.7z"/>
			<path class="st15" d="M225.2,158.3l-0.5-1c0,0,4.8,1.2,4.6,3.8c-0.2,2.6,0.3,17.3,0.3,17.3l3,26.5l-5.4,0.9l-5.4-22.2
				L225.2,158.3z"/>
			<path class="st12" d="M205.2,187.2c-0.5,0.1-1,0.5-1,1.1l-0.7,8.5l-2.4,22.8c0,0.1,0,0.1,0,0.2l3.5,46.4c0,0.6,0.5,1.1,1.1,1.1
				l10.1,0.3c0.7,0,1.2-0.6,1.2-1.3l-3.6-43.8c0-0.1,0-0.2,0-0.4l3.5-14.5c0.1-0.5,0.6-0.9,1.1-0.9l10.3-0.4c0.6,0,1.1-0.5,1.1-1.1
				c0-3.6-0.2-15.2-5.7-20.1c-0.3-0.2-0.6-0.3-0.9-0.3L205.2,187.2z"/>
			<polygon class="st12" points="217.8,204.1 215.9,245.5 215.2,266.4 226.3,267.6 229.1,206 224.8,201.7 			"/>
			<path class="st12" d="M215.9,134.3c0,0-7.3-0.9-9.4,2.6c0,0-0.6,2.6-2.4,3.6s0.4,4.1,0.9,5.1c0.6,0.9,2.1,6.4,0.4,7.7
				c-1.7,1.3,3,5.1,3,5.1s2.3,3,0.4,5.3c-1.9,2.3,2.4,3,2.4,3s-0.9,6.4,0.8,4.7c0,0,0.8,14.5,7.9,5.4c7.1-9,10.1-13.3,7.1-16.9
				s-0.8-6.8-0.8-6.8s0.9-1.9-1.1-4.7S223.1,134.3,215.9,134.3z"/>
			<path class="st23" d="M205.3,266.3c0,0-7.3,0.6-6.6,3.2c0.8,2.6,6.6,2.3,6.6,2.3s4.5-0.4,6.9,0.4c2.4,0.8,5.3,0,5.4-1.3
				c0.2-1.3-1.3-2.3-1.3-2.3l-0.9-1.9L205.3,266.3z"/>
		</g>
		<g>
			<ellipse class="st18" cx="275.8" cy="268" rx="5.6" ry="0.8"/>
			<path class="st15" d="M275.6,267.8c0,0,7.8-25.6-1.2-35.8c-6.7-7.7-14.4-6.7-17.8-5.8c-1.8,0.5-3.3,1.7-4.1,3.4
				c-1.2,2.6-1,6.8,7.5,11.7c14.2,8.2,15.1,19.5,15.1,19.5L275.6,267.8z"/>
			<path class="st25" d="M257.8,229.8c0,0,23,7.2,17.8,38"/>
			<path class="st25" d="M271.2,232.4c0,0-3.2,2.1-2.2,5.3"/>
			<path class="st25" d="M260.1,234.3c0,0,1.9-2,4.3-0.9"/>
			<path class="st25" d="M269.2,244.2c0,0,3.4-1.7,4.3,0.4"/>
			<path class="st25" d="M277.6,247.8c0,0-2.6-0.2-2.6,1"/>
			<path class="st15" d="M276,268c0,0-9.1-18.6-11.6-18.2c-1.2,0.2-1.7,1.4-2,2.5c-0.3,1.5-0.1,3.1,0.5,4.5
				C264.1,259.9,267.6,265.5,276,268z"/>
			<path class="st25" d="M264.4,253.4c0,0,9.6,13.9,11.4,14.5"/>
			<line class="st25" x1="263.5" y1="255.6" x2="265.7" y2="255.6"/>
			<line class="st25" x1="266.2" y1="260.6" x2="269.7" y2="260.8"/>
			<line class="st25" x1="268.3" y1="256.6" x2="267.9" y2="258.4"/>
			<line class="st25" x1="272" y1="262.1" x2="272" y2="263.8"/>
			<path class="st15" d="M275.7,268c0,0,9.1-18.6,11.6-18.2c1.2,0.2,1.7,1.4,2,2.5c0.3,1.5,0.1,3.1-0.5,4.5
				C287.5,259.9,284,265.5,275.7,268z"/>
			<path class="st25" d="M287.3,253.4c0,0-9.6,13.9-11.4,14.5"/>
			<line class="st25" x1="288.1" y1="255.6" x2="285.9" y2="255.6"/>
			<line class="st25" x1="285.5" y1="260.6" x2="282" y2="260.8"/>
			<line class="st25" x1="283.3" y1="256.6" x2="283.7" y2="258.4"/>
			<line class="st25" x1="279.6" y1="262.1" x2="279.7" y2="263.8"/>
		</g>
		<g>
			<ellipse class="st18" cx="186.7" cy="267.7" rx="4" ry="0.5"/>
			<path class="st15" d="M184.5,266.5c-0.2-0.2-0.4-0.5-0.5-0.8c-0.1-0.3,0.1-0.7,0.4-0.8c0.3-0.1,0.7,0.1,1,0.3s0.6,0.5,0.9,0.5
				c-0.4-0.3-0.5-0.8-0.4-1.3c0-0.1,0.1-0.2,0.1-0.3c0.2-0.2,0.5-0.1,0.7,0c0.7,0.5,0.9,1.5,0.9,2.3c0-0.3,0-0.6,0-1
				c0-0.3,0.1-0.6,0.4-0.8c0.2-0.1,0.4-0.1,0.5-0.1c0.3,0,0.6,0,0.9,0.3c0.2,0.3,0.2,0.8,0,1.1c-0.3,0.3-0.6,0.5-0.9,0.7
				c-0.3,0.2-0.5,0.4-0.7,0.6c0,0,0,0.1,0,0.1h-2C185.3,267.1,184.9,266.8,184.5,266.5z"/>
		</g>
		<g>
			<ellipse class="st18" cx="243.7" cy="277.2" rx="4" ry="0.5"/>
			<path class="st15" d="M242.6,275.5c-0.2-0.2-0.4-0.5-0.5-0.8c-0.1-0.3,0.1-0.7,0.4-0.8c0.3-0.1,0.7,0.1,1,0.3
				c0.3,0.2,0.6,0.5,0.9,0.5c-0.4-0.3-0.5-0.8-0.4-1.3c0-0.1,0.1-0.2,0.1-0.3c0.2-0.2,0.5-0.1,0.7,0c0.7,0.5,0.9,1.5,0.9,2.3
				c0-0.3,0-0.6,0-1c0-0.3,0.1-0.6,0.4-0.8c0.2-0.1,0.4-0.1,0.5-0.1c0.3,0,0.6,0,0.9,0.3c0.2,0.3,0.2,0.8,0,1.1
				c-0.3,0.3-0.6,0.5-0.9,0.7c-0.3,0.2-0.5,0.4-0.7,0.6c0,0,0,0.1,0,0.1h-2C243.4,276.1,243,275.8,242.6,275.5z"/>
		</g>
	</g>
</g>
</svg>
