<?xml version="1.0" encoding="utf-8"?>
<!-- Generator: Adobe Illustrator 22.0.1, SVG Export Plug-In . SVG Version: 6.00 Build 0)  -->
<svg version="1.1" id="list-not-found" xmlns="http://www.w3.org/2000/svg" xmlns:xlink="http://www.w3.org/1999/xlink" x="0px"
	 y="0px" viewBox="0 0 1057 678.5" style="enable-background:new 0 0 1057 678.5;" xml:space="preserve">
<style type="text/css">
	.st0{fill:#F2F2F2;}
	.st1{fill:none;stroke:#3F3D56;stroke-miterlimit:10;}
	.st2{fill:#F7941E;}
	.st3{opacity:0.1;fill:#F7941E;enable-background:new    ;}
	.st4{opacity:0.1;enable-background:new    ;}
	.st5{opacity:5.000000e-02;enable-background:new    ;}
	.st6{fill:#FFD037;}
	.st7{fill:#A8A8A8;}
	.st8{opacity:0.2;enable-background:new    ;}
	.st9{fill:#6D6E71;}
	.st10{fill:#FFFFFF;}
	.st11{fill:#FFC1C7;}
	.st12{fill:#3F3D56;}
	.st13{fill:#2F2E41;}
</style>
<title>Not Found</title>
<ellipse class="st0" cx="214.8" cy="657" rx="134" ry="21.5"/>
<ellipse class="st1" cx="225.3" cy="644.5" rx="134" ry="21.5"/>
<path class="st2" d="M151.6,27.5h357.3c12.6,0,22.8,10.2,22.8,22.8v194.3c0,12.6-10.2,22.8-22.8,22.8H151.6
	c-12.6,0-22.8-10.2-22.8-22.8V50.3C128.8,37.7,139,27.5,151.6,27.5z"/>
<path class="st1" d="M120.6,0.5h357.3c12.6,0,22.8,10.2,22.8,22.8v194.3c0,12.6-10.2,22.8-22.8,22.8H120.6
	c-12.6,0-22.8-10.2-22.8-22.8V23.3C97.8,10.7,108,0.5,120.6,0.5z"/>
<g>
	<path class="st0" d="M554.6,336.5h357.3c12.6,0,22.8,10.2,22.8,22.8v194.3c0,12.6-10.2,22.8-22.8,22.8H554.6
		c-12.6,0-22.8-10.2-22.8-22.8V359.3C531.8,346.7,542,336.5,554.6,336.5z"/>
	<g>
		<path class="st3" d="M496.9,481c7.8,30.1,24.3,56.1,50.3,68.8c54.1,26.2,176.2,12.7,267.4-2.8c47.1-8,88.6-30.2,118.7-61.4
			L496.9,481z"/>
		<path class="st3" d="M974.8,339.2h-50c-2.4,0-4.3-1.8-4.3-3.9c0-2.1,1.9-3.9,4.3-3.9h8.6c-2.4,0-4.3-1.8-4.3-3.9
			c0-2.2,1.9-3.9,4.3-3.9h-6.2c-2.4,0-4.3-1.8-4.3-3.9c0-2.2,1.9-3.9,4.3-3.9h26.1c-5.8-2.4-12.6-4.2-20.4-5.1
			c-71.2-8.3-96.6-2.8-105.5,2.8c-11.2,7.1-23.6,12-36.6,14.5c-43.9,8.2-126,18.1-200.4-3.1c-37-10.6-64.5,7.3-81,37h474
			c-0.6-8.7-2.5-16.6-5.9-23.6C976.8,338.9,975.8,339.2,974.8,339.2z"/>
		<path class="st3" d="M492.6,418.1c-1.9,17.5-1.3,35.2,1.9,52.5l439,14.5c12.1-12.5,22.4-26.7,30.5-42.1L492.6,418.1z M666.3,455.6
			h-8.6c2.4,0,4.3,1.8,4.3,3.9c0,2.1-1.9,3.9-4.3,3.9h-50c-2.4,0-4.3-1.8-4.3-3.9c0-2.1,1.9-3.9,4.3-3.9h8.6c-2.4,0-4.3-1.8-4.3-3.9
			c0-2.1,1.9-3.9,4.3-3.9h-6.2c-2.4,0-4.3-1.8-4.3-3.9c0-2.1,1.9-3.9,4.3-3.9h50c2.4,0,4.3,1.8,4.3,3.9c0,2.2-1.9,3.9-4.3,3.9h6.2
			c2.4,0,4.3,1.8,4.3,3.9C670.6,453.8,668.6,455.6,666.3,455.6z"/>
		<path class="st3" d="M983.5,362.2l-479.3,10.5c-5.8,13.6-9.7,28.9-11.5,44.8h482.4c3.1-9.3,5.5-18.8,7-28.5
			C983.5,379.6,984,370.6,983.5,362.2z M590,396.8h-8.6c2.4,0,4.3,1.8,4.3,3.9c0,2.1-1.9,3.9-4.3,3.9h-50c-2.4,0-4.3-1.8-4.3-3.9
			c0-2.1,1.9-3.9,4.3-3.9h8.6c-2.4,0-4.3-1.8-4.3-3.9c0-2.1,1.9-3.9,4.3-3.9h-6.2c-2.4,0-4.3-1.8-4.3-3.9s1.9-3.9,4.3-3.9h50
			c2.4,0,4.3,1.8,4.3,3.9s-1.9,3.9-4.3,3.9h6.2c2.4,0,4.3,1.8,4.3,3.9C594.3,395,592.4,396.8,590,396.8z"/>
		<ellipse class="st3" cx="736.1" cy="583.4" rx="200.5" ry="18.4"/>
		<path class="st4" d="M875,591.4c-1.3,0-8.7,0-8.7,0c-0.1-0.1-0.2-0.2-0.3-0.4C867.8,590.4,871.9,589.5,875,591.4z"/>
		<path class="st4" d="M896.2,591.4c-1.3,0-8.7,0-8.7,0c-0.1-0.1-0.2-0.2-0.3-0.4C889,590.4,893.1,589.5,896.2,591.4z"/>
		<path class="st5" d="M651.8,357.7c0,0-41.7,26.6-41.3,68.3C610.8,467.8,651.8,357.7,651.8,357.7z"/>
		<path class="st2" d="M408.7,518.3c0,0-37.8-2.3-33.3,24.2c0,0-0.9,4.7,3.4,6.8c0,0,0.1-2,3.9-1.3c1.4,0.2,2.7,0.3,4.1,0.2
			c1.9-0.1,3.6-0.9,5-2.1l0,0c0,0,10.6-4.4,14.7-21.7c0,0,3.1-3.8,2.9-4.8l-6.4,2.7c0,0,2.2,4.6,0.4,8.4c0,0-0.2-8.2-1.4-8.1
			c-0.2,0-3.3,1.6-3.3,1.6s3.7,8,0.9,13.8c0,0,1.1-9.9-2.1-13.3l-4.5,2.6c0,0,4.4,8.3,1.4,15c0,0,0.8-10.4-2.4-14.4l-4.1,3.2
			c0,0,4.1,8.2,1.6,13.8c0,0-0.3-12.1-2.5-13c0,0-3.6,3.1-4.1,4.4c0,0,2.8,5.9,1.1,9c0,0-1.1-8-2-8.1c0,0-3.5,5.3-3.9,9
			c0,0,0.2-5.4,3.1-9.5c0,0-3.4,0.6-5.4,2.8c0,0,0.6-3.8,6.3-4.1c0,0,2.9-4,3.7-4.3c0,0-5.7-0.5-9.2,1.1c0,0,3.1-3.5,10.2-1.9l4-3.3
			c0,0-7.5-1-10.7,0.1c0,0,3.7-3.1,11.8-0.9l4.4-2.6c0,0-6.4-1.4-10.2-0.9c0,0,4-2.2,11.5,0.2l3.1-1.4c0,0-4.7-0.9-6.1-1.1
			s-1.4-0.5-1.4-0.5c3-0.5,6.1-0.1,8.9,1C402.1,521.2,408.8,518.7,408.7,518.3z"/>
		<path class="st2" d="M543,567.8c0,0-17-1-15.1,10.9c0,0-0.4,2.1,1.5,3.1c0,0,0-0.9,1.7-0.6c0.6,0.1,1.2,0.1,1.9,0.1
			c0.8-0.1,1.6-0.4,2.3-0.9l0,0c0,0,4.8-2,6.7-9.8c0,0,1.4-1.7,1.3-2.1l-2.9,1.2c0,0,1,2.1,0.2,3.8c0,0-0.1-3.7-0.6-3.6
			c-0.1,0-1.5,0.7-1.5,0.7s1.7,3.6,0.4,6.2c0,0,0.5-4.5-0.9-6l-2,1.2c0,0,2,3.7,0.6,6.8c0,0,0.3-4.7-1.1-6.5l-1.8,1.4
			c0,0,1.9,3.7,0.7,6.2c0,0-0.1-5.4-1.1-5.9c0,0-1.6,1.4-1.9,2c0,0,1.3,2.7,0.5,4.1c0,0-0.5-3.6-0.9-3.6c0,0-1.6,2.4-1.8,4
			c0.1-1.5,0.6-3,1.4-4.3c-0.9,0.2-1.8,0.6-2.4,1.3c0,0,0.2-1.7,2.8-1.8c0,0,1.3-1.8,1.7-1.9c0,0-2.6-0.2-4.1,0.5
			c0,0,1.4-1.6,4.6-0.9l1.8-1.5c0,0-3.4-0.4-4.8,0c0,0,1.7-1.4,5.3-0.4l2-1.2c0,0-2.9-0.6-4.6-0.4c0,0,1.8-1,5.2,0.1l1.4-0.6
			c0,0-2.1-0.4-2.7-0.5c-0.6-0.1-0.7-0.2-0.7-0.2c1.3-0.2,2.7-0.1,4,0.4C540,569.1,543.1,568,543,567.8z"/>
		<ellipse class="st3" cx="972.9" cy="576.8" rx="12.1" ry="2"/>
		<ellipse class="st3" cx="512.5" cy="610.8" rx="12.1" ry="2"/>
		<ellipse class="st3" cx="582.7" cy="613.4" rx="12.1" ry="2"/>
		<ellipse class="st2" cx="946.5" cy="598.7" rx="18" ry="3.1"/>
		<path class="st2" d="M953.9,593.7c0.8-0.7,1.4-1.6,1.7-2.6c0.2-1-0.2-2.3-1.2-2.6c-1.1-0.4-2.3,0.3-3.2,1.1s-1.9,1.7-3.1,1.5
			c1.2-1.1,1.8-2.8,1.5-4.4c-0.1-0.3-0.2-0.6-0.4-0.9c-0.6-0.7-1.7-0.4-2.5,0.1c-2.3,1.6-3,4.8-3,7.7c-0.2-1,0-2.1,0-3.1
			s-0.3-2.2-1.2-2.8c-0.6-0.3-1.2-0.4-1.8-0.4c-1,0-2.2,0.1-2.9,0.8c-0.9,1-0.7,2.6,0.1,3.6c0.8,1,2,1.7,3,2.4
			c0.9,0.5,1.6,1.2,2.2,2.1c0.1,0.1,0.1,0.2,0.2,0.4h6.6C951.4,595.8,952.7,594.9,953.9,593.7z"/>
		<path class="st2" d="M518.2,556.1c0,0,2.5,3.2-1.1,8.1s-6.6,9-5.4,12c0,0,5.4-9,9.9-9.2C526,566.9,523,561.6,518.2,556.1z"/>
		<path class="st4" d="M518.2,556.1c0.2,0.3,0.4,0.7,0.5,1c4.3,5.1,6.6,9.8,2.5,9.9c-3.9,0.1-8.5,7-9.6,8.8c0,0.1,0.1,0.3,0.1,0.4
			c0,0,5.4-9,9.9-9.2S523,561.6,518.2,556.1z"/>
		<path class="st6" d="M522.8,560.2c0,1.1-0.1,2.1-0.3,2.1s-0.3-0.9-0.3-2.1c0-1.2,0.2-0.6,0.3-0.6S522.8,559.1,522.8,560.2z"/>
		<path class="st6" d="M524.3,561.6c-1,0.5-1.9,0.9-1.9,0.7s0.7-0.7,1.7-1.2c1-0.5,0.6-0.1,0.7,0C524.8,561.2,525.3,561,524.3,561.6
			z"/>
		<path class="st2" d="M505.2,556.1c0,0-2.5,3.2,1.1,8.1s6.6,9,5.4,12c0,0-5.4-9-9.9-9.2S500.3,561.6,505.2,556.1z"/>
		<path class="st4" d="M505.2,556.1c-0.2,0.3-0.4,0.7-0.5,1c-4.3,5.1-6.6,9.8-2.5,9.9c3.9,0.1,8.5,7,9.6,8.8c0,0.1-0.1,0.3-0.1,0.4
			c0,0-5.4-9-9.9-9.2S500.3,561.6,505.2,556.1z"/>
		<path class="st6" d="M500.6,560.2c0,1.1,0.1,2.1,0.3,2.1c0.2,0,0.3-0.9,0.3-2.1c0-1.2-0.2-0.6-0.3-0.6
			C500.7,559.6,500.6,559.1,500.6,560.2z"/>
		<path class="st6" d="M499,561.6c1,0.5,1.9,0.9,1.9,0.7c0.1-0.1-0.7-0.7-1.7-1.2c-1-0.5-0.6-0.1-0.7,0
			C498.5,561.2,498,561,499,561.6z"/>
		<path class="st7" d="M501.4,575.8c0,0,6.9-0.2,9-1.7c2.1-1.5,10.6-3.2,11.1-0.9c0.5,2.3,10.4,11.8,2.6,11.9
			c-7.8,0.1-18.1-1.2-20.1-2.5C501.8,581.3,501.4,575.8,501.4,575.8z"/>
		<path class="st8" d="M524.2,584.3c-7.8,0.1-18.1-1.2-20.1-2.5c-1.6-1-2.2-4.4-2.4-6h-0.2c0,0,0.4,5.6,2.5,6.8s12.4,2.5,20.1,2.5
			c2.2,0,3-0.8,3-2C526.7,583.8,525.8,584.3,524.2,584.3z"/>
		<g>
			<path class="st9" d="M774.1,460.2L774.1,460.2c-0.8-8.1-4.1-15.5-9.2-21.3l13.8-13.8c0,0-5.9-1.2-17.9-1.2
				c-10,0-14.5,1.2-14.5,1.2c-11.5-10.7-26.8-17.3-43.8-17.3c-0.1,0-0.1,0-0.2,0c-0.1,0-0.1,0-0.2,0c-16.9,0-32.3,6.6-43.8,17.3
				c0,0-4.5-1.2-14.5-1.2c-12,0-17.9,1.2-17.9,1.2l13.8,13.8c-5.1,5.8-8.5,13.2-9.2,21.3l0,0c-0.1,1.1-0.2,2.3-0.2,3.4c0,0,0,0,0,0
				l0,0l0,0c0,0,0,0,0,0c0,2.5,0.3,4.9,0.7,7.3c0,0,0,0.1,0,0.2c0,0.2,0.1,0.3,0.1,0.5c0.2,1,0.5,2,0.8,3c0.1,0.3,0.2,0.6,0.3,0.8
				c0.3,0.8,0.6,1.7,0.9,2.5c0.2,0.4,0.3,0.7,0.5,1.1c0.3,0.7,0.7,1.4,1,2.1c0.2,0.4,0.4,0.8,0.7,1.2c0.4,0.6,0.7,1.3,1.1,1.9
				c0.3,0.4,0.5,0.8,0.8,1.2c0.4,0.6,0.8,1.2,1.3,1.7c0.3,0.4,0.6,0.7,0.9,1c0.3,0.3,0.5,0.6,0.8,0.8c0.2,0.2,0.4,0.5,0.6,0.7
				c0.2,0.2,0.4,0.3,0.6,0.5c0.5,0.5,1,1,1.5,1.4c0.4,0.4,0.8,0.7,1.3,1.1c0.5,0.4,1.1,0.9,1.7,1.3c0.5,0.3,0.9,0.7,1.4,1
				c0.6,0.4,1.2,0.8,1.8,1.1c0.5,0.3,1,0.6,1.6,0.8c0.6,0.3,1.2,0.6,1.9,0.9c0.6,0.3,1.1,0.5,1.7,0.7c0.6,0.2,1.2,0.5,1.9,0.7
				c0.6,0.2,1.3,0.4,1.9,0.5c0.6,0.2,1.2,0.3,1.9,0.5c0.7,0.2,1.5,0.3,2.2,0.4c0.6,0.1,1.1,0.2,1.7,0.3c1.2,0.1,2.4,0.2,3.7,0.2
				c0.1,0,0.2,0,0.3,0h0h0c0.1,0,0.2,0,0.2,0c1.1,0,2.1-0.1,3.2-0.2c0.1,0,0.2,0,0.3,0c0.6-0.1,1.2-0.2,1.8-0.2
				c0.5-0.1,1-0.1,1.5-0.2c0.3-0.1,0.7-0.1,1-0.2c0,0,0,0,0,0c0.5-0.1,1-0.3,1.5-0.4c0.6-0.1,1.1-0.3,1.7-0.4c0.1,0,0.2-0.1,0.3-0.1
				c0.1,0,0.2-0.1,0.3-0.1c0.5-0.2,1-0.3,1.5-0.5c0.3-0.1,0.7-0.2,1-0.4c0.3-0.1,0.7-0.3,1-0.4c0,0,0.1,0,0.1-0.1
				c0.4-0.2,0.9-0.4,1.3-0.6c0.2-0.1,0.4-0.2,0.6-0.3c0.3-0.2,0.6-0.3,1-0.5c0.2-0.1,0.4-0.2,0.6-0.4c0.4-0.2,0.8-0.5,1.1-0.7
				c0.3-0.2,0.6-0.4,0.9-0.6c0.2-0.1,0.4-0.3,0.6-0.4c0.2-0.2,0.4-0.3,0.6-0.5c0.3-0.2,0.6-0.5,0.9-0.7c0.1-0.1,0.3-0.2,0.4-0.3
				c0.3-0.3,0.7-0.5,1-0.8c0.2-0.2,0.5-0.4,0.7-0.7c0.3-0.2,0.5-0.5,0.8-0.7l0,0c0.3-0.3,0.6-0.6,0.9-0.9c0.4-0.4,0.8-0.8,1.1-1.2
				c0.1-0.2,0.3-0.3,0.4-0.5c0.1-0.1,0.2-0.3,0.3-0.4c0,0,0,0,0,0c0,0,0,0,0,0c0.2-0.2,0.3-0.4,0.5-0.6c0.4-0.5,0.9-1.1,1.3-1.7
				c0.3-0.4,0.6-0.8,0.8-1.2c0.4-0.6,0.8-1.2,1.1-1.9c0.2-0.4,0.5-0.8,0.7-1.2c0.4-0.7,0.7-1.4,1-2.1c0.1-0.2,0.2-0.4,0.3-0.6
				c0.1,0.2,0.2,0.4,0.3,0.6c0.3,0.7,0.7,1.4,1,2.1c0.2,0.4,0.4,0.8,0.7,1.2c0.4,0.6,0.7,1.3,1.1,1.9c0.3,0.4,0.5,0.8,0.8,1.2
				c0.4,0.6,0.8,1.2,1.3,1.7c0.2,0.2,0.3,0.4,0.5,0.6c0,0,0,0,0,0c0,0,0,0,0,0c0.1,0.1,0.2,0.3,0.3,0.4c0.1,0.2,0.3,0.3,0.4,0.5
				c0.4,0.4,0.7,0.8,1.1,1.2c0.3,0.3,0.6,0.6,0.9,0.9l0,0c0.2,0.2,0.5,0.5,0.8,0.7c0.2,0.2,0.5,0.4,0.7,0.7c0.3,0.3,0.6,0.5,1,0.8
				c0.1,0.1,0.3,0.2,0.4,0.3c0.3,0.2,0.6,0.5,0.9,0.7c0.2,0.2,0.4,0.3,0.6,0.5c0.2,0.1,0.4,0.3,0.6,0.4c0.3,0.2,0.6,0.4,0.9,0.6
				c0.4,0.2,0.8,0.5,1.1,0.7c0.2,0.1,0.4,0.2,0.6,0.4c0.3,0.2,0.6,0.3,1,0.5c0.2,0.1,0.4,0.2,0.6,0.3c0.4,0.2,0.9,0.4,1.3,0.6
				c0,0,0.1,0,0.1,0.1c0.3,0.2,0.7,0.3,1,0.4c0.3,0.1,0.7,0.3,1,0.4c0.5,0.2,1,0.4,1.5,0.5c0.1,0,0.2,0.1,0.3,0.1
				c0.1,0,0.2,0.1,0.3,0.1c0.5,0.2,1.1,0.3,1.7,0.4c0.5,0.1,1,0.3,1.5,0.4c0,0,0,0,0,0c0.3,0.1,0.7,0.1,1,0.2c0.5,0.1,1,0.2,1.5,0.2
				c0.6,0.1,1.2,0.2,1.8,0.2c0.1,0,0.2,0,0.3,0c1,0.1,2.1,0.2,3.2,0.2c0.1,0,0.2,0,0.2,0h0h0c0.1,0,0.2,0,0.3,0
				c1.2,0,2.5-0.1,3.7-0.2c0.6-0.1,1.1-0.2,1.7-0.3c0.8-0.1,1.5-0.2,2.2-0.4c0.6-0.1,1.2-0.3,1.9-0.5c0.6-0.2,1.3-0.3,1.9-0.5
				c0.6-0.2,1.3-0.5,1.9-0.7c0.6-0.2,1.1-0.4,1.7-0.7c0.6-0.3,1.2-0.6,1.9-0.9c0.5-0.3,1-0.5,1.6-0.8c0.6-0.3,1.2-0.7,1.8-1.1
				c0.5-0.3,1-0.6,1.4-1c0.6-0.4,1.1-0.8,1.7-1.3c0.4-0.4,0.9-0.7,1.3-1.1c0.5-0.5,1-1,1.5-1.4c0.2-0.2,0.4-0.3,0.6-0.5
				c0.2-0.2,0.4-0.5,0.6-0.7c0.3-0.3,0.5-0.5,0.8-0.8c0.3-0.3,0.6-0.7,0.9-1c0.4-0.5,0.9-1.1,1.3-1.7c0.3-0.4,0.6-0.8,0.8-1.2
				c0.4-0.6,0.8-1.2,1.1-1.9c0.2-0.4,0.5-0.8,0.7-1.2c0.4-0.7,0.7-1.4,1-2.1c0.2-0.3,0.3-0.7,0.5-1.1c0.3-0.8,0.6-1.7,0.9-2.5
				c0.1-0.3,0.2-0.6,0.3-0.8c0.3-1,0.5-2,0.8-3c0-0.2,0.1-0.3,0.1-0.5c0.5-2.4,0.8-4.9,0.8-7.4c0,0,0,0,0,0s0,0,0,0
				C774.3,462.5,774.2,461.3,774.1,460.2z"/>
			<g>
				<circle class="st10" cx="736.8" cy="463.5" r="29.9"/>
				<path class="st9" d="M730.8,462.7c-4.7,0-9-1-12.2-2.7c1.1,5.7,6.2,10,12.2,10c6,0,11.1-4.3,12.2-10
					C739.8,461.7,735.5,462.7,730.8,462.7z"/>
			</g>
			<g>
				<circle class="st10" cx="667.1" cy="463.5" r="29.9"/>
				<path class="st9" d="M673,462.7c-4.7,0-9-1-12.2-2.7c1.1,5.7,6.2,10,12.2,10c6,0,11.1-4.3,12.2-10
					C682,461.7,677.7,462.7,673,462.7z"/>
			</g>
			<polygon class="st2" points="692.6,499.3 702.3,511.8 712,499.3 702.3,487.4 			"/>
			<path class="st2" d="M702.5,390.3c-15.1,0-29.1,4.9-40.6,13v13.8c10.6-10,24.9-16.1,40.6-16.1c15.8,0,30.1,6.2,40.8,16.3v-13.9
				C731.8,395.2,717.7,390.3,702.5,390.3z"/>
			<path class="st2" d="M702.6,347.2l-76.8,37.6l13.9,6v6.7l-2.5,4.8v14.5h8.3v-14.7l-2.5-4.6v-5.3l15.4,6.7c0,0,11.9-14.2,44-14.2
				c32.6,0,44,14.2,44,14.2l30.6-14.2L702.6,347.2z"/>
		</g>
	</g>
	<path class="st1" d="M523.6,309.5h357.3c12.6,0,22.8,10.2,22.8,22.8v194.3c0,12.6-10.2,22.8-22.8,22.8H523.6
		c-12.6,0-22.8-10.2-22.8-22.8V332.3C500.8,319.7,511,309.5,523.6,309.5z"/>
	<g>
		<path class="st1" d="M912.6,356c-8.7,0.5-16.4,5.9-19.8,13.9c-5,12,1.4,26,11,34.8c9.6,8.7,21.9,13.7,33,20.3
			c15,8.8,28.5,21,36,36.7s8.3,35.2-0.5,50.1c-8.2,13.9-23.1,22.3-37.3,29.9"/>
		<ellipse class="st2" cx="925.3" cy="357.1" rx="17.5" ry="8.5"/>
		<ellipse class="st2" cx="939.3" cy="413.1" rx="17.5" ry="8.5"/>
		<ellipse class="st2" cx="907.3" cy="422.1" rx="17.5" ry="8.5"/>
		<ellipse class="st2" cx="957.3" cy="469.1" rx="17.5" ry="8.5"/>
		<ellipse class="st2" cx="992.3" cy="469.1" rx="17.5" ry="8.5"/>
	</g>
</g>
<path class="st1" d="M70.1,455.5c-8.7,0.5-16.4,5.9-19.8,13.9c-5,12,1.4,26,11,34.8s21.9,13.7,33,20.3c15,8.8,28.5,21,36,36.7
	s8.3,35.2-0.5,50.1c-8.2,13.9-23.1,22.3-37.3,29.9"/>
<ellipse class="st2" cx="82.8" cy="456.5" rx="17.5" ry="8.5"/>
<ellipse class="st2" cx="96.8" cy="512.5" rx="17.5" ry="8.5"/>
<ellipse class="st2" cx="64.8" cy="521.5" rx="17.5" ry="8.5"/>
<ellipse class="st2" cx="114.8" cy="568.5" rx="17.5" ry="8.5"/>
<ellipse class="st2" cx="149.8" cy="568.5" rx="17.5" ry="8.5"/>
<path class="st11" d="M303.3,271.5c0,0,2,15-3,21s-13,46-13,46v24c0,0,31-45,37-63s0-32,0-32L303.3,271.5z"/>
<path class="st12" d="M300.3,197.5l0.4,0.5c5.2,5.8,9.2,12.5,12,19.8c6.6,17.4,20.7,60.4,15.6,64.7c-7,6-27,10-28,9s-21-63-21-63
	L300.3,197.5z"/>
<path class="st12" d="M267.8,622.5c0,0,24,5,25,0c0.6-3.1,1.6-6.1,3-9c0,0,21.8,0.9,16.1,20c-0.6,1.9-1.8,3.5-3.5,4.5
	c-5.2,3.2-17.4,10.6-23.6,14.5c-4.7,2.9-11.4,0.7-16.1-1.6c-3.5-1.7-5.4-5.6-4.7-9.5L267.8,622.5z"/>
<path class="st12" d="M198.8,625.5c0,0-24,5-25,0c-0.6-3.1-1.6-6.1-3-9c0,0-21.7,0.9-16.1,19.9c0.6,1.9,1.8,3.5,3.6,4.6
	c5.2,3.2,17.4,10.6,23.5,14.5c5.1,3.2,12.6,0.3,17.4-2.3c2.7-1.4,4.2-4.5,3.6-7.5L198.8,625.5z"/>
<path class="st11" d="M168.8,284.5c0,0-2,15,3,21s13,29,13,29v24c0,0-31-28-37-46s0-32,0-32L168.8,284.5z"/>
<circle class="st11" cx="238.8" cy="136.5" r="25"/>
<path class="st11" d="M258.8,146.5c0,0-7,32,0,36s-42,0-42,0s11-27,6-36S258.8,146.5,258.8,146.5z"/>
<path class="st13" d="M282.8,359.5c0,0,9,13,6,53s-6,82-6,82s22,126,15,129s-30,6-33,3s-17-120-17-120l-13-96l-20,110
	c0,0-11,107-19,112c-5.7,3.6-17.1,1-23.1-0.7c-2.3-0.7-3.9-2.8-3.8-5.2c0.7-16.8,4-83.2,11.8-124c9-47-9-141,7-143
	S282.8,359.5,282.8,359.5z"/>
<path class="st12" d="M212.8,178.5c0,0,4-18,19-16s25,1,28,11s35,18,35,18s8,1,7,14s-21,61-21,61s1,40,6,58s5,40-6,45s-80,23-96,1
	c0,0-9-32-3-45s-1-64-1-64l-19-42c0,0,6-20,23-26C194.8,190,204.3,184.9,212.8,178.5z"/>
<path class="st12" d="M169.8,210.5l-8,9c0,0-24,59-17,65s27,10,28,9s18-52,18-52L169.8,210.5z"/>
<path class="st13" d="M267.8,121.5c0,0-4,3-5,10s-7.1-4-8.6,10.5s-25.4,24.5-34.4,17.5s-24-51-3-58s42-6,46,1
	S267.8,121.5,267.8,121.5z"/>
<path class="st4" d="M248.2,142c1.4-14.5,7.6-3.5,8.6-10.5s5-10,5-10s-1-12-5-19c-1.9-3.3-7.7-5.3-15.6-5.7
	c10.8-0.5,19.2,1.5,21.6,5.7c4,7,5,19,5,19s-4,3-5,10s-7.1-4-8.6,10.5c-1.2,12.3-18.6,21.3-29.4,19.5
	C235,160.1,247.2,152.2,248.2,142z"/>
<g>
	<path class="st2" d="M622.6,190.7c-3.2-1-5.4-1.9-6.5-2.8c-1.1-0.9-1.7-2.1-1.7-3.6c0-1.7,0.4-4.1,1.2-7.2
		c0.8-3.1,1.8-6.5,3.1-10.3c1.3-3.8,2.7-7.7,4.4-11.9c1.6-4.1,3.3-8.1,5-11.9c1.7-3.8,3.3-7.2,5-10.4c1.6-3.1,3-5.6,4.3-7.3
		l-0.6-3.6c0.8,0,1.9,0.2,3.3,0.6c1.4,0.4,2.8,0.9,4.3,1.4c1.4,0.6,2.7,1.1,3.8,1.7s1.7,1.1,1.8,1.5c-0.3,1.4-0.5,3.4-0.7,6.1
		c-0.2,2.7-0.3,5.7-0.3,8.8c0,6.2,0.2,12.2,0.7,18.1c0.5,5.9,1.6,11.9,3.3,18c0.9-4.5,1.9-9,2.9-13.5c1-4.5,2.1-8.8,3.3-12.9
		c1.1-4.1,2.3-7.9,3.4-11.4c1.1-3.5,2.2-6.6,3.3-9.2c1-2.6,2-4.7,2.9-6.2c0.9-1.5,1.7-2.3,2.5-2.4c0.6,0.1,1.3,0.4,2,0.7
		c0.7,0.4,1.4,0.8,2.1,1.3c0.7,0.5,1.3,1.1,1.9,1.7c0.6,0.6,1,1.2,1.4,1.9c-1.8,0.7-3.6,2.5-5.4,5.2c-1.8,2.7-3.5,6-5.1,9.9
		c-1.6,3.9-3.1,8.1-4.5,12.6c-1.4,4.5-2.6,9-3.6,13.3c-1,4.4-1.9,8.4-2.5,12.2c-0.6,3.7-0.9,6.7-1,9c0,0.1,0,0.2,0.1,0.3
		c-0.2,0.1-0.4,0.1-0.6,0.1c-0.2,0-0.4,0-0.6,0c-2.6,0-4.9-0.3-6.9-1c-2-0.7-3.3-1.6-3.9-2.8c-1.2-4.7-2.2-9.3-3-13.7
		c-0.8-4.4-1.5-8.8-2-13.2c-0.5-4.4-1-8.9-1.3-13.3c-0.3-4.5-0.6-9.2-0.7-14.1c-1.1,1.7-2.2,3.9-3.4,6.7c-1.2,2.7-2.3,5.7-3.5,9
		c-1.1,3.3-2.2,6.7-3.3,10.3c-1,3.6-2,7.1-2.8,10.6c-0.8,3.4-1.4,6.7-1.9,9.8c-0.5,3.1-0.7,5.7-0.7,8c0,1.2,0,2,0,2.5
		C622.4,190,622.5,190.4,622.6,190.7z"/>
	<path class="st2" d="M680.4,187.2c-3.2-0.3-5.8-1.8-7.7-4.2c-1.9-2.5-2.9-5.6-2.9-9.5c0-2.3,0.3-4.6,1-7c0.7-2.4,1.6-4.8,2.9-7.1
		c1.2-2.3,2.7-4.4,4.4-6.5c1.7-2,3.5-3.8,5.5-5.3c3.1-2.3,6-3.5,8.7-3.5c1.8,1,3.6,3,5.3,6c0.3,0,0.5,0,0.8,0c0.2,0,0.5,0,0.8,0
		c3,0,4.5,2.7,4.5,8c0,3.6-0.6,6.9-1.7,10.1c-1.2,3.2-2.8,6.1-4.8,8.7c-2.1,2.6-4.5,4.8-7.4,6.6
		C686.9,185.3,683.8,186.5,680.4,187.2z M684.7,160.5c-1,1.3-1.9,2.7-2.7,4.2c-0.8,1.5-1.6,3.1-2.2,4.6c-0.6,1.6-1.1,3.1-1.4,4.5
		c-0.3,1.4-0.5,2.7-0.5,3.9c0,1.4,0.2,2.7,0.7,3.9c0.5,1.2,1,1.9,1.5,2.1c2.5-0.6,4.9-1.6,7-3.2c2.1-1.6,4-3.5,5.5-5.8
		c1.6-2.3,2.8-4.9,3.6-7.9c0.9-2.9,1.3-6.1,1.3-9.4c0-1.5-0.1-2.6-0.3-3.5c-0.2-0.8-0.5-1.6-0.8-2.2c-2.5,0.7-4.7,1.9-6.7,3.6
		C687.8,157,686.1,158.7,684.7,160.5z"/>
	<path class="st2" d="M711.9,151.8c-0.3-0.3-0.5-1.1-0.8-2.2c-0.2-1.1-0.3-2-0.3-2.8c1.5,0.2,2.9,0.3,4.2,0.3c1.4,0,2.6,0,3.7,0
		c0.8-1.7,1.8-3.3,2.8-5c1-1.6,1.9-3.2,2.9-4.5c0.9-1.4,1.8-2.5,2.6-3.5c0.8-0.9,1.5-1.6,1.9-1.8c0.6,0,1.3,0.1,2.2,0.3
		c0.9,0.2,1.8,0.5,2.7,0.8c0.9,0.3,1.7,0.6,2.5,1c0.7,0.3,1.2,0.7,1.5,1c-1.7,2.1-3.1,4.1-4.4,5.9c-1.2,1.8-2.5,3.9-3.9,6.3
		c1.1,0,2.3,0,3.4,0s2.3-0.1,3.5-0.3c0.3,0.3,0.5,0.6,0.7,1.1s0.3,0.9,0.3,1.3c-2.8,1.1-6.1,1.6-10.1,1.6c-1.4,2.7-2.7,5.4-3.8,8.1
		c-1.1,2.7-2,5.3-2.8,7.8s-1.4,4.8-1.8,7.1c-0.4,2.2-0.6,4.2-0.6,5.9c0,2.5,0.9,3.9,2.8,4.2c1.7-0.2,3.3-0.6,4.8-1.3
		c1.5-0.6,2.9-1.4,4.1-2.4c0.3,0.5,0.5,0.9,0.6,1.3c-0.3,0.5-0.9,1.1-1.7,1.8c-0.8,0.7-1.7,1.3-2.7,2c-1,0.6-1.9,1.2-2.8,1.6
		c-0.9,0.4-1.6,0.7-2,0.8c-1.4,0-2.8-0.3-4.2-0.8c-1.4-0.6-2.7-1.3-3.9-2.1c-1.2-0.9-2.1-1.8-2.8-2.8c-0.7-1-1.1-2.1-1.1-3.1
		c0-1.4,0.2-3.1,0.6-5.1c0.4-2.1,0.9-4.3,1.6-6.7c0.7-2.4,1.5-5,2.4-7.6c0.9-2.7,1.9-5.3,3-7.9H711.9z"/>
	<path class="st2" d="M792.8,148.9c1.8,0,3.2,0.5,4.3,1.5c1,1,1.6,2.4,1.6,4.2c0,0.5,0,0.9-0.1,1.4c-0.1,0.5-0.2,0.9-0.3,1.2
		c-0.7-0.1-1.6-0.2-2.5-0.3c-0.9-0.1-2-0.1-3.2-0.1c-2.5,0-5.1,0.2-7.6,0.7c-2.5,0.5-5,0.8-7.3,1.1c-2.5,6-4.6,11.6-6.3,16.9
		c-1.6,5.3-2.9,10.5-3.8,15.6c-1.9-0.5-3.6-1.3-5.1-2.5c-1.5-1.2-2.9-2.9-4.2-5c0.4-0.9,0.9-2,1.4-3.3c0.6-1.3,1.2-2.9,2-4.8
		c0.8-1.9,1.7-4.3,2.8-7.1c1.1-2.8,2.4-6.1,3.9-10c-2.4-0.8-3.9-2.2-4.7-4.2c0.3-0.3,1.1-0.6,2.4-1c1.3-0.4,2.9-0.8,4.7-1.2
		c0.8-2.2,1.6-4.2,2.2-5.9c0.6-1.7,1.2-3.4,1.7-4.9c0.5-1.6,1-3.1,1.4-4.6c0.4-1.5,0.8-3.1,1.1-4.8H777c-2.1,0-3.9-0.5-5.2-1.5
		c-1.3-1-2-2.4-2-4c0-0.5,0.1-1,0.2-1.6c0.1-0.6,0.3-1.2,0.6-1.6c1.1,0.1,2.1,0.1,3.2,0.1c1,0,2.4,0,4.1,0c3.6,0,6.9,0,10,0
		c3.1,0,5.9-0.1,8.4-0.4c2.5-0.3,4.7-0.5,6.5-0.8c1.8-0.2,3.2-0.4,4.2-0.4c1.3,0,2.5,0.7,3.5,2c1,1.4,1.8,3.3,2.4,5.8
		c-1.8-0.2-3.3-0.3-4.4-0.3s-2.1,0-2.9,0c-2.9,0-5.5,0.1-7.9,0.4c-2.4,0.3-4.7,0.5-6.8,0.9c-0.3,0.5-0.7,1.2-1.1,1.9
		c-0.4,0.8-1,1.9-1.7,3.3c-0.7,1.4-1.5,3.3-2.6,5.6c-1,2.3-2.4,5.2-3.9,8.8c2.2-0.3,4.3-0.6,6.3-0.8
		C789.7,149.1,791.4,148.9,792.8,148.9z"/>
	<path class="st2" d="M812.4,187.2c-3.2-0.3-5.8-1.8-7.7-4.2c-1.9-2.5-2.9-5.6-2.9-9.5c0-2.3,0.3-4.6,1-7c0.7-2.4,1.6-4.8,2.9-7.1
		c1.2-2.3,2.7-4.4,4.4-6.5c1.7-2,3.5-3.8,5.5-5.3c3.1-2.3,6-3.5,8.7-3.5c1.8,1,3.6,3,5.3,6c0.3,0,0.5,0,0.8,0c0.2,0,0.5,0,0.8,0
		c3,0,4.5,2.7,4.5,8c0,3.6-0.6,6.9-1.7,10.1c-1.2,3.2-2.8,6.1-4.8,8.7c-2.1,2.6-4.5,4.8-7.4,6.6C819,185.3,815.8,186.5,812.4,187.2z
		 M816.8,160.5c-1,1.3-1.9,2.7-2.7,4.2c-0.8,1.5-1.6,3.1-2.2,4.6c-0.6,1.6-1.1,3.1-1.4,4.5c-0.3,1.4-0.5,2.7-0.5,3.9
		c0,1.4,0.2,2.7,0.7,3.9c0.5,1.2,1,1.9,1.5,2.1c2.5-0.6,4.9-1.6,7-3.2c2.1-1.6,4-3.5,5.5-5.8c1.6-2.3,2.8-4.9,3.6-7.9
		c0.9-2.9,1.3-6.1,1.3-9.4c0-1.5-0.1-2.6-0.3-3.5c-0.2-0.8-0.5-1.6-0.8-2.2c-2.5,0.7-4.7,1.9-6.7,3.6
		C819.9,157,818.2,158.7,816.8,160.5z"/>
	<path class="st2" d="M862.9,182.4c-1.1-0.9-1.8-2-2.2-3.4c-0.4-1.4-0.6-2.5-0.6-3.5c0-1.2,0.1-2.2,0.4-3.1c-0.2,0-0.7,0.5-1.5,1.4
		c-0.8,0.9-1.7,2-2.6,3.2c-0.9,1.2-1.9,2.4-2.8,3.6c-0.9,1.2-1.6,2.1-2,2.6c-0.7,0.8-1.4,1.4-2.1,1.9c-0.7,0.4-1.2,0.7-1.6,0.8
		c-0.9,0-1.9-0.2-2.8-0.5c-1-0.3-1.9-0.8-2.8-1.3c-0.9-0.6-1.6-1.3-2.3-2c-0.6-0.8-1.1-1.7-1.3-2.7c0-1.6,0-2.9,0.1-3.9
		c0.1-1,0.3-2.1,0.6-3.3c0.5-2.1,1.3-4.6,2.2-7.3c1-2.7,2.1-5.4,3.4-8c1.3-2.6,2.8-5.1,4.4-7.4s3.3-4.1,5.1-5.4c0.5,0,1.1,0,1.8,0.1
		c0.7,0.1,1.4,0.2,2.1,0.5c0.7,0.2,1.4,0.5,2,0.8c0.6,0.3,1.2,0.7,1.7,1.2c-0.5,0.6-1.8,2.5-3.9,5.7c-2.1,3.2-4.4,7.9-6.9,13.9
		c-0.3,0.6-0.6,1.5-1,2.7c-0.4,1.2-0.8,2.4-1.2,3.7c-0.4,1.3-0.7,2.6-1,3.8c-0.3,1.2-0.4,2.2-0.4,3c0,0.5,0.1,0.8,0.2,1
		c0.1,0.2,0.3,0.4,0.4,0.5c0.8-0.3,1.9-1.3,3.2-2.8c1.3-1.5,3.1-3.9,5.4-7c0.6-0.8,1.2-1.7,2-2.7s1.5-2.1,2.3-3.3
		c0.8-1.2,1.5-2.4,2.2-3.6c0.7-1.2,1.3-2.5,1.7-3.7c0.2-0.7,0.5-1.5,0.9-2.4c0.4-0.9,0.8-1.9,1.4-2.9c0.5-1,1.2-2,1.9-3.1
		c0.7-1,1.5-2,2.5-2.9c0.7,0,1.5,0.1,2.4,0.3c0.8,0.2,1.7,0.4,2.4,0.6c0.8,0.3,1.4,0.5,2,0.8c0.6,0.3,1,0.6,1.3,1
		c-1,2.5-2.1,4.9-3.4,7.4c-1.2,2.4-2.4,4.8-3.5,7.2c-1.1,2.3-2,4.7-2.7,7c-0.7,2.3-1.1,4.6-1.1,6.8c0,1.2,0.1,2.2,0.3,3.1
		c0.2,0.9,0.4,1.6,0.6,2.2c0.2,0.6,0.4,1.1,0.6,1.5c0.2,0.4,0.3,0.7,0.3,1c0,0.1-0.1,0.1-0.2,0.3c-0.1,0.1-0.1,0.1-0.2,0.1
		c-0.4,0-0.9-0.1-1.5-0.3c-0.6-0.2-1.3-0.4-2.1-0.7c-0.8-0.3-1.5-0.7-2.3-1.1C864.3,183.3,863.5,182.9,862.9,182.4z"/>
	<path class="st2" d="M895.4,143.2c1.5,0.5,2.9,1.5,4.2,3c1.3,1.6,2.3,3.3,2.9,5.1c-0.6,1.5-1.6,3.4-2.9,5.5
		c-1.3,2.1-2.6,4.3-3.9,6.6c-1.3,2.2-2.5,4.4-3.5,6.4c-1,2-1.7,3.7-1.8,5c0.9-1,1.9-2.1,3-3.3c1.1-1.3,2.2-2.5,3.2-3.8
		c1-1.3,2-2.4,2.9-3.5c0.9-1,1.6-1.8,2.1-2.3c1.1-1.1,2.3-2.4,3.8-3.9c1.5-1.5,3-2.9,4.6-4.2c1.6-1.3,3.2-2.5,4.9-3.4
		c1.6-0.9,3.1-1.4,4.5-1.4c1.5,0,2.7,0.5,3.7,1.5c1,1,1.8,2,2.3,3.1c0,0.1-0.2,0.3-0.6,0.5c-0.4,0.2-1,0.7-1.8,1.7
		c-0.8,1-1.7,2.4-2.7,4.2c-1,1.8-1.9,3.7-2.9,5.8c-0.9,2.1-1.7,4.2-2.3,6.3c-0.6,2.1-0.9,4.1-0.9,5.8c0,1.4,0.2,2.3,0.6,2.7
		c0.4,0.4,0.9,0.6,1.6,0.6c0.6,0,1.3-0.1,1.9-0.4c0.7-0.3,1.2-0.4,1.6-0.4c0.2,0.1,0.4,0.4,0.6,0.7c0.1,0.4,0.2,0.7,0.2,1
		c-0.5,0.4-1,0.8-1.6,1.2c-0.6,0.4-1.3,0.8-1.9,1.1c-0.7,0.3-1.3,0.6-2,0.8c-0.6,0.2-1.2,0.3-1.7,0.3c-1.6,0-3-0.2-4-0.7
		c-1-0.5-1.9-1.1-2.5-1.9c-0.6-0.8-1-1.7-1.2-2.8c-0.2-1.1-0.3-2.3-0.3-3.5c0-0.7,0.1-1.4,0.2-2.3c0.1-0.8,0.3-1.9,0.7-3
		c0.3-1.2,0.8-2.5,1.4-4.2c0.6-1.6,1.4-3.5,2.4-5.8c-0.1,0-0.9,0.4-2.3,1.2c-1.4,0.8-2.9,2-4.6,3.6c-2.7,2.5-5,5.1-7.2,7.5
		c-2.1,2.5-4.3,5.3-6.5,8.3c-1.2,1.8-2.3,3.2-3.3,4.4c-0.9,1.2-1.7,2-2.4,2.4c-1.2-0.7-2.1-1.6-2.6-2.8c-0.6-1.2-1-2.5-1.3-3.8
		c0-1.1,0.2-2.4,0.5-4.1c0.3-1.6,0.7-3.5,1.3-5.5c0.5-2,1.2-4.1,2-6.3c0.8-2.2,1.7-4.4,2.6-6.6c2.1-5,4.1-8.9,5.9-11.7
		C893.8,144.9,895,143.4,895.4,143.2z"/>
	<path class="st2" d="M945.9,144.7c1.1,0,2.4,0.3,3.9,1c1.5,0.7,2.8,1.6,3.9,2.6c-0.3-2.3-0.6-4.4-1.1-6.4c-0.4-2-1-4.1-1.9-6.2
		c-0.8-2.1-1.9-4.5-3.3-7c-1.4-2.5-3.1-5.5-5.1-8.7c0.2-0.5,0.6-1.1,1.1-1.8c0.6-0.7,1.3-1.3,2-1.9s1.6-1.1,2.4-1.6
		c0.8-0.5,1.6-0.7,2.3-0.8c1.6,1.8,3.1,3.9,4.5,6.6c1.4,2.6,2.7,5.5,3.7,8.5c1.1,3,1.9,6.1,2.5,9.4c0.6,3.2,0.9,6.3,0.9,9.2
		c0,2.9-0.3,6-1,9.1c-0.7,3.1-1.6,6.1-2.7,9.1c-1.2,3-2.5,5.8-4,8.4c-1.5,2.7-3.2,5-5,7.1c-1.8,2.1-3.6,3.8-5.6,5.1
		c-1.9,1.3-3.8,2.2-5.8,2.5c-3.9-0.5-6.9-1.7-8.9-3.8c-2.1-2.1-3.1-4.9-3.1-8.5c0-1.9,0.3-4,0.9-6.3c0.6-2.3,1.4-4.5,2.4-6.7
		c1-2.2,2.1-4.4,3.5-6.5c1.3-2.1,2.7-4,4.2-5.7c1.5-1.7,3-3.1,4.5-4.3S944.4,145,945.9,144.7z M937.3,185.5c2-0.7,4-2.2,5.9-4.5
		c2-2.3,3.8-5,5.3-8.2c1.6-3.1,2.9-6.5,3.9-10.1c1-3.6,1.5-7,1.5-10.4c0-1,0-1.6,0-1.8c0-0.2,0-0.5-0.1-0.7
		c-1.4,0.6-2.8,1.5-4.3,2.9s-3.1,2.9-4.6,4.7c-1.5,1.8-3,3.7-4.3,5.8c-1.4,2.1-2.6,4.2-3.6,6.3c-1.1,2.1-1.9,4.1-2.5,6
		c-0.6,1.9-0.9,3.6-0.9,5.1C933.5,183.5,934.7,185.1,937.3,185.5z"/>
</g>
</svg>
