<?xml version="1.0" encoding="utf-8"?>
<!-- Generator: Adobe Illustrator 22.0.1, SVG Export Plug-In . SVG Version: 6.00 Build 0)  -->
<svg version="1.1" id="katman_1" xmlns="http://www.w3.org/2000/svg" xmlns:xlink="http://www.w3.org/1999/xlink" x="0px" y="0px"
	 viewBox="0 0 342.4 26" style="enable-background:new 0 0 342.4 26;" xml:space="preserve">
<style type="text/css">
	.st0{fill:#A0A3B7;}
	.st1{fill:#FAFAFA;}
	.st2{fill:#FFFFFF;}
</style>
<g>
	<g>
		<path class="st0" d="M82.6,3.3L71.8,0c-0.1,0-0.2,0-0.3,0L60.6,3.3c-0.2,0.1-0.4,0.3-0.4,0.5v11.9c0,4.8,7.3,9,11.2,10.3
			c0.1,0,0.2,0,0.3,0C75.7,24.8,83,20.5,83,15.7V3.8C83,3.6,82.8,3.4,82.6,3.3z"/>
		<path class="st1" d="M70.5,17.3c-0.1,0-0.3-0.1-0.4-0.2l-4.3-4.3c-0.2-0.2-0.2-0.6,0-0.8c0.2-0.2,0.5-0.2,0.8,0l4,3l7.2-6.3
			c0.2-0.2,0.6-0.2,0.8,0c0.2,0.2,0.2,0.6,0,0.8c0,0,0,0,0,0l-7.6,7.6C70.8,17.3,70.7,17.3,70.5,17.3z"/>
	</g>
	<g>
		<path class="st0" d="M89.4,22.7c-0.4-0.1-0.7-0.3-0.9-0.5c-0.1-0.1-0.2-0.2-0.2-0.3c0-0.1,0-0.2,0.1-0.2c0.1-0.1,0.1-0.1,0.2-0.1
			c0.1,0,0.2,0,0.3,0.1c0.5,0.4,1,0.5,1.7,0.5c0.4,0,0.8-0.1,1-0.2c0.2-0.2,0.3-0.4,0.3-0.7c0-0.2-0.1-0.4-0.3-0.5
			c-0.2-0.1-0.6-0.2-1-0.3c-0.5-0.1-0.8-0.2-1.1-0.3c-0.3-0.1-0.5-0.3-0.7-0.5c-0.2-0.2-0.2-0.5-0.2-0.8c0-0.3,0.1-0.6,0.3-0.9
			c0.2-0.3,0.4-0.5,0.8-0.6c0.3-0.1,0.7-0.2,1.1-0.2c0.4,0,0.7,0.1,1.1,0.2c0.3,0.1,0.6,0.3,0.8,0.5c0.1,0.1,0.2,0.2,0.2,0.3
			c0,0.1,0,0.2-0.1,0.2c-0.1,0.1-0.1,0.1-0.2,0.1c-0.1,0-0.2,0-0.3-0.1c-0.2-0.2-0.5-0.3-0.7-0.4c-0.2-0.1-0.5-0.1-0.8-0.1
			c-0.4,0-0.7,0.1-1,0.3c-0.2,0.2-0.3,0.4-0.3,0.7c0,0.3,0.1,0.5,0.3,0.6c0.2,0.1,0.5,0.3,1,0.4c0.5,0.1,0.9,0.2,1.2,0.3
			c0.3,0.1,0.5,0.3,0.7,0.5c0.2,0.2,0.3,0.5,0.3,0.8c0,0.3-0.1,0.6-0.3,0.9c-0.2,0.3-0.4,0.4-0.8,0.6c-0.3,0.1-0.7,0.2-1.1,0.2
			C90.1,22.8,89.7,22.8,89.4,22.7z"/>
		<path class="st0" d="M93.9,22.7c-0.1-0.1-0.1-0.2-0.1-0.3v-4.9c0-0.1,0-0.2,0.1-0.3c0.1-0.1,0.2-0.1,0.3-0.1h3
			c0.1,0,0.2,0,0.3,0.1c0.1,0.1,0.1,0.1,0.1,0.3c0,0.1,0,0.2-0.1,0.2c-0.1,0.1-0.2,0.1-0.3,0.1h-2.6v1.8H97c0.1,0,0.2,0,0.3,0.1
			c0.1,0.1,0.1,0.1,0.1,0.3c0,0.1,0,0.2-0.1,0.3c-0.1,0.1-0.2,0.1-0.3,0.1h-2.4v1.9h2.6c0.3,0,0.4,0.1,0.4,0.3c0,0.1,0,0.2-0.1,0.3
			c-0.1,0.1-0.2,0.1-0.3,0.1h-3C94,22.8,93.9,22.7,93.9,22.7z"/>
		<path class="st0" d="M99.6,22.5c-0.4-0.2-0.7-0.6-0.9-1c-0.2-0.4-0.3-1-0.3-1.6c0-0.6,0.1-1.1,0.3-1.6c0.2-0.4,0.5-0.8,0.9-1
			c0.4-0.2,0.9-0.4,1.4-0.4c0.4,0,0.7,0.1,1,0.2c0.3,0.1,0.6,0.3,0.8,0.5c0.1,0.1,0.2,0.2,0.2,0.3c0,0.1,0,0.2-0.1,0.2
			c-0.1,0.1-0.1,0.1-0.2,0.1c-0.1,0-0.2,0-0.3-0.1c-0.3-0.2-0.5-0.3-0.7-0.4c-0.2-0.1-0.5-0.1-0.7-0.1c-0.6,0-1.1,0.2-1.4,0.6
			c-0.3,0.4-0.5,0.9-0.5,1.7c0,0.7,0.2,1.3,0.5,1.7c0.3,0.4,0.8,0.6,1.4,0.6c0.3,0,0.5,0,0.7-0.1c0.2-0.1,0.5-0.2,0.7-0.4
			c0.1-0.1,0.2-0.1,0.3-0.1c0.1,0,0.1,0,0.2,0.1c0.1,0.1,0.1,0.2,0.1,0.2c0,0.1-0.1,0.2-0.2,0.3c-0.2,0.2-0.5,0.4-0.8,0.5
			c-0.3,0.1-0.7,0.2-1,0.2C100.4,22.8,100,22.7,99.6,22.5z"/>
		<path class="st0" d="M104.5,22.2c-0.4-0.4-0.6-1-0.6-1.7v-3.1c0-0.1,0-0.2,0.1-0.3c0.1-0.1,0.2-0.1,0.3-0.1c0.1,0,0.2,0,0.3,0.1
			c0.1,0.1,0.1,0.2,0.1,0.3v3.1c0,0.5,0.1,0.9,0.4,1.2c0.3,0.3,0.6,0.4,1.1,0.4c0.5,0,0.9-0.1,1.1-0.4c0.3-0.3,0.4-0.7,0.4-1.2v-3.1
			c0-0.1,0-0.2,0.1-0.3c0.1-0.1,0.2-0.1,0.3-0.1c0.1,0,0.2,0,0.3,0.1c0.1,0.1,0.1,0.2,0.1,0.3v3.1c0,0.8-0.2,1.3-0.6,1.7
			c-0.4,0.4-1,0.6-1.7,0.6C105.5,22.8,104.9,22.6,104.5,22.2z"/>
		<path class="st0" d="M114.5,22.5c0,0.1,0,0.2-0.1,0.2c-0.1,0.1-0.2,0.1-0.3,0.1c-0.2,0-0.3-0.1-0.4-0.2l-1.1-1.7
			c-0.1-0.2-0.3-0.3-0.4-0.4c-0.1-0.1-0.3-0.1-0.6-0.1h-0.9v2c0,0.1,0,0.2-0.1,0.3c-0.1,0.1-0.2,0.1-0.3,0.1c-0.1,0-0.2,0-0.3-0.1
			c-0.1-0.1-0.1-0.2-0.1-0.3v-4.9c0-0.1,0-0.2,0.1-0.3c0.1-0.1,0.2-0.1,0.3-0.1h2c0.6,0,1.1,0.1,1.5,0.4c0.3,0.3,0.5,0.7,0.5,1.2
			c0,0.4-0.1,0.8-0.4,1.1c-0.3,0.3-0.6,0.5-1.1,0.5c0.1,0,0.3,0.1,0.4,0.2s0.2,0.2,0.3,0.4l0.8,1.3
			C114.4,22.3,114.5,22.4,114.5,22.5z M112.3,19.7c0.4,0,0.7-0.1,0.9-0.2c0.2-0.2,0.3-0.4,0.3-0.8c0-0.3-0.1-0.6-0.3-0.8
			c-0.2-0.2-0.5-0.2-0.9-0.2h-1.5v2H112.3z"/>
		<path class="st0" d="M115.6,22.7c-0.1-0.1-0.1-0.2-0.1-0.3v-4.9c0-0.1,0-0.2,0.1-0.3c0.1-0.1,0.2-0.1,0.3-0.1h3
			c0.1,0,0.2,0,0.3,0.1c0.1,0.1,0.1,0.1,0.1,0.3c0,0.1,0,0.2-0.1,0.2c-0.1,0.1-0.2,0.1-0.3,0.1h-2.6v1.8h2.4c0.1,0,0.2,0,0.3,0.1
			c0.1,0.1,0.1,0.1,0.1,0.3c0,0.1,0,0.2-0.1,0.3c-0.1,0.1-0.2,0.1-0.3,0.1h-2.4v1.9h2.6c0.3,0,0.4,0.1,0.4,0.3c0,0.1,0,0.2-0.1,0.3
			c-0.1,0.1-0.2,0.1-0.3,0.1h-3C115.8,22.8,115.7,22.7,115.6,22.7z"/>
	</g>
	<g>
		<path class="st0" d="M88.7,14.2c-0.3-0.3-0.4-0.7-0.4-1.1V4c0-0.5,0.1-0.8,0.4-1.1c0.2-0.2,0.6-0.4,1.1-0.4h4.4
			c1.3,0,2.4,0.3,3.1,1c0.7,0.7,1.1,1.6,1.1,2.8c0,1.2-0.4,2.1-1.1,2.8c-0.7,0.7-1.8,1-3.1,1h-2.7v2.9c0,0.5-0.1,0.9-0.4,1.1
			c-0.3,0.3-0.7,0.4-1.2,0.4C89.4,14.7,89,14.5,88.7,14.2z M95,7.5c0.3-0.2,0.4-0.6,0.4-1.1c0-1-0.6-1.5-1.7-1.5h-2.2v2.9h2.2
			C94.3,7.9,94.7,7.7,95,7.5z"/>
		<path class="st0" d="M110.1,13.3c0,0.4-0.2,0.7-0.5,1c-0.3,0.3-0.6,0.4-1,0.4c-0.3,0-0.5-0.1-0.7-0.2c-0.2-0.1-0.4-0.3-0.5-0.6
			l-0.8-1.7h-5.5l-0.8,1.7c-0.1,0.3-0.3,0.5-0.5,0.6c-0.2,0.1-0.5,0.2-0.7,0.2c-0.4,0-0.7-0.1-1-0.4c-0.3-0.3-0.5-0.6-0.5-1
			c0-0.2,0.1-0.4,0.2-0.6l4.5-9.2c0.1-0.3,0.4-0.5,0.7-0.7c0.3-0.2,0.6-0.2,1-0.2c0.3,0,0.7,0.1,1,0.2c0.3,0.2,0.5,0.4,0.7,0.7
			l4.5,9.2C110,12.8,110.1,13.1,110.1,13.3z M102.1,9.7h3.4l-1.7-3.8L102.1,9.7z"/>
		<path class="st0" d="M118.2,2.4c0.4,0,0.7,0.1,1,0.4c0.3,0.3,0.5,0.6,0.5,1c0,0.3-0.1,0.6-0.4,0.9L115.7,9v4.2
			c0,0.5-0.1,0.9-0.4,1.1c-0.3,0.3-0.7,0.4-1.1,0.4c-0.5,0-0.8-0.1-1.1-0.4c-0.3-0.3-0.4-0.6-0.4-1.1V9l-3.5-4.1
			c-0.3-0.3-0.4-0.6-0.4-1c0-0.4,0.1-0.7,0.4-1c0.3-0.3,0.6-0.4,1-0.4c0.4,0,0.7,0.2,1,0.5l3,3.6l3-3.6
			C117.5,2.6,117.8,2.4,118.2,2.4z"/>
	</g>
</g>
<path class="st0" d="M239.7,26.3h-107c-3.3,0-6-2.7-6-6v-14c0-3.3,2.7-6,6-6h107c3.3,0,6,2.7,6,6v14
	C245.7,23.6,243.1,26.3,239.7,26.3z M137.9,9.2h-2.6v7.2h1.3v-2.6h1.2c1.5,0,2.5-0.9,2.5-2.3S139.3,9.2,137.9,9.2z M143.8,11.1
	c-1.6,0-2.7,1.1-2.7,2.8c0,1.6,1.1,2.8,2.7,2.8c1.6,0,2.7-1.1,2.7-2.8C146.5,12.2,145.4,11.1,143.8,11.1z M153.7,11.2l-1.1,3.6
	l-1.1-3.6h-1.2l-1.1,3.6l-1.1-3.6h-1.3l1.8,5.3h1.2l1.1-3.6l1.1,3.6h1.2l1.8-5.3H153.7z M158,11.1c-1.5,0-2.6,1.1-2.6,2.7
	c0,1.6,1.1,2.8,2.7,2.8c0.6,0,1.2-0.1,1.8-0.4v-1.1c-0.5,0.3-1.1,0.5-1.6,0.5c-0.9,0-1.5-0.5-1.6-1.3h3.6c0-0.2,0-0.3,0-0.5
	C160.3,12.2,159.4,11.1,158,11.1z M164.5,11.1c-0.1,0-0.3-0.1-0.4-0.1c-0.5,0-0.9,0.2-1.3,0.7v-0.5h-1.3v5.3h1.3V13
	c0.3-0.4,0.8-0.7,1.3-0.7c0.2,0,0.3,0,0.5,0.1V11.1z M167.6,11.1c-1.5,0-2.6,1.1-2.6,2.7c0,1.6,1.1,2.8,2.7,2.8
	c0.6,0,1.2-0.1,1.8-0.4v-1.1c-0.5,0.3-1.1,0.5-1.6,0.5c-0.9,0-1.5-0.5-1.6-1.3h3.6c0-0.2,0-0.3,0-0.5
	C169.9,12.2,168.9,11.1,167.6,11.1z M175.7,8.9h-1.4v2.7c-0.4-0.3-0.9-0.5-1.3-0.5c-1.4,0-2.4,1.1-2.4,2.8c0,1.6,1,2.8,2.4,2.8
	c0.5,0,0.9-0.2,1.3-0.5v0.4h1.4V8.9z M182.4,11.1c-0.5,0-0.9,0.2-1.3,0.5V8.9h-1.3v7.6h1.3v-0.4c0.4,0.3,0.9,0.5,1.3,0.5
	c1.4,0,2.4-1.1,2.4-2.8C184.8,12.2,183.8,11.1,182.4,11.1z M189.1,11.2l-1.3,3.5l-1.3-3.5h-1.4l2,5.1l-1,2.5h1.3l3-7.6H189.1z
	 M199.9,10.6c0.9,0,2,0.3,2.8,0.7V8.7c-0.9-0.4-1.9-0.5-2.8-0.5c-2.3,0-3.8,1.2-3.8,3.2c0,3.1,4.3,2.6,4.3,4c0,0.5-0.5,0.7-1.1,0.7
	c-0.9,0-2.2-0.4-3.1-0.9v2.7c1.1,0.5,2.1,0.6,3.1,0.6c2.4,0,4-1.2,4-3.2c0-3.4-4.3-2.8-4.3-4.1C198.9,10.8,199.3,10.6,199.9,10.6z
	 M208.9,8.3h-2.2l0-2.5L204,6.5l0,9.1c0,1.7,1.3,2.9,2.9,2.9c0.9,0,1.6-0.2,2-0.4v-2.3c-0.4,0.1-2.2,0.7-2.2-1v-4h2.2V8.3z M215,8.3
	c-0.4-0.1-1.7-0.4-2.4,0.8l-0.2-0.8H210v10h2.8v-6.7c0.7-0.9,1.8-0.7,2.2-0.6V8.3z M218.7,4.6l-2.9,0.6v2.3l2.9-0.6V4.6z M218.7,8.3
	h-2.9v10h2.9V8.3z M224.9,8.2c-1.1,0-1.8,0.5-2.2,0.9l-0.1-0.7H220l0,13.3l2.8-0.6l0-3.2c0.4,0.3,1,0.7,2,0.7c2,0,3.9-1.6,3.9-5.2
	C228.7,10,226.9,8.2,224.9,8.2z M233.8,8.2c-2.7,0-4.3,2.3-4.3,5.2c0,3.4,1.9,5.2,4.7,5.2c1.4,0,2.4-0.3,3.1-0.7v-2.3
	c-0.8,0.4-1.7,0.6-2.8,0.6c-1.1,0-2.1-0.4-2.2-1.7h5.6c0-0.2,0-0.7,0-1C237.9,10.5,236.5,8.2,233.8,8.2z M233.8,10.5
	c0.7,0,1.4,0.5,1.4,1.8h-2.9C232.3,11,233.1,10.5,233.8,10.5z M224.2,16c-0.7,0-1.1-0.2-1.3-0.5l0-4.2c0.3-0.3,0.7-0.6,1.4-0.6
	c1,0,1.8,1.2,1.8,2.6C225.9,14.9,225.2,16,224.2,16z M182.2,15.4c-0.4,0-0.7-0.2-1.1-0.5v-2.3c0.3-0.3,0.7-0.5,1.1-0.5
	c0.8,0,1.3,0.7,1.3,1.6C183.4,14.8,182.9,15.4,182.2,15.4z M173.3,15.4c-0.8,0-1.3-0.7-1.3-1.6c0-0.9,0.5-1.6,1.3-1.6
	c0.4,0,0.7,0.2,1,0.5V15C174,15.3,173.6,15.4,173.3,15.4z M167.5,12.1c0.6,0,1,0.5,1.1,1.2h-2.3C166.3,12.6,166.9,12.1,167.5,12.1z
	 M157.9,12.1c0.6,0,1,0.5,1.1,1.2h-2.3C156.8,12.6,157.3,12.1,157.9,12.1z M143.8,15.5c-0.8,0-1.3-0.7-1.3-1.6s0.5-1.6,1.3-1.6
	c0.8,0,1.3,0.7,1.3,1.6S144.6,15.5,143.8,15.5z M137.7,12.8h-1v-2.5h1c0.8,0,1.3,0.5,1.3,1.2C139,12.3,138.5,12.8,137.7,12.8z"/>
<path class="st0" d="M0.1,26h18.7V12.8H0.1V26z M6.7,18.4l1.8,1.8l4.1-4.1l1.3,1.3l-5.4,5.4l-3.1-3.1L6.7,18.4z M5.6,7
	c0-2.1,1.7-3.8,3.8-3.8c2.1,0,3.8,1.7,3.8,3.8v4h3.2V7c0-3.9-3.1-7-7-7c-3.9,0-7,3.1-7,7v4h3.2L5.6,7L5.6,7z M34.1,11.7
	c0-1.9-1.1-3-2.9-3.6l-1.6-0.7c-1.3-0.5-2.2-0.8-2.2-1.6c0-0.8,0.7-1.2,1.7-1.2c1.3,0,2.2,0.4,3.1,1.1l1.5-1.9
	c-1.2-1.1-2.8-1.8-4.5-1.8c-2.9,0-4.9,1.8-4.9,4c0,2,1.4,3.1,2.9,3.7l1.7,0.7c1.3,0.5,2.1,0.8,2.1,1.7c0,0.7-0.6,1.2-1.9,1.2
	c-1.3,0-2.5-0.6-3.6-1.4l-1.7,2.1c1.4,1.3,3.3,1.9,5.1,1.9C32.2,15.8,34.1,13.9,34.1,11.7z M41.5,8l-1.6-0.7
	c-1.3-0.5-2.2-0.8-2.2-1.6c0-0.8,0.7-1.2,1.7-1.2c1.3,0,2.2,0.4,3.1,1.1L44,3.7c-1.2-1.1-2.8-1.8-4.5-1.8c-2.9,0-4.9,1.8-4.9,4
	c0,2,1.4,3.1,2.9,3.7l1.7,0.7c1.3,0.5,2.1,0.8,2.1,1.7c0,0.7-0.6,1.2-1.9,1.2c-1.3,0-2.5-0.6-3.6-1.4l-1.7,2.1
	c1.4,1.3,3.3,1.9,5.1,1.9c3.3,0,5.2-1.9,5.2-4.2C44.4,9.8,43.3,8.7,41.5,8z"/>
<polygon class="st0" points="48.5,13 48.5,2.2 45.5,2.2 45.5,15.6 54.5,15.6 54.5,13 "/>
<path class="st0" d="M26.7,20.3L25.9,20c-0.5-0.2-1-0.4-1-1c0-0.5,0.5-0.8,1.1-0.8c0.6,0,1,0.2,1.4,0.5l0.4-0.5
	c-0.4-0.4-1.1-0.7-1.8-0.7c-1.1,0-1.9,0.6-1.9,1.5c0,0.8,0.7,1.3,1.2,1.5l0.8,0.4c0.6,0.3,1,0.4,1,1.1c0,0.5-0.5,0.9-1.3,0.9
	c-0.7,0-1.3-0.3-1.7-0.7l-0.4,0.5c0.5,0.5,1.2,0.9,2.1,0.9c1.3,0,2-0.7,2-1.7C28,21,27.4,20.6,26.7,20.3z"/>
<polygon class="st0" points="30.3,20.7 32.7,20.7 32.7,20.1 30.3,20.1 30.3,18.2 33.1,18.2 33.1,17.6 29.5,17.6 29.5,23.4 
	33.2,23.4 33.2,22.8 30.3,22.8 "/>
<path class="st0" d="M37,22.9c-1.1,0-1.8-0.9-1.8-2.4c0-1.4,0.7-2.3,1.8-2.3c0.5,0,0.9,0.2,1.2,0.5l0.4-0.5
	c-0.3-0.4-0.9-0.7-1.6-0.7c-1.5,0-2.6,1.1-2.6,3c0,1.9,1.1,3,2.5,3c0.8,0,1.3-0.3,1.8-0.8l-0.4-0.5C37.9,22.7,37.5,22.9,37,22.9z
	 M43,21.3c0,1.2-0.5,1.6-1.2,1.6c-0.7,0-1.2-0.4-1.2-1.6v-3.6h-0.7v3.6c0,1.7,0.8,2.3,2,2.3c1.1,0,1.9-0.6,1.9-2.3v-3.6H43L43,21.3
	L43,21.3z M49.1,19.3c0-1.2-0.8-1.6-2-1.6h-1.8v5.8H46V21h1l1.4,2.5h0.8l-1.5-2.5C48.6,20.7,49.1,20.2,49.1,19.3z M47,20.4h-1v-2.2
	h1c0.9,0,1.4,0.3,1.4,1C48.4,20,47.9,20.4,47,20.4z"/>
<polygon class="st0" points="51.5,20.7 53.9,20.7 53.9,20.1 51.5,20.1 51.5,18.2 54.3,18.2 54.3,17.6 50.7,17.6 50.7,23.4 
	54.4,23.4 54.4,22.8 51.5,22.8 "/>
<g>
	<g>
		<path class="st0" d="M274.9,17.8L274.9,17.8c-0.1-1.3-0.6-2.5-1.5-3.4l2.2-2.2c0,0-0.9-0.2-2.8-0.2c-1.6,0-2.3,0.2-2.3,0.2
			c-1.8-1.7-4.2-2.7-6.9-2.7c0,0,0,0,0,0c0,0,0,0,0,0c-2.7,0-5.1,1-6.9,2.7c0,0-0.7-0.2-2.3-0.2c-1.9,0-2.8,0.2-2.8,0.2l2.2,2.2
			c-0.8,0.9-1.3,2.1-1.5,3.4l0,0c0,0.2,0,0.4,0,0.5v0l0,0l0,0v0c0,0.4,0,0.8,0.1,1.2c0,0,0,0,0,0c0,0,0,0.1,0,0.1
			c0,0.2,0.1,0.3,0.1,0.5c0,0,0,0.1,0,0.1c0,0.1,0.1,0.3,0.1,0.4c0,0.1,0.1,0.1,0.1,0.2c0.1,0.1,0.1,0.2,0.2,0.3
			c0,0.1,0.1,0.1,0.1,0.2c0.1,0.1,0.1,0.2,0.2,0.3c0,0.1,0.1,0.1,0.1,0.2c0.1,0.1,0.1,0.2,0.2,0.3c0,0.1,0.1,0.1,0.1,0.2
			c0,0,0.1,0.1,0.1,0.1c0,0,0.1,0.1,0.1,0.1c0,0,0.1,0.1,0.1,0.1c0.1,0.1,0.2,0.2,0.2,0.2c0.1,0.1,0.1,0.1,0.2,0.2
			c0.1,0.1,0.2,0.1,0.3,0.2c0.1,0.1,0.2,0.1,0.2,0.2c0.1,0.1,0.2,0.1,0.3,0.2c0.1,0,0.2,0.1,0.2,0.1c0.1,0.1,0.2,0.1,0.3,0.1
			c0.1,0,0.2,0.1,0.3,0.1c0.1,0,0.2,0.1,0.3,0.1c0.1,0,0.2,0.1,0.3,0.1c0.1,0,0.2,0.1,0.3,0.1c0.1,0,0.2,0,0.4,0.1
			c0.1,0,0.2,0,0.3,0c0.2,0,0.4,0,0.6,0c0,0,0,0,0.1,0l0,0l0,0c0,0,0,0,0,0c0.2,0,0.3,0,0.5,0c0,0,0,0,0,0c0.1,0,0.2,0,0.3,0
			c0.1,0,0.2,0,0.2,0c0.1,0,0.1,0,0.2,0l0,0c0.1,0,0.2,0,0.2-0.1c0.1,0,0.2,0,0.3-0.1c0,0,0,0,0,0s0,0,0.1,0c0.1,0,0.2-0.1,0.2-0.1
			c0.1,0,0.1,0,0.2-0.1s0.1,0,0.2-0.1c0,0,0,0,0,0c0.1,0,0.1-0.1,0.2-0.1c0,0,0.1,0,0.1,0c0.1,0,0.1-0.1,0.2-0.1c0,0,0.1,0,0.1-0.1
			c0.1,0,0.1-0.1,0.2-0.1c0.1,0,0.1-0.1,0.1-0.1c0,0,0.1,0,0.1-0.1c0,0,0.1-0.1,0.1-0.1c0.1,0,0.1-0.1,0.2-0.1c0,0,0,0,0.1-0.1
			c0.1,0,0.1-0.1,0.2-0.1c0,0,0.1-0.1,0.1-0.1c0,0,0.1-0.1,0.1-0.1l0,0c0.1,0,0.1-0.1,0.1-0.1c0.1-0.1,0.1-0.1,0.2-0.2
			c0,0,0,0,0.1-0.1c0,0,0,0,0.1-0.1l0,0l0,0c0,0,0.1-0.1,0.1-0.1c0.1-0.1,0.1-0.2,0.2-0.3c0-0.1,0.1-0.1,0.1-0.2
			c0.1-0.1,0.1-0.2,0.2-0.3c0-0.1,0.1-0.1,0.1-0.2c0.1-0.1,0.1-0.2,0.2-0.3c0,0,0-0.1,0-0.1c0,0,0,0.1,0,0.1
			c0.1,0.1,0.1,0.2,0.2,0.3c0,0.1,0.1,0.1,0.1,0.2c0.1,0.1,0.1,0.2,0.2,0.3c0,0.1,0.1,0.1,0.1,0.2c0.1,0.1,0.1,0.2,0.2,0.3
			c0,0,0.1,0.1,0.1,0.1l0,0l0,0c0,0,0,0,0.1,0.1c0,0,0,0,0.1,0.1c0.1,0.1,0.1,0.1,0.2,0.2c0,0.1,0.1,0.1,0.1,0.1l0,0
			c0,0,0.1,0.1,0.1,0.1c0,0,0.1,0.1,0.1,0.1c0.1,0,0.1,0.1,0.2,0.1c0,0,0,0,0.1,0.1c0.1,0,0.1,0.1,0.2,0.1c0,0,0.1,0.1,0.1,0.1
			c0,0,0.1,0,0.1,0.1c0,0,0.1,0.1,0.1,0.1c0.1,0,0.1,0.1,0.2,0.1c0,0,0.1,0,0.1,0.1c0.1,0,0.1,0.1,0.2,0.1c0,0,0.1,0,0.1,0
			c0.1,0,0.1,0.1,0.2,0.1c0,0,0,0,0,0c0.1,0,0.1,0,0.2,0.1c0.1,0,0.1,0,0.2,0.1c0.1,0,0.2,0.1,0.2,0.1c0,0,0,0,0.1,0c0,0,0,0,0,0
			c0.1,0,0.2,0,0.3,0.1c0.1,0,0.2,0,0.2,0.1l0,0c0.1,0,0.1,0,0.2,0c0.1,0,0.2,0,0.2,0c0.1,0,0.2,0,0.3,0c0,0,0,0,0,0
			c0.2,0,0.3,0,0.5,0c0,0,0,0,0,0l0,0l0,0c0,0,0,0,0.1,0c0.2,0,0.4,0,0.6,0c0.1,0,0.2,0,0.3,0c0.1,0,0.2,0,0.4-0.1
			c0.1,0,0.2-0.1,0.3-0.1c0.1,0,0.2-0.1,0.3-0.1c0.1,0,0.2-0.1,0.3-0.1c0.1,0,0.2-0.1,0.3-0.1c0.1,0,0.2-0.1,0.3-0.1
			c0.1,0,0.2-0.1,0.2-0.1c0.1-0.1,0.2-0.1,0.3-0.2c0.1-0.1,0.2-0.1,0.2-0.2c0.1-0.1,0.2-0.1,0.3-0.2c0.1-0.1,0.1-0.1,0.2-0.2
			c0.1-0.1,0.2-0.2,0.2-0.2c0,0,0.1-0.1,0.1-0.1c0,0,0.1-0.1,0.1-0.1c0,0,0.1-0.1,0.1-0.1c0-0.1,0.1-0.1,0.1-0.2
			c0.1-0.1,0.1-0.2,0.2-0.3c0-0.1,0.1-0.1,0.1-0.2c0.1-0.1,0.1-0.2,0.2-0.3c0-0.1,0.1-0.1,0.1-0.2c0.1-0.1,0.1-0.2,0.2-0.3
			c0-0.1,0.1-0.1,0.1-0.2c0.1-0.1,0.1-0.3,0.1-0.4c0,0,0-0.1,0-0.1c0-0.2,0.1-0.3,0.1-0.5c0,0,0-0.1,0-0.1c0.1-0.4,0.1-0.8,0.1-1.2
			v0v0C274.9,18.2,274.9,18,274.9,17.8z"/>
		<g>
			<circle class="st2" cx="269" cy="18.4" r="4.7"/>
			<circle class="st0" cx="268" cy="17.4" r="2"/>
		</g>
		<g>
			<circle class="st2" cx="258" cy="18.4" r="4.7"/>
			<circle class="st0" cx="258.9" cy="17.4" r="2"/>
		</g>
		<polygon class="st0" points="262,24 263.5,26 265.1,24 263.5,22.1 		"/>
		<path class="st0" d="M263.6,6.8c-2.4,0-4.6,0.8-6.4,2.1v2.2c1.7-1.6,3.9-2.5,6.4-2.5c2.5,0,4.8,1,6.4,2.6V8.9
			C268.2,7.6,266,6.8,263.6,6.8z"/>
		<path class="st0" d="M263.6,0l-12.1,5.9l2.2,1v1.1l-0.4,0.8V11h1.3V8.7l-0.4-0.7V7.1l2.4,1.1c0,0,1.9-2.2,7-2.2c5.1,0,7,2.2,7,2.2
			l4.8-2.2L263.6,0z"/>
	</g>
	<g>
		<path class="st0" d="M282.9,12.3c-0.8,0-1.6-0.2-2.2-0.5s-1.1-0.9-1.4-1.5c-0.3-0.7-0.5-1.4-0.5-2.4c0-0.9,0.2-1.7,0.5-2.4
			c0.3-0.7,0.8-1.2,1.4-1.5c0.6-0.4,1.3-0.5,2.2-0.5c0.8,0,1.6,0.2,2.2,0.5c0.6,0.4,1.1,0.9,1.4,1.5c0.3,0.7,0.5,1.4,0.5,2.3
			c0,0.9-0.2,1.7-0.5,2.4c-0.3,0.7-0.8,1.2-1.4,1.5C284.4,12.2,283.7,12.3,282.9,12.3z M282.9,11.1c0.8,0,1.4-0.3,1.9-0.8
			c0.5-0.5,0.7-1.3,0.7-2.4s-0.2-1.8-0.7-2.4c-0.5-0.5-1.1-0.8-1.9-0.8c-0.8,0-1.4,0.3-1.9,0.8s-0.7,1.3-0.7,2.4s0.2,1.8,0.7,2.4
			C281.4,10.8,282.1,11.1,282.9,11.1z"/>
		<path class="st0" d="M289.2,12.2l-2.4-6.1h1.6l1.7,4.7h-0.3l1.7-4.7h1.1l1.7,4.7h-0.3l1.7-4.7h1.5l-2.4,6.1h-1.3l-1.9-4.9h0.7
			l-1.8,4.9H289.2z"/>
		<path class="st0" d="M297.3,12.2V3.3h1.5v8.9L297.3,12.2L297.3,12.2z"/>
		<path class="st0" d="M304.8,11.6c-0.3,0.2-0.7,0.4-1.1,0.6c-0.4,0.1-0.9,0.2-1.3,0.2c-0.7,0-1.2-0.1-1.7-0.4
			c-0.5-0.2-0.9-0.6-1.1-1.1c-0.3-0.5-0.4-1-0.4-1.7c0-0.6,0.1-1.2,0.4-1.7c0.2-0.5,0.6-0.9,1-1.1c0.4-0.3,1-0.4,1.5-0.4
			c0.6,0,1.1,0.1,1.5,0.4c0.4,0.2,0.7,0.6,0.9,1.1c0.2,0.5,0.3,1,0.3,1.6v0.2h-4.4l0-0.8h3.4l-0.4,0.4c0-0.6-0.1-1-0.3-1.3
			c-0.2-0.3-0.6-0.5-1-0.5c-0.5,0-0.9,0.2-1.1,0.5c-0.3,0.3-0.4,0.8-0.4,1.5c0,0.7,0.1,1.3,0.4,1.6s0.8,0.5,1.4,0.5
			c0.3,0,0.7-0.1,1-0.2c0.3-0.1,0.6-0.3,0.9-0.5L304.8,11.6z"/>
		<path class="st0" d="M308.1,14.9c-0.9,0-1.8-0.2-2.5-0.6l0.2-1.2c0.4,0.2,0.7,0.3,1.1,0.4c0.4,0.1,0.7,0.1,1.1,0.1
			c0.5,0,0.9-0.1,1.2-0.4c0.3-0.3,0.4-0.7,0.4-1.2v-1.5h0.1c-0.1,0.3-0.2,0.5-0.5,0.7c-0.2,0.2-0.5,0.4-0.7,0.5
			c-0.3,0.1-0.6,0.2-1,0.2c-0.5,0-1-0.1-1.4-0.4c-0.4-0.2-0.7-0.6-1-1.1c-0.2-0.5-0.3-1-0.3-1.6s0.1-1.2,0.3-1.6
			c0.2-0.5,0.6-0.8,1-1.1c0.4-0.3,0.9-0.4,1.4-0.4c0.5,0,1,0.1,1.4,0.4c0.4,0.3,0.7,0.6,0.8,1l-0.1,0V6.1h1.5V12
			c0,1-0.3,1.7-0.8,2.2C309.9,14.7,309.2,14.9,308.1,14.9z M308.1,10.9c0.5,0,0.9-0.2,1.2-0.5c0.3-0.3,0.4-0.8,0.4-1.4
			s-0.1-1-0.4-1.4c-0.3-0.3-0.7-0.5-1.2-0.5c-0.5,0-0.9,0.2-1.2,0.5c-0.3,0.3-0.4,0.8-0.4,1.4s0.1,1,0.4,1.4
			C307.2,10.7,307.6,10.9,308.1,10.9z"/>
		<path class="st0" d="M317.2,11.6c-0.3,0.2-0.7,0.4-1.1,0.6c-0.4,0.1-0.9,0.2-1.3,0.2c-0.7,0-1.2-0.1-1.7-0.4
			c-0.5-0.2-0.9-0.6-1.1-1.1c-0.3-0.5-0.4-1-0.4-1.7c0-0.6,0.1-1.2,0.4-1.7c0.2-0.5,0.6-0.9,1-1.1c0.4-0.3,1-0.4,1.5-0.4
			c0.6,0,1.1,0.1,1.5,0.4c0.4,0.2,0.7,0.6,0.9,1.1s0.3,1,0.3,1.6v0.2H313l0-0.8h3.4L316,8.8c0-0.6-0.1-1-0.3-1.3
			c-0.2-0.3-0.6-0.5-1-0.5c-0.5,0-0.9,0.2-1.1,0.5c-0.3,0.3-0.4,0.8-0.4,1.5c0,0.7,0.1,1.3,0.4,1.6s0.8,0.5,1.4,0.5
			c0.3,0,0.7-0.1,1-0.2c0.3-0.1,0.6-0.3,0.9-0.5L317.2,11.6z"/>
	</g>
	<path class="st0" d="M340.5,22.1H281c-1.1,0-2.1-0.9-2.1-2.1v-3.2c0-1.1,0.9-2.1,2.1-2.1h59.5c1.1,0,2.1,0.9,2.1,2.1V20
		C342.6,21.2,341.7,22.1,340.5,22.1z"/>
	<g>
		<path class="st2" d="M283.5,19.6c0.3,0.1,0.7,0.3,1.1,0.3c0.5,0,0.7-0.2,0.7-0.5c0-0.3-0.2-0.4-0.7-0.6c-0.7-0.3-1.2-0.7-1.2-1.3
			c0-0.8,0.6-1.3,1.7-1.3c0.5,0,0.9,0.1,1.1,0.2l-0.2,0.8c-0.2-0.1-0.5-0.2-0.9-0.2c-0.4,0-0.6,0.2-0.6,0.4c0,0.3,0.3,0.4,0.8,0.6
			c0.8,0.3,1.1,0.7,1.1,1.3c0,0.7-0.6,1.4-1.8,1.4c-0.5,0-1-0.1-1.3-0.3L283.5,19.6z"/>
		<path class="st2" d="M289.6,18.8H288v1.1h1.8v0.8H287v-4.4h2.7v0.8H288V18h1.6V18.8z"/>
		<path class="st2" d="M293.8,20.6c-0.2,0.1-0.6,0.2-1.1,0.2c-1.5,0-2.3-1-2.3-2.2c0-1.5,1.1-2.4,2.4-2.4c0.5,0,0.9,0.1,1.1,0.2
			l-0.2,0.8c-0.2-0.1-0.5-0.2-0.8-0.2c-0.8,0-1.4,0.5-1.4,1.5c0,0.9,0.5,1.4,1.4,1.4c0.3,0,0.6-0.1,0.8-0.1L293.8,20.6z"/>
		<path class="st2" d="M295.4,16.2v2.5c0,0.8,0.3,1.1,0.8,1.1c0.5,0,0.8-0.4,0.8-1.1v-2.5h1v2.5c0,1.4-0.7,2-1.8,2
			c-1.1,0-1.8-0.6-1.8-2v-2.5H295.4z"/>
		<path class="st2" d="M298.9,16.3c0.3-0.1,0.8-0.1,1.3-0.1c0.7,0,1.1,0.1,1.4,0.3c0.3,0.2,0.4,0.5,0.4,0.9c0,0.6-0.4,1-0.8,1.1v0
			c0.3,0.1,0.5,0.4,0.6,0.8c0.1,0.5,0.3,1.1,0.4,1.2h-1c-0.1-0.1-0.2-0.5-0.3-1c-0.1-0.6-0.3-0.7-0.7-0.7h-0.3v1.7h-1V16.3z
			 M299.9,18.2h0.4c0.5,0,0.8-0.2,0.8-0.6c0-0.4-0.3-0.6-0.7-0.6c-0.2,0-0.4,0-0.5,0V18.2z"/>
		<path class="st2" d="M305.4,18.8h-1.6v1.1h1.8v0.8h-2.8v-4.4h2.7v0.8h-1.7V18h1.6V18.8z"/>
		<path class="st2" d="M307.7,19.6c0.3,0.1,0.7,0.3,1.1,0.3c0.5,0,0.7-0.2,0.7-0.5c0-0.3-0.2-0.4-0.7-0.6c-0.7-0.3-1.2-0.7-1.2-1.3
			c0-0.8,0.6-1.3,1.7-1.3c0.5,0,0.9,0.1,1.1,0.2l-0.2,0.8c-0.2-0.1-0.5-0.2-0.9-0.2c-0.4,0-0.6,0.2-0.6,0.4c0,0.3,0.3,0.4,0.8,0.6
			c0.8,0.3,1.1,0.7,1.1,1.3c0,0.7-0.6,1.4-1.8,1.4c-0.5,0-1-0.1-1.3-0.3L307.7,19.6z"/>
		<path class="st2" d="M312.2,16.2V18h1.7v-1.7h1v4.4h-1v-1.9h-1.7v1.9h-1v-4.4H312.2z"/>
		<path class="st2" d="M319.8,18.4c0,1.5-0.9,2.3-2.2,2.3c-1.3,0-2.1-1-2.1-2.3c0-1.3,0.8-2.3,2.2-2.3
			C319,16.2,319.8,17.2,319.8,18.4z M316.6,18.5c0,0.9,0.4,1.5,1.1,1.5c0.7,0,1.1-0.6,1.1-1.5c0-0.8-0.4-1.5-1.1-1.5
			C317,17,316.6,17.6,316.6,18.5z"/>
		<path class="st2" d="M320.4,16.3c0.3-0.1,0.7-0.1,1.4-0.1c0.6,0,1.1,0.1,1.4,0.4c0.3,0.2,0.5,0.6,0.5,1c0,0.4-0.1,0.8-0.4,1.1
			c-0.3,0.3-0.8,0.5-1.4,0.5c-0.1,0-0.2,0-0.3,0v1.6h-1V16.3z M321.4,18.3c0.1,0,0.2,0,0.3,0c0.5,0,0.9-0.3,0.9-0.7
			c0-0.4-0.3-0.7-0.8-0.7c-0.2,0-0.3,0-0.4,0V18.3z"/>
		<path class="st2" d="M324.2,16.3c0.3-0.1,0.7-0.1,1.4-0.1c0.6,0,1.1,0.1,1.4,0.4c0.3,0.2,0.5,0.6,0.5,1c0,0.4-0.1,0.8-0.4,1.1
			c-0.3,0.3-0.8,0.5-1.4,0.5c-0.1,0-0.3,0-0.3,0v1.6h-1V16.3z M325.2,18.3c0.1,0,0.2,0,0.3,0c0.5,0,0.9-0.3,0.9-0.7
			c0-0.4-0.3-0.7-0.8-0.7c-0.2,0-0.3,0-0.4,0V18.3z"/>
		<path class="st2" d="M329.1,16.2v4.4h-1v-4.4H329.1z"/>
		<path class="st2" d="M329.9,20.7v-4.4h1.2l0.9,1.6c0.3,0.5,0.5,1,0.7,1.5h0c-0.1-0.6-0.1-1.2-0.1-1.8v-1.3h0.9v4.4h-1.1l-0.9-1.7
			c-0.3-0.5-0.6-1-0.8-1.6l0,0c0,0.6,0,1.2,0,1.9v1.3H329.9z"/>
		<path class="st2" d="M338.2,20.5c-0.3,0.1-0.9,0.3-1.5,0.3c-0.8,0-1.4-0.2-1.8-0.6c-0.4-0.4-0.6-1-0.6-1.6c0-1.5,1.1-2.3,2.5-2.3
			c0.6,0,1,0.1,1.2,0.2l-0.2,0.8c-0.2-0.1-0.5-0.2-1-0.2c-0.8,0-1.5,0.5-1.5,1.4c0,0.9,0.6,1.5,1.4,1.5c0.2,0,0.4,0,0.5-0.1v-0.9
			h-0.7v-0.8h1.7V20.5z"/>
	</g>
</g>
</svg>
