<?xml version="1.0" encoding="utf-8"?>
<!-- Generator: Adobe Illustrator 22.0.1, SVG Export Plug-In . SVG Version: 6.00 Build 0)  -->
<svg version="1.1" id="Capa_1" xmlns="http://www.w3.org/2000/svg" xmlns:xlink="http://www.w3.org/1999/xlink" x="0px" y="0px"
	 viewBox="0 0 1175 512" style="enable-background:new 0 0 1175 512;" xml:space="preserve">
<style type="text/css">
	.st0{fill:#A0A3B7;}
	.st1{fill:#FAFAFA;}
</style>
<g>
	<path class="st0" d="M440.4,64.4l-213.3-64c-2-0.6-4.1-0.6-6.1,0L7.6,64.4C3.1,65.8,0,70,0,74.7v234.7
		c0,94.3,143.8,178.2,220.8,202.2c2.1,0.7,4.3,0.7,6.4,0c76.9-24,220.8-107.9,220.8-202.2V74.7C448,70,444.9,65.8,440.4,64.4z"/>
	<path class="st1" d="M202.7,341.3c-2.8,0-5.5-1.1-7.6-3.1l-85.3-85.3c-4.1-4.2-4-11,0.3-15.1c4.1-4,10.7-4,14.8,0l77.8,59.5
		l141.8-123.5c4.1-4.2,10.8-4.4,15.1-0.3c4.2,4.1,4.4,10.8,0.3,15.1c-0.1,0.1-0.2,0.2-0.3,0.3L210.2,338.2
		C208.2,340.2,205.5,341.3,202.7,341.3z"/>
</g>
<g>
	<path class="st0" d="M573.4,446.3c-7.3-2.2-13.1-5.3-17.5-9.3c-2-1.7-3-3.9-3-6.6c0-1.9,0.5-3.5,1.6-4.9c1.1-1.3,2.3-2,3.8-2
		c1.5,0,3.3,0.7,5.4,2.1c9.5,7,20.3,10.6,32.5,10.6c8.5,0,15.1-1.6,19.7-4.8c4.6-3.2,6.9-7.8,6.9-13.8c0-4.7-2.1-8.2-6.4-10.6
		c-4.3-2.3-11.1-4.6-20.5-6.7c-9-1.9-16.3-4.1-22.1-6.6c-5.8-2.5-10.3-5.8-13.5-10c-3.3-4.2-4.9-9.6-4.9-16.1
		c0-6.5,1.8-12.3,5.4-17.4c3.6-5.1,8.6-9,15-11.8c6.4-2.8,13.7-4.2,21.9-4.2c7.6,0,14.6,1.1,21,3.2c6.4,2.1,11.8,5.3,16.3,9.4
		c2.1,1.8,3.2,4,3.2,6.6c0,1.8-0.6,3.4-1.7,4.8c-1.1,1.4-2.4,2.1-3.9,2.1c-1.4,0-3.1-0.7-5.3-2.1c-4.9-3.7-9.5-6.4-13.8-8.1
		c-4.3-1.7-9.5-2.5-15.6-2.5c-8.2,0-14.6,1.7-19.2,5c-4.6,3.4-6.9,8-6.9,14c0,5.1,2,9,6.1,11.6c4.1,2.6,10.6,5,19.5,7.1
		c9.4,2.1,17,4.3,22.8,6.6c5.8,2.3,10.5,5.4,13.9,9.4c3.5,4,5.2,9.1,5.2,15.4c0,6.4-1.8,12.1-5.4,17c-3.6,5-8.6,8.8-15,11.5
		c-6.5,2.7-13.9,4.1-22.3,4.1C588.4,449.6,580.7,448.5,573.4,446.3z"/>
	<path class="st0" d="M661.7,446.2c-1.4-1.4-2.2-3.4-2.2-5.8v-96.8c0-2.5,0.7-4.4,2.2-5.8c1.4-1.4,3.4-2.2,6-2.2h58.9
		c2.5,0,4.3,0.6,5.7,1.8c1.3,1.2,2,2.8,2,5c0,2.1-0.7,3.8-2,4.9c-1.3,1.1-3.2,1.7-5.7,1.7h-50.9v35.5h47.7c2.5,0,4.3,0.6,5.7,1.8
		c1.3,1.2,2,2.8,2,5c0,2.1-0.7,3.8-2,5c-1.3,1.2-3.2,1.8-5.7,1.8h-47.7v37.3h50.9c5.1,0,7.7,2.2,7.7,6.6c0,2.1-0.7,3.8-2,5
		c-1.3,1.2-3.2,1.8-5.7,1.8h-58.9C665.1,448.3,663.1,447.6,661.7,446.2z"/>
	<path class="st0" d="M773.6,442.7c-8-4.6-14.1-11.3-18.4-20c-4.3-8.7-6.4-19-6.4-30.8c0-11.7,2.1-21.9,6.4-30.6
		c4.3-8.7,10.4-15.4,18.4-20c8-4.6,17.4-7,28.2-7c7,0,13.7,1.1,20,3.3c6.3,2.2,11.8,5.4,16.5,9.5c2,1.6,3,3.7,3,6.4
		c0,1.9-0.5,3.5-1.6,4.9c-1.1,1.3-2.3,2-3.8,2c-1.8,0-3.6-0.7-5.3-2.1c-5.1-3.8-9.8-6.5-14-8.1c-4.2-1.5-9-2.3-14.3-2.3
		c-11.7,0-20.7,3.8-27,11.4c-6.3,7.6-9.4,18.5-9.4,32.6c0,14.3,3.1,25.2,9.4,32.8c6.3,7.6,15.3,11.4,27,11.4c5.1,0,9.8-0.8,14-2.4
		c4.2-1.6,9-4.3,14.3-8c2.1-1.4,3.9-2.1,5.3-2.1c1.5,0,2.8,0.7,3.8,2c1.1,1.3,1.6,3,1.6,4.9c0,2.7-1,4.8-3,6.4
		c-4.7,4.2-10.2,7.3-16.5,9.5c-6.3,2.2-13,3.3-20,3.3C791,449.6,781.6,447.3,773.6,442.7z"/>
	<path class="st0" d="M871.8,437.9c-7.8-7.8-11.7-19.3-11.7-34.4v-60.5c0-2.6,0.7-4.6,2.2-6.1c1.5-1.5,3.5-2.2,5.9-2.2
		c2.5,0,4.4,0.7,5.9,2.2c1.5,1.5,2.2,3.5,2.2,6.1v61.6c0,10.3,2.5,18.2,7.4,23.5c5,5.3,12.3,8,22.2,8c9.7,0,17.1-2.7,22.1-8
		c5-5.3,7.5-13.2,7.5-23.5v-61.6c0-2.5,0.7-4.5,2.2-6c1.5-1.5,3.5-2.3,5.9-2.3c2.5,0,4.4,0.7,5.9,2.2c1.5,1.5,2.2,3.5,2.2,6.1v60.5
		c0,15-3.9,26.5-11.8,34.3c-7.8,7.8-19.2,11.8-34.2,11.8C891,449.6,879.6,445.7,871.8,437.9z"/>
	<path class="st0" d="M1066.9,442.6c0,1.9-0.8,3.5-2.3,4.9c-1.5,1.3-3.3,2-5.4,2c-3,0-5.4-1.3-7.2-4l-21.4-33.3
		c-2.5-3.8-5.1-6.5-7.8-8.1c-2.8-1.5-6.4-2.3-10.9-2.3h-18.1v39c0,2.6-0.7,4.6-2.2,6.1c-1.4,1.5-3.4,2.2-6,2.2
		c-2.5,0-4.4-0.7-5.9-2.2c-1.5-1.5-2.2-3.5-2.2-6.1v-97.3c0-2.5,0.7-4.4,2.2-5.8c1.4-1.4,3.4-2.2,6-2.2h39.8c12.5,0,22,2.8,28.6,8.3
		c6.6,5.5,9.8,13.7,9.8,24.3c0,8.9-2.5,16-7.5,21.5c-5,5.5-12.2,9-21.4,10.5c2.8,0.7,5.3,2.1,7.5,4s4.4,4.6,6.6,8l16.5,25.9
		C1066.4,439.5,1066.9,441,1066.9,442.6z M1023.5,388.5c8.3,0,14.5-1.6,18.5-4.9c4-3.3,6-8.3,6-15.1c0-6.8-2-11.8-5.9-15
		c-3.9-3.1-10.1-4.7-18.6-4.7h-29.9v39.7H1023.5z"/>
	<path class="st0" d="M1090,446.2c-1.4-1.4-2.2-3.4-2.2-5.8v-96.8c0-2.5,0.7-4.4,2.2-5.8c1.4-1.4,3.4-2.2,6-2.2h58.9
		c2.5,0,4.3,0.6,5.7,1.8c1.3,1.2,2,2.8,2,5c0,2.1-0.7,3.8-2,4.9c-1.3,1.1-3.2,1.7-5.7,1.7H1104v35.5h47.7c2.5,0,4.3,0.6,5.7,1.8
		c1.3,1.2,2,2.8,2,5c0,2.1-0.7,3.8-2,5c-1.3,1.2-3.2,1.8-5.7,1.8H1104v37.3h50.9c5.1,0,7.7,2.2,7.7,6.6c0,2.1-0.7,3.8-2,5
		c-1.3,1.2-3.2,1.8-5.7,1.8H1096C1093.4,448.3,1091.4,447.6,1090,446.2z"/>
</g>
<g>
	<path class="st0" d="M561,280.2c-5.5-5.5-8.2-12.9-8.2-22.3V78.5c0-9.2,2.5-16.2,7.4-21.1c4.9-4.9,12-7.4,21.1-7.4h85.8
		c26.2,0,46.5,6.7,61,19.9c14.5,13.3,21.8,31.8,21.8,55.5c0,23.5-7.3,41.9-22,55.3c-14.6,13.4-34.9,20.1-60.9,20.1h-52.6v57
		c0,9.4-2.8,16.8-8.4,22.3c-5.6,5.5-13.2,8.2-22.8,8.2C573.9,288.4,566.5,285.7,561,280.2z M684.1,147.6c5.5-4.7,8.2-12,8.2-21.8
		c0-19.4-11.2-29.2-33.5-29.2h-44.3v58h44.3C670.1,154.6,678.6,152.3,684.1,147.6z"/>
	<path class="st0" d="M980.6,260.9c0,7.4-3,13.6-8.9,18.8c-5.9,5.1-12.7,7.7-20.3,7.7c-5.1,0-9.8-1.3-14.1-4
		c-4.2-2.7-7.6-6.7-10.1-12.1l-15.1-33.9H803.6l-15.4,33.9c-2.5,5.4-5.9,9.4-10.2,12.1c-4.4,2.7-9.1,4-14.2,4
		c-7.6,0-14.5-2.6-20.6-7.7c-6.2-5.1-9.2-11.4-9.2-18.8c0-4,1-8.2,3-12.4l88.5-181.7c2.9-6,7.2-10.7,12.9-13.9
		c5.7-3.2,12-4.9,18.9-4.9c6.7,0,13,1.6,18.8,4.9c5.8,3.2,10.2,7.9,13.1,13.9l88.5,181.7C979.6,252.7,980.6,256.9,980.6,260.9z
		 M824.4,191.2h67.1l-33.5-74.8L824.4,191.2z"/>
	<path class="st0" d="M1141.2,48c7.4,0,14,2.8,19.9,8.5c5.9,5.7,8.9,12.2,8.9,19.6c0,6.5-2.5,12.6-7.4,18.4l-70.4,81.5v81.8
		c0,9.8-2.8,17.4-8.5,22.6c-5.7,5.3-13,7.9-22,7.9c-9.2,0-16.7-2.6-22.5-7.9c-5.8-5.2-8.7-12.8-8.7-22.6v-81.8l-69.7-81.5
		c-5.1-5.8-7.7-12.1-7.7-18.8c0-7.4,2.9-13.9,8.7-19.4c5.8-5.6,12.4-8.4,19.8-8.4c7.8,0,14.6,3.4,20.5,10.1l59.3,70.4l59.3-70.4
		C1126.6,51.4,1133.4,48,1141.2,48z"/>
</g>
</svg>
